<svg xmlns="http://www.w3.org/2000/svg" xmlns:xlink="http://www.w3.org/1999/xlink" width="1024" height="1024"><defs><linearGradient id="c"><stop offset="0" style="stop-color:#9a9996;stop-opacity:1"/><stop offset="1" style="stop-color:#9a9996;stop-opacity:0"/></linearGradient><linearGradient id="b"><stop offset="0" style="stop-color:#fff;stop-opacity:1"/><stop offset=".5" style="stop-color:#deddda;stop-opacity:1"/><stop offset="1" style="stop-color:#9a9996;stop-opacity:1"/></linearGradient><linearGradient id="a" gradientUnits="userSpaceOnUse"><stop offset="0" stop-color="#c061cb" style="stop-color:#241f31;stop-opacity:1"/><stop offset=".4" stop-color="#ffa348" style="stop-color:#3d3846;stop-opacity:1"/></linearGradient><linearGradient xlink:href="#a" id="d" x1="512" x2="512" y1="0" y2="1025" gradientTransform="translate(1034)" gradientUnits="userSpaceOnUse"/><linearGradient xlink:href="#b" id="g" x1="512" x2="512" y1="448" y2="576" gradientTransform="translate(1034 40)" gradientUnits="userSpaceOnUse"/><linearGradient xlink:href="#c" id="h" x1="1510" x2="1510" y1="508" y2="520" gradientUnits="userSpaceOnUse"/><linearGradient xlink:href="#c" id="i" x1="1512" x2="1512" y1="544" y2="560" gradientUnits="userSpaceOnUse"/><linearGradient xlink:href="#c" id="j" x1="1580" x2="1580" y1="520" y2="528" gradientUnits="userSpaceOnUse"/><linearGradient xlink:href="#c" id="k" x1="1578" x2="1578" y1="588" y2="600" gradientUnits="userSpaceOnUse"/><linearGradient xlink:href="#c" id="l" x1="1512" x2="1512" y1="576" y2="600" gradientUnits="userSpaceOnUse"/><linearGradient xlink:href="#c" id="m" x1="1570" x2="1570" y1="556" y2="576" gradientUnits="userSpaceOnUse"/><linearGradient xlink:href="#c" id="n" x1="1540" x2="1540" y1="560" y2="568" gradientUnits="userSpaceOnUse"/><linearGradient xlink:href="#c" id="o" x1="1540" x2="1540" y1="500" y2="508" gradientUnits="userSpaceOnUse"/><linearGradient xlink:href="#c" id="p" x1="1554" x2="1554" y1="524" y2="536" gradientUnits="userSpaceOnUse"/><linearGradient xlink:href="#b" id="f" x1="512" x2="512" y1="448" y2="576" gradientTransform="translate(1034 40)" gradientUnits="userSpaceOnUse"/><linearGradient xlink:href="#b" id="e" x1="512" x2="512" y1="448" y2="576" gradientTransform="matrix(2 0 0 2 522 -472)" gradientUnits="userSpaceOnUse"/></defs><g style="display:inline"><path d="M1034 0h1024v1024H1034z" style="opacity:1;fill:url(#d);fill-opacity:1;stroke-width:1.99902;paint-order:stroke markers fill" transform="translate(-1034)"/><g transform="translate(-1034)"><circle cx="1546" cy="552" r="128" style="opacity:1;fill:url(#e);fill-opacity:1;stroke-width:3.8534;paint-order:stroke markers fill;filter:url(#filter1234)"/><circle cx="1546" cy="552" r="64" style="display:inline;fill:url(#f);fill-opacity:1;stroke-width:1.9267;paint-order:stroke markers fill;filter:url(#filter7360)"/><circle cx="1546" cy="552" r="64" style="opacity:1;fill:url(#g);fill-opacity:1;stroke-width:1.9267;paint-order:stroke markers fill"/><circle cx="1510" cy="514" r="6" style="opacity:1;fill:url(#h);fill-opacity:1;stroke-width:2;paint-order:stroke markers fill"/><circle cx="1512" cy="552" r="8" style="opacity:1;fill:url(#i);fill-opacity:1;stroke-width:2.66667;paint-order:stroke markers fill"/><circle cx="1580" cy="524" r="4" style="opacity:1;fill:url(#j);fill-opacity:1;stroke-width:1.33334;paint-order:stroke markers fill"/><circle cx="1578" cy="594" r="6" style="opacity:1;fill:url(#k);fill-opacity:1;stroke-width:2;paint-order:stroke markers fill"/><circle cx="1512" cy="588" r="12" style="opacity:1;fill:url(#l);fill-opacity:1;stroke-width:4;paint-order:stroke markers fill"/><circle cx="1570" cy="566" r="10" style="opacity:1;fill:url(#m);fill-opacity:1;stroke-width:3.33333;paint-order:stroke markers fill"/><circle cx="1540" cy="564" r="4" style="opacity:1;fill:url(#n);fill-opacity:1;stroke-width:1.33334;paint-order:stroke markers fill"/><circle cx="1540" cy="504" r="4" style="opacity:1;fill:url(#o);fill-opacity:1;stroke-width:1.33334;paint-order:stroke markers fill"/><circle cx="1554" cy="530" r="6" style="opacity:1;fill:url(#p);fill-opacity:1;stroke-width:2;paint-order:stroke markers fill"/></g><path fill="#272234" d="m0 718 14.2-6.8c14.1-6.9 42.5-20.5 71-17.2 28.5 3.3 57.1 23.7 85.6 20.2 28.5-3.5 56.9-30.9 85.2-34.2 28.3-3.3 56.7 17.3 85.2 20.8s57.1-10.1 85.6-18.6c28.5-8.5 56.9-11.9 85.2 12 28.3 23.8 56.7 74.8 85.2 90.1 28.5 15.4 57.1-5 85.6-22 28.5-17 56.9-30.6 85.2-32.3 28.3-1.7 56.7 8.7 85.2-5s57.1-51.3 85.6-66.8c28.5-15.5 56.9-8.9 71-5.5l14.2 3.3v-94l-14.2-5.2c-14.1-5.1-42.5-15.5-71-12s-57.1 20.9-85.6 39.7c-28.5 18.8-56.9 39.2-85.2 51-28.3 11.8-56.7 15.2-85.2 30.5s-57.1 42.7-85.6 30.8C568.7 685 540.3 634 512 603.3c-28.3-30.6-56.7-41-85.2-41s-57.1 10.4-85.6 13.7c-28.5 3.3-56.9-.3-85.2-.3-28.3 0-56.7 3.6-85.2-9.9s-57.1-44.1-85.6-40.8c-28.5 3.3-56.9 40.7-71 59.3L0 603Z"/><path fill="#231e30" d="m0 820 14.2-13.7c14.1-13.6 42.5-41 71-47.8 28.5-6.8 57.1 6.8 85.6 1.8 28.5-5 56.9-28.6 85.2-25.1 28.3 3.5 56.7 34.1 85.2 46 28.5 11.8 57.1 4.8 85.6-3.7 28.5-8.5 56.9-18.5 85.2-3.2 28.3 15.4 56.7 56 85.2 67.9 28.5 11.8 57.1-5.2 85.6-12 28.5-6.9 56.9-3.5 85.2-3.5 28.3 0 56.7-3.4 85.2-20.4s57.1-47.6 85.6-54.5c28.5-6.8 56.9 10.2 71 18.7l14.2 8.5V654l-14.2-3.3c-14.1-3.4-42.5-10-71 5.5s-57.1 53.1-85.6 66.8c-28.5 13.7-56.9 3.3-85.2 5-28.3 1.7-56.7 15.3-85.2 32.3-28.5 17-57.1 37.4-85.6 22-28.5-15.3-56.9-66.3-85.2-90.1-28.3-23.9-56.7-20.5-85.2-12s-57.1 22.1-85.6 18.6c-28.5-3.5-56.9-24.1-85.2-20.8-28.3 3.3-56.7 30.7-85.2 34.2-28.5 3.5-57.1-16.9-85.6-20.2-28.5-3.3-56.9 10.3-71 17.2L0 716Z"/><path fill="#221d2e" d="m0 851 14.2-13.7c14.1-13.6 42.5-41 71-42.6 28.5-1.7 57.1 22.3 85.6 22.3 28.5 0 56.9-24 85.2-24 28.3 0 56.7 24 85.2 29.2 28.5 5.1 57.1-8.5 85.6-17.2 28.5-8.7 56.9-12.3 85.2 3 28.3 15.3 56.7 49.7 85.2 60 28.5 10.3 57.1-3.3 85.6-6.8 28.5-3.5 56.9 3.1 85.2 1.5 28.3-1.7 56.7-11.7 85.2-25.4 28.5-13.6 57.1-31 85.6-31 28.5 0 56.9 17.4 71 26l14.2 8.7v-64l-14.2-8.5c-14.1-8.5-42.5-25.5-71-18.7-28.5 6.9-57.1 37.5-85.6 54.5-28.5 17-56.9 20.4-85.2 20.4-28.3 0-56.7-3.4-85.2 3.5-28.5 6.8-57.1 23.8-85.6 12-28.5-11.9-56.9-52.5-85.2-67.9-28.3-15.3-56.7-5.3-85.2 3.2s-57.1 15.5-85.6 3.7c-28.5-11.9-56.9-42.5-85.2-46-28.3-3.5-56.7 20.1-85.2 25.1s-57.1-8.6-85.6-1.8c-28.5 6.8-56.9 34.2-71 47.8L0 818Z"/><path fill="#201c2c" d="m0 912 14.2-11.8c14.1-11.9 42.5-35.5 71-40.5s57.1 8.6 85.6 10.3c28.5 1.7 56.9-8.7 85.2-.2 28.3 8.5 56.7 35.9 85.2 37.5 28.5 1.7 57.1-22.3 85.6-32.6 28.5-10.4 56.9-7 85.2 3.3 28.3 10.3 56.7 27.7 85.2 29.5 28.5 1.8 57.1-11.8 85.6-15.3 28.5-3.5 56.9 3.1 85.2 10 28.3 6.8 56.7 13.8 85.2 3.6 28.5-10.1 57.1-37.5 85.6-39.3 28.5-1.8 56.9 21.8 71 33.7L1024 912v-73l-14.2-8.7c-14.1-8.6-42.5-26-71-26s-57.1 17.4-85.6 31C824.7 849 796.3 859 768 860.7c-28.3 1.6-56.7-5-85.2-1.5s-57.1 17.1-85.6 6.8c-28.5-10.3-56.9-44.7-85.2-60-28.3-15.3-56.7-11.7-85.2-3s-57.1 22.3-85.6 17.2C312.7 815 284.3 791 256 791c-28.3 0-56.7 24-85.2 24s-57.1-24-85.6-22.3c-28.5 1.6-56.9 29-71 42.6L0 849Z"/><path fill="#1f1b29" d="m0 943 14.2-3.3c14.1-3.4 42.5-10 71-10s57.1 6.6 85.6 8.3c28.5 1.7 56.9-1.7 85.2 1.8 28.3 3.5 56.7 13.9 85.2 13.9s57.1-10.4 85.6-8.7c28.5 1.7 56.9 15.3 85.2 20.5 28.3 5.2 56.7 1.8 85.2.2 28.5-1.7 57.1-1.7 85.6-1.7 28.5 0 56.9 0 85.2-1.8 28.3-1.9 56.7-5.5 85.2-12.4 28.5-6.8 57.1-16.8 85.6-13.3 28.5 3.5 56.9 20.5 71 29l14.2 8.5v-64l-14.2-11.8c-14.1-11.9-42.5-35.5-71-33.7-28.5 1.8-57.1 29.2-85.6 39.3-28.5 10.2-56.9 3.2-85.2-3.6-28.3-6.9-56.7-13.5-85.2-10s-57.1 17.1-85.6 15.3c-28.5-1.8-56.9-19.2-85.2-29.5-28.3-10.3-56.7-13.7-85.2-3.3-28.5 10.3-57.1 34.3-85.6 32.6-28.5-1.6-56.9-29-85.2-37.5-28.3-8.5-56.7 1.9-85.2.2s-57.1-15.3-85.6-10.3c-28.5 5-56.9 28.6-71 40.5L0 910Z"/><path fill="#1d1a27" d="m0 994 14.2-1.7c14.1-1.6 42.5-5 71-3.1 28.5 1.8 57.1 8.8 85.6 8.8 28.5 0 56.9-7 85.2-8.8 28.3-1.9 56.7 1.5 85.2-1.9 28.5-3.3 57.1-13.3 85.6-11.5 28.5 1.9 56.9 15.5 85.2 22.4 28.3 6.8 56.7 6.8 85.2 6.8h85.6c28.5 0 56.9 0 85.2-3.5 28.3-3.5 56.7-10.5 85.2-12.3 28.5-1.9 57.1 1.5 85.6 5 28.5 3.5 56.9 7.1 71 9l14.2 1.8v-33l-14.2-8.5c-14.1-8.5-42.5-25.5-71-29s-57.1 6.5-85.6 13.3c-28.5 6.9-56.9 10.5-85.2 12.4-28.3 1.8-56.7 1.8-85.2 1.8s-57.1 0-85.6 1.7c-28.5 1.6-56.9 5-85.2-.2-28.3-5.2-56.7-18.8-85.2-20.5-28.5-1.7-57.1 8.7-85.6 8.7-28.5 0-56.9-10.4-85.2-13.9-28.3-3.5-56.7-.1-85.2-1.8s-57.1-8.3-85.6-8.3c-28.5 0-56.9 6.6-71 10L0 941Z"/><path fill="#1c1925" d="M0 1025h1024v-22l-14.2-1.8c-14.1-1.9-42.5-5.5-71-9s-57.1-6.9-85.6-5c-28.5 1.8-56.9 8.8-85.2 12.3-28.3 3.5-56.7 3.5-85.2 3.5h-85.6c-28.5 0-56.9 0-85.2-6.8-28.3-6.9-56.7-20.5-85.2-22.4-28.5-1.8-57.1 8.2-85.6 11.5-28.5 3.4-56.9 0-85.2 1.9-28.3 1.8-56.7 8.8-85.2 8.8s-57.1-7-85.6-8.8c-28.5-1.9-56.9 1.5-71 3.1L0 992Z"/><path fill="#272234" d="m0 718 14.2-6.8c14.1-6.9 42.5-20.5 71-17.2 28.5 3.3 57.1 23.7 85.6 20.2 28.5-3.5 56.9-30.9 85.2-34.2 28.3-3.3 56.7 17.3 85.2 20.8s57.1-10.1 85.6-18.6c28.5-8.5 56.9-11.9 85.2 12 28.3 23.8 56.7 74.8 85.2 90.1 28.5 15.4 57.1-5 85.6-22 28.5-17 56.9-30.6 85.2-32.3 28.3-1.7 56.7 8.7 85.2-5s57.1-51.3 85.6-66.8c28.5-15.5 56.9-8.9 71-5.5l14.2 3.3v-94l-14.2-5.2c-14.1-5.1-42.5-15.5-71-12s-57.1 20.9-85.6 39.7c-28.5 18.8-56.9 39.2-85.2 51-28.3 11.8-56.7 15.2-85.2 30.5s-57.1 42.7-85.6 30.8C568.7 685 540.3 634 512 603.3c-28.3-30.6-56.7-41-85.2-41s-57.1 10.4-85.6 13.7c-28.5 3.3-56.9-.3-85.2-.3-28.3 0-56.7 3.6-85.2-9.9s-57.1-44.1-85.6-40.8c-28.5 3.3-56.9 40.7-71 59.3L0 603Z"/><path fill="#231e30" d="m0 820 14.2-13.7c14.1-13.6 42.5-41 71-47.8 28.5-6.8 57.1 6.8 85.6 1.8 28.5-5 56.9-28.6 85.2-25.1 28.3 3.5 56.7 34.1 85.2 46 28.5 11.8 57.1 4.8 85.6-3.7 28.5-8.5 56.9-18.5 85.2-3.2 28.3 15.4 56.7 56 85.2 67.9 28.5 11.8 57.1-5.2 85.6-12 28.5-6.9 56.9-3.5 85.2-3.5 28.3 0 56.7-3.4 85.2-20.4s57.1-47.6 85.6-54.5c28.5-6.8 56.9 10.2 71 18.7l14.2 8.5V654l-14.2-3.3c-14.1-3.4-42.5-10-71 5.5s-57.1 53.1-85.6 66.8c-28.5 13.7-56.9 3.3-85.2 5-28.3 1.7-56.7 15.3-85.2 32.3-28.5 17-57.1 37.4-85.6 22-28.5-15.3-56.9-66.3-85.2-90.1-28.3-23.9-56.7-20.5-85.2-12s-57.1 22.1-85.6 18.6c-28.5-3.5-56.9-24.1-85.2-20.8-28.3 3.3-56.7 30.7-85.2 34.2-28.5 3.5-57.1-16.9-85.6-20.2-28.5-3.3-56.9 10.3-71 17.2L0 716Z"/><path fill="#221d2e" d="m0 851 14.2-13.7c14.1-13.6 42.5-41 71-42.6 28.5-1.7 57.1 22.3 85.6 22.3 28.5 0 56.9-24 85.2-24 28.3 0 56.7 24 85.2 29.2 28.5 5.1 57.1-8.5 85.6-17.2 28.5-8.7 56.9-12.3 85.2 3 28.3 15.3 56.7 49.7 85.2 60 28.5 10.3 57.1-3.3 85.6-6.8 28.5-3.5 56.9 3.1 85.2 1.5 28.3-1.7 56.7-11.7 85.2-25.4 28.5-13.6 57.1-31 85.6-31 28.5 0 56.9 17.4 71 26l14.2 8.7v-64l-14.2-8.5c-14.1-8.5-42.5-25.5-71-18.7-28.5 6.9-57.1 37.5-85.6 54.5-28.5 17-56.9 20.4-85.2 20.4-28.3 0-56.7-3.4-85.2 3.5-28.5 6.8-57.1 23.8-85.6 12-28.5-11.9-56.9-52.5-85.2-67.9-28.3-15.3-56.7-5.3-85.2 3.2s-57.1 15.5-85.6 3.7c-28.5-11.9-56.9-42.5-85.2-46-28.3-3.5-56.7 20.1-85.2 25.1s-57.1-8.6-85.6-1.8c-28.5 6.8-56.9 34.2-71 47.8L0 818Z"/><path fill="#201c2c" d="m0 912 14.2-11.8c14.1-11.9 42.5-35.5 71-40.5s57.1 8.6 85.6 10.3c28.5 1.7 56.9-8.7 85.2-.2 28.3 8.5 56.7 35.9 85.2 37.5 28.5 1.7 57.1-22.3 85.6-32.6 28.5-10.4 56.9-7 85.2 3.3 28.3 10.3 56.7 27.7 85.2 29.5 28.5 1.8 57.1-11.8 85.6-15.3 28.5-3.5 56.9 3.1 85.2 10 28.3 6.8 56.7 13.8 85.2 3.6 28.5-10.1 57.1-37.5 85.6-39.3 28.5-1.8 56.9 21.8 71 33.7L1024 912v-73l-14.2-8.7c-14.1-8.6-42.5-26-71-26s-57.1 17.4-85.6 31C824.7 849 796.3 859 768 860.7c-28.3 1.6-56.7-5-85.2-1.5s-57.1 17.1-85.6 6.8c-28.5-10.3-56.9-44.7-85.2-60-28.3-15.3-56.7-11.7-85.2-3s-57.1 22.3-85.6 17.2C312.7 815 284.3 791 256 791c-28.3 0-56.7 24-85.2 24s-57.1-24-85.6-22.3c-28.5 1.6-56.9 29-71 42.6L0 849Z"/><path fill="#1f1b29" d="m0 943 14.2-3.3c14.1-3.4 42.5-10 71-10s57.1 6.6 85.6 8.3c28.5 1.7 56.9-1.7 85.2 1.8 28.3 3.5 56.7 13.9 85.2 13.9s57.1-10.4 85.6-8.7c28.5 1.7 56.9 15.3 85.2 20.5 28.3 5.2 56.7 1.8 85.2.2 28.5-1.7 57.1-1.7 85.6-1.7 28.5 0 56.9 0 85.2-1.8 28.3-1.9 56.7-5.5 85.2-12.4 28.5-6.8 57.1-16.8 85.6-13.3 28.5 3.5 56.9 20.5 71 29l14.2 8.5v-64l-14.2-11.8c-14.1-11.9-42.5-35.5-71-33.7-28.5 1.8-57.1 29.2-85.6 39.3-28.5 10.2-56.9 3.2-85.2-3.6-28.3-6.9-56.7-13.5-85.2-10s-57.1 17.1-85.6 15.3c-28.5-1.8-56.9-19.2-85.2-29.5-28.3-10.3-56.7-13.7-85.2-3.3-28.5 10.3-57.1 34.3-85.6 32.6-28.5-1.6-56.9-29-85.2-37.5-28.3-8.5-56.7 1.9-85.2.2s-57.1-15.3-85.6-10.3c-28.5 5-56.9 28.6-71 40.5L0 910Z"/><path fill="#1d1a27" d="m0 994 14.2-1.7c14.1-1.6 42.5-5 71-3.1 28.5 1.8 57.1 8.8 85.6 8.8 28.5 0 56.9-7 85.2-8.8 28.3-1.9 56.7 1.5 85.2-1.9 28.5-3.3 57.1-13.3 85.6-11.5 28.5 1.9 56.9 15.5 85.2 22.4 28.3 6.8 56.7 6.8 85.2 6.8h85.6c28.5 0 56.9 0 85.2-3.5 28.3-3.5 56.7-10.5 85.2-12.3 28.5-1.9 57.1 1.5 85.6 5 28.5 3.5 56.9 7.1 71 9l14.2 1.8v-33l-14.2-8.5c-14.1-8.5-42.5-25.5-71-29s-57.1 6.5-85.6 13.3c-28.5 6.9-56.9 10.5-85.2 12.4-28.3 1.8-56.7 1.8-85.2 1.8s-57.1 0-85.6 1.7c-28.5 1.6-56.9 5-85.2-.2-28.3-5.2-56.7-18.8-85.2-20.5-28.5-1.7-57.1 8.7-85.6 8.7-28.5 0-56.9-10.4-85.2-13.9-28.3-3.5-56.7-.1-85.2-1.8s-57.1-8.3-85.6-8.3c-28.5 0-56.9 6.6-71 10L0 941Z"/><path fill="#1c1925" d="M0 1025h1024v-22l-14.2-1.8c-14.1-1.9-42.5-5.5-71-9s-57.1-6.9-85.6-5c-28.5 1.8-56.9 8.8-85.2 12.3-28.3 3.5-56.7 3.5-85.2 3.5h-85.6c-28.5 0-56.9 0-85.2-6.8-28.3-6.9-56.7-20.5-85.2-22.4-28.5-1.8-57.1 8.2-85.6 11.5-28.5 3.4-56.9 0-85.2 1.9-28.3 1.8-56.7 8.8-85.2 8.8s-57.1-7-85.6-8.8c-28.5-1.9-56.9 1.5-71 3.1L0 992Z"/><path fill="#272234" d="m0 718 14.2-6.8c14.1-6.9 42.5-20.5 71-17.2 28.5 3.3 57.1 23.7 85.6 20.2 28.5-3.5 56.9-30.9 85.2-34.2 28.3-3.3 56.7 17.3 85.2 20.8s57.1-10.1 85.6-18.6c28.5-8.5 56.9-11.9 85.2 12 28.3 23.8 56.7 74.8 85.2 90.1 28.5 15.4 57.1-5 85.6-22 28.5-17 56.9-30.6 85.2-32.3 28.3-1.7 56.7 8.7 85.2-5s57.1-51.3 85.6-66.8c28.5-15.5 56.9-8.9 71-5.5l14.2 3.3v-94l-14.2-5.2c-14.1-5.1-42.5-15.5-71-12s-57.1 20.9-85.6 39.7c-28.5 18.8-56.9 39.2-85.2 51-28.3 11.8-56.7 15.2-85.2 30.5s-57.1 42.7-85.6 30.8C568.7 685 540.3 634 512 603.3c-28.3-30.6-56.7-41-85.2-41s-57.1 10.4-85.6 13.7c-28.5 3.3-56.9-.3-85.2-.3-28.3 0-56.7 3.6-85.2-9.9s-57.1-44.1-85.6-40.8c-28.5 3.3-56.9 40.7-71 59.3L0 603Z"/><path fill="#231e30" d="m0 820 14.2-13.7c14.1-13.6 42.5-41 71-47.8 28.5-6.8 57.1 6.8 85.6 1.8 28.5-5 56.9-28.6 85.2-25.1 28.3 3.5 56.7 34.1 85.2 46 28.5 11.8 57.1 4.8 85.6-3.7 28.5-8.5 56.9-18.5 85.2-3.2 28.3 15.4 56.7 56 85.2 67.9 28.5 11.8 57.1-5.2 85.6-12 28.5-6.9 56.9-3.5 85.2-3.5 28.3 0 56.7-3.4 85.2-20.4s57.1-47.6 85.6-54.5c28.5-6.8 56.9 10.2 71 18.7l14.2 8.5V654l-14.2-3.3c-14.1-3.4-42.5-10-71 5.5s-57.1 53.1-85.6 66.8c-28.5 13.7-56.9 3.3-85.2 5-28.3 1.7-56.7 15.3-85.2 32.3-28.5 17-57.1 37.4-85.6 22-28.5-15.3-56.9-66.3-85.2-90.1-28.3-23.9-56.7-20.5-85.2-12s-57.1 22.1-85.6 18.6c-28.5-3.5-56.9-24.1-85.2-20.8-28.3 3.3-56.7 30.7-85.2 34.2-28.5 3.5-57.1-16.9-85.6-20.2-28.5-3.3-56.9 10.3-71 17.2L0 716Z"/><path fill="#221d2e" d="m0 851 14.2-13.7c14.1-13.6 42.5-41 71-42.6 28.5-1.7 57.1 22.3 85.6 22.3 28.5 0 56.9-24 85.2-24 28.3 0 56.7 24 85.2 29.2 28.5 5.1 57.1-8.5 85.6-17.2 28.5-8.7 56.9-12.3 85.2 3 28.3 15.3 56.7 49.7 85.2 60 28.5 10.3 57.1-3.3 85.6-6.8 28.5-3.5 56.9 3.1 85.2 1.5 28.3-1.7 56.7-11.7 85.2-25.4 28.5-13.6 57.1-31 85.6-31 28.5 0 56.9 17.4 71 26l14.2 8.7v-64l-14.2-8.5c-14.1-8.5-42.5-25.5-71-18.7-28.5 6.9-57.1 37.5-85.6 54.5-28.5 17-56.9 20.4-85.2 20.4-28.3 0-56.7-3.4-85.2 3.5-28.5 6.8-57.1 23.8-85.6 12-28.5-11.9-56.9-52.5-85.2-67.9-28.3-15.3-56.7-5.3-85.2 3.2s-57.1 15.5-85.6 3.7c-28.5-11.9-56.9-42.5-85.2-46-28.3-3.5-56.7 20.1-85.2 25.1s-57.1-8.6-85.6-1.8c-28.5 6.8-56.9 34.2-71 47.8L0 818Z"/><path fill="#201c2c" d="m0 912 14.2-11.8c14.1-11.9 42.5-35.5 71-40.5s57.1 8.6 85.6 10.3c28.5 1.7 56.9-8.7 85.2-.2 28.3 8.5 56.7 35.9 85.2 37.5 28.5 1.7 57.1-22.3 85.6-32.6 28.5-10.4 56.9-7 85.2 3.3 28.3 10.3 56.7 27.7 85.2 29.5 28.5 1.8 57.1-11.8 85.6-15.3 28.5-3.5 56.9 3.1 85.2 10 28.3 6.8 56.7 13.8 85.2 3.6 28.5-10.1 57.1-37.5 85.6-39.3 28.5-1.8 56.9 21.8 71 33.7L1024 912v-73l-14.2-8.7c-14.1-8.6-42.5-26-71-26s-57.1 17.4-85.6 31C824.7 849 796.3 859 768 860.7c-28.3 1.6-56.7-5-85.2-1.5s-57.1 17.1-85.6 6.8c-28.5-10.3-56.9-44.7-85.2-60-28.3-15.3-56.7-11.7-85.2-3s-57.1 22.3-85.6 17.2C312.7 815 284.3 791 256 791c-28.3 0-56.7 24-85.2 24s-57.1-24-85.6-22.3c-28.5 1.6-56.9 29-71 42.6L0 849Z"/><path fill="#1f1b29" d="m0 943 14.2-3.3c14.1-3.4 42.5-10 71-10s57.1 6.6 85.6 8.3c28.5 1.7 56.9-1.7 85.2 1.8 28.3 3.5 56.7 13.9 85.2 13.9s57.1-10.4 85.6-8.7c28.5 1.7 56.9 15.3 85.2 20.5 28.3 5.2 56.7 1.8 85.2.2 28.5-1.7 57.1-1.7 85.6-1.7 28.5 0 56.9 0 85.2-1.8 28.3-1.9 56.7-5.5 85.2-12.4 28.5-6.8 57.1-16.8 85.6-13.3 28.5 3.5 56.9 20.5 71 29l14.2 8.5v-64l-14.2-11.8c-14.1-11.9-42.5-35.5-71-33.7-28.5 1.8-57.1 29.2-85.6 39.3-28.5 10.2-56.9 3.2-85.2-3.6-28.3-6.9-56.7-13.5-85.2-10s-57.1 17.1-85.6 15.3c-28.5-1.8-56.9-19.2-85.2-29.5-28.3-10.3-56.7-13.7-85.2-3.3-28.5 10.3-57.1 34.3-85.6 32.6-28.5-1.6-56.9-29-85.2-37.5-28.3-8.5-56.7 1.9-85.2.2s-57.1-15.3-85.6-10.3c-28.5 5-56.9 28.6-71 40.5L0 910Z"/><path fill="#1d1a27" d="m0 994 14.2-1.7c14.1-1.6 42.5-5 71-3.1 28.5 1.8 57.1 8.8 85.6 8.8 28.5 0 56.9-7 85.2-8.8 28.3-1.9 56.7 1.5 85.2-1.9 28.5-3.3 57.1-13.3 85.6-11.5 28.5 1.9 56.9 15.5 85.2 22.4 28.3 6.8 56.7 6.8 85.2 6.8h85.6c28.5 0 56.9 0 85.2-3.5 28.3-3.5 56.7-10.5 85.2-12.3 28.5-1.9 57.1 1.5 85.6 5 28.5 3.5 56.9 7.1 71 9l14.2 1.8v-33l-14.2-8.5c-14.1-8.5-42.5-25.5-71-29s-57.1 6.5-85.6 13.3c-28.5 6.9-56.9 10.5-85.2 12.4-28.3 1.8-56.7 1.8-85.2 1.8s-57.1 0-85.6 1.7c-28.5 1.6-56.9 5-85.2-.2-28.3-5.2-56.7-18.8-85.2-20.5-28.5-1.7-57.1 8.7-85.6 8.7-28.5 0-56.9-10.4-85.2-13.9-28.3-3.5-56.7-.1-85.2-1.8s-57.1-8.3-85.6-8.3c-28.5 0-56.9 6.6-71 10L0 941Z"/><path fill="#1c1925" d="M0 1025h1024v-22l-14.2-1.8c-14.1-1.9-42.5-5.5-71-9s-57.1-6.9-85.6-5c-28.5 1.8-56.9 8.8-85.2 12.3-28.3 3.5-56.7 3.5-85.2 3.5h-85.6c-28.5 0-56.9 0-85.2-6.8-28.3-6.9-56.7-20.5-85.2-22.4-28.5-1.8-57.1 8.2-85.6 11.5-28.5 3.4-56.9 0-85.2 1.9-28.3 1.8-56.7 8.8-85.2 8.8s-57.1-7-85.6-8.8c-28.5-1.9-56.9 1.5-71 3.1L0 992Z"/><path fill="#272234" d="m0 718 14.2-6.8c14.1-6.9 42.5-20.5 71-17.2 28.5 3.3 57.1 23.7 85.6 20.2 28.5-3.5 56.9-30.9 85.2-34.2 28.3-3.3 56.7 17.3 85.2 20.8s57.1-10.1 85.6-18.6c28.5-8.5 56.9-11.9 85.2 12 28.3 23.8 56.7 74.8 85.2 90.1 28.5 15.4 57.1-5 85.6-22 28.5-17 56.9-30.6 85.2-32.3 28.3-1.7 56.7 8.7 85.2-5s57.1-51.3 85.6-66.8c28.5-15.5 56.9-8.9 71-5.5l14.2 3.3v-94l-14.2-5.2c-14.1-5.1-42.5-15.5-71-12s-57.1 20.9-85.6 39.7c-28.5 18.8-56.9 39.2-85.2 51-28.3 11.8-56.7 15.2-85.2 30.5s-57.1 42.7-85.6 30.8C568.7 685 540.3 634 512 603.3c-28.3-30.6-56.7-41-85.2-41s-57.1 10.4-85.6 13.7c-28.5 3.3-56.9-.3-85.2-.3-28.3 0-56.7 3.6-85.2-9.9s-57.1-44.1-85.6-40.8c-28.5 3.3-56.9 40.7-71 59.3L0 603Z"/><path fill="#231e30" d="m0 820 14.2-13.7c14.1-13.6 42.5-41 71-47.8 28.5-6.8 57.1 6.8 85.6 1.8 28.5-5 56.9-28.6 85.2-25.1 28.3 3.5 56.7 34.1 85.2 46 28.5 11.8 57.1 4.8 85.6-3.7 28.5-8.5 56.9-18.5 85.2-3.2 28.3 15.4 56.7 56 85.2 67.9 28.5 11.8 57.1-5.2 85.6-12 28.5-6.9 56.9-3.5 85.2-3.5 28.3 0 56.7-3.4 85.2-20.4s57.1-47.6 85.6-54.5c28.5-6.8 56.9 10.2 71 18.7l14.2 8.5V654l-14.2-3.3c-14.1-3.4-42.5-10-71 5.5s-57.1 53.1-85.6 66.8c-28.5 13.7-56.9 3.3-85.2 5-28.3 1.7-56.7 15.3-85.2 32.3-28.5 17-57.1 37.4-85.6 22-28.5-15.3-56.9-66.3-85.2-90.1-28.3-23.9-56.7-20.5-85.2-12s-57.1 22.1-85.6 18.6c-28.5-3.5-56.9-24.1-85.2-20.8-28.3 3.3-56.7 30.7-85.2 34.2-28.5 3.5-57.1-16.9-85.6-20.2-28.5-3.3-56.9 10.3-71 17.2L0 716Z"/><path fill="#221d2e" d="m0 851 14.2-13.7c14.1-13.6 42.5-41 71-42.6 28.5-1.7 57.1 22.3 85.6 22.3 28.5 0 56.9-24 85.2-24 28.3 0 56.7 24 85.2 29.2 28.5 5.1 57.1-8.5 85.6-17.2 28.5-8.7 56.9-12.3 85.2 3 28.3 15.3 56.7 49.7 85.2 60 28.5 10.3 57.1-3.3 85.6-6.8 28.5-3.5 56.9 3.1 85.2 1.5 28.3-1.7 56.7-11.7 85.2-25.4 28.5-13.6 57.1-31 85.6-31 28.5 0 56.9 17.4 71 26l14.2 8.7v-64l-14.2-8.5c-14.1-8.5-42.5-25.5-71-18.7-28.5 6.9-57.1 37.5-85.6 54.5-28.5 17-56.9 20.4-85.2 20.4-28.3 0-56.7-3.4-85.2 3.5-28.5 6.8-57.1 23.8-85.6 12-28.5-11.9-56.9-52.5-85.2-67.9-28.3-15.3-56.7-5.3-85.2 3.2s-57.1 15.5-85.6 3.7c-28.5-11.9-56.9-42.5-85.2-46-28.3-3.5-56.7 20.1-85.2 25.1s-57.1-8.6-85.6-1.8c-28.5 6.8-56.9 34.2-71 47.8L0 818Z"/><path fill="#201c2c" d="m0 912 14.2-11.8c14.1-11.9 42.5-35.5 71-40.5s57.1 8.6 85.6 10.3c28.5 1.7 56.9-8.7 85.2-.2 28.3 8.5 56.7 35.9 85.2 37.5 28.5 1.7 57.1-22.3 85.6-32.6 28.5-10.4 56.9-7 85.2 3.3 28.3 10.3 56.7 27.7 85.2 29.5 28.5 1.8 57.1-11.8 85.6-15.3 28.5-3.5 56.9 3.1 85.2 10 28.3 6.8 56.7 13.8 85.2 3.6 28.5-10.1 57.1-37.5 85.6-39.3 28.5-1.8 56.9 21.8 71 33.7L1024 912v-73l-14.2-8.7c-14.1-8.6-42.5-26-71-26s-57.1 17.4-85.6 31C824.7 849 796.3 859 768 860.7c-28.3 1.6-56.7-5-85.2-1.5s-57.1 17.1-85.6 6.8c-28.5-10.3-56.9-44.7-85.2-60-28.3-15.3-56.7-11.7-85.2-3s-57.1 22.3-85.6 17.2C312.7 815 284.3 791 256 791c-28.3 0-56.7 24-85.2 24s-57.1-24-85.6-22.3c-28.5 1.6-56.9 29-71 42.6L0 849Z"/><path fill="#1f1b29" d="m0 943 14.2-3.3c14.1-3.4 42.5-10 71-10s57.1 6.6 85.6 8.3c28.5 1.7 56.9-1.7 85.2 1.8 28.3 3.5 56.7 13.9 85.2 13.9s57.1-10.4 85.6-8.7c28.5 1.7 56.9 15.3 85.2 20.5 28.3 5.2 56.7 1.8 85.2.2 28.5-1.7 57.1-1.7 85.6-1.7 28.5 0 56.9 0 85.2-1.8 28.3-1.9 56.7-5.5 85.2-12.4 28.5-6.8 57.1-16.8 85.6-13.3 28.5 3.5 56.9 20.5 71 29l14.2 8.5v-64l-14.2-11.8c-14.1-11.9-42.5-35.5-71-33.7-28.5 1.8-57.1 29.2-85.6 39.3-28.5 10.2-56.9 3.2-85.2-3.6-28.3-6.9-56.7-13.5-85.2-10s-57.1 17.1-85.6 15.3c-28.5-1.8-56.9-19.2-85.2-29.5-28.3-10.3-56.7-13.7-85.2-3.3-28.5 10.3-57.1 34.3-85.6 32.6-28.5-1.6-56.9-29-85.2-37.5-28.3-8.5-56.7 1.9-85.2.2s-57.1-15.3-85.6-10.3c-28.5 5-56.9 28.6-71 40.5L0 910Z"/><path fill="#1d1a27" d="m0 994 14.2-1.7c14.1-1.6 42.5-5 71-3.1 28.5 1.8 57.1 8.8 85.6 8.8 28.5 0 56.9-7 85.2-8.8 28.3-1.9 56.7 1.5 85.2-1.9 28.5-3.3 57.1-13.3 85.6-11.5 28.5 1.9 56.9 15.5 85.2 22.4 28.3 6.8 56.7 6.8 85.2 6.8h85.6c28.5 0 56.9 0 85.2-3.5 28.3-3.5 56.7-10.5 85.2-12.3 28.5-1.9 57.1 1.5 85.6 5 28.5 3.5 56.9 7.1 71 9l14.2 1.8v-33l-14.2-8.5c-14.1-8.5-42.5-25.5-71-29s-57.1 6.5-85.6 13.3c-28.5 6.9-56.9 10.5-85.2 12.4-28.3 1.8-56.7 1.8-85.2 1.8s-57.1 0-85.6 1.7c-28.5 1.6-56.9 5-85.2-.2-28.3-5.2-56.7-18.8-85.2-20.5-28.5-1.7-57.1 8.7-85.6 8.7-28.5 0-56.9-10.4-85.2-13.9-28.3-3.5-56.7-.1-85.2-1.8s-57.1-8.3-85.6-8.3c-28.5 0-56.9 6.6-71 10L0 941Z"/><path fill="#1c1925" d="M0 1025h1024v-22l-14.2-1.8c-14.1-1.9-42.5-5.5-71-9s-57.1-6.9-85.6-5c-28.5 1.8-56.9 8.8-85.2 12.3-28.3 3.5-56.7 3.5-85.2 3.5h-85.6c-28.5 0-56.9 0-85.2-6.8-28.3-6.9-56.7-20.5-85.2-22.4-28.5-1.8-57.1 8.2-85.6 11.5-28.5 3.4-56.9 0-85.2 1.9-28.3 1.8-56.7 8.8-85.2 8.8s-57.1-7-85.6-8.8c-28.5-1.9-56.9 1.5-71 3.1L0 992Z"/><path d="M1238 60a64 64 0 0 0-57.328 35.79A48 48 0 0 0 1162 92a48 48 0 0 0-48 48 48 48 0 0 0 48 48h140a36 36 0 0 0 36-36 36 36 0 0 0-36-36 36 36 0 0 0-.518.037A64 64 0 0 0 1238 60Z" style="opacity:.2;fill:#f6f5f4;stroke-width:2;paint-order:stroke markers fill" transform="translate(-1034)"/><path d="M1812 300a58 58 0 0 0-58 58 58 58 0 0 0 58 58h140a36 36 0 0 0 36-36 36 36 0 0 0-36-36 36 36 0 0 0-14.803 3.197A52 52 0 0 0 1888 312a52 52 0 0 0-30.508 10.047A58 58 0 0 0 1812 300Z" style="opacity:.2;fill:#f6f5f4;stroke-width:2.41667;paint-order:stroke markers fill" transform="translate(-1034)"/><path d="M1480 380a64 64 0 0 0-55.488 32.418A50 50 0 0 0 1404 408a50 50 0 0 0-50 50 50 50 0 0 0 50 50h164a32 32 0 0 0 32-32 32 32 0 0 0-32-32 32 32 0 0 0-25.437 12.719A64 64 0 0 0 1544 444a64 64 0 0 0-64-64z" style="opacity:.2;fill:#f6f5f4;stroke-width:2.08334;paint-order:stroke markers fill" transform="translate(-1034)"/></g></svg>