<svg xmlns="http://www.w3.org/2000/svg" xmlns:svg="http://www.w3.org/2000/svg" id="svg1407" width="16" height="16" version="1.1" viewBox="0 0 16 16"><path id="path22925" fill="#2e3436" d="M 4,0 C 2.3555,0 1,1.3555 1,3 v 10 c 0,1.6445 1.3555,3 3,3 H 7 V 13 H 4 C 3.4453,13 3,12.5547 3,12 V 3 C 3,2.4453 3.4453,2 4,2 h 8 c 0.5703,0 1,0.4297 1,1 v 4 h 2 V 3 C 15,1.3555 13.6445,0 12,0 Z M 8,3 C 5.7891,3 4,4.7891 4,7 v 4 H 7 V 8.7305 C 6.4029,8.3847 6,7.7404 6,7 6,5.8945 6.8945,5 8,5 c 1.1055,0 2,0.8945 2,2 h 2 C 12,4.7891 10.2109,3 8,3 Z"/><path id="path22927" fill="#33d17a" d="M 9.5,8 C 8.668,8 8,8.668 8,9.5 v 5 C 8,15.332 8.668,16 9.5,16 h 5 c 0.832,0 1.5,-0.668 1.5,-1.5 v -5 C 16,8.668 15.332,8 14.5,8 Z m 4.4121,1.6367 c 0.1152,0 0.2301,0.045 0.3184,0.1328 l 0.6367,0.6387 c 0.1765,0.1765 0.1765,0.4602 0,0.6367 l -2.5488,2.5488 -0.6368,0.6368 c -0.1765,0.1765 -0.4601,0.1765 -0.6367,0 L 10.4063,13.5937 9.1328,12.3184 c -0.1765,-0.1766 -0.1765,-0.4602 0,-0.6368 l 0.6367,-0.6367 c 0.1766,-0.1765 0.4602,-0.1765 0.6368,0 L 11.3633,12 13.5938,9.7695 c 0.088,-0.088 0.2031,-0.1328 0.3183,-0.1328 z" class="success"/></svg>