<svg xmlns="http://www.w3.org/2000/svg" xmlns:svg="http://www.w3.org/2000/svg" id="svg1407" width="16" height="16" version="1.1" viewBox="0 0 16 16"><path id="path22925" fill="#2e3436" d="M 4,0 C 2.3555,0 1,1.3555 1,3 v 10 c 0,1.6445 1.3555,3 3,3 H 7 V 13 H 4 C 3.4453,13 3,12.5547 3,12 V 3 C 3,2.4453 3.4453,2 4,2 h 8 c 0.5703,0 1,0.4297 1,1 v 4 h 2 V 3 C 15,1.3555 13.6445,0 12,0 Z M 8,3 C 5.7891,3 4,4.7891 4,7 v 4 H 7 V 8.7305 C 6.4029,8.3847 6,7.7404 6,7 6,5.8945 6.8945,5 8,5 c 1.1055,0 2,0.8945 2,2 h 2 C 12,4.7891 10.2109,3 8,3 Z"/><path id="path292" fill="#ff7800" d="m 9.5,7.9999999 c -0.832031,0 -1.4999997,0.667969 -1.4999997,1.5000001 v 5 c 0,0.832031 0.6679687,1.5 1.4999997,1.5 h 5 c 0.832031,0 1.5,-0.667969 1.5,-1.5 v -5 C 16,8.6679689 15.332031,7.9999999 14.5,7.9999999 Z M 11,9 h 2 v 2.5 c 0,0 0,0.5 -0.5,0.5 h -1 C 11,12 11,11.5 11,11.5 Z m 0.5,4 h 1 c 0.277344,0 0.5,0.222656 0.5,0.5 v 1 c 0,0.277344 -0.222656,0.5 -0.5,0.5 h -1 C 11.222656,15 11,14.777344 11,14.5 v -1 C 11,13.222656 11.222656,13 11.5,13 Z m 0,0" class="warning"/></svg>