<?xml version="1.0" encoding="UTF-8" standalone="no"?>
<!-- Created with Inkscape (http://www.inkscape.org/) -->

<svg
   width="127.99999"
   height="532"
   viewBox="0 0 33.866664 140.75834"
   version="1.1"
   id="svg5"
   xml:space="preserve"
   sodipodi:docname="gradienceisahack.svg"
   inkscape:version="1.2.1 (9c6d41e410, 2022-07-14)"
   inkscape:export-filename="../gradienceisahack.png"
   inkscape:export-xdpi="1536.0001"
   inkscape:export-ydpi="1536.0001"
   xmlns:inkscape="http://www.inkscape.org/namespaces/inkscape"
   xmlns:sodipodi="http://sodipodi.sourceforge.net/DTD/sodipodi-0.dtd"
   xmlns:xlink="http://www.w3.org/1999/xlink"
   xmlns="http://www.w3.org/2000/svg"
   xmlns:svg="http://www.w3.org/2000/svg"><sodipodi:namedview
     id="namedview7"
     pagecolor="#ffffff"
     bordercolor="#000000"
     borderopacity="0.25"
     inkscape:showpageshadow="2"
     inkscape:pageopacity="0.0"
     inkscape:pagecheckerboard="0"
     inkscape:deskcolor="#d1d1d1"
     inkscape:document-units="px"
     showgrid="true"
     inkscape:zoom="2.2614406"
     inkscape:cx="107.45363"
     inkscape:cy="278.14128"
     inkscape:window-width="1280"
     inkscape:window-height="731"
     inkscape:window-x="0"
     inkscape:window-y="0"
     inkscape:window-maximized="1"
     inkscape:current-layer="layer1"><inkscape:grid
       type="xygrid"
       id="grid132"
       empspacing="4"
       originx="1.7196654e-07"
       originy="0" /></sodipodi:namedview><defs
     id="defs2"><pattern
       inkscape:collect="always"
       xlink:href="#pattern3819"
       id="pattern10538"
       patternTransform="matrix(0.26458333,0,0,0.26458333,-10.583332,62.441657)" /><rect
       x="8"
       y="380"
       width="112"
       height="32"
       id="rect10402" /><rect
       x="8"
       y="380"
       width="112"
       height="24.000006"
       id="rect7542" /><pattern
       inkscape:collect="always"
       xlink:href="#pattern6705"
       id="pattern6725"
       patternTransform="matrix(0.1277839,-0.03423959,0.03423959,0.1277839,16.933333,64.558327)" /><linearGradient
       inkscape:collect="always"
       id="linearGradient3834"><stop
         style="stop-color:#1a5fb4;stop-opacity:1;"
         offset="0"
         id="stop3832" /><stop
         style="stop-color:#99c1f1;stop-opacity:1;"
         offset="1"
         id="stop3830" /></linearGradient><linearGradient
       id="linearGradient2771"
       inkscape:swatch="solid"><stop
         style="stop-color:#241f31;stop-opacity:1;"
         offset="0"
         id="stop2769" /></linearGradient><rect
       x="4"
       y="324"
       width="124"
       height="24"
       id="rect748" /><rect
       x="-24"
       y="304"
       width="312"
       height="232"
       id="rect742" /><linearGradient
       inkscape:collect="always"
       id="linearGradient5555"><stop
         style="stop-color:#613583;stop-opacity:1;"
         offset="0"
         id="stop5551" /><stop
         style="stop-color:#1a5fb4;stop-opacity:1;"
         offset="1"
         id="stop5553" /></linearGradient><rect
       x="2240"
       y="5408"
       width="1184"
       height="416"
       id="rect4874" /><linearGradient
       inkscape:collect="always"
       id="linearGradient4764"><stop
         style="stop-color:#57e389;stop-opacity:1;"
         offset="0"
         id="stop4760" /><stop
         style="stop-color:#26a269;stop-opacity:1;"
         offset="1"
         id="stop4762" /></linearGradient><rect
       x="512"
       y="2688"
       width="3072"
       height="768"
       id="rect4195" /><linearGradient
       id="y"
       gradientTransform="matrix(0.16036184,-0.16036184,0.19748235,0.19748235,-313.24422,728.82029)"
       gradientUnits="userSpaceOnUse"
       x1="483.44662"
       x2="497.44662"
       y1="288.67099"
       y2="288.67099"><stop
         offset="0"
         stop-color="#865e3c"
         id="stop2139" /><stop
         offset="0.5"
         stop-color="#b5835a"
         id="stop2141" /><stop
         offset="1"
         stop-color="#865e3c"
         id="stop2143" /></linearGradient><linearGradient
       id="x"
       gradientTransform="matrix(0.28063295,-0.28063295,0.29102685,0.29102685,-225.12917,702.29383)"
       x1="81.999969"
       x2="81.999969"
       xlink:href="#s"
       y1="47.000011"
       y2="65.000015" /><linearGradient
       id="s"
       gradientUnits="userSpaceOnUse"><stop
         offset="0"
         stop-color="#241f31"
         id="stop2121" /><stop
         offset="0.5"
         stop-color="#3d3846"
         id="stop2123" /><stop
         offset="1"
         stop-color="#241f31"
         id="stop2125" /></linearGradient><linearGradient
       id="w"
       gradientTransform="matrix(0.28063295,-0.28063295,0.29102685,0.29102685,-221.76157,698.92624)"
       x1="81.999969"
       x2="81.999969"
       xlink:href="#u"
       y1="47.000011"
       y2="65.000015" /><linearGradient
       id="u"
       gradientUnits="userSpaceOnUse"><stop
         offset="0"
         stop-color="#f5c211"
         id="stop2129" /><stop
         offset="0.5"
         stop-color="#f6d32d"
         id="stop2131" /><stop
         offset="1"
         stop-color="#e5a50a"
         id="stop2133" /></linearGradient><linearGradient
       id="v"
       gradientTransform="matrix(0.28063295,-0.28063295,0.29102685,0.29102685,-228.49677,705.66143)"
       x1="81.999992"
       x2="81.999992"
       xlink:href="#u"
       y1="47.000011"
       y2="65.000015" /><linearGradient
       id="t"
       gradientTransform="matrix(0.28063295,-0.28063295,0.29102685,0.29102685,-231.86436,709.02902)"
       x1="81.999992"
       x2="81.999992"
       xlink:href="#s"
       y1="47.000011"
       y2="65.000015" /><linearGradient
       id="r"
       gradientTransform="matrix(-0.09068012,-0.09068012,-0.28063295,0.28063295,-113.7488,641.92705)"
       x1="46"
       x2="46"
       xlink:href="#n"
       y1="232"
       y2="228" /><linearGradient
       id="n"
       gradientUnits="userSpaceOnUse"><stop
         offset="0"
         stop-color="#9a9996"
         id="stop2110" /><stop
         offset="0.5"
         stop-color="#ffffff"
         id="stop2112" /><stop
         offset="1"
         stop-color="#c0bfbc"
         id="stop2114" /></linearGradient><linearGradient
       id="q"
       gradientTransform="matrix(-0.15200947,-0.15200947,-0.28063295,0.28063295,-104.52971,635.05623)"
       x1="46"
       x2="46"
       xlink:href="#n"
       y1="232"
       y2="228" /><linearGradient
       id="p"
       gradientTransform="matrix(0.22216771,-0.22216771,-0.28063295,-0.28063295,-124.73535,771.44384)"
       x1="46"
       x2="46"
       xlink:href="#n"
       y1="232"
       y2="228" /><linearGradient
       id="o"
       gradientTransform="matrix(-0.11108399,0.11108399,0.28063295,0.28063295,-238.81254,619.48105)"
       x1="46"
       x2="46"
       xlink:href="#n"
       y1="232"
       y2="228" /><clipPath
       id="m"><rect
         height="152"
         width="192"
         id="rect2107"
         x="0"
         y="0" /></clipPath><mask
       id="d"><g
         filter="url(#c)"
         id="g2080"><rect
           fill-opacity="0.7"
           height="128"
           width="128"
           id="rect2078"
           x="0"
           y="0" /></g></mask><filter
       id="c"
       height="1"
       width="1"
       x="0"
       y="0"><feColorMatrix
         in="SourceGraphic"
         type="matrix"
         values="0 0 0 0 1 0 0 0 0 1 0 0 0 0 1 0 0 0 1 0"
         id="feColorMatrix2075" /></filter><clipPath
       id="e"><path
         d="m 16,44 h 40 v 74 H 16 Z m 0,0"
         id="path2083" /></clipPath><clipPath
       id="f"><path
         d="m 24,44 h 96 c 4.41797,0 8,3.582031 8,8 v 72 c 0,4.41797 -3.58203,8 -8,8 H 24 c -4.417969,0 -8,-3.58203 -8,-8 V 52 c 0,-4.417969 3.582031,-8 8,-8 z m 0,0"
         id="path2086" /></clipPath><clipPath
       id="g"><path
         d="m 16,44 h 52 v 61 H 16 Z m 0,0"
         id="path2089" /></clipPath><clipPath
       id="h"><path
         d="m 24,44 h 96 c 4.41797,0 8,3.582031 8,8 v 72 c 0,4.41797 -3.58203,8 -8,8 H 24 c -4.417969,0 -8,-3.58203 -8,-8 V 52 c 0,-4.417969 3.582031,-8 8,-8 z m 0,0"
         id="path2092" /></clipPath><clipPath
       id="i"><path
         d="M 16,44 H 94 V 80 H 16 Z m 0,0"
         id="path2095" /></clipPath><clipPath
       id="j"><path
         d="m 24,44 h 96 c 4.41797,0 8,3.582031 8,8 v 72 c 0,4.41797 -3.58203,8 -8,8 H 24 c -4.417969,0 -8,-3.58203 -8,-8 V 52 c 0,-4.417969 3.582031,-8 8,-8 z m 0,0"
         id="path2098" /></clipPath><clipPath
       id="k"><path
         d="M 16,44 H 81 V 92 H 16 Z m 0,0"
         id="path2101" /></clipPath><clipPath
       id="l"><path
         d="m 24,44 h 96 c 4.41797,0 8,3.582031 8,8 v 72 c 0,4.41797 -3.58203,8 -8,8 H 24 c -4.417969,0 -8,-3.58203 -8,-8 V 52 c 0,-4.417969 3.582031,-8 8,-8 z m 0,0"
         id="path2104" /></clipPath><clipPath
       id="a"><path
         d="M 8,28 H 120 V 44 H 8 Z m 0,0"
         id="path2069" /></clipPath><clipPath
       id="b"><path
         d="m 16,28 h 96 c 4.41797,0 8,3.582031 8,8 v 72 c 0,4.41797 -3.58203,8 -8,8 H 16 c -4.417969,0 -8,-3.58203 -8,-8 V 36 c 0,-4.417969 3.582031,-8 8,-8 z m 0,0"
         id="path2072" /></clipPath><rect
       x="512"
       y="2688"
       width="1809.6219"
       height="879.80066"
       id="rect4253" /><linearGradient
       inkscape:collect="always"
       xlink:href="#linearGradient4764"
       id="linearGradient4766"
       x1="748.22937"
       y1="1439.3333"
       x2="748.22937"
       y2="1540.9332"
       gradientUnits="userSpaceOnUse"
       gradientTransform="matrix(0.04166667,0,0,0.04166667,-14.24286,63.852764)" /><filter
       style="color-interpolation-filters:sRGB"
       inkscape:label="Drop Shadow"
       id="filter4818"
       x="-0.062992126"
       y="-0.18897638"
       width="1.1259843"
       height="1.3779528"><feFlood
         flood-opacity="0.498039"
         flood-color="rgb(0,0,0)"
         result="flood"
         id="feFlood4808" /><feComposite
         in="flood"
         in2="SourceGraphic"
         operator="in"
         result="composite1"
         id="feComposite4810" /><feGaussianBlur
         in="composite1"
         stdDeviation="8"
         result="blur"
         id="feGaussianBlur4812" /><feOffset
         dx="0"
         dy="0"
         result="offset"
         id="feOffset4814" /><feComposite
         in="SourceGraphic"
         in2="offset"
         operator="over"
         result="composite2"
         id="feComposite4816" /></filter><linearGradient
       inkscape:collect="always"
       xlink:href="#linearGradient5555"
       id="linearGradient5557"
       x1="1083.7333"
       y1="0"
       x2="0"
       y2="1083.7333"
       gradientUnits="userSpaceOnUse"
       gradientTransform="scale(0.03125)" /><filter
       style="color-interpolation-filters:sRGB"
       inkscape:label="Drop Shadow"
       id="filter1735"
       x="-0.050393704"
       y="-0.22677185"
       width="1.1007874"
       height="1.4535437"><feFlood
         flood-opacity="0.498039"
         flood-color="rgb(0,0,0)"
         result="flood"
         id="feFlood1725" /><feComposite
         in="flood"
         in2="SourceGraphic"
         operator="in"
         result="composite1"
         id="feComposite1727" /><feGaussianBlur
         in="composite1"
         stdDeviation="0.4"
         result="blur"
         id="feGaussianBlur1729" /><feOffset
         dx="0"
         dy="0"
         result="offset"
         id="feOffset1731" /><feComposite
         in="SourceGraphic"
         in2="offset"
         operator="over"
         result="composite2"
         id="feComposite1733" /></filter><rect
       x="512"
       y="2688"
       width="3072"
       height="768"
       id="rect1741" /><rect
       x="512"
       y="2688"
       width="3052.2688"
       height="1971.8604"
       id="rect1747" /><rect
       x="512"
       y="2688"
       width="3072"
       height="768"
       id="rect1810" /><rect
       x="512"
       y="2688"
       width="3072"
       height="768"
       id="rect1918" /><rect
       x="512"
       y="2688"
       width="3072"
       height="768"
       id="rect1924" /><rect
       x="512"
       y="2688"
       width="1475.1733"
       height="564.77283"
       id="rect2034" /><rect
       x="512"
       y="2688"
       width="1475.1733"
       height="564.77283"
       id="rect2040" /><rect
       x="512"
       y="2688"
       width="1475.1733"
       height="564.77283"
       id="rect2046" /><rect
       x="512"
       y="2688"
       width="1475.1733"
       height="564.77283"
       id="rect2630" /><rect
       x="512"
       y="2688"
       width="1475.1733"
       height="564.77283"
       id="rect2632" /><rect
       x="512"
       y="2688"
       width="1475.1733"
       height="564.77283"
       id="rect2634" /><mask
       id="f-3"><g
         filter="url(#d)"
         id="g3822"
         style="filter:url(#d-6)"><rect
           fill-opacity="0.8"
           height="128"
           width="128"
           id="rect3820"
           x="0"
           y="0" /></g></mask><filter
       id="d-6"
       height="1"
       width="1"
       x="0"
       y="0"><feColorMatrix
         in="SourceGraphic"
         type="matrix"
         values="0 0 0 0 1 0 0 0 0 1 0 0 0 0 1 0 0 0 1 0"
         id="feColorMatrix3808" /></filter><linearGradient
       id="g-7"
       gradientTransform="matrix(0,0.37,-0.98462,0,295.38501,-30.360001)"
       gradientUnits="userSpaceOnUse"
       x1="300"
       x2="428"
       y1="235"
       y2="235"><stop
         offset="0"
         stop-color="#f9f06b"
         id="stop3825" /><stop
         offset="1"
         stop-color="#f5c211"
         id="stop3827" /></linearGradient><rect
       x="512"
       y="2688"
       width="3072"
       height="768"
       id="rect4189" /><linearGradient
       inkscape:collect="always"
       xlink:href="#g-7"
       id="linearGradient4191"
       gradientUnits="userSpaceOnUse"
       gradientTransform="matrix(0,0.37,-0.98462,0,295.38501,-30.360001)"
       x1="300"
       y1="235"
       x2="428"
       y2="235" /><linearGradient
       inkscape:collect="always"
       xlink:href="#g-7"
       id="linearGradient4205"
       x1="63.999992"
       y1="80.640625"
       x2="63.999992"
       y2="128"
       gradientUnits="userSpaceOnUse" /><rect
       x="512"
       y="2688"
       width="3072"
       height="768"
       id="rect4355" /><linearGradient
       inkscape:collect="always"
       xlink:href="#g-7"
       id="linearGradient4357"
       gradientUnits="userSpaceOnUse"
       x1="63.999992"
       y1="80.640625"
       x2="63.999992"
       y2="128" /><mask
       maskUnits="userSpaceOnUse"
       id="mask4414"><g
         id="g4420"
         transform="matrix(3.7795276,0,0,3.7795276,-140.00001,-115.35937)"><g
           filter="url(#d)"
           id="g4418"
           style="filter:url(#d-6)"
           transform="matrix(0.26458333,0,0,0.26458333,37.041669,30.522166)"><rect
             fill-opacity="0.8"
             height="128"
             width="128"
             id="rect4416"
             x="0"
             y="0" /></g></g></mask><mask
       maskUnits="userSpaceOnUse"
       id="mask4422"><g
         id="g4428"
         transform="matrix(3.7795276,0,0,3.7795276,-140.00001,-115.35937)"><g
           filter="url(#d)"
           id="g4426"
           style="filter:url(#d-6)"
           transform="matrix(0.26458333,0,0,0.26458333,37.041669,30.522166)"><rect
             fill-opacity="0.8"
             height="128"
             width="128"
             id="rect4424"
             x="0"
             y="0" /></g></g></mask><rect
       x="512"
       y="2688"
       width="3072"
       height="768"
       id="rect4460" /><rect
       x="512"
       y="2688"
       width="3072"
       height="768"
       id="rect5480" /><mask
       maskUnits="userSpaceOnUse"
       id="mask5482"><text
         xml:space="preserve"
         transform="matrix(0.03691408,0,0,0.03691408,-11.384039,-4.1048073)"
         id="text5486"
         style="font-style:normal;font-variant:normal;font-weight:800;font-stretch:normal;font-size:216.719px;font-family:Cantarell;-inkscape-font-specification:'Cantarell Ultra-Bold';text-align:center;white-space:pre;shape-inside:url(#rect5480);display:inline;fill:#ffffff;paint-order:stroke fill markers"
         x="866.87775"
         y="0"><tspan
           x="1085.7694"
           y="2882.6164"
           id="tspan1447">Why Gradience is a
</tspan><tspan
           x="1739.2843"
           y="3153.5151"
           id="tspan1449">Hack?</tspan></text></mask><mask
       maskUnits="userSpaceOnUse"
       id="mask5504"><text
         xml:space="preserve"
         transform="matrix(0.03691408,0,0,0.03691408,-11.384039,-4.1048173)"
         id="text5508"
         style="font-style:normal;font-variant:normal;font-weight:800;font-stretch:normal;font-size:216.719px;font-family:Cantarell;-inkscape-font-specification:'Cantarell Ultra-Bold';text-align:center;white-space:pre;shape-inside:url(#rect4355);display:inline;fill:#ffffff;paint-order:stroke fill markers"
         x="866.87775"
         y="0"
         clip-path="none"
         mask="none"><tspan
           x="1085.7694"
           y="2882.6164"
           id="tspan1451">Why Gradience is a
</tspan><tspan
           x="1739.2843"
           y="3153.5151"
           id="tspan1453">Hack?</tspan></text></mask><clipPath
       clipPathUnits="userSpaceOnUse"
       id="clipPath7191"><rect
         ry="8"
         rx="7.9999995"
         y="213.92949"
         x="-32.751968"
         height="76"
         width="112.00001"
         id="rect7193"
         style="display:inline;vector-effect:none;fill:#d5d3cf;fill-opacity:1;stroke:none;stroke-width:0.25;stroke-linecap:butt;stroke-linejoin:miter;stroke-miterlimit:4;stroke-dasharray:none;stroke-dashoffset:0;stroke-opacity:1;marker:none;marker-start:none;marker-mid:none;marker-end:none;paint-order:normal;enable-background:new"
         inkscape:label="depth" /></clipPath><clipPath
       clipPathUnits="userSpaceOnUse"
       id="clipPath5396"><rect
         style="display:inline;opacity:1;vector-effect:none;fill:#deddda;fill-opacity:1;stroke:none;stroke-width:0.25;stroke-linecap:butt;stroke-linejoin:miter;stroke-miterlimit:4;stroke-dasharray:none;stroke-dashoffset:0;stroke-opacity:1;marker:none;marker-start:none;marker-mid:none;marker-end:none;paint-order:normal;enable-background:new"
         id="rect5398"
         width="112"
         height="88.00029"
         x="-438.45795"
         y="195.0771"
         rx="7.9999995"
         ry="8" /></clipPath><rect
       x="512"
       y="2688"
       width="3052.2688"
       height="1971.8604"
       id="rect9644" /><rect
       x="512"
       y="2688"
       width="3052.2688"
       height="1971.8604"
       id="rect9650" /><rect
       x="512"
       y="2688"
       width="3052.2688"
       height="1971.8604"
       id="rect9764" /><pattern
       patternUnits="userSpaceOnUse"
       width="16.0002"
       height="16.00016"
       patternTransform="translate(-112,192.00022)"
       id="pattern1654"><g
         fill="#2e3436"
         stroke-width="207.866"
         inkscape:label="symbolic"
         id="g932"
         style="opacity:0.2;fill:#ffffff"><path
           d="M 3,0 C 1.3398517,0 -3.5e-4,1.3398417 0,3 v 2 c 3.5e-4,1.6601583 1.3398517,3 3,3 h 10 c 1.660158,0 3.00035,-1.3398417 3,-3 V 3 C 15.99965,1.3398417 14.660158,0 13,0 Z m 0,2 h 10 c 0.554689,0 0.99988,0.4453106 1,1 v 2 c 1.2e-4,0.5546894 -0.445311,1 -1,1 H 3 C 2.4453106,6 2.00012,5.5546894 2,5 V 3 C 1.99988,2.4453106 2.4453106,2 3,2 Z"
           paint-order="markers stroke fill"
           id="path926"
           style="fill:#ffffff" /><path
           d="m 9.0002101,10.00016 v 5 c 0,0.554 -0.446,1 -1,1 -0.554,0 -1,-0.446 -1,-1 v -5 c 0,-0.554 0.446,-1 1,-1 0.554,0 1,0.446 1,1 z"
           paint-order="markers stroke fill"
           id="path928"
           style="fill:#ffffff" /><path
           d="M 8.0002101,9.00016 H 15.0002 c 0.554,0 1,0.446 1,1 0,0.554 -0.446,1 -1,1 H 8.0002101 c -0.554,0 -1,-0.446 -1,-1 0,-0.554 0.446,-1 1,-1 z"
           paint-order="markers stroke fill"
           id="path930"
           style="fill:#ffffff" /></g></pattern><pattern
       patternUnits="userSpaceOnUse"
       width="24"
       height="24"
       patternTransform="translate(-116,187.99999)"
       id="pattern2758"><g
         id="g2756"
         transform="matrix(3.7795275,0,0,3.7795275,116,-187.99999)"><rect
           style="opacity:1;fill:#ffffff;fill-opacity:0;stroke-width:0.264583;paint-order:stroke fill markers"
           id="rect2752"
           width="6.3499999"
           height="6.3499999"
           x="-30.691666"
           y="49.741665"
           ry="0"
           rx="0" /><rect
           style="fill:url(#pattern1654);stroke:none"
           transform="scale(0.26458333)"
           width="16.0002"
           height="16.00016"
           x="-112"
           y="192.00021"
           id="rect1660" /></g></pattern><pattern
       patternUnits="userSpaceOnUse"
       width="24"
       height="24"
       patternTransform="translate(-39.999995,428.00001)"
       id="pattern3819"><g
         fill="#2e3436"
         stroke-width="207.866"
         inkscape:label="symbolic"
         id="g3815"
         transform="translate(3.9999978,4.0002191)"
         style="fill:#000000"><path
           d="M 3,0 C 1.3398517,0 -3.5e-4,1.3398417 0,3 v 2 c 3.5e-4,1.6601583 1.3398517,3 3,3 h 10 c 1.660158,0 3.00035,-1.3398417 3,-3 V 3 C 15.99965,1.3398417 14.660158,0 13,0 Z m 0,2 h 10 c 0.554689,0 0.99988,0.4453106 1,1 v 2 c 1.2e-4,0.5546894 -0.445311,1 -1,1 H 3 C 2.4453106,6 2.00012,5.5546894 2,5 V 3 C 1.99988,2.4453106 2.4453106,2 3,2 Z"
           paint-order="markers stroke fill"
           id="path3809"
           style="fill:#000000" /><path
           d="m 9.0002101,10.00016 v 5 c 0,0.554 -0.446,1 -1,1 -0.554,0 -1,-0.446 -1,-1 v -5 c 0,-0.554 0.446,-1 1,-1 0.554,0 1,0.446 1,1 z"
           paint-order="markers stroke fill"
           id="path3811"
           style="fill:#000000" /><path
           d="M 8.0002101,9.00016 H 15.0002 c 0.554,0 1,0.446 1,1 0,0.554 -0.446,1 -1,1 H 8.0002101 c -0.554,0 -1,-0.446 -1,-1 0,-0.554 0.446,-1 1,-1 z"
           paint-order="markers stroke fill"
           id="path3813"
           style="fill:#000000" /></g><rect
         style="opacity:1;fill:#ffffff;fill-opacity:0;stroke-width:0.999999;paint-order:stroke fill markers"
         id="rect3817"
         width="24"
         height="24"
         x="0"
         y="0" /></pattern><linearGradient
       inkscape:collect="always"
       xlink:href="#linearGradient3834"
       id="linearGradient3836"
       x1="0"
       y1="110.06666"
       x2="33.866665"
       y2="110.06666"
       gradientUnits="userSpaceOnUse"
       gradientTransform="translate(0,-45.508339)" /><pattern
       patternUnits="userSpaceOnUse"
       width="48.000003"
       height="48.000003"
       patternTransform="translate(-112,351.99999)"
       id="pattern6705"><g
         id="g6703"
         transform="matrix(3.7795275,0,0,3.7795275,112,-351.99999)"><rect
           style="opacity:1;fill:#ffffff;fill-opacity:0;stroke:none;stroke-width:0.424277;paint-order:stroke fill markers"
           id="rect6160"
           width="12.700001"
           height="12.700001"
           x="-29.633333"
           y="93.133331" /><g
           fill="#222222"
           id="g3844"
           transform="matrix(0.26458333,0,0,0.26458333,-28.839583,100.54167)"
           style="fill:#000000"><path
             d="m 7.996094,0 c -1.109375,0 -2,0.890625 -2,2 V 5.003906 C 5.996094,5.636719 5.515625,6 4.996094,6 h -1 c -1.109375,0 -2,0.890625 -2,2 v 1 h 12 V 8 c 0,-1.109375 -0.894532,-2 -2,-2 H 11.019531 C 10.488281,6 9.996094,5.640625 9.996094,5 V 2 c 0,-1.109375 -0.894532,-2 -2,-2 z m 0,1.40625 c 0.324218,0 0.59375,0.265625 0.59375,0.59375 0,0.328125 -0.269532,0.59375 -0.59375,0.59375 -0.328125,0 -0.59375,-0.265625 -0.59375,-0.59375 0,-0.328125 0.265625,-0.59375 0.59375,-0.59375 z m 0,0"
             id="path3840"
             style="fill:#000000" /><path
             d="m 2,10 h 12 l -0.800781,5.003906 C 13,15.824219 12.5,16 11.953125,16 H 10 V 13 L 8.875,16 H 7.027344 L 7,13 5.964844,16 H 5 V 14.5 L 4,16 H 1 l 0.210938,-1.046875 z m 0,0"
             id="path3842"
             style="fill:#000000" /></g><g
           fill="#2e3436"
           stroke-width="207.866"
           inkscape:label="symbolic"
           id="g6636"
           transform="matrix(0.26458333,0,0,0.26458333,-22.225002,100.54164)"
           style="fill:#000000"><path
             d="M 3,0 C 1.3398517,0 -3.5e-4,1.3398417 0,3 v 2 c 3.5e-4,1.6601583 1.3398517,3 3,3 h 10 c 1.660158,0 3.00035,-1.3398417 3,-3 V 3 C 15.99965,1.3398417 14.660158,0 13,0 Z m 0,2 h 10 c 0.554689,0 0.99988,0.4453106 1,1 v 2 c 1.2e-4,0.5546894 -0.445311,1 -1,1 H 3 C 2.4453106,6 2.00012,5.5546894 2,5 V 3 C 1.99988,2.4453106 2.4453106,2 3,2 Z"
             paint-order="markers stroke fill"
             id="path6630"
             style="fill:#000000" /><path
             d="m 9.0002101,10.00016 v 5 c 0,0.554 -0.446,1 -1,1 -0.554,0 -1,-0.446 -1,-1 v -5 c 0,-0.554 0.446,-1 1,-1 0.554,0 1,0.446 1,1 z"
             paint-order="markers stroke fill"
             id="path6632"
             style="fill:#000000" /><path
             d="M 8.0002101,9.00016 H 15.0002 c 0.554,0 1,0.446 1,1 0,0.554 -0.446,1 -1,1 H 8.0002101 c -0.554,0 -1,-0.446 -1,-1 0,-0.554 0.446,-1 1,-1 z"
             paint-order="markers stroke fill"
             id="path6634"
             style="fill:#000000" /></g><g
           fill="#2e3436"
           stroke-width="207.866"
           inkscape:label="symbolic"
           id="g6650"
           transform="matrix(0.26458333,0,0,0.26458333,-28.575,94.191667)"
           style="fill:#000000"><path
             d="M 3,0 C 1.3398517,0 -3.5e-4,1.3398417 0,3 v 2 c 3.5e-4,1.6601583 1.3398517,3 3,3 h 10 c 1.660158,0 3.00035,-1.3398417 3,-3 V 3 C 15.99965,1.3398417 14.660158,0 13,0 Z m 0,2 h 10 c 0.554689,0 0.99988,0.4453106 1,1 v 2 c 1.2e-4,0.5546894 -0.445311,1 -1,1 H 3 C 2.4453106,6 2.00012,5.5546894 2,5 V 3 C 1.99988,2.4453106 2.4453106,2 3,2 Z"
             paint-order="markers stroke fill"
             id="path6644"
             style="fill:#000000" /><path
             d="m 9.0002101,10.00016 v 5 c 0,0.554 -0.446,1 -1,1 -0.554,0 -1,-0.446 -1,-1 v -5 c 0,-0.554 0.446,-1 1,-1 0.554,0 1,0.446 1,1 z"
             paint-order="markers stroke fill"
             id="path6646"
             style="fill:#000000" /><path
             d="M 8.0002101,9.00016 H 15.0002 c 0.554,0 1,0.446 1,1 0,0.554 -0.446,1 -1,1 H 8.0002101 c -0.554,0 -1,-0.446 -1,-1 0,-0.554 0.446,-1 1,-1 z"
             paint-order="markers stroke fill"
             id="path6648"
             style="fill:#000000" /></g><g
           fill="#222222"
           id="g6656"
           transform="matrix(0.26458333,0,0,0.26458333,-21.695833,94.191667)"
           style="fill:#000000"><path
             d="m 7.996094,0 c -1.109375,0 -2,0.890625 -2,2 V 5.003906 C 5.996094,5.636719 5.515625,6 4.996094,6 h -1 c -1.109375,0 -2,0.890625 -2,2 v 1 h 12 V 8 c 0,-1.109375 -0.894532,-2 -2,-2 H 11.019531 C 10.488281,6 9.996094,5.640625 9.996094,5 V 2 c 0,-1.109375 -0.894532,-2 -2,-2 z m 0,1.40625 c 0.324218,0 0.59375,0.265625 0.59375,0.59375 0,0.328125 -0.269532,0.59375 -0.59375,0.59375 -0.328125,0 -0.59375,-0.265625 -0.59375,-0.59375 0,-0.328125 0.265625,-0.59375 0.59375,-0.59375 z m 0,0"
             id="path6652"
             style="fill:#000000" /><path
             d="m 2,10 h 12 l -0.800781,5.003906 C 13,15.824219 12.5,16 11.953125,16 H 10 V 13 L 8.875,16 H 7.027344 L 7,13 5.964844,16 H 5 V 14.5 L 4,16 H 1 l 0.210938,-1.046875 z m 0,0"
             id="path6654"
             style="fill:#000000" /></g></g></pattern><rect
       x="8"
       y="380"
       width="112"
       height="24.000006"
       id="rect8016" /><rect
       x="8"
       y="380"
       width="112"
       height="32"
       id="rect10410" /><rect
       x="8"
       y="380"
       width="112"
       height="32"
       id="rect10420" /><rect
       x="8"
       y="380"
       width="112"
       height="32"
       id="rect10422" /><rect
       x="8"
       y="380"
       width="112"
       height="32"
       id="rect10432" /><rect
       x="8"
       y="380"
       width="112"
       height="32"
       id="rect10434" /></defs><g
     inkscape:label="Слой 1"
     inkscape:groupmode="layer"
     id="layer1"><rect
       style="opacity:1;fill:#ffffff;fill-opacity:1;stroke-width:0.264583;paint-order:stroke fill markers"
       id="rect9586"
       width="33.866665"
       height="8.4666662"
       x="-1.8799776e-15"
       y="33.866657"
       rx="0"
       ry="0" /><g
       clip-path="none"
       mask="url(#f-3)"
       id="g4197"
       transform="matrix(0.26458333,0,0,0.26458333,58.208337,62.272168)"
       inkscape:export-filename="g4197.png"
       inkscape:export-xdpi="384.00006"
       inkscape:export-ydpi="384.00006"><path
         d="M 128,80.640625 V 128 H 0 V 80.640625 Z m 0,0"
         fill="url(#g)"
         id="path4193"
         clip-path="none"
         style="fill:url(#linearGradient4191)" /><path
         d="M 13.308594,80.640625 60.664062,128 H 81.878906 L 34.519531,80.640625 Z m 42.421875,0 L 103.09375,128 h 21.21484 L 76.945312,80.640625 Z m 42.429687,0 L 128,110.48047 V 89.269531 l -8.62891,-8.628906 z M 0,88.546875 V 109.76172 L 18.238281,128 h 21.214844 z m 0,0"
         id="path4195"
         clip-path="none" /></g><rect
       style="fill:url(#linearGradient5557);fill-opacity:1;stroke-width:0.0082682;paint-order:stroke fill markers"
       id="rect236"
       width="33.866665"
       height="33.866665"
       x="0"
       y="0"
       rx="0"
       ry="0"
       inkscape:export-filename="mustard.png"
       inkscape:export-xdpi="384.00003"
       inkscape:export-ydpi="384.00003" /><rect
       style="fill:#2ec27e;fill-opacity:1;stroke-width:0.0143209;paint-order:stroke fill markers"
       id="rect870"
       width="33.866665"
       height="50.800007"
       x="3.7599552e-14"
       y="81.491669"
       inkscape:export-filename="./rect870.png"
       inkscape:export-xdpi="96"
       inkscape:export-ydpi="96" /><rect
       style="fill:#000000;stroke-width:0.00840052;paint-order:stroke fill markers"
       id="rect872"
       width="33.866665"
       height="8.4666624"
       x="5.639933e-14"
       y="132.29167" /><g
       id="g4085"
       transform="matrix(0.42187523,0,0,0.42187523,95.514627,-279.35054)"><path
         d="m -198.96667,688.44582 h 25.4 c 1.16892,0 2.11667,0.94775 2.11667,2.11667 v 15.875 c 0,1.16892 -0.94775,2.11666 -2.11667,2.11666 h -25.4 c -1.16892,0 -2.11666,-0.94774 -2.11666,-2.11666 v -15.875 c 0,-1.16892 0.94774,-2.11667 2.11666,-2.11667 z m 0,0"
         fill="#d5d3cf"
         id="path2146"
         style="stroke-width:0.264583" /><path
         d="m -198.96667,684.74165 h 25.4 c 1.16892,0 2.11667,0.94775 2.11667,2.11667 v 19.05 c 0,1.16892 -0.94775,2.11667 -2.11667,2.11667 h -25.4 c -1.16892,0 -2.11666,-0.94775 -2.11666,-2.11667 v -19.05 c 0,-1.16892 0.94774,-2.11667 2.11666,-2.11667 z m 0,0"
         fill="#fafafa"
         id="path2148"
         style="stroke-width:0.264583" /><g
         clip-path="url(#a)"
         id="g2154"
         transform="matrix(0.26458333,0,0,0.26458333,-203.2,677.33332)"><g
           clip-path="url(#b)"
           id="g2152"><path
             d="M 8,28 H 120 V 44 H 8 Z m 0,0"
             fill="#ebebeb"
             id="path2150" /></g></g><path
         d="m -172.24375,686.85832 c 0,0.7307 -0.59221,1.32292 -1.32292,1.32292 -0.7307,0 -1.32291,-0.59222 -1.32291,-1.32292 0,-0.7307 0.59221,-1.32292 1.32291,-1.32292 0.73071,0 1.32292,0.59222 1.32292,1.32292 z m 0,0"
         fill="#d8d8d8"
         id="path2156"
         style="stroke-width:0.264583" /><path
         d="m -174.22709,686.19686 h 0.11265 c 0.0279,10e-4 0.0568,0.0145 0.0765,0.0341 l 0.47129,0.47232 0.47543,-0.47232 c 0.0289,-0.0248 0.0496,-0.0331 0.0754,-0.0341 h 0.11059 v 0.11059 c 0,0.031 -0.004,0.0599 -0.0279,0.0827 l -0.47129,0.47129 0.46818,0.46922 c 0.0207,0.0207 0.031,0.0496 0.031,0.0785 v 0.11059 h -0.11059 c -0.0289,0 -0.0579,-0.0103 -0.0785,-0.031 l -0.47233,-0.47232 -0.47129,0.47232 c -0.0207,0.0207 -0.0506,0.031 -0.0796,0.031 h -0.11059 v -0.11059 c 0,-0.0289 0.0114,-0.0579 0.031,-0.0785 l 0.47232,-0.46922 -0.47232,-0.47129 c -0.0227,-0.0217 -0.0331,-0.0517 -0.031,-0.0827 z m 0,0"
         fill="#444444"
         id="path2158"
         style="stroke-width:0.264583" /><g
         clip-path="url(#m)"
         mask="url(#d)"
         transform="matrix(0.26458333,0,0,0.26458333,-205.31667,673.09999)"
         id="g2184"><g
           clip-path="url(#e)"
           id="g2164"><g
             clip-path="url(#f)"
             id="g2162"><path
               d="m -25.410156,49.503906 12.726562,-12.730468 67.882813,67.882812 -12.726563,12.72656 z m 0,0"
               id="path2160" /></g></g><g
           clip-path="url(#g)"
           id="g2170"><g
             clip-path="url(#h)"
             id="g2168"><path
               d="M -12.683594,36.773438 0.046875,24.046875 67.929688,91.929688 55.199219,104.65625 Z m 0,0"
               fill="#f6d32d"
               id="path2166" /></g></g><g
           clip-path="url(#i)"
           id="g2176"><g
             clip-path="url(#j)"
             id="g2174"><path
               d="M 12.773438,11.320312 25.5,-1.410156 93.382812,66.472656 80.65625,79.199219 Z m 0,0"
               fill="#f6d32d"
               id="path2172" /></g></g><g
           clip-path="url(#k)"
           id="g2182"><g
             clip-path="url(#l)"
             id="g2180"><path
               d="M 0.046875,24.046875 12.773438,11.320312 80.65625,79.199219 67.929688,91.929688 Z m 0,0"
               id="path2178" /></g></g></g><path
         d="m -180.02002,688.65666 -2.24482,2.24586 c -0.31006,0.31006 -0.31006,0.81235 0,1.12241 0.31005,0.31006 0.81235,0.31006 1.12241,0 l 2.24482,-2.24482 c 0.31006,-0.31006 0.31006,-0.81339 0,-1.12345 -0.31006,-0.31006 -0.81235,-0.31006 -1.12241,0 z m 0,0"
         fill="url(#o)"
         id="path2186"
         style="fill:url(#o);stroke-width:0.264583" /><path
         d="m -183.01312,701.75353 8.04499,-8.04498 c 0.30902,-0.31006 0.30902,-0.81236 0,-1.12241 -0.31006,-0.31006 -0.81339,-0.31006 -1.12345,0 l -8.04395,8.04498 c -0.31006,0.31006 -0.31006,0.81236 0,1.12241 0.30902,0.31006 0.81235,0.31006 1.12241,0 z m 0,0"
         fill="url(#p)"
         id="path2188"
         style="fill:url(#p);stroke-width:0.264583" /><path
         d="m -179.45881,688.42412 v 1.91719 l 2.80706,2.80603 h 1.91616 c 0,-0.20257 -0.0775,-0.40618 -0.23254,-0.5612 l -3.92948,-3.92845 c -0.15503,-0.15606 -0.35863,-0.23357 -0.5612,-0.23357 z m 0,0"
         fill="url(#q)"
         id="path2190"
         style="fill:url(#q);stroke-width:0.264583" /><path
         d="m -182.45191,701.19233 h -1.9172 c 0,0.20257 0.0775,0.40618 0.23358,0.5612 l 2.61896,2.61897 c 0.31109,0.31109 0.81132,0.31109 1.12241,0 0.31109,-0.3111 0.31109,-0.81132 0,-1.12242 z m 0,0"
         fill="url(#r)"
         id="path2192"
         style="fill:url(#r);stroke-width:0.264583" /><path
         d="m -195.73586,700.25699 1.12345,-1.12242 1.12241,-1.12344 5.23792,5.23895 -2.24482,2.24483 c -0.62218,0.62218 -1.62367,0.62218 -2.24482,0 l -2.99414,-2.9931 c -0.62115,-0.62218 -0.62115,-1.62367 0,-2.24482 z m 0,0"
         fill="url(#t)"
         id="path2194"
         style="fill:url(#t);stroke-width:0.264583" /><path
         d="m -193.49,698.01113 3.36724,-3.36724 5.23895,5.23896 -3.36827,3.36723 z m 0,0"
         fill="url(#v)"
         id="path2196"
         style="fill:url(#v);stroke-width:0.264583" /><path
         d="m -185.63311,690.15424 1.12344,-1.12241 c 0.62115,-0.62218 1.62264,-0.62218 2.24483,0 l 2.99309,2.9931 c 0.62219,0.62218 0.62219,1.62264 0,2.24482 l -2.24482,2.24483 -5.23896,-5.23793 z m 0,0"
         fill="url(#w)"
         id="path2198"
         style="fill:url(#w);stroke-width:0.264583" /><path
         d="m -190.12276,694.64389 3.36723,-3.36724 5.23896,5.23793 -3.36724,3.36827 z m 0,0"
         fill="url(#x)"
         id="path2200"
         style="fill:url(#x);stroke-width:0.264583" /><path
         d="m -181.14243,703.62422 c 0.62012,-0.62012 1.6247,-0.62012 2.24482,0 l 4.86482,4.86379 c 0.61909,0.62011 0.61909,1.62574 0,2.24585 -0.62012,0.62012 -1.62574,0.62012 -2.24586,0 l -4.86378,-4.86482 c -0.62012,-0.62011 -0.62012,-1.6247 0,-2.24482 z m 0,0"
         fill="url(#y)"
         id="path2202"
         style="fill:url(#y);stroke-width:0.264583" /><g
         fill="#865e3c"
         id="g2210"
         transform="matrix(0.26458333,0,0,0.26458333,-203.2,677.33332)"><path
           d="m 96.800781,117.04297 4.242189,-4.24219 c 0.39062,-0.39062 1.02344,-0.39062 1.41406,0 0.39063,0.39063 0.39063,1.02344 0,1.41406 l -4.242186,4.2461 c -0.390625,0.38672 -1.023438,0.38672 -1.414063,0 -0.390625,-0.39063 -0.390625,-1.02735 0,-1.41797 z m 0,0"
           id="path2204" /><path
           d="m 99.628906,119.875 4.242184,-4.24609 c 0.39063,-0.39063 1.02344,-0.39063 1.41407,0 0.39062,0.39062 0.39062,1.02343 0,1.41406 l -4.24219,4.24609 c -0.39063,0.39063 -1.02344,0.39063 -1.414064,0 -0.390625,-0.39062 -0.390625,-1.02343 0,-1.41406 z m 0,0"
           id="path2206" /><path
           d="m 102.45703,122.70313 4.24219,-4.24219 c 0.39062,-0.39063 1.02734,-0.39063 1.41797,0 0.39062,0.38672 0.39062,1.02344 0,1.41406 l -4.2461,4.24219 c -0.39062,0.39062 -1.02343,0.39062 -1.41406,0 -0.39062,-0.39063 -0.39062,-1.02344 0,-1.41406 z m 0,0"
           id="path2208" /></g></g><text
       xml:space="preserve"
       transform="matrix(0.00976685,0,0,0.00976685,-3.0616795,0.43601566)"
       id="text4193"
       style="font-style:normal;font-variant:normal;font-weight:800;font-stretch:normal;font-size:216.719px;font-family:Cantarell;-inkscape-font-specification:'Cantarell Ultra-Bold';text-align:center;white-space:pre;shape-inside:url(#rect4195);display:inline;fill:#ffffff;paint-order:stroke fill markers"
       x="866.87775"
       y="0"><tspan
         x="1048.1687"
         y="2882.6164"
         id="tspan1455">Gradience is a hack!</tspan></text><rect
       style="fill:url(#linearGradient4766);fill-opacity:1;stroke-width:0.0110243;paint-order:stroke fill markers;filter:url(#filter1735)"
       id="rect4758"
       width="19.049999"
       height="4.2333298"
       x="7.4083333"
       y="123.82492"
       rx="2.1166666"
       ry="2.1166649" /><text
       xml:space="preserve"
       transform="matrix(0.01516315,0,0,0.01516315,-25.986713,43.116396)"
       id="text4872"
       style="font-style:normal;font-variant:normal;font-weight:800;font-stretch:normal;font-size:85.3333px;font-family:Cantarell;-inkscape-font-specification:'Cantarell Ultra-Bold';text-align:center;white-space:pre;shape-inside:url(#rect4874);display:inline;fill:#ffffff;fill-opacity:1;paint-order:stroke fill markers"
       x="488.5748"
       y="0"><tspan
         x="2325.1639"
         y="5484.6304"
         id="tspan1457">Visit stopthemingmy.app</tspan></text><path
       d="m 21.43269,85.989612 c 0,0 -0.793742,0 -0.793742,0.79379 v 1.32288 c 0,0 0.01141,0.3752 0.007,0.5291 0,0.26459 -0.141588,0.37419 -0.371036,0.56129 -0.166398,0.1291 -0.204639,0.346197 -0.0816,0.449497 0.113686,0.093 0.307997,0.08 0.439245,-0.091 l 0.269747,-0.390697 c 0.185009,-0.26869 0.260448,-0.49609 0.264587,-0.79369 l 9.55e-4,-1.58748 c 0,-0.2646 0.263548,-0.2646 0.263548,-0.2646 v 1.73938 l 0.794766,-0.8134 v -0.66138 c 0,-0.2646 0.263547,-0.2646 0.263547,-0.2646 l 9.55e-4,0.66139 0.528135,-0.5384 c 0.0899,-0.083 0.133317,-0.123 0.264578,-0.123 l 9.55e-4,0.26461 -1.05935,1.05829 h 1.058319 c 0,0 9.54e-4,0.26459 -0.264578,0.26459 h -1.058328 l -0.529157,0.52909 c 0,0.11271 0,0.5313 0.529157,0.5313 h 1.059395 c 0,0 0.793739,0 0.792711,-0.79169 v -2.38328 z m 0,0"
       fill="#2e3436"
       id="path1130"
       style="fill:#241f31;stroke-width:0.26458" /><g
       fill="#2e3436"
       stroke-width="207.866"
       inkscape:label="symbolic"
       id="g1149"
       transform="matrix(0.26458068,0,0,0.26458068,9.525037,85.724952)"
       style="fill:#241f31"><path
         d="M 3,0 C 1.3398517,0 -3.5e-4,1.3398417 0,3 v 2 c 3.5e-4,1.6601583 1.3398517,3 3,3 h 10 c 1.660158,0 3.00035,-1.3398417 3,-3 V 3 C 15.99965,1.3398417 14.660158,0 13,0 Z m 0,2 h 10 c 0.554689,0 0.99988,0.4453106 1,1 v 2 c 1.2e-4,0.5546894 -0.445311,1 -1,1 H 3 C 2.4453106,6 2.00012,5.5546894 2,5 V 3 C 1.99988,2.4453106 2.4453106,2 3,2 Z"
         paint-order="markers stroke fill"
         id="path1143"
         style="fill:#241f31" /><path
         d="m 9.0002101,10.00016 v 5 c 0,0.554 -0.446,1 -1,1 -0.554,0 -1,-0.446 -1,-1 v -5 c 0,-0.554 0.446,-1 1,-1 0.554,0 1,0.446 1,1 z"
         paint-order="markers stroke fill"
         id="path1145"
         style="fill:#241f31" /><path
         d="M 8.0002101,9.00016 H 15.0002 c 0.554,0 1,0.446 1,1 0,0.554 -0.446,1 -1,1 H 8.0002101 c -0.554,0 -1,-0.446 -1,-1 0,-0.554 0.446,-1 1,-1 z"
         paint-order="markers stroke fill"
         id="path1147"
         style="fill:#241f31" /></g><path
       d="m 17.69671,86.513032 c -0.219758,-0.0101 -0.434226,0.073 -0.596623,0.22239 l -0.170339,0.1527 -0.171229,-0.1527 c -0.225057,-0.20299 -0.542794,-0.26919 -0.830511,-0.17389 -0.288607,0.095 -0.503965,0.33629 -0.564863,0.6337 -0.06091,0.29749 0.0415,0.60458 0.268307,0.80588 l 1.298296,1.15619 1.297406,-1.15619 c 0.264778,-0.22859 0.361858,-0.59669 0.244479,-0.92589 -0.117391,-0.32919 -0.425416,-0.55249 -0.774923,-0.56219 z m 0,0"
       fill="#222222"
       id="path1335"
       style="fill:#241f31;stroke-width:0.225943" /><text
       xml:space="preserve"
       transform="matrix(0.00976685,0,0,0.00976685,-3.0616795,67.647684)"
       id="text1739"
       style="font-style:normal;font-variant:normal;font-weight:800;font-stretch:normal;font-size:216.719px;font-family:Cantarell;-inkscape-font-specification:'Cantarell Ultra-Bold';text-align:center;white-space:pre;shape-inside:url(#rect1741);display:inline;fill:#241f31;paint-order:stroke fill markers"
       x="866.87775"
       y="0"><tspan
         x="827.11601"
         y="2882.6164"
         id="tspan1459">Gradience is not against
</tspan><tspan
         x="1017.2862"
         y="3153.5151"
         id="tspan1461">stopthemingmy.app</tspan></text><text
       xml:space="preserve"
       transform="matrix(0.00976685,0,0,0.00976685,-3.0616795,77.254468)"
       id="text1745"
       style="font-style:normal;font-variant:normal;font-weight:normal;font-stretch:normal;font-size:144.48px;font-family:Cantarell;-inkscape-font-specification:Cantarell;text-align:center;white-space:pre;shape-inside:url(#rect1747);display:inline;fill:#241f31;paint-order:stroke fill markers"
       x="866.87775"
       y="0"><tspan
         x="1075.972"
         y="2817.7448"
         id="tspan1463">Gradience Team is not against </tspan><tspan
         x="599.47748"
         y="2998.3449"
         id="tspan1467"><tspan
           dx="0 0 0 0 0 0 0 0 0 0 0 0 0 0 0 0 0 0 0 0 0 0 0 0 0 0 0 0 0 0 0.0001449585 -0.00021362305 0.00022125244 -0.00023651123 0.00022125244 -0.0001373291 0 -0.00015258789 0 0.00019454956"
           id="tspan1465">stopthemingmy.app and Adwaita Developers </tspan></tspan><tspan
         x="530.20046"
         y="3178.945"
         id="tspan1471"><tspan
           dx="0 0 0 0 0 0 0 0 0 0 0 0 0 0 0 0 0 0 0 0 0 0 0 0 0 0 0 0 0 0 0 0 0 0 0 0 0 0 0.0001449585 0 -0.00015258789 0 0 0.0001449585"
           id="tspan1469">idea, Gradience is a tool for tinkers that want to </tspan></tspan><tspan
         x="593.2655"
         y="3359.5451"
         id="tspan1475"><tspan
           dx="0 0 0 0 0 0 0 0 0 0 0 0 0 0 0 0 0 0 0 0 0 0 0 0 0 0 0 0 0 0 0 0 0 0 0 0 0 0.0001373291 0 0 0 0 0 0 -0.00015258789 0.00021362305"
           id="tspan1473">theme their desktops at their liking, and not a </tspan></tspan><tspan
         x="567.4758"
         y="3540.1452"
         id="tspan1479"><tspan
           dx="0 0 0 0 0 0 0 0 0 0 0 0 0 0 0 0 0 0 0 0 0 0 0 0 0 0 0 0 0 0 0 0 0 0 0 0 0 0 0 0 0.00014877319 -0.00015258789 0.0001449585 0 -0.00015258789"
           id="tspan1477">tool for distributions to change theme in them </tspan></tspan><tspan
         x="774.58709"
         y="3720.7453"
         id="tspan1483"><tspan
           dx="0 0 0 0 0 0 0 0 0 0 0 0 0 0 0 0 0 0 0 0 0 0 0 0 0 0 0 0 0 0 0 0 0 0 0 0.00022888184"
           id="tspan1481">by default, Gradience Team agrees with </tspan></tspan><tspan
         x="567.11438"
         y="3901.3454"
         id="tspan1487"><tspan
           dx="0 0 0 0 0 0 0 0 0 0 0 0 0 0 0 0 0 0 0 0 0 0 0 0 0 0 0 0 0 0 0 0 0 0 0 0 0.00021362305"
           id="tspan1485">importance of unified look of Adwaita to make </tspan></tspan><tspan
         x="630.82992"
         y="4081.9455"
         id="tspan1491"><tspan
           dx="0 0 0 0 0 0 0 0 0 0 0 0 0 0 0 0 0 0 0 0 0 0 0 0 0 0 0 0 0 0 0 0 0 0 0 0 0 0 0 0.00010681152 0 -0.00015258789"
           id="tspan1489">sure that all apps work right and Developers </tspan></tspan><tspan
         x="607.2076"
         y="4262.5456"
         id="tspan1495"><tspan
           dx="0 0 0 0 0 0 0 0 0 0 0 0 0 0 0 0 0 0 0 0 0 0 0 0 0 0 0 0 0.00010681152 0 0.00010299683 0 0 0 0 0 0 0 0 0.00014877319 -0.00015258789 0.00020599365"
           id="tspan1493">have unified and stable tool for creating their </tspan></tspan><tspan
         x="1866.6374"
         y="4443.1457"
         id="tspan1497">apps.</tspan></text><g
       clip-path="none"
       mask="url(#f-3)"
       id="g4187"
       transform="matrix(0.26458333,0,0,0.26458333,58.208337,46.397167)"><path
         d="M 128,80.640625 V 128 H 0 V 80.640625 Z m 0,0"
         fill="url(#g)"
         id="path4183"
         clip-path="none"
         style="fill:#000000" /><path
         d="M 13.308594,80.640625 60.664062,128 H 81.878906 L 34.519531,80.640625 Z m 42.421875,0 L 103.09375,128 h 21.21484 L 76.945312,80.640625 Z m 42.429687,0 L 128,110.48047 V 89.269531 l -8.62891,-8.628906 z M 0,88.546875 V 109.76172 L 18.238281,128 h 21.214844 z m 0,0"
         id="path4185"
         clip-path="none"
         style="fill:url(#linearGradient4205);fill-opacity:1" /></g><g
       id="g5512"
       transform="translate(21.166667,42.333335)"><path
         id="path4345"
         clip-path="none"
         d="m -8.4744096e-6,80.640634 v 7.90625 L 39.453117,128.00001 H 60.664055 L 13.308585,80.640634 Z m 34.5195314744096,0 47.359376,47.359376 H 103.09374 L 55.730461,80.640634 Z m 42.425782,0 47.363285,47.359376 h 3.6914 V 110.48048 L 98.160149,80.640634 Z m 42.425785,0 8.6289,8.628906 V 80.640634 Z M -8.4744096e-6,109.76173 v 18.23828 H 18.238273 Z"
         mask="url(#mask5504)"
         transform="matrix(0.26458333,0,0,0.26458333,37.041669,19.938832)"
         style="fill:#000000;fill-opacity:1" /><path
         d="M 13.308594,80.640625 60.664062,128 H 81.878906 L 34.519531,80.640625 Z m 42.421875,0 L 103.09375,128 h 21.21484 L 76.945312,80.640625 Z m 42.429687,0 L 128,110.48047 V 89.269531 l -8.62891,-8.628906 z M 0,88.546875 V 109.76172 L 18.238281,128 h 21.214844 z m 0,0"
         id="path4347"
         clip-path="none"
         style="opacity:1;fill:url(#linearGradient4357);fill-opacity:1"
         mask="url(#mask5482)"
         transform="matrix(0.26458333,0,0,0.26458333,37.041669,19.938832)" /></g><rect
       ry="0.89760286"
       rx="0.89760286"
       y="10.417972"
       x="47.659348"
       height="9.2004299"
       width="12.566441"
       id="rect884-1"
       style="display:inline;vector-effect:none;fill:#d5d3cf;fill-opacity:1;stroke:none;stroke-width:0.0280501;stroke-linecap:butt;stroke-linejoin:miter;stroke-miterlimit:4;stroke-dasharray:none;stroke-dashoffset:0;stroke-opacity:1;marker:none;marker-start:none;marker-mid:none;marker-end:none;paint-order:normal;enable-background:new"
       inkscape:label="depth"
       inkscape:export-filename="../../../../../../../hack.png"
       inkscape:export-xdpi="728.06622"
       inkscape:export-ydpi="728.06622" /><g
       id="g7187"
       transform="matrix(0.11220036,0,0,0.11220036,51.33413,-12.91179)"
       clip-path="url(#clipPath7191)"
       style="display:inline;enable-background:new"><path
         style="display:inline;vector-effect:none;fill:#3d3846;fill-opacity:1;stroke:none;stroke-width:1.62358;stroke-linecap:butt;stroke-linejoin:miter;stroke-miterlimit:4;stroke-dasharray:none;stroke-dashoffset:0;stroke-opacity:1;marker:none;marker-start:none;marker-mid:none;marker-end:none;paint-order:normal;enable-background:new"
         d="m 67.060701,223.68718 -2.28088,6.88201 a 39.907151,39.907151 0 0 0 -0.329235,-0.0166 39.907151,39.907151 0 0 0 -5.520779,0.42726 l -3.184048,-6.57551 a 46.902978,46.902978 0 0 0 -6.783242,1.8393 l 0.527459,7.24557 a 39.907151,39.907151 0 0 0 -5.244522,2.61153 l -5.472109,-4.8688 a 46.902978,46.902978 0 0 0 -5.550834,4.30841 l 3.252775,6.47693 a 39.907151,39.907151 0 0 0 -3.838205,4.43223 l -6.93496,-2.41043 A 46.902978,46.902978 0 0 0 22.2375,250.1503 l 5.474967,4.73138 a 39.907151,39.907151 0 0 0 -1.842165,5.57016 l -7.320714,0.42654 a 46.902978,46.902978 0 0 0 -0.871703,6.97146 l 6.882006,2.28088 a 39.907151,39.907151 0 0 0 -0.01663,0.32923 39.907151,39.907151 0 0 0 0.427257,5.52078 l -6.575691,3.18407 a 46.902978,46.902978 0 0 0 1.839304,6.78324 l 7.245573,-0.52746 a 39.907151,39.907151 0 0 0 2.611525,5.24452 l -4.868787,5.47211 a 46.902978,46.902978 0 0 0 4.308408,5.55084 l 6.476927,-3.25278 a 39.907151,39.907151 0 0 0 4.432226,3.8382 l -2.410424,6.93497 a 46.902978,46.902978 0 0 0 6.111217,3.46462 l 4.731378,-5.47497 a 39.907151,39.907151 0 0 0 5.570159,1.84217 l 0.426546,7.32071 a 46.902978,46.902978 0 0 0 6.971463,0.8717 l 2.280881,-6.882 a 39.907151,39.907151 0 0 0 0.329197,0.0166 39.907151,39.907151 0 0 0 5.520775,-0.42726 l 3.184074,6.57569 a 46.902978,46.902978 0 0 0 6.783239,-1.8393 l -0.527463,-7.24557 a 39.907151,39.907151 0 0 0 5.244525,-2.61153 l 5.472306,4.86859 a 46.902978,46.902978 0 0 0 5.550838,-4.30841 l -3.252783,-6.47693 a 39.907151,39.907151 0 0 0 3.838205,-4.43222 l 6.934964,2.41042 a 46.902978,46.902978 0 0 0 3.46462,-6.11122 l -5.47497,-4.73137 a 39.907151,39.907151 0 0 0 1.84217,-5.57016 l 7.32071,-0.42655 a 46.902978,46.902978 0 0 0 0.87171,-6.97146 l -6.88201,-2.28088 a 39.907151,39.907151 0 0 0 0.0166,-0.3292 39.907151,39.907151 0 0 0 -0.42726,-5.52078 l 6.57569,-3.18407 a 46.902978,46.902978 0 0 0 -1.8393,-6.78324 l -7.24558,0.52746 a 39.907151,39.907151 0 0 0 -2.611522,-5.24452 l 4.868792,-5.47211 a 46.902978,46.902978 0 0 0 -4.30859,-5.55085 l -6.476928,3.25277 a 39.907151,39.907151 0 0 0 -4.432222,-3.8382 l 2.410417,-6.93496 a 46.902978,46.902978 0 0 0 -6.111213,-3.46462 l -4.731375,5.47496 a 39.907151,39.907151 0 0 0 -5.570158,-1.84216 l -0.426546,-7.32071 a 46.902978,46.902978 0 0 0 -6.971464,-0.87171 z m -2.610096,17.48913 A 29.283852,29.283852 0 0 1 93.734192,270.4599 29.283852,29.283852 0 0 1 64.450605,299.74349 29.283852,29.283852 0 0 1 35.167018,270.4599 29.283852,29.283852 0 0 1 64.450605,241.17631 Z"
         id="path18717-4"
         clip-path="none" /><path
         id="path18758"
         d="m -15.344452,186.6263 -2.28088,6.88201 c -0.109716,-0.006 -0.219455,-0.0114 -0.329216,-0.0164 -1.847933,0.0144 -3.692632,0.15719 -5.520779,0.42726 l -3.184068,-6.5757 c -2.303899,0.44259 -4.571343,1.05742 -6.783242,1.83931 l 0.52746,7.24557 c -1.809798,0.74083 -3.562695,1.61369 -5.244522,2.61152 l -5.47211,-4.86879 c -1.955402,1.29532 -3.810886,2.7355 -5.550834,4.30841 l 3.252778,6.47693 c -1.386349,1.3813 -2.669213,2.8627 -3.838207,4.43222 l -6.934958,-2.41042 c -1.306018,1.9476 -2.46414,3.9904 -3.464621,6.11122 l 5.474968,4.73137 c -0.749889,1.80901 -1.365607,3.67076 -1.842165,5.57016 l -7.320715,0.42654 c -0.46445,2.29876 -0.755835,4.62912 -0.871703,6.97146 l 6.882005,2.28088 c -0.0059,0.10972 -0.01141,0.21944 -0.01644,0.3292 0.01444,1.84793 0.157183,3.69263 0.427258,5.52077 l -6.57569,3.18408 c 0.442594,2.3039 1.057419,4.57134 1.839302,6.78324 l 7.245573,-0.52746 c 0.740834,1.80979 1.613694,3.56269 2.611524,5.24452 l -4.868788,5.47211 c 1.295324,1.9554 2.735501,3.81089 4.308409,5.55084 l 6.476927,-3.25278 c 1.381297,1.38634 2.862701,2.66921 4.432222,3.8382 l -2.410422,6.93497 c 1.947599,1.30601 3.990399,2.46414 6.111215,3.46462 l 4.73138,-5.47497 c 1.809006,0.74989 3.670755,1.3656 5.570157,1.84216 l 0.426547,7.32072 c 2.29876,0.46445 4.629117,0.75583 6.971463,0.8717 l 2.28088,-6.882 c 0.109716,0.006 0.219455,0.0113 0.329216,0.0166 1.847932,-0.0144 3.69263,-0.15719 5.520777,-0.42726 l 3.1840721,6.57569 c 2.303898,-0.44259 4.571342,-1.05742 6.7832437,-1.83931 l -0.527472,-7.24573 c 1.8097995,-0.74083 3.56269569,-1.61369 5.2445242,-2.61152 l 5.4721105,4.86879 c 1.9554028,-1.29533 3.8108865,-2.7355 5.5508375,-4.30842 l -3.252783,-6.47693 c 1.38635,-1.38129 2.669212,-2.86269 3.838205,-4.43221 l 6.934965,2.41042 c 1.306019,-1.94761 2.464138,-3.99041 3.464621,-6.11122 l -5.474971,-4.73138 c 0.749888,-1.80901 1.365611,-3.67076 1.842168,-5.57016 l 7.320715,-0.42654 c 0.464451,-2.29876 0.755833,-4.62912 0.871702,-6.97147 l -6.882006,-2.28088 c 0.006,-0.10972 0.01134,-0.21944 0.01663,-0.32919 -0.01436,-1.84794 -0.15719,-3.69264 -0.42726,-5.52078 l 6.575509,-3.18409 c -0.442594,-2.3039 -1.057418,-4.57134 -1.8393,-6.78324 l -7.245574,0.52746 c -0.740836,-1.8098 -1.613695,-3.56269 -2.611525,-5.24452 l 4.868792,-5.47211 c -1.295328,-1.95541 -2.735501,-3.81089 -4.308412,-5.55084 l -6.476928,3.25278 c -1.3812998,-1.38635 -2.8627008,-2.66921 -4.4322215,-3.8382 l 2.4104202,-6.93497 C 6.5187098,193.34452 4.4759129,192.1864 2.3550968,191.18592 l -4.7313778,5.47497 c -1.8090085,-0.74989 -3.6707581,-1.3656 -5.5701601,-1.84216 L -8.3729875,187.498 c -2.2987605,-0.46445 -4.6291185,-0.75583 -6.9714645,-0.8717 z"
         style="display:inline;vector-effect:none;fill:#241f31;fill-opacity:1;stroke:none;stroke-width:1.62358;stroke-linecap:butt;stroke-linejoin:miter;stroke-miterlimit:4;stroke-dasharray:none;stroke-dashoffset:0;stroke-opacity:1;marker:none;marker-start:none;marker-mid:none;marker-end:none;paint-order:normal;enable-background:new"
         clip-path="none" /></g><rect
       style="display:inline;opacity:0.2;fill:#000000;fill-opacity:1;stroke:none;stroke-width:0.0280501;stroke-linecap:butt;stroke-linejoin:miter;stroke-miterlimit:4;stroke-dasharray:none;stroke-dashoffset:0;stroke-opacity:1;marker:none;marker-start:none;marker-mid:none;marker-end:none;paint-order:normal;enable-background:new"
       id="rect8620"
       width="12.56644"
       height="9.8736649"
       x="32.770107"
       y="-37.315937"
       rx="0.89760286"
       ry="0.89760298"
       inkscape:label="window"
       transform="rotate(60)" /><rect
       style="display:inline;fill:#fafafa;fill-opacity:1;stroke:none;stroke-width:0.0280501;stroke-linecap:butt;stroke-linejoin:miter;stroke-miterlimit:4;stroke-dasharray:none;stroke-dashoffset:0;stroke-opacity:1;marker:none;marker-start:none;marker-mid:none;marker-end:none;paint-order:normal;enable-background:new"
       id="rect886-2"
       width="12.56644"
       height="9.8736649"
       x="32.311836"
       y="-37.580521"
       rx="0.89760286"
       ry="0.89760298"
       inkscape:label="window"
       transform="rotate(60)" /><rect
       style="display:inline;fill:#ebebeb;fill-opacity:1;stroke:none;stroke-width:174.54;paint-order:markers stroke fill;enable-background:new"
       id="rect5391"
       width="112"
       height="16"
       x="-438.45795"
       y="195.0771"
       rx="0"
       ry="0"
       clip-path="url(#clipPath5396)"
       inkscape:label="headerbar"
       transform="matrix(0.11220036,0,0,0.11220036,96.854485,-12.367385)" /><circle
       style="display:inline;fill:#d8d8d8;fill-opacity:1;stroke:#deddda;stroke-width:0;stroke-linecap:round;stroke-linejoin:round;stroke-dasharray:none;stroke-dashoffset:34.5;paint-order:markers stroke fill;enable-background:new"
       id="circle2764-2"
       cx="59.32822"
       cy="10.417939"
       r="0.56100172"
       inkscape:label="button" /><path
       d="m 59.048057,10.137438 h 0.04674 0.0013 c 0.01185,3.37e-4 0.02393,0.006 0.03213,0.01461 l 0.200101,0.20014 0.20156,-0.20014 c 0.01243,-0.01076 0.02079,-0.01426 0.03213,-0.01461 h 0.04674 v 0.04675 c 0,0.01334 -0.0017,0.02573 -0.01168,0.03506 l -0.200103,0.200142 0.198642,0.198679 c 0.0088,0.0088 0.01313,0.02119 0.01313,0.03362 v 0.04675 h -0.04675 c -0.01243,0 -0.02486,-0.0044 -0.03357,-0.01313 l -0.200098,-0.200141 -0.200101,0.200141 c -0.0088,0.0088 -0.02118,0.01313 -0.03357,0.01313 h -0.04674 v -0.04675 c 0,-0.01243 0.0045,-0.02486 0.01317,-0.03362 l 0.20006,-0.198679 -0.200099,-0.200142 c -0.0099,-0.0091 -0.01425,-0.02194 -0.01317,-0.03506 z m 0,0"
       fill="#222222"
       id="path2766-3"
       style="display:inline;fill:#444444;fill-opacity:1;stroke-width:0.0467438;enable-background:new"
       inkscape:label="x" /><g
       id="g8949"
       transform="matrix(0.07933764,0.07933764,-0.07933764,0.07933764,53.824329,-18.555064)"
       style="display:inline;enable-background:new"><path
         id="path8935"
         style="opacity:0.2;fill:#000000;fill-opacity:1;paint-order:stroke fill markers"
         d="m 195.63425,193.63741 a 9,9 0 0 0 -2.6347,6.36041 l 0.13352,1.3255 a 9,9 0 0 0 -0.13352,0.67414 l 0.99982,10.00145 0.99982,0.003 0.99982,-10.00145 a 6,6 0 0 1 6.00217,-6.00218 6,6 0 0 1 5.99892,5.99892 l 2.99946,0.003 h 60.99876 l 10.00145,-8.00181 v -1.99964 -1.99964 l -9.9982,5.99891 h -61.94321 a 9,9 0 0 0 -8.06044,-4.99909 9,9 0 0 0 -6.36367,2.63796 z" /></g><g
       id="g7978"
       transform="matrix(0.07933764,0.07933764,-0.07933764,0.07933764,53.824329,-18.819515)"
       style="display:inline;enable-background:new"><path
         id="path7957"
         style="fill:#a51d2d;fill-opacity:1;paint-order:stroke fill markers"
         d="m 282,192 -10,6 H 210.05859 A 9,9 0 0 0 202,193 a 9,9 0 0 0 -9,9 h 3 a 6,6 0 0 1 6,-6 6,6 0 0 1 6,6 h 3 61 l 10,-8 z" /><path
         id="path7959"
         style="fill:#e01b24;fill-opacity:1;paint-order:stroke fill markers"
         d="m 282,190 -10,6 H 210.05859 A 9,9 0 0 0 202,191 a 9,9 0 0 0 -9,9 h 3 a 6,6 0 0 1 6,-6 6,6 0 0 1 6,6 h 3 61 l 10,-8 z" /><path
         id="path7961"
         style="fill:#9a9996;paint-order:stroke fill markers"
         d="m 193,202 h 3 l -1,10 h -1 z"
         sodipodi:nodetypes="ccccc" /><path
         id="path7963"
         style="fill:#deddda;paint-order:stroke fill markers"
         d="m 193,200 h 3 l -1,10 h -1 z"
         sodipodi:nodetypes="ccccc" /><g
         id="g7969"
         transform="matrix(0.0109591,0,0,0.0109591,267.44184,196.43957)"
         style="fill:#a51d2d">
	
	<path
   fill="#f26622"
   d="m 322.643,31.305 c -2.285,-5.226 -5.354,-9.736 -9.18,-13.565 -3.827,-3.825 -8.354,-6.813 -13.564,-8.992 C 294.67,6.574 289.12,5.514 283.266,5.514 H 142.568 C 123.699,5.514 105.916,9.06 89.223,16.216 72.531,23.341 58,33.142 45.646,45.648 33.279,58.125 23.462,72.656 16.196,89.24 8.931,105.792 5.307,123.497 5.307,142.384 c 0,18.857 3.624,36.562 10.889,53.144 7.266,16.555 17.083,31.084 29.45,43.563 12.354,12.507 26.883,22.309 43.573,29.466 16.693,7.127 34.475,10.702 53.345,10.702 14.532,0 28.547,-2.301 42.053,-6.876 13.502,-4.605 25.869,-10.982 37.088,-19.135 11.217,-8.154 21.096,-17.832 29.637,-29.063 8.527,-11.201 15.092,-23.555 19.682,-37.088 L 321.49,68.583 c 1.273,-3.58 2.365,-6.94 3.252,-10.144 0.886,-3.173 1.337,-6.533 1.337,-10.111 0,-6.132 -1.136,-11.793 -3.436,-17.023 z M 244.84,185.572 c -5.74,13.503 -13.645,25.296 -23.709,35.376 -10.064,10.083 -21.857,17.952 -35.361,23.71 -13.517,5.724 -27.909,8.587 -43.202,8.587 -15.292,0 -29.76,-2.863 -43.404,-8.587 C 85.536,238.9 73.619,231.031 63.429,220.948 53.225,210.868 45.196,199.075 39.332,185.572 c -5.865,-13.504 -8.79,-27.912 -8.79,-43.188 0,-15.306 2.925,-29.776 8.79,-43.404 5.864,-13.626 13.893,-25.543 24.097,-35.75 10.19,-10.205 22.107,-18.232 35.734,-24.082 13.644,-5.851 28.112,-8.806 43.404,-8.806 15.293,0 29.684,2.955 43.203,8.806 13.504,5.851 25.297,13.878 35.36,24.083 10.065,10.206 17.97,22.124 23.709,35.75 5.741,13.628 8.604,28.096 8.604,43.404 0,15.277 -2.863,29.683 -8.603,43.187 z M 287.689,80.263 c -3.359,2.85 -8.221,4.275 -14.58,4.275 -3.118,0 -5.774,-0.301 -7.965,-0.9 -2.189,-0.599 -3.975,-1.589 -5.354,-2.97 -1.381,-1.379 -2.387,-3.209 -3.016,-5.49 -0.631,-2.28 -0.944,-5.099 -0.944,-8.46 h 12.688 c 0,1.021 0.016,2.056 0.045,3.105 0.03,1.05 0.211,1.98 0.541,2.79 0.328,0.81 0.854,1.471 1.574,1.979 0.721,0.51 1.771,0.765 3.15,0.765 1.439,0 2.579,-0.299 3.42,-0.9 0.84,-0.599 1.454,-1.364 1.846,-2.295 0.389,-0.93 0.645,-1.98 0.764,-3.15 0.121,-1.17 0.182,-2.295 0.182,-3.375 0,-2.28 -0.195,-4.064 -0.585,-5.355 -0.392,-1.29 -1.052,-2.25 -1.979,-2.88 -0.932,-0.63 -2.146,-1.02 -3.646,-1.17 -1.5,-0.149 -3.36,-0.225 -5.58,-0.225 v -9.99 c 2.039,0.121 3.765,0.105 5.175,-0.045 1.409,-0.149 2.521,-0.54 3.33,-1.17 0.811,-0.63 1.396,-1.589 1.755,-2.88 0.36,-1.29 0.54,-3.015 0.54,-5.175 0,-0.839 -0.045,-1.71 -0.135,-2.61 -0.09,-0.9 -0.314,-1.71 -0.675,-2.43 -0.36,-0.72 -0.855,-1.305 -1.485,-1.755 -0.63,-0.45 -1.484,-0.675 -2.564,-0.675 -1.142,0 -2.041,0.211 -2.699,0.63 -0.661,0.42 -1.156,0.976 -1.485,1.665 -0.331,0.69 -0.54,1.471 -0.63,2.34 -0.09,0.871 -0.135,1.755 -0.135,2.655 H 256.55 c 0,-3.24 0.36,-5.924 1.08,-8.055 0.72,-2.129 1.8,-3.825 3.24,-5.085 1.44,-1.2 3.284,-2.055 5.534,-2.565 2.25,-0.509 4.965,-0.765 8.146,-0.765 5.88,0 10.216,1.291 13.005,3.87 2.791,2.58 4.187,6.871 4.187,12.87 0,1.5 -0.121,3.015 -0.36,4.545 -0.24,1.53 -0.689,2.956 -1.352,4.275 -0.659,1.32 -1.545,2.445 -2.653,3.375 -1.11,0.931 -2.506,1.516 -4.187,1.755 v 0.18 c 2.039,0.36 3.69,1.021 4.951,1.98 1.26,0.96 2.219,2.13 2.879,3.51 0.66,1.381 1.109,2.911 1.352,4.59 0.238,1.681 0.359,3.42 0.359,5.22 -10e-4,6.481 -1.682,11.147 -5.042,13.996 z"
   id="path7965"
   style="fill:#a51d2d" />
	<path
   id="path7967"
   style="fill:#a51d2d"
   d="M 190.732,180.594 144.091,61.333 H 105.09 v 22.156 h 19.51 l 7.64,18.729 -61.561,103.612 h 31.735 l 42.83,-68.048 27.908,73.396 46.641,-13.752 -8.025,-23.304 z" />
</g></g><text
       xml:space="preserve"
       transform="matrix(0.00976685,0,0,0.00976685,-3.0616795,106.87233)"
       id="text9642"
       style="font-style:normal;font-variant:normal;font-weight:normal;font-stretch:normal;font-size:72.2398px;font-family:Cantarell;-inkscape-font-specification:Cantarell;text-align:center;white-space:pre;shape-inside:url(#rect9644);display:inline;fill:#ffffff;paint-order:stroke fill markers"
       x="866.87775"
       y="0"><tspan
         x="1650.1714"
         y="2752.8722"
         id="tspan1499">© 2022 Gradience Team</tspan></text><text
       xml:space="preserve"
       transform="matrix(0.00976685,0,0,0.00976685,-3.0616795,108.45981)"
       id="text9648"
       style="font-style:normal;font-variant:normal;font-weight:normal;font-stretch:normal;font-size:72.2398px;font-family:Cantarell;-inkscape-font-specification:Cantarell;text-align:center;white-space:pre;shape-inside:url(#rect9650);display:inline;fill:#ffffff;paint-order:stroke fill markers"
       x="866.87775"
       y="0"><tspan
         x="1457.2194"
         y="2752.8722"
         id="tspan1503">Based on the <tspan
   style="fill:#3584e4"
   id="tspan1501">GNOME Circle </tspan>website</tspan></text><text
       xml:space="preserve"
       transform="matrix(0.00976685,0,0,0.00976685,-3.0616795,110.04732)"
       id="text9762"
       style="font-style:normal;font-variant:normal;font-weight:normal;font-stretch:normal;font-size:72.2398px;font-family:Cantarell;-inkscape-font-specification:Cantarell;text-align:center;white-space:pre;shape-inside:url(#rect9764);display:inline;fill:#ffffff;paint-order:stroke fill markers"
       x="866.87775"
       y="0"><tspan
         x="1560.4137"
         y="2752.8722"
         id="tspan1505">Creative Commons CC-BY-SA </tspan></text><rect
       style="fill:#f6d32d;stroke-width:0.337279;paint-order:stroke fill markers"
       id="rect584"
       width="33.866665"
       height="13.758327"
       x="1.3159843e-14"
       y="33.866665" /><text
       xml:space="preserve"
       transform="scale(0.26458333)"
       id="text740"
       style="font-size:5.33333px;font-family:Cantarell;-inkscape-font-specification:Cantarell;text-align:center;white-space:pre;shape-inside:url(#rect742);display:inline;fill:#f6d32d;paint-order:stroke fill markers" /><text
       xml:space="preserve"
       transform="matrix(0.26458333,0,0,0.26458333,-0.5016514,-43.663691)"
       id="text746"
       style="font-style:normal;font-variant:normal;font-weight:800;font-stretch:normal;font-size:8px;font-family:Cantarell;-inkscape-font-specification:'Cantarell Ultra-Bold';text-align:center;white-space:pre;shape-inside:url(#rect748);display:inline;fill:#241f31;paint-order:stroke fill markers"><tspan
         x="18.956085"
         y="331.1841"
         id="tspan1507">Why Gradience is a hack?</tspan></text><rect
       style="opacity:1;fill:url(#linearGradient3836);fill-opacity:1;stroke-width:0.264583;paint-order:stroke fill markers"
       id="rect2694"
       width="33.866665"
       height="33.866665"
       x="-1.8799776e-15"
       y="47.625"
       rx="0"
       ry="0"
       inkscape:export-filename="pattern.png"
       inkscape:export-xdpi="728.06622"
       inkscape:export-ydpi="728.06622" /><rect
       style="opacity:1;fill:none;stroke-width:0.264583;paint-order:stroke fill markers"
       id="rect2748"
       width="33.866665"
       height="33.866665"
       x="-1.8799776e-15"
       y="47.625"
       rx="0"
       ry="0" /><rect
       style="opacity:0.06;fill:url(#pattern6725);fill-opacity:1;stroke-width:0.264583;paint-order:stroke fill markers"
       id="rect2767"
       width="33.866665"
       height="33.866665"
       x="-1.7196655e-07"
       y="47.625"
       rx="0"
       ry="0" /><g
       fill="#2e3436"
       stroke-width="207.866"
       inkscape:label="symbolic"
       id="g3208"
       transform="matrix(0.26458333,0,0,0.26458333,-20.108333,114.30006)"
       style="fill:#000000"><path
         d="M 3,0 C 1.3398517,0 -3.5e-4,1.3398417 0,3 v 2 c 3.5e-4,1.6601583 1.3398517,3 3,3 h 10 c 1.660158,0 3.00035,-1.3398417 3,-3 V 3 C 15.99965,1.3398417 14.660158,0 13,0 Z m 0,2 h 10 c 0.554689,0 0.99988,0.4453106 1,1 v 2 c 1.2e-4,0.5546894 -0.445311,1 -1,1 H 3 C 2.4453106,6 2.00012,5.5546894 2,5 V 3 C 1.99988,2.4453106 2.4453106,2 3,2 Z"
         paint-order="markers stroke fill"
         id="path3202"
         style="fill:#000000" /><path
         d="m 9.0002101,10.00016 v 5 c 0,0.554 -0.446,1 -1,1 -0.554,0 -1,-0.446 -1,-1 v -5 c 0,-0.554 0.446,-1 1,-1 0.554,0 1,0.446 1,1 z"
         paint-order="markers stroke fill"
         id="path3204"
         style="fill:#000000" /><path
         d="M 8.0002101,9.00016 H 15.0002 c 0.554,0 1,0.446 1,1 0,0.554 -0.446,1 -1,1 H 8.0002101 c -0.554,0 -1,-0.446 -1,-1 0,-0.554 0.446,-1 1,-1 z"
         paint-order="markers stroke fill"
         id="path3206"
         style="fill:#000000" /></g><rect
       style="fill:url(#pattern10538);stroke:none;stroke-width:0.264583"
       width="6.3499999"
       height="6.3499999"
       x="-10.583332"
       y="62.441677"
       id="rect3826" /><g
       fill="#222222"
       id="g6642"
       transform="matrix(0.26458333,0,0,0.26458333,-25.66355,114.29906)"
       style="fill:#000000"><path
         d="m 7.996094,0 c -1.109375,0 -2,0.890625 -2,2 V 5.003906 C 5.996094,5.636719 5.515625,6 4.996094,6 h -1 c -1.109375,0 -2,0.890625 -2,2 v 1 h 12 V 8 c 0,-1.109375 -0.894532,-2 -2,-2 H 11.019531 C 10.488281,6 9.996094,5.640625 9.996094,5 V 2 c 0,-1.109375 -0.894532,-2 -2,-2 z m 0,1.40625 c 0.324218,0 0.59375,0.265625 0.59375,0.59375 0,0.328125 -0.269532,0.59375 -0.59375,0.59375 -0.328125,0 -0.59375,-0.265625 -0.59375,-0.59375 0,-0.328125 0.265625,-0.59375 0.59375,-0.59375 z m 0,0"
         id="path6638"
         style="fill:#000000" /><path
         d="m 2,10 h 12 l -0.800781,5.003906 C 13,15.824219 12.5,16 11.953125,16 H 10 V 13 L 8.875,16 H 7.027344 L 7,13 5.964844,16 H 5 V 14.5 L 4,16 H 1 l 0.210938,-1.046875 z m 0,0"
         id="path6640"
         style="fill:#000000" /></g><rect
       style="fill:url(#pattern6705);stroke:none"
       transform="scale(0.26458333)"
       width="48.000004"
       height="48.000004"
       x="-112"
       y="352"
       id="rect6723" /><rect
       style="opacity:1;fill:#ffffff;fill-opacity:0;stroke:none;stroke-width:0.424277;paint-order:stroke fill markers"
       id="rect6658"
       width="12.700001"
       height="12.700001"
       x="-45.508335"
       y="93.133331" /><g
       fill="#222222"
       id="g6664"
       transform="matrix(0.26458333,0,0,0.26458333,-44.714584,100.54167)"
       style="fill:#000000"><path
         d="m 7.996094,0 c -1.109375,0 -2,0.890625 -2,2 V 5.003906 C 5.996094,5.636719 5.515625,6 4.996094,6 h -1 c -1.109375,0 -2,0.890625 -2,2 v 1 h 12 V 8 c 0,-1.109375 -0.894532,-2 -2,-2 H 11.019531 C 10.488281,6 9.996094,5.640625 9.996094,5 V 2 c 0,-1.109375 -0.894532,-2 -2,-2 z m 0,1.40625 c 0.324218,0 0.59375,0.265625 0.59375,0.59375 0,0.328125 -0.269532,0.59375 -0.59375,0.59375 -0.328125,0 -0.59375,-0.265625 -0.59375,-0.59375 0,-0.328125 0.265625,-0.59375 0.59375,-0.59375 z m 0,0"
         id="path6660"
         style="fill:#000000" /><path
         d="m 2,10 h 12 l -0.800781,5.003906 C 13,15.824219 12.5,16 11.953125,16 H 10 V 13 L 8.875,16 H 7.027344 L 7,13 5.964844,16 H 5 V 14.5 L 4,16 H 1 l 0.210938,-1.046875 z m 0,0"
         id="path6662"
         style="fill:#000000" /></g><g
       fill="#2e3436"
       stroke-width="207.866"
       inkscape:label="symbolic"
       id="g6672"
       transform="matrix(0.26458333,0,0,0.26458333,-38.100003,100.54164)"
       style="fill:#000000"><path
         d="M 3,0 C 1.3398517,0 -3.5e-4,1.3398417 0,3 v 2 c 3.5e-4,1.6601583 1.3398517,3 3,3 h 10 c 1.660158,0 3.00035,-1.3398417 3,-3 V 3 C 15.99965,1.3398417 14.660158,0 13,0 Z m 0,2 h 10 c 0.554689,0 0.99988,0.4453106 1,1 v 2 c 1.2e-4,0.5546894 -0.445311,1 -1,1 H 3 C 2.4453106,6 2.00012,5.5546894 2,5 V 3 C 1.99988,2.4453106 2.4453106,2 3,2 Z"
         paint-order="markers stroke fill"
         id="path6666"
         style="fill:#000000" /><path
         d="m 9.0002101,10.00016 v 5 c 0,0.554 -0.446,1 -1,1 -0.554,0 -1,-0.446 -1,-1 v -5 c 0,-0.554 0.446,-1 1,-1 0.554,0 1,0.446 1,1 z"
         paint-order="markers stroke fill"
         id="path6668"
         style="fill:#000000" /><path
         d="M 8.0002101,9.00016 H 15.0002 c 0.554,0 1,0.446 1,1 0,0.554 -0.446,1 -1,1 H 8.0002101 c -0.554,0 -1,-0.446 -1,-1 0,-0.554 0.446,-1 1,-1 z"
         paint-order="markers stroke fill"
         id="path6670"
         style="fill:#000000" /></g><g
       fill="#2e3436"
       stroke-width="207.866"
       inkscape:label="symbolic"
       id="g6680"
       transform="matrix(0.26458333,0,0,0.26458333,-44.450001,94.191667)"
       style="fill:#000000"><path
         d="M 3,0 C 1.3398517,0 -3.5e-4,1.3398417 0,3 v 2 c 3.5e-4,1.6601583 1.3398517,3 3,3 h 10 c 1.660158,0 3.00035,-1.3398417 3,-3 V 3 C 15.99965,1.3398417 14.660158,0 13,0 Z m 0,2 h 10 c 0.554689,0 0.99988,0.4453106 1,1 v 2 c 1.2e-4,0.5546894 -0.445311,1 -1,1 H 3 C 2.4453106,6 2.00012,5.5546894 2,5 V 3 C 1.99988,2.4453106 2.4453106,2 3,2 Z"
         paint-order="markers stroke fill"
         id="path6674"
         style="fill:#000000" /><path
         d="m 9.0002101,10.00016 v 5 c 0,0.554 -0.446,1 -1,1 -0.554,0 -1,-0.446 -1,-1 v -5 c 0,-0.554 0.446,-1 1,-1 0.554,0 1,0.446 1,1 z"
         paint-order="markers stroke fill"
         id="path6676"
         style="fill:#000000" /><path
         d="M 8.0002101,9.00016 H 15.0002 c 0.554,0 1,0.446 1,1 0,0.554 -0.446,1 -1,1 H 8.0002101 c -0.554,0 -1,-0.446 -1,-1 0,-0.554 0.446,-1 1,-1 z"
         paint-order="markers stroke fill"
         id="path6678"
         style="fill:#000000" /></g><g
       fill="#222222"
       id="g6686"
       transform="matrix(0.26458333,0,0,0.26458333,-37.570834,94.191667)"
       style="fill:#000000"><path
         d="m 7.996094,0 c -1.109375,0 -2,0.890625 -2,2 V 5.003906 C 5.996094,5.636719 5.515625,6 4.996094,6 h -1 c -1.109375,0 -2,0.890625 -2,2 v 1 h 12 V 8 c 0,-1.109375 -0.894532,-2 -2,-2 H 11.019531 C 10.488281,6 9.996094,5.640625 9.996094,5 V 2 c 0,-1.109375 -0.894532,-2 -2,-2 z m 0,1.40625 c 0.324218,0 0.59375,0.265625 0.59375,0.59375 0,0.328125 -0.269532,0.59375 -0.59375,0.59375 -0.328125,0 -0.59375,-0.265625 -0.59375,-0.59375 0,-0.328125 0.265625,-0.59375 0.59375,-0.59375 z m 0,0"
         id="path6682"
         style="fill:#000000" /><path
         d="m 2,10 h 12 l -0.800781,5.003906 C 13,15.824219 12.5,16 11.953125,16 H 10 V 13 L 8.875,16 H 7.027344 L 7,13 5.964844,16 H 5 V 14.5 L 4,16 H 1 l 0.210938,-1.046875 z m 0,0"
         id="path6684"
         style="fill:#000000" /></g><path
       d="m 16.916359,36.249712 c -0.140341,-0.0072 -0.276522,0.07484 -0.382557,0.257809 l -1.663291,3.085404 c -0.142419,0.256771 0.01247,0.623735 0.291076,0.623735 h 3.501227 c 0.260929,0 0.506263,-0.30875 0.324341,-0.623735 l -1.679924,-3.06877 c -0.106034,-0.172567 -0.250532,-0.267166 -0.390872,-0.274443 z m 0.01664,1.047873 c 0.144499,-0.0052 0.278602,0.129944 0.274444,0.274443 v 1.047873 c 0.0021,0.14034 -0.125787,0.266126 -0.266127,0.266126 -0.14034,0 -0.268206,-0.125786 -0.266127,-0.266126 v -1.047873 c -0.0021,-0.124747 0.0946,-0.243257 0.216228,-0.266127 0.01352,-0.0041 0.02703,-0.0062 0.04158,-0.0083 z m 0.0083,1.854568 c 0.146577,0 0.266126,0.119549 0.266126,0.266127 0,0.146577 -0.119549,0.266126 -0.266126,0.266126 -0.146577,0 -0.266126,-0.119549 -0.266126,-0.266126 0,-0.146578 0.119549,-0.266127 0.266126,-0.266127 z m 0,0"
       fill="#222222"
       id="path7477"
       style="fill:#241f31;stroke-width:0.266126" /><text
       xml:space="preserve"
       transform="matrix(0.26458333,0,0,0.26458333,0,-50.800006)"
       id="text10400"
       style="font-style:normal;font-variant:normal;font-weight:800;font-stretch:normal;font-size:5.33333px;font-family:Cantarell;-inkscape-font-specification:'Cantarell Ultra-Bold';text-align:start;white-space:pre;shape-inside:url(#rect10402);display:inline;opacity:0.988378;fill:#241f31;fill-opacity:1;stroke:none;paint-order:stroke fill markers"><tspan
         x="8"
         y="384.7894"
         id="tspan1509">Gradience overrides CSS
</tspan><tspan
         x="8"
         y="391.45605"
         id="tspan1511">for recoloring.</tspan></text><text
       xml:space="preserve"
       transform="matrix(0.26458333,0,0,0.26458333,0,-46.566673)"
       id="text10408"
       style="font-style:normal;font-variant:normal;font-weight:normal;font-stretch:normal;font-size:5.33333px;font-family:Cantarell;-inkscape-font-specification:Cantarell;text-align:start;white-space:pre;shape-inside:url(#rect10410);display:inline;opacity:0.988378;fill:#241f31;fill-opacity:1;stroke:none;paint-order:stroke fill markers"><tspan
         x="8"
         y="384.7894"
         id="tspan1513">Gradience overrides Adwaita CSS with
</tspan><tspan
         x="8"
         y="391.45605"
         id="tspan1515">custom values, this causes issues like
</tspan><tspan
         x="8"
         y="398.12271"
         id="tspan1517">invisible text, wrong colors, broken paddings
</tspan><tspan
         x="8"
         y="404.78937"
         id="tspan1519">and etc.</tspan></text><text
       xml:space="preserve"
       transform="matrix(0.26458333,0,0,0.26458333,0,-38.62917)"
       id="text10414"
       style="font-style:normal;font-variant:normal;font-weight:800;font-stretch:normal;font-size:5.33333px;font-family:Cantarell;-inkscape-font-specification:'Cantarell Ultra-Bold';text-align:start;white-space:pre;shape-inside:url(#rect10420);display:inline;opacity:0.988378;fill:#241f31;fill-opacity:1;stroke:none;paint-order:stroke fill markers"><tspan
         x="8"
         y="384.7894"
         id="tspan1521">Gradience is not supported by Adwaita.</tspan></text><text
       xml:space="preserve"
       transform="matrix(0.26458333,0,0,0.26458333,0,-35.983337)"
       id="text10418"
       style="font-style:normal;font-variant:normal;font-weight:normal;font-stretch:normal;font-size:5.33333px;font-family:Cantarell;-inkscape-font-specification:Cantarell;text-align:start;white-space:pre;shape-inside:url(#rect10422);display:inline;opacity:0.988378;fill:#241f31;fill-opacity:1;stroke:none;paint-order:stroke fill markers"><tspan
         x="8"
         y="384.7894"
         id="tspan1523">Gradience can stop working if Adwaita will </tspan><tspan
         x="8"
         y="391.45605"
         id="tspan1525">make changes in components Gradience uses.</tspan></text><text
       xml:space="preserve"
       transform="matrix(0.26458333,0,0,0.26458333,0,-31.750002)"
       id="text10426"
       style="font-style:normal;font-variant:normal;font-weight:800;font-stretch:normal;font-size:5.33333px;font-family:Cantarell;-inkscape-font-specification:'Cantarell Ultra-Bold';text-align:start;white-space:pre;shape-inside:url(#rect10432);display:inline;opacity:0.988378;fill:#241f31;fill-opacity:1;stroke:none;paint-order:stroke fill markers"><tspan
         x="8"
         y="384.7894"
         id="tspan1527">Gradience can break UI.</tspan></text><text
       xml:space="preserve"
       transform="matrix(0.26458333,0,0,0.26458333,0,-29.10417)"
       id="text10430"
       style="font-style:normal;font-variant:normal;font-weight:normal;font-stretch:normal;font-size:5.33333px;font-family:Cantarell;-inkscape-font-specification:Cantarell;text-align:start;white-space:pre;shape-inside:url(#rect10434);display:inline;opacity:0.988378;fill:#241f31;fill-opacity:1;stroke:none;paint-order:stroke fill markers"><tspan
         x="8"
         y="384.7894"
         id="tspan1529">Gradience can break some apps UI that rely
</tspan><tspan
         x="8"
         y="391.45605"
         id="tspan1531">on custom CSS by default.</tspan></text></g></svg>
