<?xml version="1.0" encoding="UTF-8" standalone="no"?>
<!-- Created with Inkscape (http://www.inkscape.org/) -->

<svg
   width="127.99998"
   height="127.99998"
   viewBox="0 0 33.866662 33.866664"
   version="1.1"
   id="svg5"
   xml:space="preserve"
   sodipodi:docname="gradienceisahack.svg"
   inkscape:version="1.2.1 (9c6d41e410, 2022-07-14)"
   inkscape:export-filename="../gradienceisahack.png"
   inkscape:export-xdpi="1536.0001"
   inkscape:export-ydpi="1536.0001"
   xmlns:inkscape="http://www.inkscape.org/namespaces/inkscape"
   xmlns:sodipodi="http://sodipodi.sourceforge.net/DTD/sodipodi-0.dtd"
   xmlns:xlink="http://www.w3.org/1999/xlink"
   xmlns="http://www.w3.org/2000/svg"
   xmlns:svg="http://www.w3.org/2000/svg"><sodipodi:namedview
     id="namedview7"
     pagecolor="#ffffff"
     bordercolor="#000000"
     borderopacity="0.25"
     inkscape:showpageshadow="2"
     inkscape:pageopacity="0.0"
     inkscape:pagecheckerboard="0"
     inkscape:deskcolor="#d1d1d1"
     inkscape:document-units="px"
     showgrid="true"
     inkscape:zoom="2.2614406"
     inkscape:cx="107.45363"
     inkscape:cy="278.14128"
     inkscape:window-width="1280"
     inkscape:window-height="731"
     inkscape:window-x="0"
     inkscape:window-y="0"
     inkscape:window-maximized="1"
     inkscape:current-layer="layer1"><inkscape:grid
       type="xygrid"
       id="grid132"
       empspacing="4"
       originx="1.7196654e-07"
       originy="0" /></sodipodi:namedview><defs
     id="defs2"><pattern
       inkscape:collect="always"
       xlink:href="#pattern6725"
       id="pattern2872"
       patternTransform="matrix(0.1277839,-0.03423959,0.03423959,0.1277839,128.05834,64.558327)" /><pattern
       inkscape:collect="always"
       xlink:href="#pattern6705"
       id="pattern6725"
       patternTransform="matrix(0.1277839,-0.03423959,0.03423959,0.1277839,16.933333,64.558327)" /><linearGradient
       id="linearGradient2771"
       inkscape:swatch="solid"><stop
         style="stop-color:#241f31;stop-opacity:1;"
         offset="0"
         id="stop2769" /></linearGradient><filter
       id="c"
       height="1"
       width="1"
       x="0"
       y="0"><feColorMatrix
         in="SourceGraphic"
         type="matrix"
         values="0 0 0 0 1 0 0 0 0 1 0 0 0 0 1 0 0 0 1 0"
         id="feColorMatrix2075" /></filter><filter
       id="d-6"
       height="1"
       width="1"
       x="0"
       y="0"><feColorMatrix
         in="SourceGraphic"
         type="matrix"
         values="0 0 0 0 1 0 0 0 0 1 0 0 0 0 1 0 0 0 1 0"
         id="feColorMatrix3808" /></filter><pattern
       patternUnits="userSpaceOnUse"
       width="48.000003"
       height="48.000003"
       patternTransform="translate(-112,351.99999)"
       id="pattern6705"><g
         id="g6703"
         transform="matrix(3.7795275,0,0,3.7795275,112,-351.99999)"><rect
           style="opacity:1;fill:#ffffff;fill-opacity:0;stroke:none;stroke-width:0.424277;paint-order:stroke fill markers"
           id="rect6160"
           width="12.700001"
           height="12.700001"
           x="-29.633333"
           y="93.133331" /><g
           fill="#222222"
           id="g3844"
           transform="matrix(0.26458333,0,0,0.26458333,-28.839583,100.54167)"
           style="fill:#000000"><path
             d="m 7.996094,0 c -1.109375,0 -2,0.890625 -2,2 V 5.003906 C 5.996094,5.636719 5.515625,6 4.996094,6 h -1 c -1.109375,0 -2,0.890625 -2,2 v 1 h 12 V 8 c 0,-1.109375 -0.894532,-2 -2,-2 H 11.019531 C 10.488281,6 9.996094,5.640625 9.996094,5 V 2 c 0,-1.109375 -0.894532,-2 -2,-2 z m 0,1.40625 c 0.324218,0 0.59375,0.265625 0.59375,0.59375 0,0.328125 -0.269532,0.59375 -0.59375,0.59375 -0.328125,0 -0.59375,-0.265625 -0.59375,-0.59375 0,-0.328125 0.265625,-0.59375 0.59375,-0.59375 z m 0,0"
             id="path3840"
             style="fill:#000000" /><path
             d="m 2,10 h 12 l -0.800781,5.003906 C 13,15.824219 12.5,16 11.953125,16 H 10 V 13 L 8.875,16 H 7.027344 L 7,13 5.964844,16 H 5 V 14.5 L 4,16 H 1 l 0.210938,-1.046875 z m 0,0"
             id="path3842"
             style="fill:#000000" /></g><g
           fill="#2e3436"
           stroke-width="207.866"
           inkscape:label="symbolic"
           id="g6636"
           transform="matrix(0.26458333,0,0,0.26458333,-22.225002,100.54164)"
           style="fill:#000000"><path
             d="M 3,0 C 1.3398517,0 -3.5e-4,1.3398417 0,3 v 2 c 3.5e-4,1.6601583 1.3398517,3 3,3 h 10 c 1.660158,0 3.00035,-1.3398417 3,-3 V 3 C 15.99965,1.3398417 14.660158,0 13,0 Z m 0,2 h 10 c 0.554689,0 0.99988,0.4453106 1,1 v 2 c 1.2e-4,0.5546894 -0.445311,1 -1,1 H 3 C 2.4453106,6 2.00012,5.5546894 2,5 V 3 C 1.99988,2.4453106 2.4453106,2 3,2 Z"
             paint-order="markers stroke fill"
             id="path6630"
             style="fill:#000000" /><path
             d="m 9.0002101,10.00016 v 5 c 0,0.554 -0.446,1 -1,1 -0.554,0 -1,-0.446 -1,-1 v -5 c 0,-0.554 0.446,-1 1,-1 0.554,0 1,0.446 1,1 z"
             paint-order="markers stroke fill"
             id="path6632"
             style="fill:#000000" /><path
             d="M 8.0002101,9.00016 H 15.0002 c 0.554,0 1,0.446 1,1 0,0.554 -0.446,1 -1,1 H 8.0002101 c -0.554,0 -1,-0.446 -1,-1 0,-0.554 0.446,-1 1,-1 z"
             paint-order="markers stroke fill"
             id="path6634"
             style="fill:#000000" /></g><g
           fill="#2e3436"
           stroke-width="207.866"
           inkscape:label="symbolic"
           id="g6650"
           transform="matrix(0.26458333,0,0,0.26458333,-28.575,94.191667)"
           style="fill:#000000"><path
             d="M 3,0 C 1.3398517,0 -3.5e-4,1.3398417 0,3 v 2 c 3.5e-4,1.6601583 1.3398517,3 3,3 h 10 c 1.660158,0 3.00035,-1.3398417 3,-3 V 3 C 15.99965,1.3398417 14.660158,0 13,0 Z m 0,2 h 10 c 0.554689,0 0.99988,0.4453106 1,1 v 2 c 1.2e-4,0.5546894 -0.445311,1 -1,1 H 3 C 2.4453106,6 2.00012,5.5546894 2,5 V 3 C 1.99988,2.4453106 2.4453106,2 3,2 Z"
             paint-order="markers stroke fill"
             id="path6644"
             style="fill:#000000" /><path
             d="m 9.0002101,10.00016 v 5 c 0,0.554 -0.446,1 -1,1 -0.554,0 -1,-0.446 -1,-1 v -5 c 0,-0.554 0.446,-1 1,-1 0.554,0 1,0.446 1,1 z"
             paint-order="markers stroke fill"
             id="path6646"
             style="fill:#000000" /><path
             d="M 8.0002101,9.00016 H 15.0002 c 0.554,0 1,0.446 1,1 0,0.554 -0.446,1 -1,1 H 8.0002101 c -0.554,0 -1,-0.446 -1,-1 0,-0.554 0.446,-1 1,-1 z"
             paint-order="markers stroke fill"
             id="path6648"
             style="fill:#000000" /></g><g
           fill="#222222"
           id="g6656"
           transform="matrix(0.26458333,0,0,0.26458333,-21.695833,94.191667)"
           style="fill:#000000"><path
             d="m 7.996094,0 c -1.109375,0 -2,0.890625 -2,2 V 5.003906 C 5.996094,5.636719 5.515625,6 4.996094,6 h -1 c -1.109375,0 -2,0.890625 -2,2 v 1 h 12 V 8 c 0,-1.109375 -0.894532,-2 -2,-2 H 11.019531 C 10.488281,6 9.996094,5.640625 9.996094,5 V 2 c 0,-1.109375 -0.894532,-2 -2,-2 z m 0,1.40625 c 0.324218,0 0.59375,0.265625 0.59375,0.59375 0,0.328125 -0.269532,0.59375 -0.59375,0.59375 -0.328125,0 -0.59375,-0.265625 -0.59375,-0.59375 0,-0.328125 0.265625,-0.59375 0.59375,-0.59375 z m 0,0"
             id="path6652"
             style="fill:#000000" /><path
             d="m 2,10 h 12 l -0.800781,5.003906 C 13,15.824219 12.5,16 11.953125,16 H 10 V 13 L 8.875,16 H 7.027344 L 7,13 5.964844,16 H 5 V 14.5 L 4,16 H 1 l 0.210938,-1.046875 z m 0,0"
             id="path6654"
             style="fill:#000000" /></g></g></pattern></defs><g
     inkscape:label="Слой 1"
     inkscape:groupmode="layer"
     id="layer1"
     transform="translate(-111.12501,-47.625002)"><rect
       style="opacity:0.06;fill:url(#pattern2872);fill-opacity:1;stroke-width:0.264583;paint-order:stroke fill markers"
       id="rect2870"
       width="33.866665"
       height="33.866665"
       x="111.12501"
       y="47.625"
       rx="0"
       ry="0" /></g></svg>
