<svg xmlns="http://www.w3.org/2000/svg" xmlns:xlink="http://www.w3.org/1999/xlink" width="256" height="256" version="1.1"><defs><linearGradient id="Gradient" x1="0" x2="0" y1="0" y2="1"><stop offset="0%" style="stop-color:#3584e4;stop-opacity:1"/><stop offset="100%" style="stop-color:#8ff0a4;stop-opacity:1"/></linearGradient><filter id="alpha-to-white"><feColorMatrix in="SourceGraphic" type="matrix" values="0 0 0 1 0 0 0 0 1 0 0 0 0 1 0 0 0 0 1 0"/></filter><g id="child-svg"><svg xmlns="http://www.w3.org/2000/svg" xmlns:svg="http://www.w3.org/2000/svg" width="16" height="16" viewBox="0 0 16 16"><g fill="#2e3436" stroke-width="207.866"><path d="m 3 0 c -1.6601483 0 -3.00035 1.3398417 -3 3 v 2 c 0.00035 1.6601583 1.3398517 3 3 3 h 10 c 1.660158 0 3.00035 -1.3398417 3 -3 v -2 c -0.00035 -1.6601583 -1.339842 -3 -3 -3 z m 0 2 h 10 c 0.554689 0 0.99988 0.4453106 1 1 v 2 c 0.00012 0.5546894 -0.445311 1 -1 1 h -10 c -0.5546894 0 -0.99988 -0.4453106 -1 -1 v -2 c -0.00012 -0.5546894 0.4453106 -1 1 -1 z" paint-order="markers stroke fill"/><path d="m 9.0002101 10.00016 v 5 c 0 0.554 -0.446 1 -1 1 s -1 -0.446 -1 -1 v -5 c 0 -0.554 0.446 -1 1 -1 s 1 0.446 1 1 z" paint-order="markers stroke fill"/><path d="m 8.0002101 9.00016 h 6.9999899 c 0.554 0 1 0.446 1 1 s -0.446 1 -1 1 h -6.9999899 c -0.554 0 -1 -0.446 -1 -1 s 0.446 -1 1 -1 z" paint-order="markers stroke fill"/></g></svg></g></defs><rect width="256" height="256" x="0" y="0" fill="url(#Gradient)" ry="0"/><use filter="url(#alpha-to-white)" transform="matrix(8,0,0,8,64,64)" xlink:href="#child-svg"/></svg>