<svg xmlns="http://www.w3.org/2000/svg" width="256" height="256" style="isolation:isolate" viewBox="0 0 192 192"><defs><linearGradient id="a" x1="1275.7" x2="281.12" y1="760" y2="760" gradientTransform="translate(-3.032 14.147) scale(.15158)" gradientUnits="userSpaceOnUse"><stop offset="0" stop-color="#57e389"/><stop offset="1" stop-color="#62a0ea"/></linearGradient><linearGradient id="c" x1="127.95" x2="91.947" y1="224.05" y2="188.05" gradientTransform="translate(-21.678 .634) scale(1.0476)" gradientUnits="userSpaceOnUse"><stop offset="0" stop-color="#241f31"/><stop offset="1" stop-color="#3d3846"/></linearGradient><clipPath id="b"><rect width="112" height="88" x="-438.46" y="195.08" fill="#deddda" rx="8" ry="8" style="paint-order:normal"/></clipPath><clipPath id="d"><rect width="112.5" height="114.38" x="7.75" y="179.75" fill="#3584e4" stroke-width="4" opacity=".1" ry="56.25"/></clipPath></defs><path fill="url(#a)" d="M60.56 50.708v.283c0 9.79 7.936 17.725 17.725 17.725h9.069a4.042 4.042 0 0 1 4.042 4.042v1.657a4.042 4.042 0 0 1-4.042 4.042h-69.63C7.937 78.457 0 86.393 0 96.182v.284c0 9.789 7.935 17.725 17.725 17.725h51.699a4.042 4.042 0 0 1 4.042 4.042v1.01a4.042 4.042 0 0 1-4.042 4.042H67.24c-9.79 0-17.725 7.936-17.725 17.725v.283c0 9.79 7.935 17.725 17.725 17.725h90.877c9.789 0 17.725-7.935 17.725-17.725v-.283c0-9.789-7.936-17.725-17.725-17.725h-9.02a4.042 4.042 0 0 1-4.042-4.042v-1.01a4.042 4.042 0 0 1 4.042-4.042h25.179c9.789 0 17.725-7.936 17.725-17.725v-.284c0-9.789-7.936-17.725-17.725-17.725h-10.764a4.86 4.86 0 0 1-4.86-4.859v-.023a4.86 4.86 0 0 1 4.86-4.859h3.69c9.789 0 17.725-7.936 17.725-17.725v-.283c0-9.79-7.936-17.725-17.725-17.725H78.286c-9.79 0-17.725 7.935-17.725 17.725z"/><g transform="translate(277.91 21.396) scale(.42857)"><rect width="112" height="76" x="-438.46" y="209.08" fill="#303030" rx="8" ry="8" style="paint-order:normal"/><rect width="112" height="88" x="-438.46" y="195.08" fill="#242424" rx="8" ry="8" style="paint-order:normal"/><rect width="112" height="16" x="-438.46" y="195.08" fill="#303030" clip-path="url(#b)" rx="0" ry="0" style="paint-order:markers stroke fill"/><circle cx="-334.46" cy="203.08" r="5" fill="#454545" style="paint-order:markers stroke fill"/><path fill="#fff" d="M-336.95 200.58h.428a.425.425 0 0 1 .286.13l1.784 1.784 1.796-1.784c.11-.096.185-.127.286-.13h.417v.417c0 .119-.016.229-.104.312l-1.784 1.784 1.77 1.77a.423.423 0 0 1 .118.3v.417h-.417a.421.421 0 0 1-.299-.117l-1.783-1.784-1.784 1.784a.423.423 0 0 1-.299.117h-.417v-.417c0-.11.04-.221.118-.3l1.783-1.77-1.783-1.784a.377.377 0 0 1-.118-.312z"/></g><g transform="matrix(.75 0 0 .75 91.507 6)"><path fill="#fff" d="M83.947 210.05 34 259.997c-4 6-2 12-8 18l6 6c6-6 14.111-3.934 18-8l49.947-49.947z" opacity=".6" style="paint-order:normal" transform="matrix(.75 0 0 .75 20.5 -127)"/><path fill="none" stroke="#fff" stroke-linecap="round" stroke-width="6" d="M49 69.5 83.5 35" opacity=".6"/><path fill="none" stroke="#fff" stroke-linecap="round" stroke-width="3" d="m49 67.16 34.5-34.5" opacity=".6"/><path fill="url(#c)" fill-rule="evenodd" d="M112.08 185.33a12.572 12.572 0 0 0-8.937 3.744l-.006-.006L90.206 202l-8.083-8.083c-1.885-1.885-3.771 0-3.771 0l-5.984 5.985s-1.886 1.885 0 3.77l33.94 33.942c1.886 1.885 3.772 0 3.772 0l5.984-5.984c1.886-1.886 0-3.772 0-3.772l-8.083-8.082 12.931-12.931-.002-.002a12.57 12.57 0 0 0 3.74-8.941c0-6.943-5.627-12.571-12.57-12.571z" color="#000" style="font-feature-settings:normal;font-variant-alternates:normal;font-variant-caps:normal;font-variant-ligatures:normal;font-variant-numeric:normal;font-variant-position:normal;isolation:auto;mix-blend-mode:normal;shape-padding:0;text-decoration-color:#000;text-decoration-line:none;text-decoration-style:solid;text-indent:0;text-orientation:mixed;text-transform:none;white-space:normal" transform="matrix(.75 0 0 .75 20.5 -127)"/><circle cx="103" cy="18" r="3" fill="#fff" fill-opacity=".276" style="paint-order:normal"/></g><g stroke-width=".938" clip-path="url(#d)" transform="matrix(.64 0 0 .64 10.04 -100.04)"><path fill="#3584e4" d="M115.96 206a60 60 0 0 1 0 60l-51.962-30z"/><path fill="#a347ba" d="M115.96 266a60 60 0 0 1-51.962 30v-60z"/><path fill="#33d17a" d="M64 176a60 60 0 0 1 51.962 30L64 236z"/><path fill="#f6d32d" d="M12.038 206A60 60 0 0 1 64 176v60z"/><path fill="#ff7800" d="M12.038 266a60 60 0 0 1 0-60L64 236z"/><path fill="#ed333b" d="M64 296a60 60 0 0 1-51.962-30L64 236z"/></g><path d="M15.03 51.598a36 36 0 0 0-.03.604 36 36 0 0 0 36 36 36 36 0 0 0 36-36 36 36 0 0 0-.02-.604A36 36 0 0 1 51 87.001a36 36 0 0 1-35.97-35.403z" opacity=".2"/></svg>