<svg xmlns="http://www.w3.org/2000/svg" xmlns:xlink="http://www.w3.org/1999/xlink" width="256" height="256" style="isolation:isolate" viewBox="0 0 192 192"><defs><linearGradient id="b" x1="1275.7" x2="281.12" y1="760" y2="760" gradientTransform="translate(-3.032 14.147) scale(.15158)" gradientUnits="userSpaceOnUse"><stop offset="0" stop-color="#ff7800"/><stop offset="1" stop-color="#c061cb"/></linearGradient><linearGradient xlink:href="#a" id="d" x1="81" x2="81" y1="47" y2="65" gradientTransform="matrix(1.5 0 0 1.5556 -66 110.89)" gradientUnits="userSpaceOnUse"/><linearGradient id="a"><stop offset="0" stop-color="#c0bfbc"/><stop offset=".5" stop-color="#deddda"/><stop offset="1" stop-color="#9a9996"/></linearGradient><linearGradient xlink:href="#a" id="e" x1="92" x2="104" y1="244" y2="244" gradientTransform="matrix(.83333 0 0 .82143 5.333 26.571)" gradientUnits="userSpaceOnUse"/><linearGradient id="f" x1="92" x2="104" y1="244" y2="244" gradientTransform="matrix(1.5 0 0 .92857 -60 15.429)" gradientUnits="userSpaceOnUse"><stop offset="0" stop-color="#e5a50a"/><stop offset=".25" stop-color="#f8e45c"/><stop offset=".75" stop-color="#f5c211"/><stop offset="1" stop-color="#e5a50a"/></linearGradient><linearGradient id="g" x1="92" x2="104" y1="244" y2="244" gradientTransform="matrix(1.5 0 0 .53571 -60 126.29)" gradientUnits="userSpaceOnUse"><stop offset="0" stop-color="#5e5c64"/><stop offset=".25" stop-color="#77767b"/><stop offset=".75" stop-color="#4e4957"/><stop offset="1" stop-color="#3d3846"/></linearGradient><clipPath id="c"><rect width="112" height="88" x="-438.46" y="195.08" fill="#deddda" rx="8" ry="8" style="paint-order:normal"/></clipPath></defs><path fill="url(#b)" d="M60.56 50.708v.283c0 9.79 7.936 17.725 17.725 17.725h9.069a4.042 4.042 0 0 1 4.042 4.042v1.657a4.042 4.042 0 0 1-4.042 4.042h-69.63C7.937 78.457 0 86.393 0 96.182v.284c0 9.789 7.935 17.725 17.725 17.725h51.699a4.042 4.042 0 0 1 4.042 4.042v1.01a4.042 4.042 0 0 1-4.042 4.042H67.24c-9.79 0-17.725 7.936-17.725 17.725v.283c0 9.79 7.935 17.725 17.725 17.725h90.877c9.789 0 17.725-7.935 17.725-17.725v-.283c0-9.789-7.936-17.725-17.725-17.725h-9.02a4.042 4.042 0 0 1-4.042-4.042v-1.01a4.042 4.042 0 0 1 4.042-4.042h25.179c9.789 0 17.725-7.936 17.725-17.725v-.284c0-9.789-7.936-17.725-17.725-17.725h-10.764a4.86 4.86 0 0 1-4.86-4.859v-.023a4.86 4.86 0 0 1 4.86-4.859h3.69c9.789 0 17.725-7.936 17.725-17.725v-.283c0-9.79-7.936-17.725-17.725-17.725H78.286c-9.79 0-17.725 7.935-17.725 17.725z"/><g transform="translate(286.91 -38.604) scale(.42857)"><rect width="112" height="76" x="-438.46" y="209.08" fill="#303030" rx="8" ry="8" style="paint-order:normal"/><rect width="112" height="88" x="-438.46" y="195.08" fill="#242424" rx="8" ry="8" style="paint-order:normal"/><rect width="112" height="16" x="-438.46" y="195.08" fill="#303030" clip-path="url(#c)" rx="0" ry="0" style="paint-order:markers stroke fill"/><circle cx="-334.46" cy="203.08" r="5" fill="#454545" style="paint-order:markers stroke fill"/><path fill="#fff" d="M-336.95 200.58h.428a.425.425 0 0 1 .286.13l1.784 1.784 1.796-1.784c.11-.096.185-.127.286-.13h.417v.417c0 .119-.016.229-.104.312l-1.784 1.784 1.77 1.77a.423.423 0 0 1 .118.3v.417h-.417a.421.421 0 0 1-.299-.117l-1.783-1.784-1.784 1.784a.423.423 0 0 1-.299.117h-.417v-.417c0-.11.04-.221.118-.3l1.783-1.77-1.783-1.784a.377.377 0 0 1-.118-.312z"/></g><g transform="translate(72.681 -45.546) scale(.81818)"><path fill="#9a9996" d="M127.5 207v-3l-2.285-.774.088 3.085zM63 190h18v16.001H63z"/><rect width="18" height="28" x="48" y="184" fill="url(#d)" rx="3" ry="3.111"/><rect width="30" height="24" x="72" y="186" fill="#9a9996" rx="3" ry="3"/><path fill="#9a9996" d="M97.5 201c12 0 19.5 0 27 7.5l3-1.5c-4.057-10.82-12-18-25.5-18h-7.5z"/><path fill="#c0bfbc" d="M97.5 198c12 0 19.5 0 27 7.5l3-1.5c-4.057-10.82-12-18-25.5-18h-7.5z"/><rect width="30" height="16" x="72" y="186" fill="#c0bfbc" rx="3" ry="2.909"/><g stroke-dashoffset="26.4" stroke-linecap="square"><g stroke-width="188.67"><rect width="10" height="46" x="82" y="204" fill="url(#e)" rx="5" ry="5"/><rect width="18" height="52" x="78" y="216" fill="url(#f)" rx="6" ry="6"/><rect width="18" height="30" x="78" y="242" fill="url(#g)" rx="6" ry="6"/></g><rect width="18" height="10.5" x="78" y="261.5" fill="#241f31" rx="5.25" ry="5.25"/></g><g stroke-dashoffset="26.4" stroke-linecap="round" stroke-width="12"><rect width="8" height="2" x="83" y="246" opacity=".4" rx="1" ry="1"/><rect width="8" height="2" x="83" y="250" opacity=".4" rx="1" ry="1"/><rect width="8" height="2" x="83" y="254" opacity=".4" rx="1" ry="1"/></g></g><g stroke-dashoffset="26.4" stroke-linecap="round"><path fill="#9a9996" d="M65.999 225.17V238l-6 3-6-3v-12.82a16 16 0 0 0-10 14.82 16 16 0 0 0 16 16 16 16 0 0 0 16-16 16 16 0 0 0-10-14.83z" style="isolation:isolate" transform="translate(-26.22 -194.133) scale(.9371)"/><g stroke-width="9" transform="translate(-369.12 -110.72) scale(1.2495)"><path fill="#deddda" d="M323.93 100.62v11.124l-4.5 2.25-4.5-2.25v-11.109a12 12 0 0 0-7.5 11.109 12 12 0 0 0 12 12 12 12 0 0 0 12-12 12 12 0 0 0-7.5-11.124z"/><path fill="#9a9996" d="M319.43 117.74c-3.324 0-6 2.676-6 6v28.5c0 3.324 2.676 6 6 6s6-2.676 6-6v-28.5c0-3.324-2.676-6-6-6zm0 31.5a2.25 2.25 0 1 1 0 4.5 2.25 2.25 0 0 1 0-4.5z"/><path fill="#deddda" d="M319.43 116.24c-3.324 0-6 2.676-6 6v28.5c0 3.324 2.676 6 6 6s6-2.676 6-6v-28.5c0-3.324-2.676-6-6-6zm0 31.5a2.25 2.25 0 1 1 0 4.5 2.25 2.25 0 0 1 0-4.5z"/><rect width="6" height="19.5" x="316.43" y="122.24" fill="#a7a6a4" rx="3" ry="3"/></g></g><path fill="#454545" d="m131.9 55.207-2.325 2.172c-.685.637-.803 1.735-.407 2.578l-8.893 9.059h-.047a2.24 2.24 0 0 0-1.27-.225 2.268 2.268 0 0 0-1.31.667l-5.96 6.037a2.245 2.245 0 0 0 1.022 3.8 2.254 2.254 0 0 0 2.195-.643l5.96-6.037a2.228 2.228 0 0 0 .448-2.626l8.9-9.01c.843.377 1.923.223 2.578-.437l2.136-2.36zm-15.573.136c-.602 0-1.186.141-1.723.33l2.844 2.839c.59.578.59 1.51 0 2.095l-1.074 1.068a1.478 1.478 0 0 1-2.1 0l-2.845-2.839c-.189.537-.33 1.121-.33 1.723a5.224 5.224 0 0 0 5.228 5.217c.608 0 1.192-.142 1.729-.33l1.776 1.77h.089l3.127-3.116-1.817-1.818c.189-.543.324-1.12.324-1.723a5.22 5.22 0 0 0-5.228-5.216zm9.896 11.92-3.127 3.121a.885.885 0 0 1 .047.136l1.729 1.723c-.189.537-.33 1.121-.33 1.723 0 2.874 2.342 5.211 5.228 5.211.655 0 1.292-.153 1.87-.372l-3.033-3.021a1.528 1.528 0 0 1 0-2.142l1.027-1.027c.295-.29.69-.466 1.074-.466.384 0 .779.177 1.074.466l2.939 2.933c.16-.496.277-1.033.277-1.582a5.22 5.22 0 0 0-5.228-5.216c-.602 0-1.186.141-1.723.33z"/></svg>