<svg xmlns="http://www.w3.org/2000/svg" width="192" height="288" viewBox="0 0 50.8 76.2"><defs><path id="a" d="M44 4h56v44H44z"/><path id="b" d="M44 4h56v44H44z"/><path id="c" d="M44 4h56v44H44z"/><path id="d" d="M44 4h56v44H44z"/><path id="e" d="M44 4h56v44H44z"/><path id="f" d="M44 4h56v44H44z"/><path id="g" d="M44 4h56v44H44z"/><path id="h" d="M44 4h56v44H44z"/><path id="i" d="M44 4h56v44H44z"/><path id="j" d="M44 4h56v44H44z"/><path id="k" d="M44 4h56v44H44z"/><path id="l" d="M44 4h56v44H44z"/><path id="m" d="M44 4h56v44H44z"/><path id="n" d="M44 4h56v44H44z"/><path id="o" d="M44 4h56v44H44z"/><path id="p" d="M44 4h56v44H44z"/><path id="q" d="M44 4h56v44H44z"/><path id="r" d="M44 4h56v44H44z"/><path id="s" d="M44 4h56v44H44z"/><path id="t" d="M44 4h56v44H44z"/><path id="u" d="M44 4h56v44H44z"/><path id="v" d="M44 4h56v44H44z"/><path id="w" d="M104 0h24v8h-24z"/><path id="x" d="M44 4h56v44H44z"/><path id="y" d="M44 4h56v44H44z"/><path id="z" d="M44 4h56v44H44z"/><path id="A" d="M44 4h56v44H44z"/><path id="B" d="M44 4h56v44H44z"/><path id="C" d="M44 4h56v44H44z"/><path id="D" d="M44 4h56v44H44z"/><path id="E" d="M44 4h56v44H44z"/><path id="F" d="M44 4h56v44H44z"/><path id="G" d="M44 4h56v44H44z"/><path id="H" d="M44 4h56v44H44z"/><path id="I" d="M104 0h24v8h-24z"/><path id="J" d="M44 4h56v44H44z"/><path id="K" d="M44 4h56v44H44z"/><path id="L" d="M44 4h56v44H44z"/><path id="M" d="M44 4h56v44H44z"/><path id="N" d="M44 4h56v44H44z"/><path id="O" d="M44 4h56v44H44z"/><path id="P" d="M44 4h56v44H44z"/><path id="Q" d="M44 4h56v44H44z"/><path id="R" d="M44 4h56v44H44z"/><path id="S" d="M44 4h56v44H44z"/><path id="T" d="M44 4h56v44H44z"/><path id="U" d="M44 4h56v44H44z"/><path id="V" d="M44 4h56v44H44z"/><path id="W" d="M44 4h56v44H44z"/><path id="X" d="M44 4h56v44H44z"/><path id="Y" d="M44 4h56v44H44z"/><path id="Z" d="M44 4h56v44H44z"/><path id="aa" d="M44 4h56v44H44z"/><path id="ab" d="M44 4h56v44H44z"/><path id="ac" d="M44 4h56v44H44z"/><path id="ad" d="M44 4h56v44H44z"/><path id="ae" d="M44 4h56v44H44z"/><path id="af" d="M104 0h24v8h-24z"/><path id="ag" d="M44 4h56v44H44z"/><path id="ah" d="M44 4h56v44H44z"/><path id="ai" d="M44 4h56v44H44z"/><path id="aj" d="M44 4h56v44H44z"/><path id="ak" d="M44 4h56v44H44z"/><path id="al" d="M44 4h56v44H44z"/><path id="am" d="M44 4h56v44H44z"/><path id="an" d="M44 4h56v44H44z"/><path id="ao" d="M44 4h56v44H44z"/><path id="ap" d="M44 4h56v44H44z"/><path id="aq" d="M44 4h56v44H44z"/><path id="ar" d="M104 0h24v8h-24z"/></defs><rect width="50.8" height="38.1" y="38.1" rx="0" ry="0" style="fill:#242424;fill-opacity:1;stroke-width:.343702;paint-order:stroke fill markers"/><rect width="7.408" height="2.117" x="2.117" y="40.217" rx="1.058" ry="1.058" style="fill:#c9c9c9;fill-opacity:1;stroke-width:.264583;paint-order:stroke fill markers"/><rect width="7.408" height="2.117" x="2.117" y="43.392" rx="1.058" ry="1.058" style="fill:#f2edde;fill-opacity:1;stroke-width:.264583;paint-order:stroke fill markers"/><rect width="7.408" height="2.117" x="2.117" y="46.567" rx="1.058" ry="1.058" style="fill:#e8e8e8;fill-opacity:1;stroke-width:.264583;paint-order:stroke fill markers"/><rect width="7.408" height="2.117" x="2.117" y="49.742" rx="1.058" ry="1.058" style="fill:#dbbfa3;fill-opacity:1;stroke-width:.264583;paint-order:stroke fill markers"/><rect width="7.408" height="2.117" x="2.117" y="56.092" rx="1.058" ry="1.058" style="fill:#dc8add;fill-opacity:1;stroke-width:.264583;paint-order:stroke fill markers"/><rect width="7.408" height="2.117" x="2.117" y="52.917" rx="1.058" ry="1.058" style="fill:#f9f06b;fill-opacity:1;stroke-width:.264583;paint-order:stroke fill markers"/><rect width="7.408" height="2.117" x="2.117" y="59.267" rx="1.058" ry="1.058" style="fill:#ffbe6f;fill-opacity:1;stroke-width:.264583;paint-order:stroke fill markers"/><rect width="7.408" height="2.117" x="2.117" y="68.792" rx="1.058" ry="1.058" style="fill:#deddda;fill-opacity:1;stroke-width:.264583;paint-order:stroke fill markers"/><rect width="7.408" height="2.117" x="2.117" y="71.967" rx="1.058" ry="1.058" style="fill:#3d3846;fill-opacity:1;stroke-width:.264583;paint-order:stroke fill markers"/><text xml:space="preserve" x="-10.685" style="font-weight:700;font-size:5.33333px;font-family:Cantarell;-inkscape-font-specification:&quot;Cantarell Bold&quot;;text-align:start;white-space:pre;shape-inside:url(#a);display:inline;fill:#6b6b6b;fill-opacity:1;paint-order:stroke fill markers" transform="translate(-1.173 39.465) scale(.26458)"><tspan x="44" y="8.789">Platinum</tspan></text><text xml:space="preserve" x="-5.536" style="font-weight:700;font-size:5.33333px;font-family:Cantarell;-inkscape-font-specification:&quot;Cantarell Bold&quot;;text-align:start;white-space:pre;shape-inside:url(#b);display:inline;fill:#8d7637;fill-opacity:1;paint-order:stroke fill markers" transform="translate(-1.173 42.64) scale(.26458)"><tspan x="44" y="8.789">Gold</tspan></text><text xml:space="preserve" x="-6.861" style="font-weight:700;font-size:5.33333px;font-family:Cantarell;-inkscape-font-specification:&quot;Cantarell Bold&quot;;text-align:start;white-space:pre;shape-inside:url(#c);display:inline;fill:#6b6b6b;fill-opacity:1;paint-order:stroke fill markers" transform="translate(-1.173 45.815) scale(.26458)"><tspan x="44" y="8.789">Silver</tspan></text><text xml:space="preserve" x="-8.341" style="font-weight:700;font-size:5.33333px;font-family:Cantarell;-inkscape-font-specification:&quot;Cantarell Bold&quot;;text-align:start;white-space:pre;shape-inside:url(#d);display:inline;fill:#5a3f1a;fill-opacity:1;paint-order:stroke fill markers" transform="translate(-1.173 48.989) scale(.26458)"><tspan x="44" y="8.789">Bronze</tspan></text><text xml:space="preserve" x="-9.816" style="font-weight:700;font-size:5.33333px;font-family:Cantarell;-inkscape-font-specification:&quot;Cantarell Bold&quot;;text-align:start;white-space:pre;shape-inside:url(#e);display:inline;fill:#613583;fill-opacity:1;paint-order:stroke fill markers" transform="translate(-1.173 55.339) scale(.26458)"><tspan x="44" y="8.789">Favorite</tspan></text><text xml:space="preserve" x="-17.301" style="font-weight:700;font-size:5.33333px;font-family:Cantarell;-inkscape-font-specification:&quot;Cantarell Bold&quot;;text-align:start;white-space:pre;shape-inside:url(#f);display:inline;fill:#e5a50a;fill-opacity:1;paint-order:stroke fill markers" transform="translate(-1.173 52.165) scale(.26458)"><tspan x="44" y="8.789">Editors Choise</tspan></text><text xml:space="preserve" x="-9.347" style="font-weight:700;font-size:5.33333px;font-family:Cantarell;-inkscape-font-specification:&quot;Cantarell Bold&quot;;text-align:start;white-space:pre;shape-inside:url(#g);display:inline;fill:#c64600;fill-opacity:1;paint-order:stroke fill markers" transform="translate(-1.173 58.529) scale(.26458)"><tspan x="44" y="8.789">Popular</tspan></text><text xml:space="preserve" x="-11.371" style="font-weight:700;font-size:5.33333px;font-family:Cantarell;-inkscape-font-specification:&quot;Cantarell Bold&quot;;text-align:start;white-space:pre;shape-inside:url(#h);display:inline;fill:#241f31;fill-opacity:1;paint-order:stroke fill markers" transform="translate(-1.173 68.054) scale(.26458)"><tspan x="44" y="8.789">Lo-Contr.</tspan></text><text xml:space="preserve" x="-11.101" style="font-weight:700;font-size:5.33333px;font-family:Cantarell;-inkscape-font-specification:&quot;Cantarell Bold&quot;;text-align:start;white-space:pre;shape-inside:url(#i);display:inline;fill:#f6f5f4;fill-opacity:1;paint-order:stroke fill markers" transform="translate(-1.173 71.215) scale(.26458)"><tspan x="44" y="8.789">Hi-Contr.</tspan></text><rect width="7.408" height="2.117" x="2.117" y="62.442" rx="1.058" ry="1.058" style="fill:#f66151;fill-opacity:1;stroke-width:.264583;paint-order:stroke fill markers"/><text xml:space="preserve" x="-5.429" style="font-weight:700;font-size:5.33333px;font-family:Cantarell;-inkscape-font-specification:&quot;Cantarell Bold&quot;;text-align:start;white-space:pre;shape-inside:url(#j);display:inline;fill:#a51d2d;fill-opacity:1;paint-order:stroke fill markers" transform="translate(-1.173 61.704) scale(.26458)"><tspan x="44" y="8.789">New</tspan></text><rect width="7.408" height="2.117" x="2.117" y="65.617" rx="1.058" ry="1.058" style="fill:#99c1f1;fill-opacity:1;stroke-width:.264583;paint-order:stroke fill markers"/><text xml:space="preserve" x="-8.283" style="font-weight:700;font-size:5.33333px;font-family:Cantarell;-inkscape-font-specification:&quot;Cantarell Bold&quot;;text-align:start;white-space:pre;shape-inside:url(#k);display:inline;fill:#1a5fb4;fill-opacity:1;paint-order:stroke fill markers" transform="translate(-1.173 64.865) scale(.26458)"><tspan x="44" y="8.789">Classic</tspan></text><rect width="2.117" height="23.283" x="28.575" y="42.862" rx="1.058" ry="1.058" style="fill:#f6f5f4;fill-opacity:1;stroke-width:.216031;paint-order:stroke fill markers"/><circle cx="29.634" cy="43.921" r=".794" style="fill:#c9c9c9;fill-opacity:1;stroke-width:.15875;paint-order:stroke fill markers"/><circle cx="29.634" cy="46.037" r=".794" style="fill:#f2edde;fill-opacity:1;stroke-width:.15875;paint-order:stroke fill markers"/><circle cx="29.634" cy="48.154" r=".794" style="fill:#e8e8e8;fill-opacity:1;stroke-width:.15875;paint-order:stroke fill markers"/><circle cx="29.634" cy="50.271" r=".794" style="fill:#dbbfa3;fill-opacity:1;stroke-width:.15875;paint-order:stroke fill markers"/><circle cx="29.634" cy="52.387" r=".794" style="fill:#f9f06b;fill-opacity:1;stroke-width:.15875;paint-order:stroke fill markers"/><circle cx="29.634" cy="54.504" r=".794" style="fill:#dc8add;fill-opacity:1;stroke-width:.15875;paint-order:stroke fill markers"/><circle cx="29.634" cy="56.621" r=".794" style="fill:#ffbe6f;fill-opacity:1;stroke-width:.15875;paint-order:stroke fill markers"/><circle cx="29.634" cy="58.737" r=".794" style="fill:#f66151;fill-opacity:1;stroke-width:.15875;paint-order:stroke fill markers"/><circle cx="29.634" cy="60.854" r=".794" style="fill:#99c1f1;fill-opacity:1;stroke-width:.15875;paint-order:stroke fill markers"/><circle cx="29.634" cy="62.971" r=".794" style="fill:#deddda;fill-opacity:1;stroke-width:.15875;paint-order:stroke fill markers"/><circle cx="29.634" cy="65.088" r=".794" style="fill:#3d3846;fill-opacity:1;stroke-width:.15875;paint-order:stroke fill markers"/><rect width="8.467" height="28.575" x="41.275" y="39.158" rx="2" ry="2" style="fill:#57e389;fill-opacity:1;stroke-width:.229136;paint-order:stroke fill markers"/><text xml:space="preserve" x="-10.685" style="font-weight:700;font-size:5.33333px;font-family:Cantarell;-inkscape-font-specification:&quot;Cantarell Bold&quot;;text-align:start;white-space:pre;shape-inside:url(#l);display:inline;fill:#241f31;fill-opacity:1;paint-order:stroke fill markers" transform="translate(30.641 42.11) scale(.26458)"><tspan x="44" y="8.789">#6b6b6b</tspan></text><text xml:space="preserve" x="-5.536" style="font-weight:700;font-size:5.33333px;font-family:Cantarell;-inkscape-font-specification:&quot;Cantarell Bold&quot;;text-align:start;white-space:pre;shape-inside:url(#m);display:inline;fill:#241f31;fill-opacity:1;paint-order:stroke fill markers" transform="translate(30.641 44.226) scale(.26458)"><tspan x="44" y="8.789">#8d7637</tspan></text><text xml:space="preserve" x="-6.861" style="font-weight:700;font-size:5.33333px;font-family:Cantarell;-inkscape-font-specification:&quot;Cantarell Bold&quot;;text-align:start;white-space:pre;shape-inside:url(#n);display:inline;fill:#241f31;fill-opacity:1;paint-order:stroke fill markers" transform="translate(30.641 46.344) scale(.26458)"><tspan x="44" y="8.789">#6b6b6b</tspan></text><text xml:space="preserve" x="-8.341" style="font-weight:700;font-size:5.33333px;font-family:Cantarell;-inkscape-font-specification:&quot;Cantarell Bold&quot;;text-align:start;white-space:pre;shape-inside:url(#o);display:inline;fill:#241f31;fill-opacity:1;paint-order:stroke fill markers" transform="translate(30.641 48.459) scale(.26458)"><tspan x="44" y="8.789">#5a3f1a</tspan></text><text xml:space="preserve" x="-9.816" style="font-weight:700;font-size:5.33333px;font-family:Cantarell;-inkscape-font-specification:&quot;Cantarell Bold&quot;;text-align:start;white-space:pre;shape-inside:url(#p);display:inline;fill:#241f31;fill-opacity:1;paint-order:stroke fill markers" transform="translate(30.641 52.692) scale(.26458)"><tspan x="44" y="8.789">#613583</tspan></text><text xml:space="preserve" x="-17.301" style="font-weight:700;font-size:5.33333px;font-family:Cantarell;-inkscape-font-specification:&quot;Cantarell Bold&quot;;text-align:start;white-space:pre;shape-inside:url(#q);display:inline;fill:#241f31;fill-opacity:1;paint-order:stroke fill markers" transform="translate(30.641 50.577) scale(.26458)"><tspan x="44" y="8.789">#e5a50a</tspan></text><text xml:space="preserve" x="-9.347" style="font-weight:700;font-size:5.33333px;font-family:Cantarell;-inkscape-font-specification:&quot;Cantarell Bold&quot;;text-align:start;white-space:pre;shape-inside:url(#r);display:inline;fill:#241f31;fill-opacity:1;paint-order:stroke fill markers" transform="translate(30.641 54.81) scale(.26458)"><tspan x="44" y="8.789">#c64600</tspan></text><text xml:space="preserve" x="-11.371" style="font-weight:700;font-size:5.33333px;font-family:Cantarell;-inkscape-font-specification:&quot;Cantarell Bold&quot;;text-align:start;white-space:pre;shape-inside:url(#s);display:inline;fill:#241f31;fill-opacity:1;paint-order:stroke fill markers" transform="translate(30.641 61.159) scale(.26458)"><tspan x="44" y="8.789">#241f31</tspan></text><text xml:space="preserve" x="-11.101" style="font-weight:700;font-size:5.33333px;font-family:Cantarell;-inkscape-font-specification:&quot;Cantarell Bold&quot;;text-align:start;white-space:pre;shape-inside:url(#t);display:inline;fill:#241f31;fill-opacity:1;paint-order:stroke fill markers" transform="translate(30.641 63.277) scale(.26458)"><tspan x="44" y="8.789">#f6f5f4</tspan></text><text xml:space="preserve" x="-5.429" style="font-weight:700;font-size:5.33333px;font-family:Cantarell;-inkscape-font-specification:&quot;Cantarell Bold&quot;;text-align:start;white-space:pre;shape-inside:url(#u);display:inline;fill:#241f31;fill-opacity:1;paint-order:stroke fill markers" transform="translate(30.641 56.927) scale(.26458)"><tspan x="44" y="8.789">#a51d2d</tspan></text><text xml:space="preserve" x="-8.283" style="font-weight:700;font-size:5.33333px;font-family:Cantarell;-inkscape-font-specification:&quot;Cantarell Bold&quot;;text-align:start;white-space:pre;shape-inside:url(#v);display:inline;fill:#241f31;fill-opacity:1;paint-order:stroke fill markers" transform="translate(30.641 59.044) scale(.26458)"><tspan x="44" y="8.789">#1a5fb4</tspan></text><text xml:space="preserve" style="font-weight:700;font-size:5.33333px;font-family:Cantarell;-inkscape-font-specification:&quot;Cantarell Bold&quot;;text-align:start;white-space:pre;shape-inside:url(#w);display:inline;fill:#241f31;fill-opacity:1;paint-order:stroke fill markers" transform="translate(14.805 41.052) scale(.26458)"><tspan x="104" y="4.789">Text</tspan></text><rect width="8.467" height="28.575" x="31.75" y="39.158" rx="2" ry="2" style="fill:#62a0ea;fill-opacity:1;stroke-width:.229135;paint-order:stroke fill markers"/><text xml:space="preserve" x="-10.685" style="font-weight:700;font-size:5.33333px;font-family:Cantarell;-inkscape-font-specification:&quot;Cantarell Bold&quot;;text-align:start;white-space:pre;shape-inside:url(#x);display:inline;fill:#fff;fill-opacity:1;paint-order:stroke fill markers" transform="translate(21.116 42.11) scale(.26458)"><tspan x="44" y="8.789">#c9c9c9</tspan></text><text xml:space="preserve" x="-5.536" style="font-weight:700;font-size:5.33333px;font-family:Cantarell;-inkscape-font-specification:&quot;Cantarell Bold&quot;;text-align:start;white-space:pre;shape-inside:url(#y);display:inline;fill:#fff;fill-opacity:1;paint-order:stroke fill markers" transform="translate(21.116 44.227) scale(.26458)"><tspan x="44" y="8.789">#f2edde</tspan></text><text xml:space="preserve" x="-6.861" style="font-weight:700;font-size:5.33333px;font-family:Cantarell;-inkscape-font-specification:&quot;Cantarell Bold&quot;;text-align:start;white-space:pre;shape-inside:url(#z);display:inline;fill:#fff;fill-opacity:1;paint-order:stroke fill markers" transform="translate(21.116 46.344) scale(.26458)"><tspan x="44" y="8.789">#e8e8e8</tspan></text><text xml:space="preserve" x="-8.341" style="font-weight:700;font-size:5.33333px;font-family:Cantarell;-inkscape-font-specification:&quot;Cantarell Bold&quot;;text-align:start;white-space:pre;shape-inside:url(#A);display:inline;fill:#fff;fill-opacity:1;paint-order:stroke fill markers" transform="translate(21.116 48.459) scale(.26458)"><tspan x="44" y="8.789">#dbbfa3</tspan></text><text xml:space="preserve" x="-9.816" style="font-weight:700;font-size:5.33333px;font-family:Cantarell;-inkscape-font-specification:&quot;Cantarell Bold&quot;;text-align:start;white-space:pre;shape-inside:url(#B);display:inline;fill:#fff;fill-opacity:1;paint-order:stroke fill markers" transform="translate(21.116 52.694) scale(.26458)"><tspan x="44" y="8.789">#dc8add</tspan></text><text xml:space="preserve" x="-17.301" style="font-weight:700;font-size:5.33333px;font-family:Cantarell;-inkscape-font-specification:&quot;Cantarell Bold&quot;;text-align:start;white-space:pre;shape-inside:url(#C);display:inline;fill:#fff;fill-opacity:1;paint-order:stroke fill markers" transform="translate(21.116 50.577) scale(.26458)"><tspan x="44" y="8.789">#f9f06b</tspan></text><text xml:space="preserve" x="-9.347" style="font-weight:700;font-size:5.33333px;font-family:Cantarell;-inkscape-font-specification:&quot;Cantarell Bold&quot;;text-align:start;white-space:pre;shape-inside:url(#D);display:inline;fill:#fff;fill-opacity:1;paint-order:stroke fill markers" transform="translate(21.116 54.81) scale(.26458)"><tspan x="44" y="8.789">#ffbe6f</tspan></text><text xml:space="preserve" x="-11.371" style="font-weight:700;font-size:5.33333px;font-family:Cantarell;-inkscape-font-specification:&quot;Cantarell Bold&quot;;text-align:start;white-space:pre;shape-inside:url(#E);display:inline;fill:#fff;fill-opacity:1;paint-order:stroke fill markers" transform="translate(21.116 61.16) scale(.26458)"><tspan x="44" y="8.789">#deddda</tspan></text><text xml:space="preserve" x="-11.101" style="font-weight:700;font-size:5.33333px;font-family:Cantarell;-inkscape-font-specification:&quot;Cantarell Bold&quot;;text-align:start;white-space:pre;shape-inside:url(#F);display:inline;fill:#fff;fill-opacity:1;paint-order:stroke fill markers" transform="translate(21.116 63.276) scale(.26458)"><tspan x="44" y="8.789">#3d3846</tspan></text><text xml:space="preserve" x="-5.429" style="font-weight:700;font-size:5.33333px;font-family:Cantarell;-inkscape-font-specification:&quot;Cantarell Bold&quot;;text-align:start;white-space:pre;shape-inside:url(#G);display:inline;fill:#fff;fill-opacity:1;paint-order:stroke fill markers" transform="translate(21.116 56.927) scale(.26458)"><tspan x="44" y="8.789">#f66151</tspan></text><text xml:space="preserve" x="-8.283" style="font-weight:700;font-size:5.33333px;font-family:Cantarell;-inkscape-font-specification:&quot;Cantarell Bold&quot;;text-align:start;white-space:pre;shape-inside:url(#H);display:inline;fill:#fff;fill-opacity:1;paint-order:stroke fill markers" transform="translate(21.116 59.044) scale(.26458)"><tspan x="44" y="8.789">#99c1f1</tspan></text><text xml:space="preserve" style="font-weight:700;font-size:5.33333px;font-family:Cantarell;-inkscape-font-specification:&quot;Cantarell Bold&quot;;text-align:start;white-space:pre;shape-inside:url(#I);display:inline;fill:#fff;fill-opacity:1;paint-order:stroke fill markers" transform="translate(5.178 41.055) scale(.26458)"><tspan x="104" y="4.789">Pill</tspan></text><rect width="50.8" height="38.1" rx="0" ry="0" style="fill:#fafafa;fill-opacity:1;stroke-width:.343702;paint-order:stroke fill markers"/><rect width="7.408" height="2.117" x="2.117" y="2.117" rx="1.058" ry="1.058" style="fill:#c9c9c9;fill-opacity:1;stroke-width:.264583;paint-order:stroke fill markers"/><rect width="7.408" height="2.117" x="2.117" y="5.292" rx="1.058" ry="1.058" style="fill:#f2edde;fill-opacity:1;stroke-width:.264583;paint-order:stroke fill markers"/><rect width="7.408" height="2.117" x="2.117" y="8.467" rx="1.058" ry="1.058" style="fill:#e8e8e8;fill-opacity:1;stroke-width:.264583;paint-order:stroke fill markers"/><rect width="7.408" height="2.117" x="2.117" y="11.642" rx="1.058" ry="1.058" style="fill:#dbbfa3;fill-opacity:1;stroke-width:.264583;paint-order:stroke fill markers"/><rect width="7.408" height="2.117" x="2.117" y="17.992" rx="1.058" ry="1.058" style="fill:#dc8add;fill-opacity:1;stroke-width:.264583;paint-order:stroke fill markers"/><rect width="7.408" height="2.117" x="2.117" y="14.817" rx="1.058" ry="1.058" style="fill:#f9f06b;fill-opacity:1;stroke-width:.264583;paint-order:stroke fill markers"/><rect width="7.408" height="2.117" x="2.117" y="21.167" rx="1.058" ry="1.058" style="fill:#ffbe6f;fill-opacity:1;stroke-width:.264583;paint-order:stroke fill markers"/><rect width="7.408" height="2.117" x="2.117" y="30.692" rx="1.058" ry="1.058" style="fill:#deddda;fill-opacity:1;stroke-width:.264583;paint-order:stroke fill markers"/><rect width="7.408" height="2.117" x="2.117" y="33.867" rx="1.058" ry="1.058" style="fill:#3d3846;fill-opacity:1;stroke-width:.264583;paint-order:stroke fill markers"/><text xml:space="preserve" x="-10.685" style="font-weight:700;font-size:5.33333px;font-family:Cantarell;-inkscape-font-specification:&quot;Cantarell Bold&quot;;text-align:start;white-space:pre;shape-inside:url(#J);display:inline;fill:#6b6b6b;fill-opacity:1;paint-order:stroke fill markers" transform="translate(-1.173 1.365) scale(.26458)"><tspan x="44" y="8.789">Platinum</tspan></text><text xml:space="preserve" x="-5.536" style="font-weight:700;font-size:5.33333px;font-family:Cantarell;-inkscape-font-specification:&quot;Cantarell Bold&quot;;text-align:start;white-space:pre;shape-inside:url(#K);display:inline;fill:#8d7637;fill-opacity:1;paint-order:stroke fill markers" transform="translate(-1.173 4.54) scale(.26458)"><tspan x="44" y="8.789">Gold</tspan></text><text xml:space="preserve" x="-6.861" style="font-weight:700;font-size:5.33333px;font-family:Cantarell;-inkscape-font-specification:&quot;Cantarell Bold&quot;;text-align:start;white-space:pre;shape-inside:url(#L);display:inline;fill:#6b6b6b;fill-opacity:1;paint-order:stroke fill markers" transform="translate(-1.173 7.715) scale(.26458)"><tspan x="44" y="8.789">Silver</tspan></text><text xml:space="preserve" x="-8.341" style="font-weight:700;font-size:5.33333px;font-family:Cantarell;-inkscape-font-specification:&quot;Cantarell Bold&quot;;text-align:start;white-space:pre;shape-inside:url(#M);display:inline;fill:#5a3f1a;fill-opacity:1;paint-order:stroke fill markers" transform="translate(-1.173 10.889) scale(.26458)"><tspan x="44" y="8.789">Bronze</tspan></text><text xml:space="preserve" x="-9.816" style="font-weight:700;font-size:5.33333px;font-family:Cantarell;-inkscape-font-specification:&quot;Cantarell Bold&quot;;text-align:start;white-space:pre;shape-inside:url(#N);display:inline;fill:#613583;fill-opacity:1;paint-order:stroke fill markers" transform="translate(-1.173 17.239) scale(.26458)"><tspan x="44" y="8.789">Favorite</tspan></text><text xml:space="preserve" x="-17.301" style="font-weight:700;font-size:5.33333px;font-family:Cantarell;-inkscape-font-specification:&quot;Cantarell Bold&quot;;text-align:start;white-space:pre;shape-inside:url(#O);display:inline;fill:#e5a50a;fill-opacity:1;paint-order:stroke fill markers" transform="translate(-1.173 14.065) scale(.26458)"><tspan x="44" y="8.789">Editors Choise</tspan></text><text xml:space="preserve" x="-9.347" style="font-weight:700;font-size:5.33333px;font-family:Cantarell;-inkscape-font-specification:&quot;Cantarell Bold&quot;;text-align:start;white-space:pre;shape-inside:url(#P);display:inline;fill:#c64600;fill-opacity:1;paint-order:stroke fill markers" transform="translate(-1.173 20.429) scale(.26458)"><tspan x="44" y="8.789">Popular</tspan></text><text xml:space="preserve" x="-11.371" style="font-weight:700;font-size:5.33333px;font-family:Cantarell;-inkscape-font-specification:&quot;Cantarell Bold&quot;;text-align:start;white-space:pre;shape-inside:url(#Q);display:inline;fill:#241f31;fill-opacity:1;paint-order:stroke fill markers" transform="translate(-1.173 29.954) scale(.26458)"><tspan x="44" y="8.789">Lo-Contr.</tspan></text><text xml:space="preserve" x="-11.101" style="font-weight:700;font-size:5.33333px;font-family:Cantarell;-inkscape-font-specification:&quot;Cantarell Bold&quot;;text-align:start;white-space:pre;shape-inside:url(#R);display:inline;fill:#f6f5f4;fill-opacity:1;paint-order:stroke fill markers" transform="translate(-1.173 33.115) scale(.26458)"><tspan x="44" y="8.789">Hi-Contr.</tspan></text><rect width="7.408" height="2.117" x="2.117" y="24.342" rx="1.058" ry="1.058" style="fill:#f66151;fill-opacity:1;stroke-width:.264583;paint-order:stroke fill markers"/><text xml:space="preserve" x="-5.429" style="font-weight:700;font-size:5.33333px;font-family:Cantarell;-inkscape-font-specification:&quot;Cantarell Bold&quot;;text-align:start;white-space:pre;shape-inside:url(#S);display:inline;fill:#a51d2d;fill-opacity:1;paint-order:stroke fill markers" transform="translate(-1.173 23.604) scale(.26458)"><tspan x="44" y="8.789">New</tspan></text><rect width="7.408" height="2.117" x="2.117" y="27.517" rx="1.058" ry="1.058" style="fill:#99c1f1;fill-opacity:1;stroke-width:.264583;paint-order:stroke fill markers"/><text xml:space="preserve" x="-8.283" style="font-weight:700;font-size:5.33333px;font-family:Cantarell;-inkscape-font-specification:&quot;Cantarell Bold&quot;;text-align:start;white-space:pre;shape-inside:url(#T);display:inline;fill:#1a5fb4;fill-opacity:1;paint-order:stroke fill markers" transform="translate(-1.173 26.765) scale(.26458)"><tspan x="44" y="8.789">Classic</tspan></text><rect width="2.117" height="23.283" x="28.575" y="4.762" rx="1.058" ry="1.058" style="fill:#241f31;fill-opacity:1;stroke-width:.216031;paint-order:stroke fill markers"/><circle cx="29.634" cy="5.821" r=".794" style="fill:#c9c9c9;fill-opacity:1;stroke-width:.15875;paint-order:stroke fill markers"/><circle cx="29.634" cy="7.937" r=".794" style="fill:#f2edde;fill-opacity:1;stroke-width:.15875;paint-order:stroke fill markers"/><circle cx="29.634" cy="10.054" r=".794" style="fill:#e8e8e8;fill-opacity:1;stroke-width:.15875;paint-order:stroke fill markers"/><circle cx="29.634" cy="12.171" r=".794" style="fill:#dbbfa3;fill-opacity:1;stroke-width:.15875;paint-order:stroke fill markers"/><circle cx="29.634" cy="14.287" r=".794" style="fill:#f9f06b;fill-opacity:1;stroke-width:.15875;paint-order:stroke fill markers"/><circle cx="29.634" cy="16.404" r=".794" style="fill:#dc8add;fill-opacity:1;stroke-width:.15875;paint-order:stroke fill markers"/><circle cx="29.634" cy="18.521" r=".794" style="fill:#ffbe6f;fill-opacity:1;stroke-width:.15875;paint-order:stroke fill markers"/><circle cx="29.634" cy="20.637" r=".794" style="fill:#f66151;fill-opacity:1;stroke-width:.15875;paint-order:stroke fill markers"/><circle cx="29.634" cy="22.754" r=".794" style="fill:#99c1f1;fill-opacity:1;stroke-width:.15875;paint-order:stroke fill markers"/><circle cx="29.634" cy="24.871" r=".794" style="fill:#deddda;fill-opacity:1;stroke-width:.15875;paint-order:stroke fill markers"/><circle cx="29.634" cy="26.988" r=".794" style="fill:#3d3846;fill-opacity:1;stroke-width:.15875;paint-order:stroke fill markers"/><rect width="8.467" height="28.575" x="41.275" y="1.058" rx="2" ry="2" style="fill:#57e389;fill-opacity:1;stroke-width:.229136;paint-order:stroke fill markers"/><text xml:space="preserve" x="-10.685" style="font-weight:700;font-size:5.33333px;font-family:Cantarell;-inkscape-font-specification:&quot;Cantarell Bold&quot;;text-align:start;white-space:pre;shape-inside:url(#U);display:inline;fill:#241f31;fill-opacity:1;paint-order:stroke fill markers" transform="translate(30.641 4.01) scale(.26458)"><tspan x="44" y="8.789">#6b6b6b</tspan></text><text xml:space="preserve" x="-5.536" style="font-weight:700;font-size:5.33333px;font-family:Cantarell;-inkscape-font-specification:&quot;Cantarell Bold&quot;;text-align:start;white-space:pre;shape-inside:url(#V);display:inline;fill:#241f31;fill-opacity:1;paint-order:stroke fill markers" transform="translate(30.641 6.126) scale(.26458)"><tspan x="44" y="8.789">#8d7637</tspan></text><text xml:space="preserve" x="-6.861" style="font-weight:700;font-size:5.33333px;font-family:Cantarell;-inkscape-font-specification:&quot;Cantarell Bold&quot;;text-align:start;white-space:pre;shape-inside:url(#W);display:inline;fill:#241f31;fill-opacity:1;paint-order:stroke fill markers" transform="translate(30.641 8.244) scale(.26458)"><tspan x="44" y="8.789">#6b6b6b</tspan></text><text xml:space="preserve" x="-8.341" style="font-weight:700;font-size:5.33333px;font-family:Cantarell;-inkscape-font-specification:&quot;Cantarell Bold&quot;;text-align:start;white-space:pre;shape-inside:url(#X);display:inline;fill:#241f31;fill-opacity:1;paint-order:stroke fill markers" transform="translate(30.641 10.359) scale(.26458)"><tspan x="44" y="8.789">#5a3f1a</tspan></text><text xml:space="preserve" x="-9.816" style="font-weight:700;font-size:5.33333px;font-family:Cantarell;-inkscape-font-specification:&quot;Cantarell Bold&quot;;text-align:start;white-space:pre;shape-inside:url(#Y);display:inline;fill:#241f31;fill-opacity:1;paint-order:stroke fill markers" transform="translate(30.641 14.592) scale(.26458)"><tspan x="44" y="8.789">#613583</tspan></text><text xml:space="preserve" x="-17.301" style="font-weight:700;font-size:5.33333px;font-family:Cantarell;-inkscape-font-specification:&quot;Cantarell Bold&quot;;text-align:start;white-space:pre;shape-inside:url(#Z);display:inline;fill:#241f31;fill-opacity:1;paint-order:stroke fill markers" transform="translate(30.641 12.477) scale(.26458)"><tspan x="44" y="8.789">#e5a50a</tspan></text><text xml:space="preserve" x="-9.347" style="font-weight:700;font-size:5.33333px;font-family:Cantarell;-inkscape-font-specification:&quot;Cantarell Bold&quot;;text-align:start;white-space:pre;shape-inside:url(#aa);display:inline;fill:#241f31;fill-opacity:1;paint-order:stroke fill markers" transform="translate(30.641 16.71) scale(.26458)"><tspan x="44" y="8.789">#c64600</tspan></text><text xml:space="preserve" x="-11.371" style="font-weight:700;font-size:5.33333px;font-family:Cantarell;-inkscape-font-specification:&quot;Cantarell Bold&quot;;text-align:start;white-space:pre;shape-inside:url(#ab);display:inline;fill:#241f31;fill-opacity:1;paint-order:stroke fill markers" transform="translate(30.641 23.059) scale(.26458)"><tspan x="44" y="8.789">#241f31</tspan></text><text xml:space="preserve" x="-11.101" style="font-weight:700;font-size:5.33333px;font-family:Cantarell;-inkscape-font-specification:&quot;Cantarell Bold&quot;;text-align:start;white-space:pre;shape-inside:url(#ac);display:inline;fill:#241f31;fill-opacity:1;paint-order:stroke fill markers" transform="translate(30.641 25.177) scale(.26458)"><tspan x="44" y="8.789">#f6f5f4</tspan></text><text xml:space="preserve" x="-5.429" style="font-weight:700;font-size:5.33333px;font-family:Cantarell;-inkscape-font-specification:&quot;Cantarell Bold&quot;;text-align:start;white-space:pre;shape-inside:url(#ad);display:inline;fill:#241f31;fill-opacity:1;paint-order:stroke fill markers" transform="translate(30.641 18.827) scale(.26458)"><tspan x="44" y="8.789">#a51d2d</tspan></text><text xml:space="preserve" x="-8.283" style="font-weight:700;font-size:5.33333px;font-family:Cantarell;-inkscape-font-specification:&quot;Cantarell Bold&quot;;text-align:start;white-space:pre;shape-inside:url(#ae);display:inline;fill:#241f31;fill-opacity:1;paint-order:stroke fill markers" transform="translate(30.641 20.944) scale(.26458)"><tspan x="44" y="8.789">#1a5fb4</tspan></text><text xml:space="preserve" style="font-weight:700;font-size:5.33333px;font-family:Cantarell;-inkscape-font-specification:&quot;Cantarell Bold&quot;;text-align:start;white-space:pre;shape-inside:url(#af);display:inline;fill:#241f31;fill-opacity:1;paint-order:stroke fill markers" transform="translate(14.805 2.952) scale(.26458)"><tspan x="104" y="4.789">Text</tspan></text><rect width="8.467" height="28.575" x="31.75" y="1.058" rx="2" ry="2" style="fill:#62a0ea;fill-opacity:1;stroke-width:.229135;paint-order:stroke fill markers"/><text xml:space="preserve" x="-10.685" style="font-weight:700;font-size:5.33333px;font-family:Cantarell;-inkscape-font-specification:&quot;Cantarell Bold&quot;;text-align:start;white-space:pre;shape-inside:url(#ag);display:inline;fill:#fff;fill-opacity:1;paint-order:stroke fill markers" transform="translate(21.116 4.01) scale(.26458)"><tspan x="44" y="8.789">#c9c9c9</tspan></text><text xml:space="preserve" x="-5.536" style="font-weight:700;font-size:5.33333px;font-family:Cantarell;-inkscape-font-specification:&quot;Cantarell Bold&quot;;text-align:start;white-space:pre;shape-inside:url(#ah);display:inline;fill:#fff;fill-opacity:1;paint-order:stroke fill markers" transform="translate(21.116 6.127) scale(.26458)"><tspan x="44" y="8.789">#f2edde</tspan></text><text xml:space="preserve" x="-6.861" style="font-weight:700;font-size:5.33333px;font-family:Cantarell;-inkscape-font-specification:&quot;Cantarell Bold&quot;;text-align:start;white-space:pre;shape-inside:url(#ai);display:inline;fill:#fff;fill-opacity:1;paint-order:stroke fill markers" transform="translate(21.116 8.244) scale(.26458)"><tspan x="44" y="8.789">#e8e8e8</tspan></text><text xml:space="preserve" x="-8.341" style="font-weight:700;font-size:5.33333px;font-family:Cantarell;-inkscape-font-specification:&quot;Cantarell Bold&quot;;text-align:start;white-space:pre;shape-inside:url(#aj);display:inline;fill:#fff;fill-opacity:1;paint-order:stroke fill markers" transform="translate(21.116 10.359) scale(.26458)"><tspan x="44" y="8.789">#dbbfa3</tspan></text><text xml:space="preserve" x="-9.816" style="font-weight:700;font-size:5.33333px;font-family:Cantarell;-inkscape-font-specification:&quot;Cantarell Bold&quot;;text-align:start;white-space:pre;shape-inside:url(#ak);display:inline;fill:#fff;fill-opacity:1;paint-order:stroke fill markers" transform="translate(21.116 14.594) scale(.26458)"><tspan x="44" y="8.789">#dc8add</tspan></text><text xml:space="preserve" x="-17.301" style="font-weight:700;font-size:5.33333px;font-family:Cantarell;-inkscape-font-specification:&quot;Cantarell Bold&quot;;text-align:start;white-space:pre;shape-inside:url(#al);display:inline;fill:#fff;fill-opacity:1;paint-order:stroke fill markers" transform="translate(21.116 12.477) scale(.26458)"><tspan x="44" y="8.789">#f9f06b</tspan></text><text xml:space="preserve" x="-9.347" style="font-weight:700;font-size:5.33333px;font-family:Cantarell;-inkscape-font-specification:&quot;Cantarell Bold&quot;;text-align:start;white-space:pre;shape-inside:url(#am);display:inline;fill:#fff;fill-opacity:1;paint-order:stroke fill markers" transform="translate(21.116 16.71) scale(.26458)"><tspan x="44" y="8.789">#ffbe6f</tspan></text><text xml:space="preserve" x="-11.371" style="font-weight:700;font-size:5.33333px;font-family:Cantarell;-inkscape-font-specification:&quot;Cantarell Bold&quot;;text-align:start;white-space:pre;shape-inside:url(#an);display:inline;fill:#fff;fill-opacity:1;paint-order:stroke fill markers" transform="translate(21.116 23.06) scale(.26458)"><tspan x="44" y="8.789">#deddda</tspan></text><text xml:space="preserve" x="-11.101" style="font-weight:700;font-size:5.33333px;font-family:Cantarell;-inkscape-font-specification:&quot;Cantarell Bold&quot;;text-align:start;white-space:pre;shape-inside:url(#ao);display:inline;fill:#fff;fill-opacity:1;paint-order:stroke fill markers" transform="translate(21.116 25.176) scale(.26458)"><tspan x="44" y="8.789">#3d3846</tspan></text><text xml:space="preserve" x="-5.429" style="font-weight:700;font-size:5.33333px;font-family:Cantarell;-inkscape-font-specification:&quot;Cantarell Bold&quot;;text-align:start;white-space:pre;shape-inside:url(#ap);display:inline;fill:#fff;fill-opacity:1;paint-order:stroke fill markers" transform="translate(21.116 18.827) scale(.26458)"><tspan x="44" y="8.789">#f66151</tspan></text><text xml:space="preserve" x="-8.283" style="font-weight:700;font-size:5.33333px;font-family:Cantarell;-inkscape-font-specification:&quot;Cantarell Bold&quot;;text-align:start;white-space:pre;shape-inside:url(#aq);display:inline;fill:#fff;fill-opacity:1;paint-order:stroke fill markers" transform="translate(21.116 20.944) scale(.26458)"><tspan x="44" y="8.789">#99c1f1</tspan></text><text xml:space="preserve" style="font-weight:700;font-size:5.33333px;font-family:Cantarell;-inkscape-font-specification:&quot;Cantarell Bold&quot;;text-align:start;white-space:pre;shape-inside:url(#ar);display:inline;fill:#fff;fill-opacity:1;paint-order:stroke fill markers" transform="translate(5.178 2.955) scale(.26458)"><tspan x="104" y="4.789">Pill</tspan></text></svg>