<svg xmlns="http://www.w3.org/2000/svg" xmlns:xlink="http://www.w3.org/1999/xlink" width="256" height="256"><defs><linearGradient id="a" x1="0" x2="0" y1="0" y2="1"><stop offset="0%" style="stop-color:#62a0ea;stop-opacity:1"/><stop offset="100%" style="stop-color:#1c71d8;stop-opacity:1"/></linearGradient><filter id="c"><feColorMatrix in="SourceGraphic" values="0 0 0 1 0 0 0 0 1 0 0 0 0 1 0 0 0 0 1 0"/></filter><svg xmlns="http://www.w3.org/2000/svg" id="b" width="16" height="16" viewBox="0 0 16 16"><path fill="#222" d="M8 1 3.5 5.5h.027A6.002 6.002 0 0 0 8 15.5c3.313 0 6-2.688 6-6a5.983 5.983 0 0 0-1.531-4h.031zm-.02 2.691s2.344 2.465 3.079 3.34a4.016 4.016 0 0 1-3.078 6.602 4.015 4.015 0 0 1-4.016-4.02c0-1.02.383-1.953 1.008-2.664.738-.828 3.007-3.258 3.007-3.258zm0 0"/></svg></defs><rect width="256" height="256" fill="url(#a)" ry="0"/><use xlink:href="#b" filter="url(#c)" transform="matrix(8 0 0 8 64 64)"/></svg>