<svg xmlns="http://www.w3.org/2000/svg" xmlns:xlink="http://www.w3.org/1999/xlink" width="256" height="256"><defs><linearGradient id="a" x1="0" x2="0" y1="0" y2="1"><stop offset="0%" style="stop-color:#1c71d8;stop-opacity:1"/><stop offset="100%" style="stop-color:#dc8add;stop-opacity:1"/></linearGradient><filter id="c"><feColorMatrix in="SourceGraphic" values="0 0 0 1 0 0 0 0 1 0 0 0 0 1 0 0 0 0 1 0"/></filter><svg xmlns="http://www.w3.org/2000/svg" id="b" width="16" height="16" viewBox="0 0 16 16"><path fill="#222" d="M6.5 1C5.668 1 5 1.668 5 2.5V4H2c-.555 0-1 .445-1 1v3h1.5C3.332 8 4 8.668 4 9.5S3.332 11 2.5 11H1v3c0 .555.445 1 1 1h3v-1.5c0-.832.668-1.5 1.5-1.5s1.5.668 1.5 1.5V15h3c.555 0 1-.445 1-1v-3h1.5c.832 0 1.5-.668 1.5-1.5S14.332 8 13.5 8H12V5c0-.555-.445-1-1-1H8V2.5C8 1.668 7.332 1 6.5 1zm0 0"/></svg></defs><rect width="256" height="256" fill="url(#a)" ry="0"/><use xlink:href="#b" filter="url(#c)" transform="matrix(8 0 0 8 64 64)"/></svg>