<svg xmlns="http://www.w3.org/2000/svg" xmlns:xlink="http://www.w3.org/1999/xlink" width="256" height="256"><defs><linearGradient id="a" x1="0" x2="0" y1="0" y2="1"><stop offset="0%" style="stop-color:#c061cb;stop-opacity:1"/><stop offset="100%" style="stop-color:#ffa348;stop-opacity:1"/></linearGradient><filter id="c"><feColorMatrix in="SourceGraphic" values="0 0 0 1 0 0 0 0 1 0 0 0 0 1 0 0 0 0 1 0"/></filter><svg xmlns="http://www.w3.org/2000/svg" xmlns:svg="http://www.w3.org/2000/svg" id="b" width="16" height="16" viewBox="0 0 16 16"><g stroke-linecap="round" stroke-linejoin="round"><path stroke-width="3.196" d="m7 13.242 7.717-7.717-4.242-4.242L7 4.758z"/><path stroke-width="3.477" d="M5.656 16H16v-6h-4.344z"/><path stroke-width="6.575" d="M0 12v1a3 3 0 0 0 6 0v-1H3a1 1 0 1 1 0 2 1 1 0 0 1 0-2z"/><g stroke-width="3.319"><path d="M0 0h6v4H0z" opacity=".7"/><path d="M0 4h6v4H0z" opacity=".8"/><path d="M0 8h6v4H0z" opacity=".9"/></g></g></svg></defs><rect width="256" height="256" fill="url(#a)" ry="0"/><use xlink:href="#b" filter="url(#c)" transform="matrix(8 0 0 8 64 64)"/></svg>