<?xml version="1.0" encoding="UTF-8" standalone="no"?>
<svg
   height="128px"
   viewBox="0 0 128 128"
   width="128px"
   version="1.1"
   id="svg3437"
   sodipodi:docname="devel-logo.svg"
   inkscape:version="1.2.1 (9c6d41e410, 2022-07-14, custom)"
   xmlns:inkscape="http://www.inkscape.org/namespaces/inkscape"
   xmlns:sodipodi="http://sodipodi.sourceforge.net/DTD/sodipodi-0.dtd"
   xmlns:xlink="http://www.w3.org/1999/xlink"
   xmlns="http://www.w3.org/2000/svg"
   xmlns:svg="http://www.w3.org/2000/svg">
  <defs
     id="defs3441" />
  <sodipodi:namedview
     id="namedview3439"
     pagecolor="#ffffff"
     bordercolor="#000000"
     borderopacity="0.25"
     inkscape:showpageshadow="2"
     inkscape:pageopacity="0.0"
     inkscape:pagecheckerboard="0"
     inkscape:deskcolor="#d1d1d1"
     showgrid="false"
     inkscape:zoom="2"
     inkscape:cx="55"
     inkscape:cy="64"
     inkscape:window-width="1680"
     inkscape:window-height="985"
     inkscape:window-x="0"
     inkscape:window-y="0"
     inkscape:window-maximized="1"
     inkscape:current-layer="svg3437" />
  <clipPath
     id="a">
    <path
       d="m 8 28 h 112 v 16 h -112 z m 0 0"
       id="path3294" />
  </clipPath>
  <clipPath
     id="b">
    <path
       d="m 16 28 h 96 c 4.417969 0 8 3.582031 8 8 v 72 c 0 4.417969 -3.582031 8 -8 8 h -96 c -4.417969 0 -8 -3.582031 -8 -8 v -72 c 0 -4.417969 3.582031 -8 8 -8 z m 0 0"
       id="path3297" />
  </clipPath>
  <filter
     id="c"
     height="1"
     width="1"
     x="0"
     y="0">
    <feColorMatrix
       in="SourceGraphic"
       type="matrix"
       values="0 0 0 0 1 0 0 0 0 1 0 0 0 0 1 0 0 0 1 0"
       id="feColorMatrix3300" />
  </filter>
  <mask
     id="d">
    <g
       filter="url(#c)"
       id="g3305">
      <rect
         fill-opacity="0.7"
         height="128"
         width="128"
         id="rect3303" />
    </g>
  </mask>
  <clipPath
     id="e">
    <path
       d="m 16 44 h 40 v 74 h -40 z m 0 0"
       id="path3308" />
  </clipPath>
  <clipPath
     id="f">
    <path
       d="m 24 44 h 96 c 4.417969 0 8 3.582031 8 8 v 72 c 0 4.417969 -3.582031 8 -8 8 h -96 c -4.417969 0 -8 -3.582031 -8 -8 v -72 c 0 -4.417969 3.582031 -8 8 -8 z m 0 0"
       id="path3311" />
  </clipPath>
  <clipPath
     id="g">
    <path
       d="m 16 44 h 52 v 61 h -52 z m 0 0"
       id="path3314" />
  </clipPath>
  <clipPath
     id="h">
    <path
       d="m 24 44 h 96 c 4.417969 0 8 3.582031 8 8 v 72 c 0 4.417969 -3.582031 8 -8 8 h -96 c -4.417969 0 -8 -3.582031 -8 -8 v -72 c 0 -4.417969 3.582031 -8 8 -8 z m 0 0"
       id="path3317" />
  </clipPath>
  <clipPath
     id="i">
    <path
       d="m 16 44 h 78 v 36 h -78 z m 0 0"
       id="path3320" />
  </clipPath>
  <clipPath
     id="j">
    <path
       d="m 24 44 h 96 c 4.417969 0 8 3.582031 8 8 v 72 c 0 4.417969 -3.582031 8 -8 8 h -96 c -4.417969 0 -8 -3.582031 -8 -8 v -72 c 0 -4.417969 3.582031 -8 8 -8 z m 0 0"
       id="path3323" />
  </clipPath>
  <clipPath
     id="k">
    <path
       d="m 16 44 h 65 v 48 h -65 z m 0 0"
       id="path3326" />
  </clipPath>
  <clipPath
     id="l">
    <path
       d="m 24 44 h 96 c 4.417969 0 8 3.582031 8 8 v 72 c 0 4.417969 -3.582031 8 -8 8 h -96 c -4.417969 0 -8 -3.582031 -8 -8 v -72 c 0 -4.417969 3.582031 -8 8 -8 z m 0 0"
       id="path3329" />
  </clipPath>
  <clipPath
     id="m">
    <rect
       height="152"
       width="192"
       id="rect3332" />
  </clipPath>
  <linearGradient
     id="n"
     gradientUnits="userSpaceOnUse">
    <stop
       offset="0"
       stop-color="#9a9996"
       id="stop3335" />
    <stop
       offset="0.5"
       stop-color="#ffffff"
       id="stop3337" />
    <stop
       offset="1"
       stop-color="#c0bfbc"
       id="stop3339" />
  </linearGradient>
  <linearGradient
     id="o"
     gradientTransform="matrix(-0.419845,0.419845,1.06066,1.06066,-134.59859,-232.6523)"
     x1="46"
     x2="46"
     xlink:href="#n"
     y1="232"
     y2="228" />
  <linearGradient
     id="p"
     gradientTransform="matrix(0.839689,-0.839689,-1.06066,-1.06066,296.5593,341.69527)"
     x1="46"
     x2="46"
     xlink:href="#n"
     y1="232"
     y2="228" />
  <linearGradient
     id="q"
     gradientTransform="matrix(-0.574524,-0.574524,-1.06066,1.06066,372.92707,-173.78546)"
     x1="46"
     x2="46"
     xlink:href="#n"
     y1="232"
     y2="228" />
  <linearGradient
     id="r"
     gradientTransform="matrix(-0.342728,-0.342728,-1.06066,1.06066,338.08329,-147.81703)"
     x1="46"
     x2="46"
     xlink:href="#n"
     y1="232"
     y2="228" />
  <linearGradient
     id="s"
     gradientUnits="userSpaceOnUse">
    <stop
       offset="0"
       stop-color="#241f31"
       id="stop3346" />
    <stop
       offset="0.5"
       stop-color="#3d3846"
       id="stop3348" />
    <stop
       offset="1"
       stop-color="#241f31"
       id="stop3350" />
  </linearGradient>
  <linearGradient
     id="t"
     gradientTransform="matrix(1.06066,-1.06066,1.099944,1.099944,-108.33775,105.79674)"
     x1="81.999992"
     x2="81.999992"
     xlink:href="#s"
     y1="47.000011"
     y2="65.000015" />
  <linearGradient
     id="u"
     gradientUnits="userSpaceOnUse">
    <stop
       offset="0"
       stop-color="#f5c211"
       id="stop3354" />
    <stop
       offset="0.5"
       stop-color="#f6d32d"
       id="stop3356" />
    <stop
       offset="1"
       stop-color="#e5a50a"
       id="stop3358" />
  </linearGradient>
  <linearGradient
     id="v"
     gradientTransform="matrix(1.06066,-1.06066,1.099944,1.099944,-95.609824,93.068823)"
     x1="81.999992"
     x2="81.999992"
     xlink:href="#u"
     y1="47.000011"
     y2="65.000015" />
  <linearGradient
     id="w"
     gradientTransform="matrix(1.06066,-1.06066,1.099944,1.099944,-70.153979,67.612977)"
     x1="81.999969"
     x2="81.999969"
     xlink:href="#u"
     y1="47.000011"
     y2="65.000015" />
  <linearGradient
     id="x"
     gradientTransform="matrix(1.06066,-1.06066,1.099944,1.099944,-82.881902,80.340899)"
     x1="81.999969"
     x2="81.999969"
     xlink:href="#s"
     y1="47.000011"
     y2="65.000015" />
  <linearGradient
     id="y"
     gradientTransform="matrix(0.606092,-0.606092,0.74639,0.74639,-415.91516,180.59838)"
     gradientUnits="userSpaceOnUse"
     x1="483.446625"
     x2="497.446625"
     y1="288.67099"
     y2="288.67099">
    <stop
       offset="0"
       stop-color="#865e3c"
       id="stop3364" />
    <stop
       offset="0.5"
       stop-color="#b5835a"
       id="stop3366" />
    <stop
       offset="1"
       stop-color="#865e3c"
       id="stop3368" />
  </linearGradient>
  <path
     d="m 16,28.001953 h 96 c 4.41797,0 8,3.582031 8,8 v 60 c 0,4.417967 -3.58203,7.999997 -8,7.999997 H 16 c -4.417969,0 -8,-3.58203 -8,-7.999997 v -60 c 0,-4.417969 3.582031,-8 8,-8 z m 0,0"
     fill="#d5d3cf"
     id="path3371" />
  <path
     d="m 16,14.001953 h 96 c 4.41797,0 8,3.582031 8,8 v 72 c 0,4.417969 -3.58203,7.999997 -8,7.999997 H 16 c -4.417969,0 -8,-3.582028 -8,-7.999997 v -72 c 0,-4.417969 3.582031,-8 8,-8 z m 0,0"
     fill="#fafafa"
     id="path3373" />
  <g
     clip-path="url(#a)"
     id="g3379"
     transform="translate(0,-13.998047)">
    <g
       clip-path="url(#b)"
       id="g3377">
      <path
         d="M 8,28 H 120 V 44 H 8 Z m 0,0"
         fill="#ebebeb"
         id="path3375" />
    </g>
  </g>
  <path
     d="m 117,22.001953 c 0,2.761719 -2.23828,5 -5,5 -2.76172,0 -5,-2.238281 -5,-5 0,-2.761719 2.23828,-5 5,-5 2.76172,0 5,2.238281 5,5 z m 0,0"
     fill="#d8d8d8"
     id="path3381" />
  <path
     d="m 109.50391,19.501953 h 0.42578 c 0.10547,0.0039 0.21484,0.05469 0.28906,0.128906 L 112,21.416015 l 1.79688,-1.785156 c 0.10937,-0.09375 0.1875,-0.125 0.28515,-0.128906 H 114.5 v 0.417969 c 0,0.117187 -0.0156,0.226562 -0.10547,0.3125 l -1.78125,1.78125 1.76953,1.773437 c 0.0781,0.07813 0.11719,0.1875 0.11719,0.296875 v 0.417969 h -0.41797 c -0.10937,0 -0.21875,-0.03906 -0.29687,-0.117188 L 112,22.599609 l -1.78125,1.785156 c -0.0781,0.07813 -0.19141,0.117188 -0.30078,0.117188 H 109.5 v -0.417969 c 0,-0.109375 0.043,-0.21875 0.11719,-0.296875 l 1.78515,-1.773437 -1.78515,-1.78125 c -0.0859,-0.08203 -0.125,-0.195313 -0.11719,-0.3125 z m 0,0"
     fill="#444444"
     id="path3383" />
  <g
     clip-path="url(#m)"
     mask="url(#d)"
     transform="translate(-8,-29.998047)"
     id="g3409">
    <g
       clip-path="url(#e)"
       id="g3389">
      <g
         clip-path="url(#f)"
         id="g3387">
        <path
           d="m -25.410156,49.503906 12.726562,-12.730468 67.882813,67.882812 -12.726563,12.72656 z m 0,0"
           id="path3385" />
      </g>
    </g>
    <g
       clip-path="url(#g)"
       id="g3395">
      <g
         clip-path="url(#h)"
         id="g3393">
        <path
           d="M -12.683594,36.773438 0.046875,24.046875 67.929688,91.929688 55.199219,104.65625 Z m 0,0"
           fill="#f6d32d"
           id="path3391" />
      </g>
    </g>
    <g
       clip-path="url(#i)"
       id="g3401">
      <g
         clip-path="url(#j)"
         id="g3399">
        <path
           d="M 12.773438,11.320312 25.5,-1.410156 93.382812,66.472656 80.65625,79.199219 Z m 0,0"
           fill="#f6d32d"
           id="path3397" />
      </g>
    </g>
    <g
       clip-path="url(#k)"
       id="g3407">
      <g
         clip-path="url(#l)"
         id="g3405">
        <path
           d="M 0.046875,24.046875 12.773438,11.320312 80.65625,79.199219 67.929688,91.929688 Z m 0,0"
           id="path3403" />
      </g>
    </g>
  </g>
  <path
     d="M 87.609375,28.798828 79.125,37.287109 c -1.171875,1.171875 -1.171875,3.070313 0,4.242188 1.171875,1.171875 3.070312,1.171875 4.242188,0 l 8.484374,-8.484375 c 1.171876,-1.171875 1.171876,-3.074219 0,-4.246094 -1.171874,-1.171875 -3.070312,-1.171875 -4.242187,0 z m 0,0"
     fill="url(#o)"
     id="path3411"
     style="fill:url(#o)" />
  <path
     d="m 76.296875,78.298828 30.406255,-30.40625 c 1.16796,-1.171875 1.16796,-3.070313 0,-4.242187 -1.17188,-1.171876 -3.07422,-1.171876 -4.2461,0 l -30.402342,30.40625 c -1.171876,1.171874 -1.171876,3.070312 0,4.242187 1.167968,1.171875 3.070312,1.171875 4.242187,0 z m 0,0"
     fill="url(#p)"
     id="path3413"
     style="fill:url(#p)" />
  <path
     d="m 89.730469,27.919922 v 7.246093 l 10.609371,10.605469 h 7.24219 c 0,-0.765625 -0.29297,-1.535156 -0.8789,-2.121093 L 91.851562,28.802734 c -0.585937,-0.589843 -1.355468,-0.882812 -2.121093,-0.882812 z m 0,0"
     fill="url(#q)"
     id="path3415"
     style="fill:url(#q)" />
  <path
     d="m 78.417969,76.177734 h -7.246094 c 0,0.765625 0.292969,1.535157 0.882813,2.121094 l 9.898437,9.898437 c 1.175781,1.175782 3.066406,1.175782 4.242187,0 1.175782,-1.175781 1.175782,-3.066406 0,-4.242187 z m 0,0"
     fill="url(#r)"
     id="path3417"
     style="fill:url(#r)" />
  <path
     d="m 28.210938,72.642578 4.246093,-4.242187 4.242188,-4.246094 19.796875,19.800781 -8.484375,8.484375 c -2.351563,2.351562 -6.136719,2.351562 -8.484375,0 l -11.316406,-11.3125 c -2.347657,-2.351562 -2.347657,-6.136719 0,-8.484375 z m 0,0"
     fill="url(#t)"
     id="path3419"
     style="fill:url(#t)" />
  <path
     d="M 36.699219,64.154297 49.425781,51.427734 69.226562,71.228515 56.496094,83.955078 Z m 0,0"
     fill="url(#v)"
     id="path3421"
     style="fill:url(#v)" />
  <path
     d="m 66.394531,34.458984 4.246094,-4.242187 c 2.347656,-2.351563 6.132813,-2.351563 8.484375,0 l 11.3125,11.3125 c 2.351562,2.351562 2.351562,6.132812 0,8.484375 L 81.953125,58.498047 62.152344,38.701172 Z m 0,0"
     fill="url(#w)"
     id="path3423"
     style="fill:url(#w)" />
  <path
     d="M 49.425781,51.427734 62.152344,38.701172 81.953125,58.498047 69.226562,71.228515 Z m 0,0"
     fill="url(#x)"
     id="path3425"
     style="fill:url(#x)" />
  <path
     d="m 83.367188,85.369141 c 2.34375,-2.34375 6.140624,-2.34375 8.484374,0 l 18.386718,18.382809 c 2.33985,2.34375 2.33985,6.14453 0,8.48828 -2.34375,2.34375 -6.14453,2.34375 -8.48828,0 L 83.367188,93.853515 c -2.34375,-2.34375 -2.34375,-6.140624 0,-8.484374 z m 0,0"
     fill="url(#y)"
     id="path3427"
     style="fill:url(#y)" />
  <g
     fill="#865e3c"
     id="g3435"
     transform="translate(0,-13.998047)">
    <path
       d="m 96.800781,117.04297 4.242189,-4.24219 c 0.39062,-0.39062 1.02344,-0.39062 1.41406,0 0.39063,0.39063 0.39063,1.02344 0,1.41406 l -4.242186,4.2461 c -0.390625,0.38672 -1.023438,0.38672 -1.414063,0 -0.390625,-0.39063 -0.390625,-1.02735 0,-1.41797 z m 0,0"
       id="path3429" />
    <path
       d="m 99.628906,119.875 4.242184,-4.24609 c 0.39063,-0.39063 1.02344,-0.39063 1.41407,0 0.39062,0.39062 0.39062,1.02343 0,1.41406 l -4.24219,4.24609 c -0.39063,0.39063 -1.02344,0.39063 -1.414064,0 -0.390625,-0.39062 -0.390625,-1.02343 0,-1.41406 z m 0,0"
       id="path3431" />
    <path
       d="m 102.45703,122.70313 4.24219,-4.24219 c 0.39062,-0.39063 1.02734,-0.39063 1.41797,0 0.39062,0.38672 0.39062,1.02344 0,1.41406 l -4.2461,4.24219 c -0.39062,0.39062 -1.02343,0.39062 -1.41406,0 -0.39062,-0.39063 -0.39062,-1.02344 0,-1.41406 z m 0,0"
       id="path3433" />
  </g>
</svg>
