<svg xmlns="http://www.w3.org/2000/svg" xmlns:xlink="http://www.w3.org/1999/xlink" width="128" height="128"><clipPath id="e"><path d="M8 28h112v16H8zm0 0"/></clipPath><clipPath id="f"><path d="M16 28h96a8 8 0 0 1 8 8v72a8 8 0 0 1-8 8H16a8 8 0 0 1-8-8V36a8 8 0 0 1 8-8zm0 0"/></clipPath><filter id="a" width="1" height="1" x="0" y="0"><feColorMatrix in="SourceGraphic" values="0 0 0 0 1 0 0 0 0 1 0 0 0 0 1 0 0 0 1 0"/></filter><mask id="h"><g filter="url(#a)"><path fill-opacity=".7" d="M0 0h128v128H0z"/></g></mask><clipPath id="i"><path d="M16 44h40v74H16zm0 0"/></clipPath><clipPath id="j"><path d="M24 44h96a8 8 0 0 1 8 8v72a8 8 0 0 1-8 8H24a8 8 0 0 1-8-8V52a8 8 0 0 1 8-8zm0 0"/></clipPath><clipPath id="k"><path d="M16 44h52v61H16zm0 0"/></clipPath><clipPath id="l"><path d="M24 44h96a8 8 0 0 1 8 8v72a8 8 0 0 1-8 8H24a8 8 0 0 1-8-8V52a8 8 0 0 1 8-8zm0 0"/></clipPath><clipPath id="m"><path d="M16 44h78v36H16zm0 0"/></clipPath><clipPath id="n"><path d="M24 44h96a8 8 0 0 1 8 8v72a8 8 0 0 1-8 8H24a8 8 0 0 1-8-8V52a8 8 0 0 1 8-8zm0 0"/></clipPath><clipPath id="o"><path d="M16 44h65v48H16zm0 0"/></clipPath><clipPath id="p"><path d="M24 44h96a8 8 0 0 1 8 8v72a8 8 0 0 1-8 8H24a8 8 0 0 1-8-8V52a8 8 0 0 1 8-8zm0 0"/></clipPath><clipPath id="g"><path d="M0 0h192v152H0z"/></clipPath><linearGradient id="b" gradientUnits="userSpaceOnUse"><stop offset="0" stop-color="#9a9996"/><stop offset=".5" stop-color="#fff"/><stop offset="1" stop-color="#c0bfbc"/></linearGradient><linearGradient xlink:href="#b" id="q" x1="46" x2="46" y1="232" y2="228" gradientTransform="matrix(-.41984 .41984 1.06066 1.06066 -134.598 -232.652)"/><linearGradient xlink:href="#b" id="r" x1="46" x2="46" y1="232" y2="228" gradientTransform="matrix(.83969 -.83969 -1.06066 -1.06066 296.559 341.696)"/><linearGradient xlink:href="#b" id="s" x1="46" x2="46" y1="232" y2="228" gradientTransform="rotate(-135 150.471 -164.128) scale(.8125 -1.5)"/><linearGradient xlink:href="#b" id="t" x1="46" x2="46" y1="232" y2="228" gradientTransform="rotate(-135 138.428 -143.928) scale(.48469 -1.5)"/><linearGradient id="c" gradientUnits="userSpaceOnUse"><stop offset="0" stop-color="#241f31"/><stop offset=".5" stop-color="#3d3846"/><stop offset="1" stop-color="#241f31"/></linearGradient><linearGradient xlink:href="#c" id="u" x1="82" x2="82" y1="47" y2="65" gradientTransform="rotate(-45 73.54 183.674) scale(1.5 1.55556)"/><linearGradient id="d" gradientUnits="userSpaceOnUse"><stop offset="0" stop-color="#f5c211"/><stop offset=".5" stop-color="#f6d32d"/><stop offset="1" stop-color="#e5a50a"/></linearGradient><linearGradient xlink:href="#d" id="v" x1="82" x2="82" y1="47" y2="65" gradientTransform="rotate(-45 64.54 161.946) scale(1.5 1.55556)"/><linearGradient xlink:href="#d" id="w" x1="82" x2="82" y1="47" y2="65" gradientTransform="rotate(-45 46.54 118.49) scale(1.5 1.55556)"/><linearGradient xlink:href="#c" id="x" x1="82" x2="82" y1="47" y2="65" gradientTransform="rotate(-45 55.54 140.218) scale(1.5 1.55556)"/><linearGradient id="y" x1="483.447" x2="497.447" y1="288.671" y2="288.671" gradientTransform="matrix(.60609 -.60609 .7464 .7464 -415.913 180.6)" gradientUnits="userSpaceOnUse"><stop offset="0" stop-color="#865e3c"/><stop offset=".5" stop-color="#b5835a"/><stop offset="1" stop-color="#865e3c"/></linearGradient><path fill="#d5d3cf" d="M16 28.002h96a8 8 0 0 1 8 8v60a8 8 0 0 1-8 8H16a8 8 0 0 1-8-8v-60a8 8 0 0 1 8-8zm0 0"/><path fill="#fafafa" d="M16 14.002h96a8 8 0 0 1 8 8v72a8 8 0 0 1-8 8H16a8 8 0 0 1-8-8v-72a8 8 0 0 1 8-8zm0 0"/><g clip-path="url(#e)" transform="translate(0 -13.998)"><g clip-path="url(#f)"><path fill="#ebebeb" d="M8 28h112v16H8Zm0 0"/></g></g><path fill="#d8d8d8" d="M117 22.002a5 5 0 1 1-10 0 5 5 0 0 1 10 0zm0 0"/><path fill="#444" d="M109.504 19.502h.426a.448.448 0 0 1 .289.129L112 21.416l1.797-1.785c.11-.094.187-.125.285-.129h.418v.418c0 .117-.016.226-.105.312l-1.782 1.782 1.77 1.773a.42.42 0 0 1 .117.297v.418h-.418a.42.42 0 0 1-.297-.117L112 22.6l-1.781 1.785a.429.429 0 0 1-.301.117h-.418v-.418c0-.11.043-.219.117-.297l1.785-1.773-1.785-1.782a.39.39 0 0 1-.117-.312zm0 0"/><g clip-path="url(#g)" mask="url(#h)" transform="translate(-8 -29.998)"><g clip-path="url(#i)"><g clip-path="url(#j)"><path d="m-25.41 49.504 12.726-12.73L55.2 104.655l-12.726 12.727zm0 0"/></g></g><g clip-path="url(#k)"><g clip-path="url(#l)"><path fill="#f6d32d" d="M-12.684 36.773.046 24.047 67.93 91.93 55.2 104.656Zm0 0"/></g></g><g clip-path="url(#m)"><g clip-path="url(#n)"><path fill="#f6d32d" d="M12.773 11.32 25.5-1.41l67.883 67.883-12.727 12.726Zm0 0"/></g></g><g clip-path="url(#o)"><g clip-path="url(#p)"><path d="M.047 24.047 12.773 11.32 80.656 79.2 67.93 91.93Zm0 0"/></g></g></g><path fill="url(#q)" d="m87.61 28.799-8.485 8.488a2.999 2.999 0 1 0 4.242 4.242l8.485-8.484a3.004 3.004 0 0 0 0-4.246 2.999 2.999 0 0 0-4.243 0zm0 0" style="fill:url(#q)"/><path fill="url(#r)" d="m76.297 78.299 30.406-30.406a3.006 3.006 0 0 0 0-4.243 3.004 3.004 0 0 0-4.246 0L72.055 74.057a2.999 2.999 0 1 0 4.242 4.242zm0 0" style="fill:url(#r)"/><path fill="url(#s)" d="M89.73 27.92v7.246l10.61 10.605h7.242a2.99 2.99 0 0 0-.879-2.12L91.852 28.802a2.981 2.981 0 0 0-2.122-.883zm0 0" style="fill:url(#s)"/><path fill="url(#t)" d="M78.418 76.178h-7.246c0 .765.293 1.535.883 2.12l9.898 9.9a2.992 2.992 0 0 0 4.242 0 2.992 2.992 0 0 0 0-4.243zm0 0" style="fill:url(#t)"/><path fill="url(#u)" d="m28.21 72.643 4.247-4.243 4.242-4.246 19.797 19.801-8.484 8.484a5.984 5.984 0 0 1-8.485 0L28.211 81.127a5.99 5.99 0 0 1 0-8.484zm0 0" style="fill:url(#u)"/><path fill="url(#v)" d="m36.7 64.154 12.726-12.726 19.8 19.8-12.73 12.727Zm0 0" style="fill:url(#v)"/><path fill="url(#w)" d="m66.395 34.459 4.246-4.242a5.984 5.984 0 0 1 8.484 0l11.313 11.312a5.984 5.984 0 0 1 0 8.485l-8.485 8.484-19.8-19.797Zm0 0" style="fill:url(#w)"/><path fill="url(#x)" d="M49.426 51.428 62.152 38.7l19.801 19.797-12.726 12.73Zm0 0" style="fill:url(#x)"/><path fill="url(#y)" d="M83.367 85.37a5.998 5.998 0 0 1 8.485 0l18.386 18.382a6.01 6.01 0 0 1 0 8.488 6.003 6.003 0 0 1-8.488 0L83.367 93.854a5.998 5.998 0 0 1 0-8.485zm0 0" style="fill:url(#y)"/><path fill="#865e3c" d="m96.8 103.045 4.243-4.242a1 1 0 1 1 1.414 1.414l-4.242 4.246a1.007 1.007 0 0 1-1.414 0 1.004 1.004 0 0 1 0-1.418zm2.829 2.832 4.242-4.246a1 1 0 1 1 1.414 1.414l-4.242 4.246a1 1 0 1 1-1.414-1.414zm2.828 2.828 4.242-4.242c.39-.39 1.028-.39 1.418 0a1 1 0 0 1 0 1.414l-4.246 4.242a1 1 0 1 1-1.414-1.414zm0 0"/></svg>