<?xml version="1.0" encoding="UTF-8" standalone="no"?>
<svg
   height="128px"
   viewBox="0 0 128 128"
   width="128px"
   version="1.1"
   id="svg3437"
   sodipodi:docname="devel-logo-small.svg"
   inkscape:version="1.2.1 (9c6d41e410, 2022-07-14, custom)"
   xmlns:inkscape="http://www.inkscape.org/namespaces/inkscape"
   xmlns:sodipodi="http://sodipodi.sourceforge.net/DTD/sodipodi-0.dtd"
   xmlns:xlink="http://www.w3.org/1999/xlink"
   xmlns="http://www.w3.org/2000/svg"
   xmlns:svg="http://www.w3.org/2000/svg">
  <defs
     id="defs3441" />
  <sodipodi:namedview
     id="namedview3439"
     pagecolor="#ffffff"
     bordercolor="#000000"
     borderopacity="0.25"
     inkscape:showpageshadow="2"
     inkscape:pageopacity="0.0"
     inkscape:pagecheckerboard="0"
     inkscape:deskcolor="#d1d1d1"
     showgrid="false"
     inkscape:zoom="2"
     inkscape:cx="47.25"
     inkscape:cy="64"
     inkscape:window-width="1680"
     inkscape:window-height="985"
     inkscape:window-x="0"
     inkscape:window-y="0"
     inkscape:window-maximized="1"
     inkscape:current-layer="svg3437" />
  <clipPath
     id="a">
    <path
       d="m 8 28 h 112 v 16 h -112 z m 0 0"
       id="path3294" />
  </clipPath>
  <clipPath
     id="b">
    <path
       d="m 16 28 h 96 c 4.417969 0 8 3.582031 8 8 v 72 c 0 4.417969 -3.582031 8 -8 8 h -96 c -4.417969 0 -8 -3.582031 -8 -8 v -72 c 0 -4.417969 3.582031 -8 8 -8 z m 0 0"
       id="path3297" />
  </clipPath>
  <filter
     id="c"
     height="1"
     width="1"
     x="0"
     y="0">
    <feColorMatrix
       in="SourceGraphic"
       type="matrix"
       values="0 0 0 0 1 0 0 0 0 1 0 0 0 0 1 0 0 0 1 0"
       id="feColorMatrix3300" />
  </filter>
  <mask
     id="d">
    <g
       filter="url(#c)"
       id="g3305">
      <rect
         fill-opacity="0.7"
         height="128"
         width="128"
         id="rect3303" />
    </g>
  </mask>
  <clipPath
     id="e">
    <path
       d="m 16 44 h 40 v 74 h -40 z m 0 0"
       id="path3308" />
  </clipPath>
  <clipPath
     id="f">
    <path
       d="m 24 44 h 96 c 4.417969 0 8 3.582031 8 8 v 72 c 0 4.417969 -3.582031 8 -8 8 h -96 c -4.417969 0 -8 -3.582031 -8 -8 v -72 c 0 -4.417969 3.582031 -8 8 -8 z m 0 0"
       id="path3311" />
  </clipPath>
  <clipPath
     id="g">
    <path
       d="m 16 44 h 52 v 61 h -52 z m 0 0"
       id="path3314" />
  </clipPath>
  <clipPath
     id="h">
    <path
       d="m 24 44 h 96 c 4.417969 0 8 3.582031 8 8 v 72 c 0 4.417969 -3.582031 8 -8 8 h -96 c -4.417969 0 -8 -3.582031 -8 -8 v -72 c 0 -4.417969 3.582031 -8 8 -8 z m 0 0"
       id="path3317" />
  </clipPath>
  <clipPath
     id="i">
    <path
       d="m 16 44 h 78 v 36 h -78 z m 0 0"
       id="path3320" />
  </clipPath>
  <clipPath
     id="j">
    <path
       d="m 24 44 h 96 c 4.417969 0 8 3.582031 8 8 v 72 c 0 4.417969 -3.582031 8 -8 8 h -96 c -4.417969 0 -8 -3.582031 -8 -8 v -72 c 0 -4.417969 3.582031 -8 8 -8 z m 0 0"
       id="path3323" />
  </clipPath>
  <clipPath
     id="k">
    <path
       d="m 16 44 h 65 v 48 h -65 z m 0 0"
       id="path3326" />
  </clipPath>
  <clipPath
     id="l">
    <path
       d="m 24 44 h 96 c 4.417969 0 8 3.582031 8 8 v 72 c 0 4.417969 -3.582031 8 -8 8 h -96 c -4.417969 0 -8 -3.582031 -8 -8 v -72 c 0 -4.417969 3.582031 -8 8 -8 z m 0 0"
       id="path3329" />
  </clipPath>
  <clipPath
     id="m">
    <rect
       height="152"
       width="192"
       id="rect3332" />
  </clipPath>
  <linearGradient
     id="n"
     gradientUnits="userSpaceOnUse">
    <stop
       offset="0"
       stop-color="#9a9996"
       id="stop3335" />
    <stop
       offset="0.5"
       stop-color="#ffffff"
       id="stop3337" />
    <stop
       offset="1"
       stop-color="#c0bfbc"
       id="stop3339" />
  </linearGradient>
  <linearGradient
     id="o"
     gradientTransform="matrix(-0.31488375,0.31488375,0.795495,0.795495,-84.948942,-158.48923)"
     x1="46"
     x2="46"
     xlink:href="#n"
     y1="232"
     y2="228" />
  <linearGradient
     id="p"
     gradientTransform="matrix(0.62976675,-0.62976675,-0.795495,-0.795495,238.41947,272.27145)"
     x1="46"
     x2="46"
     xlink:href="#n"
     y1="232"
     y2="228" />
  <linearGradient
     id="q"
     gradientTransform="matrix(-0.430893,-0.430893,-0.795495,0.795495,295.6953,-114.3391)"
     x1="46"
     x2="46"
     xlink:href="#n"
     y1="232"
     y2="228" />
  <linearGradient
     id="r"
     gradientTransform="matrix(-0.257046,-0.257046,-0.795495,0.795495,269.56247,-94.862773)"
     x1="46"
     x2="46"
     xlink:href="#n"
     y1="232"
     y2="228" />
  <linearGradient
     id="s"
     gradientUnits="userSpaceOnUse">
    <stop
       offset="0"
       stop-color="#241f31"
       id="stop3346" />
    <stop
       offset="0.5"
       stop-color="#3d3846"
       id="stop3348" />
    <stop
       offset="1"
       stop-color="#241f31"
       id="stop3350" />
  </linearGradient>
  <linearGradient
     id="t"
     gradientTransform="matrix(0.795495,-0.795495,0.824958,0.824958,-65.253312,95.347554)"
     x1="81.999992"
     x2="81.999992"
     xlink:href="#s"
     y1="47.000011"
     y2="65.000015" />
  <linearGradient
     id="u"
     gradientUnits="userSpaceOnUse">
    <stop
       offset="0"
       stop-color="#f5c211"
       id="stop3354" />
    <stop
       offset="0.5"
       stop-color="#f6d32d"
       id="stop3356" />
    <stop
       offset="1"
       stop-color="#e5a50a"
       id="stop3358" />
  </linearGradient>
  <linearGradient
     id="v"
     gradientTransform="matrix(0.795495,-0.795495,0.824958,0.824958,-55.707368,85.801616)"
     x1="81.999992"
     x2="81.999992"
     xlink:href="#u"
     y1="47.000011"
     y2="65.000015" />
  <linearGradient
     id="w"
     gradientTransform="matrix(0.795495,-0.795495,0.824958,0.824958,-36.615484,66.709732)"
     x1="81.999969"
     x2="81.999969"
     xlink:href="#u"
     y1="47.000011"
     y2="65.000015" />
  <linearGradient
     id="x"
     gradientTransform="matrix(0.795495,-0.795495,0.824958,0.824958,-46.161426,76.255673)"
     x1="81.999969"
     x2="81.999969"
     xlink:href="#s"
     y1="47.000011"
     y2="65.000015" />
  <linearGradient
     id="y"
     gradientTransform="matrix(0.454569,-0.454569,0.5597925,0.5597925,-295.93637,151.44878)"
     gradientUnits="userSpaceOnUse"
     x1="483.446625"
     x2="497.446625"
     y1="288.67099"
     y2="288.67099">
    <stop
       offset="0"
       stop-color="#865e3c"
       id="stop3364" />
    <stop
       offset="0.5"
       stop-color="#b5835a"
       id="stop3366" />
    <stop
       offset="1"
       stop-color="#865e3c"
       id="stop3368" />
  </linearGradient>
  <path
     d="m 28,37.001464 h 72 c 3.31348,0 6,2.686523 6,6 v 45 c 0,3.313475 -2.68652,5.999998 -6,5.999998 H 28 c -3.313477,0 -6,-2.686523 -6,-5.999998 v -45 c 0,-3.313477 2.686523,-6 6,-6 z m 0,0"
     fill="#d5d3cf"
     id="path3371"
     style="stroke-width:0.75" />
  <path
     d="m 28,26.501464 h 72 c 3.31348,0 6,2.686523 6,6 v 54 c 0,3.313477 -2.68652,5.999998 -6,5.999998 H 28 c -3.313477,0 -6,-2.686521 -6,-5.999998 v -54 c 0,-3.313477 2.686523,-6 6,-6 z m 0,0"
     fill="#fafafa"
     id="path3373"
     style="stroke-width:0.75" />
  <g
     clip-path="url(#a)"
     id="g3379"
     transform="matrix(0.75,0,0,0.75,16,5.5014642)">
    <g
       clip-path="url(#b)"
       id="g3377">
      <path
         d="M 8,28 H 120 V 44 H 8 Z m 0,0"
         fill="#ebebeb"
         id="path3375" />
    </g>
  </g>
  <path
     d="m 103.75,32.501464 c 0,2.071289 -1.67871,3.75 -3.75,3.75 -2.07129,0 -3.75,-1.678711 -3.75,-3.75 0,-2.071289 1.67871,-3.75 3.75,-3.75 2.07129,0 3.75,1.678711 3.75,3.75 z m 0,0"
     fill="#d8d8d8"
     id="path3381"
     style="stroke-width:0.75" />
  <path
     d="m 98.127932,30.626464 h 0.319336 c 0.0791,0.0029 0.161129,0.04102 0.216795,0.09668 L 100,32.062011 l 1.34766,-1.338867 c 0.082,-0.07031 0.14063,-0.09375 0.21386,-0.09668 h 0.31348 v 0.313477 c 0,0.08789 -0.0117,0.169921 -0.0791,0.234375 l -1.33594,1.335937 1.32715,1.330078 c 0.0586,0.0586 0.0879,0.140625 0.0879,0.222656 v 0.313477 h -0.31348 c -0.082,0 -0.16406,-0.02929 -0.22265,-0.08789 L 100,32.949706 98.664062,34.288573 c -0.05858,0.0586 -0.143557,0.08789 -0.225584,0.08789 H 98.125 v -0.313477 c 0,-0.08203 0.03225,-0.164062 0.08789,-0.222656 L 99.551753,32.510252 98.21289,31.174315 C 98.14847,31.112795 98.11914,31.02783 98.125,30.93994 Z m 0,0"
     fill="#444444"
     id="path3383"
     style="stroke-width:0.75" />
  <g
     clip-path="url(#m)"
     mask="url(#d)"
     transform="matrix(0.75,0,0,0.75,10,-6.4985358)"
     id="g3409">
    <g
       clip-path="url(#e)"
       id="g3389">
      <g
         clip-path="url(#f)"
         id="g3387">
        <path
           d="m -25.410156,49.503906 12.726562,-12.730468 67.882813,67.882812 -12.726563,12.72656 z m 0,0"
           id="path3385" />
      </g>
    </g>
    <g
       clip-path="url(#g)"
       id="g3395">
      <g
         clip-path="url(#h)"
         id="g3393">
        <path
           d="M -12.683594,36.773438 0.046875,24.046875 67.929688,91.929688 55.199219,104.65625 Z m 0,0"
           fill="#f6d32d"
           id="path3391" />
      </g>
    </g>
    <g
       clip-path="url(#i)"
       id="g3401">
      <g
         clip-path="url(#j)"
         id="g3399">
        <path
           d="M 12.773438,11.320312 25.5,-1.410156 93.382812,66.472656 80.65625,79.199219 Z m 0,0"
           fill="#f6d32d"
           id="path3397" />
      </g>
    </g>
    <g
       clip-path="url(#k)"
       id="g3407">
      <g
         clip-path="url(#l)"
         id="g3405">
        <path
           d="M 0.046875,24.046875 12.773438,11.320312 80.65625,79.199219 67.929688,91.929688 Z m 0,0"
           id="path3403" />
      </g>
    </g>
  </g>
  <path
     d="m 81.707031,37.59912 -6.363281,6.366211 c -0.878906,0.878906 -0.878906,2.302735 0,3.181641 0.878906,0.878906 2.302734,0.878906 3.181641,0 l 6.36328,-6.363281 c 0.878907,-0.878906 0.878907,-2.305664 0,-3.184571 -0.878905,-0.878906 -2.302734,-0.878906 -3.18164,0 z m 0,0"
     fill="url(#o)"
     id="path3411"
     style="fill:url(#o);stroke-width:0.75" />
  <path
     d="M 73.222656,74.72412 96.027348,51.919433 c 0.875969,-0.878906 0.875969,-2.302735 0,-3.18164 -0.878911,-0.878907 -2.305666,-0.878907 -3.184576,0 L 70.041016,71.54248 c -0.878907,0.878906 -0.878907,2.302734 0,3.18164 0.875976,0.878907 2.302734,0.878907 3.18164,0 z m 0,0"
     fill="url(#p)"
     id="path3413"
     style="fill:url(#p);stroke-width:0.75" />
  <path
     d="m 83.297852,36.939941 v 5.43457 l 7.957028,7.954101 h 5.431642 c 0,-0.574218 -0.219727,-1.151367 -0.659175,-1.590819 L 84.888671,37.60205 c -0.439452,-0.442382 -1.0166,-0.662109 -1.590819,-0.662109 z m 0,0"
     fill="url(#q)"
     id="path3415"
     style="fill:url(#q);stroke-width:0.75" />
  <path
     d="m 74.813477,73.1333 h -5.434571 c 0,0.574219 0.219727,1.151368 0.66211,1.59082 l 7.423828,7.423828 c 0.881835,0.881837 2.299804,0.881837 3.18164,0 0.881837,-0.881836 0.881837,-2.299804 0,-3.18164 z m 0,0"
     fill="url(#r)"
     id="path3417"
     style="fill:url(#r);stroke-width:0.75" />
  <path
     d="m 37.158203,70.481933 3.18457,-3.18164 3.181641,-3.184571 14.847656,14.850586 -6.363281,6.363281 c -1.763672,1.763672 -4.602539,1.763672 -6.363281,0 l -8.487305,-8.484375 c -1.760742,-1.763671 -1.760742,-4.602539 0,-6.363281 z m 0,0"
     fill="url(#t)"
     id="path3419"
     style="fill:url(#t);stroke-width:0.75" />
  <path
     d="M 43.524414,64.115722 53.069336,54.5708 67.919921,69.421386 58.37207,78.966308 Z m 0,0"
     fill="url(#v)"
     id="path3421"
     style="fill:url(#v);stroke-width:0.75" />
  <path
     d="m 65.795898,41.844237 3.184571,-3.18164 c 1.760742,-1.763672 4.599609,-1.763672 6.363281,0 l 8.484375,8.484375 c 1.763671,1.763672 1.763671,4.599609 0,6.363281 L 77.464844,59.873535 62.614258,45.025878 Z m 0,0"
     fill="url(#w)"
     id="path3423"
     style="fill:url(#w);stroke-width:0.75" />
  <path
     d="m 53.069336,54.5708 9.544922,-9.544922 14.850586,14.847657 -9.544923,9.547851 z m 0,0"
     fill="url(#x)"
     id="path3425"
     style="fill:url(#x);stroke-width:0.75" />
  <path
     d="m 78.525391,80.026855 c 1.757812,-1.757812 4.605468,-1.757812 6.36328,0 L 98.67871,93.813962 c 1.75489,1.757812 1.75489,4.608397 0,6.366208 -1.757813,1.75781 -4.608398,1.75781 -6.36621,0 L 78.525391,86.390136 c -1.757813,-1.757813 -1.757813,-4.605468 0,-6.363281 z m 0,0"
     fill="url(#y)"
     id="path3427"
     style="fill:url(#y);stroke-width:0.75" />
  <g
     fill="#865e3c"
     id="g3435"
     transform="matrix(0.75,0,0,0.75,16,5.5014642)">
    <path
       d="m 96.800781,117.04297 4.242189,-4.24219 c 0.39062,-0.39062 1.02344,-0.39062 1.41406,0 0.39063,0.39063 0.39063,1.02344 0,1.41406 l -4.242186,4.2461 c -0.390625,0.38672 -1.023438,0.38672 -1.414063,0 -0.390625,-0.39063 -0.390625,-1.02735 0,-1.41797 z m 0,0"
       id="path3429" />
    <path
       d="m 99.628906,119.875 4.242184,-4.24609 c 0.39063,-0.39063 1.02344,-0.39063 1.41407,0 0.39062,0.39062 0.39062,1.02343 0,1.41406 l -4.24219,4.24609 c -0.39063,0.39063 -1.02344,0.39063 -1.414064,0 -0.390625,-0.39062 -0.390625,-1.02343 0,-1.41406 z m 0,0"
       id="path3431" />
    <path
       d="m 102.45703,122.70313 4.24219,-4.24219 c 0.39062,-0.39063 1.02734,-0.39063 1.41797,0 0.39062,0.38672 0.39062,1.02344 0,1.41406 l -4.2461,4.24219 c -0.39062,0.39062 -1.02343,0.39062 -1.41406,0 -0.39062,-0.39063 -0.39062,-1.02344 0,-1.41406 z m 0,0"
       id="path3433" />
  </g>
</svg>
