<svg xmlns="http://www.w3.org/2000/svg" xmlns:xlink="http://www.w3.org/1999/xlink" width="128" height="128"><clipPath id="e"><path d="M8 28h112v16H8zm0 0"/></clipPath><clipPath id="f"><path d="M16 28h96a8 8 0 0 1 8 8v72a8 8 0 0 1-8 8H16a8 8 0 0 1-8-8V36a8 8 0 0 1 8-8zm0 0"/></clipPath><filter id="a" width="1" height="1" x="0" y="0"><feColorMatrix in="SourceGraphic" values="0 0 0 0 1 0 0 0 0 1 0 0 0 0 1 0 0 0 1 0"/></filter><mask id="h"><g filter="url(#a)"><path fill-opacity=".7" d="M0 0h128v128H0z"/></g></mask><clipPath id="i"><path d="M16 44h40v74H16zm0 0"/></clipPath><clipPath id="j"><path d="M24 44h96a8 8 0 0 1 8 8v72a8 8 0 0 1-8 8H24a8 8 0 0 1-8-8V52a8 8 0 0 1 8-8zm0 0"/></clipPath><clipPath id="k"><path d="M16 44h52v61H16zm0 0"/></clipPath><clipPath id="l"><path d="M24 44h96a8 8 0 0 1 8 8v72a8 8 0 0 1-8 8H24a8 8 0 0 1-8-8V52a8 8 0 0 1 8-8zm0 0"/></clipPath><clipPath id="m"><path d="M16 44h78v36H16zm0 0"/></clipPath><clipPath id="n"><path d="M24 44h96a8 8 0 0 1 8 8v72a8 8 0 0 1-8 8H24a8 8 0 0 1-8-8V52a8 8 0 0 1 8-8zm0 0"/></clipPath><clipPath id="o"><path d="M16 44h65v48H16zm0 0"/></clipPath><clipPath id="p"><path d="M24 44h96a8 8 0 0 1 8 8v72a8 8 0 0 1-8 8H24a8 8 0 0 1-8-8V52a8 8 0 0 1 8-8zm0 0"/></clipPath><clipPath id="g"><path d="M0 0h192v152H0z"/></clipPath><linearGradient id="b" gradientUnits="userSpaceOnUse"><stop offset="0" stop-color="#9a9996"/><stop offset=".5" stop-color="#fff"/><stop offset="1" stop-color="#c0bfbc"/></linearGradient><linearGradient xlink:href="#b" id="q" x1="46" x2="46" y1="232" y2="228" gradientTransform="rotate(135 -9.65 -96.838) scale(.44531 -1.12501)"/><linearGradient xlink:href="#b" id="r" x1="46" x2="46" y1="232" y2="228" gradientTransform="rotate(-45 447.871 -151.66) scale(.89062 -1.125)"/><linearGradient xlink:href="#b" id="s" x1="46" x2="46" y1="232" y2="228" gradientTransform="matrix(-.4309 -.4309 -.7955 .7955 295.695 -114.34)"/><linearGradient xlink:href="#b" id="t" x1="46" x2="46" y1="232" y2="228" gradientTransform="rotate(-135 115.135 -103.26) scale(.36352 -1.12499)"/><linearGradient id="c" gradientUnits="userSpaceOnUse"><stop offset="0" stop-color="#241f31"/><stop offset=".5" stop-color="#3d3846"/><stop offset="1" stop-color="#241f31"/></linearGradient><linearGradient xlink:href="#c" id="u" x1="82" x2="82" y1="47" y2="65" gradientTransform="rotate(-45 82.468 126.442) scale(1.125 1.16667)"/><linearGradient id="d" gradientUnits="userSpaceOnUse"><stop offset="0" stop-color="#f5c211"/><stop offset=".5" stop-color="#f6d32d"/><stop offset="1" stop-color="#e5a50a"/></linearGradient><linearGradient xlink:href="#d" id="v" x1="82" x2="82" y1="47" y2="65" gradientTransform="rotate(-45 75.718 110.146) scale(1.125 1.16667)"/><linearGradient xlink:href="#d" id="w" x1="82" x2="82" y1="47" y2="65" gradientTransform="rotate(-45 62.218 77.554) scale(1.125 1.16667)"/><linearGradient xlink:href="#c" id="x" x1="82" x2="82" y1="47" y2="65" gradientTransform="rotate(-45 68.968 93.85) scale(1.125 1.16667)"/><linearGradient id="y" x1="483.447" x2="497.447" y1="288.671" y2="288.671" gradientTransform="rotate(-45 34.845 432.952) scale(.64286 .79166)" gradientUnits="userSpaceOnUse"><stop offset="0" stop-color="#865e3c"/><stop offset=".5" stop-color="#b5835a"/><stop offset="1" stop-color="#865e3c"/></linearGradient><path fill="#d5d3cf" d="M28 37.001h72a6 6 0 0 1 6 6v45a6 6 0 0 1-6 6H28a6 6 0 0 1-6-6v-45a6 6 0 0 1 6-6zm0 0" style="stroke-width:.75"/><path fill="#fafafa" d="M28 26.501h72a6 6 0 0 1 6 6v54a6 6 0 0 1-6 6H28a6 6 0 0 1-6-6v-54a6 6 0 0 1 6-6zm0 0" style="stroke-width:.75"/><g clip-path="url(#e)" transform="matrix(.75 0 0 .75 16 5.501)"><g clip-path="url(#f)"><path fill="#ebebeb" d="M8 28h112v16H8Zm0 0"/></g></g><path fill="#d8d8d8" d="M103.75 32.501a3.75 3.75 0 1 1-7.5.001 3.75 3.75 0 0 1 7.5 0zm0 0" style="stroke-width:.75"/><path fill="#444" d="M98.128 30.626h.32c.078.003.16.041.216.097L100 32.062l1.348-1.339c.082-.07.14-.094.214-.097h.313v.314c0 .088-.012.17-.08.234l-1.335 1.336 1.327 1.33a.314.314 0 0 1 .088.223v.313h-.313a.315.315 0 0 1-.223-.087L100 32.949l-1.336 1.34a.321.321 0 0 1-.226.087h-.313v-.313c0-.082.032-.164.088-.223l1.339-1.33-1.34-1.336a.292.292 0 0 1-.087-.234Zm0 0" style="stroke-width:.75"/><g clip-path="url(#g)" mask="url(#h)" transform="matrix(.75 0 0 .75 10 -6.499)"><g clip-path="url(#i)"><g clip-path="url(#j)"><path d="m-25.41 49.504 12.726-12.73L55.2 104.655l-12.726 12.727zm0 0"/></g></g><g clip-path="url(#k)"><g clip-path="url(#l)"><path fill="#f6d32d" d="M-12.684 36.773.046 24.047 67.93 91.93 55.2 104.656Zm0 0"/></g></g><g clip-path="url(#m)"><g clip-path="url(#n)"><path fill="#f6d32d" d="M12.773 11.32 25.5-1.41l67.883 67.883-12.727 12.726Zm0 0"/></g></g><g clip-path="url(#o)"><g clip-path="url(#p)"><path d="M.047 24.047 12.773 11.32 80.656 79.2 67.93 91.93Zm0 0"/></g></g></g><path fill="url(#q)" d="m81.707 37.6-6.363 6.365a2.25 2.25 0 1 0 3.181 3.182l6.364-6.363a2.253 2.253 0 0 0 0-3.185 2.25 2.25 0 0 0-3.182 0zm0 0" style="fill:url(#q);stroke-width:.75"/><path fill="url(#r)" d="M73.223 74.724 96.027 51.92a2.255 2.255 0 0 0 0-3.181 2.253 2.253 0 0 0-3.184 0L70.04 71.542a2.25 2.25 0 1 0 3.182 3.182zm0 0" style="fill:url(#r);stroke-width:.75"/><path fill="url(#s)" d="M83.298 36.94v5.435l7.957 7.954h5.432c0-.575-.22-1.152-.66-1.591L84.89 37.602a2.236 2.236 0 0 0-1.591-.662zm0 0" style="fill:url(#s);stroke-width:.75"/><path fill="url(#t)" d="M74.813 73.133H69.38c0 .575.22 1.152.662 1.591l7.424 7.424c.882.882 2.3.882 3.181 0 .882-.882.882-2.3 0-3.182zm0 0" style="fill:url(#t);stroke-width:.75"/><path fill="url(#u)" d="m37.158 70.482 3.185-3.182 3.181-3.184 14.848 14.85-6.363 6.364a4.488 4.488 0 0 1-6.363 0l-8.488-8.485a4.493 4.493 0 0 1 0-6.363zm0 0" style="fill:url(#u);stroke-width:.75"/><path fill="url(#v)" d="m43.524 64.116 9.545-9.545 14.85 14.85-9.547 9.545Zm0 0" style="fill:url(#v);stroke-width:.75"/><path fill="url(#w)" d="m65.796 41.844 3.184-3.181a4.488 4.488 0 0 1 6.364 0l8.484 8.484a4.488 4.488 0 0 1 0 6.363l-6.363 6.364-14.85-14.848Zm0 0" style="fill:url(#w);stroke-width:.75"/><path fill="url(#x)" d="m53.07 54.57 9.544-9.544 14.85 14.848-9.544 9.547zm0 0" style="fill:url(#x);stroke-width:.75"/><path fill="url(#y)" d="M78.525 80.027a4.498 4.498 0 0 1 6.364 0l13.79 13.787a4.507 4.507 0 0 1 0 6.366 4.502 4.502 0 0 1-6.367 0L78.525 86.39a4.498 4.498 0 0 1 0-6.363zm0 0" style="fill:url(#y);stroke-width:.75"/><path fill="#865e3c" d="m88.6 93.284 3.182-3.182a.75.75 0 1 1 1.06 1.06l-3.18 3.185a.755.755 0 0 1-1.061 0 .753.753 0 0 1 0-1.063zm2.122 2.124 3.181-3.185a.75.75 0 1 1 1.06 1.06l-3.18 3.185a.75.75 0 1 1-1.061-1.06zm2.121 2.121 3.181-3.182a.75.75 0 1 1 1.063 1.06l-3.184 3.182a.75.75 0 1 1-1.06-1.06zm0 0"/></svg>