<?xml version="1.0" encoding="UTF-8" standalone="no"?>
<!-- Created with Inkscape (http://www.inkscape.org/) -->

<svg
   width="1024"
   height="1024"
   viewBox="0 0 1024 1024"
   version="1.1"
   id="svg3739"
   sodipodi:docname="Pretty Mountains.svg"
   inkscape:version="1.2.2 (b0a8486541, 2022-12-01)"
   inkscape:export-filename="new.png"
   inkscape:export-xdpi="192"
   inkscape:export-ydpi="192"
   xmlns:inkscape="http://www.inkscape.org/namespaces/inkscape"
   xmlns:sodipodi="http://sodipodi.sourceforge.net/DTD/sodipodi-0.dtd"
   xmlns:xlink="http://www.w3.org/1999/xlink"
   xmlns="http://www.w3.org/2000/svg"
   xmlns:svg="http://www.w3.org/2000/svg">
  <sodipodi:namedview
     id="namedview3741"
     pagecolor="#ffffff"
     bordercolor="#000000"
     borderopacity="0.25"
     inkscape:showpageshadow="2"
     inkscape:pageopacity="0.0"
     inkscape:pagecheckerboard="true"
     inkscape:deskcolor="#4d4d4d"
     inkscape:document-units="px"
     showgrid="false"
     inkscape:zoom="0.49414062"
     inkscape:cx="512"
     inkscape:cy="512"
     inkscape:window-width="1280"
     inkscape:window-height="731"
     inkscape:window-x="0"
     inkscape:window-y="0"
     inkscape:window-maximized="1"
     inkscape:current-layer="g8089">
    <inkscape:grid
       type="xygrid"
       id="grid4223"
       empspacing="4" />
    <inkscape:page
       x="0"
       y="0"
       width="1024"
       height="1024"
       id="page6065"
       inkscape:export-filename="./Pretty Mountains.png"
       inkscape:export-xdpi="384"
       inkscape:export-ydpi="384" />
    <inkscape:page
       x="1034"
       y="0"
       width="1024"
       height="1024"
       id="page6067"
       inkscape:export-filename="./Pretty Mountains Dark.png"
       inkscape:export-xdpi="384"
       inkscape:export-ydpi="384" />
  </sodipodi:namedview>
  <defs
     id="defs3736">
    <linearGradient
       inkscape:collect="always"
       id="moonholes">
      <stop
         style="stop-color:#9a9996;stop-opacity:1;"
         offset="0"
         id="stop7267" />
      <stop
         style="stop-color:#9a9996;stop-opacity:0;"
         offset="1"
         id="stop7269" />
    </linearGradient>
    <linearGradient
       inkscape:collect="always"
       id="linearGradient7079">
      <stop
         style="stop-color:#ffffff;stop-opacity:1;"
         offset="0"
         id="stop7073" />
      <stop
         style="stop-color:#deddda;stop-opacity:1;"
         offset="0.5"
         id="stop7075" />
      <stop
         style="stop-color:#9a9996;stop-opacity:1;"
         offset="1"
         id="stop7077" />
    </linearGradient>
    <linearGradient
       id="linearGradient7067"
       gradientUnits="userSpaceOnUse">
      <stop
         offset="0"
         stop-color="#c061cb"
         id="stop7065"
         style="stop-color:#241f31;stop-opacity:1;" />
      <stop
         offset="0.40000001"
         stop-color="#ffa348"
         id="stop7063"
         style="stop-color:#3d3846;stop-opacity:1;" />
    </linearGradient>
    <linearGradient
       inkscape:collect="always"
       id="linearGradient5886">
      <stop
         style="stop-color:#f9f06b;stop-opacity:1;"
         offset="0"
         id="stop5882" />
      <stop
         style="stop-color:#f6d32d;stop-opacity:1;"
         offset="0.5"
         id="stop6222" />
      <stop
         style="stop-color:#e5a50a;stop-opacity:1;"
         offset="1"
         id="stop5884" />
    </linearGradient>
    <linearGradient
       id="linearGradient3632"
       gradientUnits="userSpaceOnUse">
      <stop
         offset="0"
         stop-color="#ffa348"
         id="stop3626"
         style="stop-color:#ed333b;stop-opacity:1;" />
      <stop
         offset="0"
         stop-color="#ffa348"
         id="stop5826"
         style="stop-color:#d64a83;stop-opacity:1;" />
      <stop
         offset="0.40000001"
         stop-color="#c061cb"
         id="stop3628"
         style="stop-color:#ffa348;stop-opacity:1;" />
    </linearGradient>
    <linearGradient
       inkscape:collect="always"
       xlink:href="#linearGradient3632"
       id="linearGradient5775"
       x1="512"
       y1="0"
       x2="512"
       y2="1025"
       gradientUnits="userSpaceOnUse" />
    <linearGradient
       inkscape:collect="always"
       xlink:href="#linearGradient5886"
       id="linearGradient5888"
       x1="512"
       y1="448"
       x2="512"
       y2="576"
       gradientUnits="userSpaceOnUse"
       gradientTransform="translate(0,40)" />
    <filter
       inkscape:collect="always"
       style="color-interpolation-filters:sRGB"
       id="filter6226"
       x="-0.192"
       y="-0.192"
       width="1.384"
       height="1.384">
      <feGaussianBlur
         inkscape:collect="always"
         stdDeviation="10.24"
         id="feGaussianBlur6228" />
    </filter>
    <linearGradient
       inkscape:collect="always"
       xlink:href="#linearGradient7067"
       id="linearGradient7059"
       gradientUnits="userSpaceOnUse"
       x1="512"
       y1="0"
       x2="512"
       y2="1025"
       gradientTransform="translate(1034)" />
    <linearGradient
       inkscape:collect="always"
       xlink:href="#linearGradient7079"
       id="linearGradient7249"
       gradientUnits="userSpaceOnUse"
       gradientTransform="translate(1034,40)"
       x1="512"
       y1="448"
       x2="512"
       y2="576" />
    <linearGradient
       inkscape:collect="always"
       xlink:href="#moonholes"
       id="linearGradient7273"
       x1="1510"
       y1="508"
       x2="1510"
       y2="520"
       gradientUnits="userSpaceOnUse" />
    <linearGradient
       inkscape:collect="always"
       xlink:href="#moonholes"
       id="linearGradient7275"
       x1="1512"
       y1="544"
       x2="1512"
       y2="560"
       gradientUnits="userSpaceOnUse" />
    <linearGradient
       inkscape:collect="always"
       xlink:href="#moonholes"
       id="linearGradient7277"
       x1="1580"
       y1="520"
       x2="1580"
       y2="528"
       gradientUnits="userSpaceOnUse" />
    <linearGradient
       inkscape:collect="always"
       xlink:href="#moonholes"
       id="linearGradient7279"
       x1="1578"
       y1="588"
       x2="1578"
       y2="600"
       gradientUnits="userSpaceOnUse" />
    <linearGradient
       inkscape:collect="always"
       xlink:href="#moonholes"
       id="linearGradient7281"
       x1="1512"
       y1="576"
       x2="1512"
       y2="600"
       gradientUnits="userSpaceOnUse" />
    <linearGradient
       inkscape:collect="always"
       xlink:href="#moonholes"
       id="linearGradient7283"
       x1="1570"
       y1="556"
       x2="1570"
       y2="576"
       gradientUnits="userSpaceOnUse" />
    <linearGradient
       inkscape:collect="always"
       xlink:href="#moonholes"
       id="linearGradient7285"
       x1="1540"
       y1="560"
       x2="1540"
       y2="568"
       gradientUnits="userSpaceOnUse" />
    <linearGradient
       inkscape:collect="always"
       xlink:href="#moonholes"
       id="linearGradient7287"
       x1="1540"
       y1="500"
       x2="1540"
       y2="508"
       gradientUnits="userSpaceOnUse" />
    <linearGradient
       inkscape:collect="always"
       xlink:href="#moonholes"
       id="linearGradient7289"
       x1="1554"
       y1="524"
       x2="1554"
       y2="536"
       gradientUnits="userSpaceOnUse" />
    <linearGradient
       inkscape:collect="always"
       xlink:href="#linearGradient7079"
       id="linearGradient7357"
       gradientUnits="userSpaceOnUse"
       gradientTransform="translate(1034,40)"
       x1="512"
       y1="448"
       x2="512"
       y2="576" />
    <filter
       inkscape:collect="always"
       style="color-interpolation-filters:sRGB"
       id="filter7360"
       x="-0.192"
       y="-0.192"
       width="1.384"
       height="1.384">
      <feGaussianBlur
         inkscape:collect="always"
         stdDeviation="10.24"
         id="feGaussianBlur7362" />
    </filter>
    <clipPath
       clipPathUnits="userSpaceOnUse"
       id="clipPath7707">
      <rect
         style="opacity:1;fill:#9141ac;fill-opacity:1;stroke-width:1.99902;paint-order:stroke markers fill"
         id="rect7709"
         width="1024"
         height="1024"
         x="0"
         y="0" />
    </clipPath>
    <clipPath
       clipPathUnits="userSpaceOnUse"
       id="clipPath7711">
      <rect
         style="opacity:1;fill:#9141ac;fill-opacity:1;stroke-width:1.99902;paint-order:stroke markers fill"
         id="rect7713"
         width="1024"
         height="1024"
         x="0"
         y="0" />
    </clipPath>
    <linearGradient
       inkscape:collect="always"
       xlink:href="#linearGradient5886"
       id="linearGradient650"
       gradientUnits="userSpaceOnUse"
       gradientTransform="matrix(2,0,0,2,-512,-472)"
       x1="512"
       y1="448"
       x2="512"
       y2="576" />
    <filter
       inkscape:collect="always"
       style="color-interpolation-filters:sRGB"
       id="filter1209"
       x="-0.43200002"
       y="-0.43200002"
       width="1.864"
       height="1.864">
      <feGaussianBlur
         inkscape:collect="always"
         stdDeviation="46.08"
         id="feGaussianBlur1211" />
    </filter>
    <linearGradient
       inkscape:collect="always"
       xlink:href="#linearGradient5886"
       id="linearGradient1213"
       gradientUnits="userSpaceOnUse"
       gradientTransform="translate(0,40)"
       x1="512"
       y1="448"
       x2="512"
       y2="576" />
    <linearGradient
       inkscape:collect="always"
       xlink:href="#linearGradient7079"
       id="linearGradient1224"
       gradientUnits="userSpaceOnUse"
       gradientTransform="matrix(2,0,0,2,522,-472)"
       x1="512"
       y1="448"
       x2="512"
       y2="576" />
    <filter
       inkscape:collect="always"
       style="color-interpolation-filters:sRGB"
       id="filter1234"
       x="-0.76799998"
       y="-0.76799998"
       width="2.536"
       height="2.536">
      <feGaussianBlur
         inkscape:collect="always"
         stdDeviation="81.92"
         id="feGaussianBlur1236" />
    </filter>
  </defs>
  <g
     inkscape:groupmode="layer"
     id="layer2"
     inkscape:label="Night"
     style="display:inline"
     inkscape:highlight-color="#3584e4">
    <rect
       style="opacity:1;fill:url(#linearGradient7059);fill-opacity:1;stroke-width:1.99902;paint-order:stroke markers fill"
       id="rect7049"
       width="1024"
       height="1024"
       x="1034"
       y="0"
       inkscape:label="background" />
    <g
       id="g7247"
       inkscape:label="moon">
      <circle
         style="opacity:1;fill:url(#linearGradient1224);fill-opacity:1;stroke-width:3.8534;paint-order:stroke markers fill;filter:url(#filter1234)"
         id="circle1222"
         cx="1546"
         cy="552"
         r="128" />
      <circle
         style="display:inline;fill:url(#linearGradient7357);fill-opacity:1;stroke-width:1.9267;paint-order:stroke markers fill;filter:url(#filter7360)"
         id="circle7227-8"
         cx="1546"
         cy="552"
         r="64"
         inkscape:label="glow" />
      <circle
         style="opacity:1;fill:url(#linearGradient7249);fill-opacity:1;stroke-width:1.9267;paint-order:stroke markers fill"
         id="circle7227"
         cx="1546"
         cy="552"
         r="64" />
      <circle
         style="opacity:1;fill:url(#linearGradient7273);fill-opacity:1;stroke-width:2;paint-order:stroke markers fill"
         id="circle7229"
         cx="1510"
         cy="514"
         r="6" />
      <circle
         style="opacity:1;fill:url(#linearGradient7275);fill-opacity:1;stroke-width:2.66667;paint-order:stroke markers fill"
         id="circle7231"
         cx="1512"
         cy="552"
         r="8" />
      <circle
         style="opacity:1;fill:url(#linearGradient7277);fill-opacity:1;stroke-width:1.33334;paint-order:stroke markers fill"
         id="circle7233"
         cx="1580"
         cy="524"
         r="4" />
      <circle
         style="opacity:1;fill:url(#linearGradient7279);fill-opacity:1;stroke-width:2;paint-order:stroke markers fill"
         id="circle7235"
         cx="1578"
         cy="594"
         r="6" />
      <circle
         style="opacity:1;fill:url(#linearGradient7281);fill-opacity:1;stroke-width:4;paint-order:stroke markers fill"
         id="circle7237"
         cx="1512"
         cy="588"
         r="12" />
      <circle
         style="opacity:1;fill:url(#linearGradient7283);fill-opacity:1;stroke-width:3.33333;paint-order:stroke markers fill"
         id="circle7239"
         cx="1570"
         cy="566"
         r="10" />
      <circle
         style="opacity:1;fill:url(#linearGradient7285);fill-opacity:1;stroke-width:1.33334;paint-order:stroke markers fill"
         id="circle7241"
         cx="1540"
         cy="564"
         r="4" />
      <circle
         style="opacity:1;fill:url(#linearGradient7287);fill-opacity:1;stroke-width:1.33334;paint-order:stroke markers fill"
         id="circle7243"
         cx="1540"
         cy="504"
         r="4" />
      <circle
         style="opacity:1;fill:url(#linearGradient7289);fill-opacity:1;stroke-width:2;paint-order:stroke markers fill"
         id="circle7245"
         cx="1554"
         cy="530"
         r="6" />
    </g>
    <g
       id="g7983"
       inkscape:label="mountains 3">
      <path
         d="m 1034,718 14.2,-6.8 c 14.1,-6.9 42.5,-20.5 71,-17.2 28.5,3.3 57.1,23.7 85.6,20.2 28.5,-3.5 56.9,-30.9 85.2,-34.2 28.3,-3.3 56.7,17.3 85.2,20.8 28.5,3.5 57.1,-10.1 85.6,-18.6 28.5,-8.5 56.9,-11.9 85.2,12 28.3,23.8 56.7,74.8 85.2,90.1 28.5,15.4 57.1,-5 85.6,-22 28.5,-17 56.9,-30.6 85.2,-32.3 28.3,-1.7 56.7,8.7 85.2,-5 28.5,-13.7 57.1,-51.3 85.6,-66.8 28.5,-15.5 56.9,-8.9 71,-5.5 l 14.2,3.3 v -94 l -14.2,-5.2 c -14.1,-5.1 -42.5,-15.5 -71,-12 -28.5,3.5 -57.1,20.9 -85.6,39.7 -28.5,18.8 -56.9,39.2 -85.2,51 -28.3,11.8 -56.7,15.2 -85.2,30.5 -28.5,15.3 -57.1,42.7 -85.6,30.8 -28.5,-11.8 -56.9,-62.8 -85.2,-93.5 -28.3,-30.6 -56.7,-41 -85.2,-41 -28.5,0 -57.1,10.4 -85.6,13.7 -28.5,3.3 -56.9,-0.3 -85.2,-0.3 -28.3,0 -56.7,3.6 -85.2,-9.9 -28.5,-13.5 -57.1,-44.1 -85.6,-40.8 -28.5,3.3 -56.9,40.7 -71,59.3 L 1034,603 Z"
         fill="#272234"
         id="path4763" />
      <path
         d="m 1034,820 14.2,-13.7 c 14.1,-13.6 42.5,-41 71,-47.8 28.5,-6.8 57.1,6.8 85.6,1.8 28.5,-5 56.9,-28.6 85.2,-25.1 28.3,3.5 56.7,34.1 85.2,46 28.5,11.8 57.1,4.8 85.6,-3.7 28.5,-8.5 56.9,-18.5 85.2,-3.2 28.3,15.4 56.7,56 85.2,67.9 28.5,11.8 57.1,-5.2 85.6,-12 28.5,-6.9 56.9,-3.5 85.2,-3.5 28.3,0 56.7,-3.4 85.2,-20.4 28.5,-17 57.1,-47.6 85.6,-54.5 28.5,-6.8 56.9,10.2 71,18.7 L 2058,779 V 654 l -14.2,-3.3 c -14.1,-3.4 -42.5,-10 -71,5.5 -28.5,15.5 -57.1,53.1 -85.6,66.8 -28.5,13.7 -56.9,3.3 -85.2,5 -28.3,1.7 -56.7,15.3 -85.2,32.3 -28.5,17 -57.1,37.4 -85.6,22 -28.5,-15.3 -56.9,-66.3 -85.2,-90.1 -28.3,-23.9 -56.7,-20.5 -85.2,-12 -28.5,8.5 -57.1,22.1 -85.6,18.6 -28.5,-3.5 -56.9,-24.1 -85.2,-20.8 -28.3,3.3 -56.7,30.7 -85.2,34.2 -28.5,3.5 -57.1,-16.9 -85.6,-20.2 -28.5,-3.3 -56.9,10.3 -71,17.2 L 1034,716 Z"
         fill="#231e30"
         id="path4765" />
      <path
         d="m 1034,851 14.2,-13.7 c 14.1,-13.6 42.5,-41 71,-42.6 28.5,-1.7 57.1,22.3 85.6,22.3 28.5,0 56.9,-24 85.2,-24 28.3,0 56.7,24 85.2,29.2 28.5,5.1 57.1,-8.5 85.6,-17.2 28.5,-8.7 56.9,-12.3 85.2,3 28.3,15.3 56.7,49.7 85.2,60 28.5,10.3 57.1,-3.3 85.6,-6.8 28.5,-3.5 56.9,3.1 85.2,1.5 28.3,-1.7 56.7,-11.7 85.2,-25.4 28.5,-13.6 57.1,-31 85.6,-31 28.5,0 56.9,17.4 71,26 l 14.2,8.7 v -64 l -14.2,-8.5 c -14.1,-8.5 -42.5,-25.5 -71,-18.7 -28.5,6.9 -57.1,37.5 -85.6,54.5 -28.5,17 -56.9,20.4 -85.2,20.4 -28.3,0 -56.7,-3.4 -85.2,3.5 -28.5,6.8 -57.1,23.8 -85.6,12 -28.5,-11.9 -56.9,-52.5 -85.2,-67.9 -28.3,-15.3 -56.7,-5.3 -85.2,3.2 -28.5,8.5 -57.1,15.5 -85.6,3.7 -28.5,-11.9 -56.9,-42.5 -85.2,-46 -28.3,-3.5 -56.7,20.1 -85.2,25.1 -28.5,5 -57.1,-8.6 -85.6,-1.8 -28.5,6.8 -56.9,34.2 -71,47.8 L 1034,818 Z"
         fill="#221d2e"
         id="path4767" />
      <path
         d="m 1034,912 14.2,-11.8 c 14.1,-11.9 42.5,-35.5 71,-40.5 28.5,-5 57.1,8.6 85.6,10.3 28.5,1.7 56.9,-8.7 85.2,-0.2 28.3,8.5 56.7,35.9 85.2,37.5 28.5,1.7 57.1,-22.3 85.6,-32.6 28.5,-10.4 56.9,-7 85.2,3.3 28.3,10.3 56.7,27.7 85.2,29.5 28.5,1.8 57.1,-11.8 85.6,-15.3 28.5,-3.5 56.9,3.1 85.2,10 28.3,6.8 56.7,13.8 85.2,3.6 28.5,-10.1 57.1,-37.5 85.6,-39.3 28.5,-1.8 56.9,21.8 71,33.7 L 2058,912 v -73 l -14.2,-8.7 c -14.1,-8.6 -42.5,-26 -71,-26 -28.5,0 -57.1,17.4 -85.6,31 -28.5,13.7 -56.9,23.7 -85.2,25.4 -28.3,1.6 -56.7,-5 -85.2,-1.5 -28.5,3.5 -57.1,17.1 -85.6,6.8 -28.5,-10.3 -56.9,-44.7 -85.2,-60 -28.3,-15.3 -56.7,-11.7 -85.2,-3 -28.5,8.7 -57.1,22.3 -85.6,17.2 -28.5,-5.2 -56.9,-29.2 -85.2,-29.2 -28.3,0 -56.7,24 -85.2,24 -28.5,0 -57.1,-24 -85.6,-22.3 -28.5,1.6 -56.9,29 -71,42.6 L 1034,849 Z"
         fill="#201c2c"
         id="path4769" />
      <path
         d="m 1034,943 14.2,-3.3 c 14.1,-3.4 42.5,-10 71,-10 28.5,0 57.1,6.6 85.6,8.3 28.5,1.7 56.9,-1.7 85.2,1.8 28.3,3.5 56.7,13.9 85.2,13.9 28.5,0 57.1,-10.4 85.6,-8.7 28.5,1.7 56.9,15.3 85.2,20.5 28.3,5.2 56.7,1.8 85.2,0.2 28.5,-1.7 57.1,-1.7 85.6,-1.7 28.5,0 56.9,0 85.2,-1.8 28.3,-1.9 56.7,-5.5 85.2,-12.4 28.5,-6.8 57.1,-16.8 85.6,-13.3 28.5,3.5 56.9,20.5 71,29 l 14.2,8.5 v -64 l -14.2,-11.8 c -14.1,-11.9 -42.5,-35.5 -71,-33.7 -28.5,1.8 -57.1,29.2 -85.6,39.3 -28.5,10.2 -56.9,3.2 -85.2,-3.6 -28.3,-6.9 -56.7,-13.5 -85.2,-10 -28.5,3.5 -57.1,17.1 -85.6,15.3 -28.5,-1.8 -56.9,-19.2 -85.2,-29.5 -28.3,-10.3 -56.7,-13.7 -85.2,-3.3 -28.5,10.3 -57.1,34.3 -85.6,32.6 -28.5,-1.6 -56.9,-29 -85.2,-37.5 -28.3,-8.5 -56.7,1.9 -85.2,0.2 -28.5,-1.7 -57.1,-15.3 -85.6,-10.3 -28.5,5 -56.9,28.6 -71,40.5 L 1034,910 Z"
         fill="#1f1b29"
         id="path4771" />
      <path
         d="m 1034,994 14.2,-1.7 c 14.1,-1.6 42.5,-5 71,-3.1 28.5,1.8 57.1,8.8 85.6,8.8 28.5,0 56.9,-7 85.2,-8.8 28.3,-1.9 56.7,1.5 85.2,-1.9 28.5,-3.3 57.1,-13.3 85.6,-11.5 28.5,1.9 56.9,15.5 85.2,22.4 28.3,6.8 56.7,6.8 85.2,6.8 28.5,0 57.1,0 85.6,0 28.5,0 56.9,0 85.2,-3.5 28.3,-3.5 56.7,-10.5 85.2,-12.3 28.5,-1.9 57.1,1.5 85.6,5 28.5,3.5 56.9,7.1 71,9 l 14.2,1.8 v -33 l -14.2,-8.5 c -14.1,-8.5 -42.5,-25.5 -71,-29 -28.5,-3.5 -57.1,6.5 -85.6,13.3 -28.5,6.9 -56.9,10.5 -85.2,12.4 -28.3,1.8 -56.7,1.8 -85.2,1.8 -28.5,0 -57.1,0 -85.6,1.7 -28.5,1.6 -56.9,5 -85.2,-0.2 -28.3,-5.2 -56.7,-18.8 -85.2,-20.5 -28.5,-1.7 -57.1,8.7 -85.6,8.7 -28.5,0 -56.9,-10.4 -85.2,-13.9 -28.3,-3.5 -56.7,-0.1 -85.2,-1.8 -28.5,-1.7 -57.1,-8.3 -85.6,-8.3 -28.5,0 -56.9,6.6 -71,10 L 1034,941 Z"
         fill="#1d1a27"
         id="path4773" />
      <path
         d="m 1034,1025 h 14.2 c 14.1,0 42.5,0 71,0 28.5,0 57.1,0 85.6,0 28.5,0 56.9,0 85.2,0 28.3,0 56.7,0 85.2,0 28.5,0 57.1,0 85.6,0 28.5,0 56.9,0 85.2,0 28.3,0 56.7,0 85.2,0 28.5,0 57.1,0 85.6,0 28.5,0 56.9,0 85.2,0 28.3,0 56.7,0 85.2,0 28.5,0 57.1,0 85.6,0 28.5,0 56.9,0 71,0 h 14.2 v -22 l -14.2,-1.8 c -14.1,-1.9 -42.5,-5.5 -71,-9 -28.5,-3.5 -57.1,-6.9 -85.6,-5 -28.5,1.8 -56.9,8.8 -85.2,12.3 -28.3,3.5 -56.7,3.5 -85.2,3.5 -28.5,0 -57.1,0 -85.6,0 -28.5,0 -56.9,0 -85.2,-6.8 -28.3,-6.9 -56.7,-20.5 -85.2,-22.4 -28.5,-1.8 -57.1,8.2 -85.6,11.5 -28.5,3.4 -56.9,0 -85.2,1.9 -28.3,1.8 -56.7,8.8 -85.2,8.8 -28.5,0 -57.1,-7 -85.6,-8.8 -28.5,-1.9 -56.9,1.5 -71,3.1 L 1034,992 Z"
         fill="#1c1925"
         id="path4775" />
    </g>
    <g
       id="g8057"
       inkscape:label="mountains 2">
      <path
         d="m 1034,718 14.2,-6.8 c 14.1,-6.9 42.5,-20.5 71,-17.2 28.5,3.3 57.1,23.7 85.6,20.2 28.5,-3.5 56.9,-30.9 85.2,-34.2 28.3,-3.3 56.7,17.3 85.2,20.8 28.5,3.5 57.1,-10.1 85.6,-18.6 28.5,-8.5 56.9,-11.9 85.2,12 28.3,23.8 56.7,74.8 85.2,90.1 28.5,15.4 57.1,-5 85.6,-22 28.5,-17 56.9,-30.6 85.2,-32.3 28.3,-1.7 56.7,8.7 85.2,-5 28.5,-13.7 57.1,-51.3 85.6,-66.8 28.5,-15.5 56.9,-8.9 71,-5.5 l 14.2,3.3 v -94 l -14.2,-5.2 c -14.1,-5.1 -42.5,-15.5 -71,-12 -28.5,3.5 -57.1,20.9 -85.6,39.7 -28.5,18.8 -56.9,39.2 -85.2,51 -28.3,11.8 -56.7,15.2 -85.2,30.5 -28.5,15.3 -57.1,42.7 -85.6,30.8 -28.5,-11.8 -56.9,-62.8 -85.2,-93.5 -28.3,-30.6 -56.7,-41 -85.2,-41 -28.5,0 -57.1,10.4 -85.6,13.7 -28.5,3.3 -56.9,-0.3 -85.2,-0.3 -28.3,0 -56.7,3.6 -85.2,-9.9 -28.5,-13.5 -57.1,-44.1 -85.6,-40.8 -28.5,3.3 -56.9,40.7 -71,59.3 L 1034,603 Z"
         fill="#272234"
         id="path8043" />
      <path
         d="m 1034,820 14.2,-13.7 c 14.1,-13.6 42.5,-41 71,-47.8 28.5,-6.8 57.1,6.8 85.6,1.8 28.5,-5 56.9,-28.6 85.2,-25.1 28.3,3.5 56.7,34.1 85.2,46 28.5,11.8 57.1,4.8 85.6,-3.7 28.5,-8.5 56.9,-18.5 85.2,-3.2 28.3,15.4 56.7,56 85.2,67.9 28.5,11.8 57.1,-5.2 85.6,-12 28.5,-6.9 56.9,-3.5 85.2,-3.5 28.3,0 56.7,-3.4 85.2,-20.4 28.5,-17 57.1,-47.6 85.6,-54.5 28.5,-6.8 56.9,10.2 71,18.7 L 2058,779 V 654 l -14.2,-3.3 c -14.1,-3.4 -42.5,-10 -71,5.5 -28.5,15.5 -57.1,53.1 -85.6,66.8 -28.5,13.7 -56.9,3.3 -85.2,5 -28.3,1.7 -56.7,15.3 -85.2,32.3 -28.5,17 -57.1,37.4 -85.6,22 -28.5,-15.3 -56.9,-66.3 -85.2,-90.1 -28.3,-23.9 -56.7,-20.5 -85.2,-12 -28.5,8.5 -57.1,22.1 -85.6,18.6 -28.5,-3.5 -56.9,-24.1 -85.2,-20.8 -28.3,3.3 -56.7,30.7 -85.2,34.2 -28.5,3.5 -57.1,-16.9 -85.6,-20.2 -28.5,-3.3 -56.9,10.3 -71,17.2 L 1034,716 Z"
         fill="#231e30"
         id="path8045" />
      <path
         d="m 1034,851 14.2,-13.7 c 14.1,-13.6 42.5,-41 71,-42.6 28.5,-1.7 57.1,22.3 85.6,22.3 28.5,0 56.9,-24 85.2,-24 28.3,0 56.7,24 85.2,29.2 28.5,5.1 57.1,-8.5 85.6,-17.2 28.5,-8.7 56.9,-12.3 85.2,3 28.3,15.3 56.7,49.7 85.2,60 28.5,10.3 57.1,-3.3 85.6,-6.8 28.5,-3.5 56.9,3.1 85.2,1.5 28.3,-1.7 56.7,-11.7 85.2,-25.4 28.5,-13.6 57.1,-31 85.6,-31 28.5,0 56.9,17.4 71,26 l 14.2,8.7 v -64 l -14.2,-8.5 c -14.1,-8.5 -42.5,-25.5 -71,-18.7 -28.5,6.9 -57.1,37.5 -85.6,54.5 -28.5,17 -56.9,20.4 -85.2,20.4 -28.3,0 -56.7,-3.4 -85.2,3.5 -28.5,6.8 -57.1,23.8 -85.6,12 -28.5,-11.9 -56.9,-52.5 -85.2,-67.9 -28.3,-15.3 -56.7,-5.3 -85.2,3.2 -28.5,8.5 -57.1,15.5 -85.6,3.7 -28.5,-11.9 -56.9,-42.5 -85.2,-46 -28.3,-3.5 -56.7,20.1 -85.2,25.1 -28.5,5 -57.1,-8.6 -85.6,-1.8 -28.5,6.8 -56.9,34.2 -71,47.8 L 1034,818 Z"
         fill="#221d2e"
         id="path8047" />
      <path
         d="m 1034,912 14.2,-11.8 c 14.1,-11.9 42.5,-35.5 71,-40.5 28.5,-5 57.1,8.6 85.6,10.3 28.5,1.7 56.9,-8.7 85.2,-0.2 28.3,8.5 56.7,35.9 85.2,37.5 28.5,1.7 57.1,-22.3 85.6,-32.6 28.5,-10.4 56.9,-7 85.2,3.3 28.3,10.3 56.7,27.7 85.2,29.5 28.5,1.8 57.1,-11.8 85.6,-15.3 28.5,-3.5 56.9,3.1 85.2,10 28.3,6.8 56.7,13.8 85.2,3.6 28.5,-10.1 57.1,-37.5 85.6,-39.3 28.5,-1.8 56.9,21.8 71,33.7 L 2058,912 v -73 l -14.2,-8.7 c -14.1,-8.6 -42.5,-26 -71,-26 -28.5,0 -57.1,17.4 -85.6,31 -28.5,13.7 -56.9,23.7 -85.2,25.4 -28.3,1.6 -56.7,-5 -85.2,-1.5 -28.5,3.5 -57.1,17.1 -85.6,6.8 -28.5,-10.3 -56.9,-44.7 -85.2,-60 -28.3,-15.3 -56.7,-11.7 -85.2,-3 -28.5,8.7 -57.1,22.3 -85.6,17.2 -28.5,-5.2 -56.9,-29.2 -85.2,-29.2 -28.3,0 -56.7,24 -85.2,24 -28.5,0 -57.1,-24 -85.6,-22.3 -28.5,1.6 -56.9,29 -71,42.6 L 1034,849 Z"
         fill="#201c2c"
         id="path8049" />
      <path
         d="m 1034,943 14.2,-3.3 c 14.1,-3.4 42.5,-10 71,-10 28.5,0 57.1,6.6 85.6,8.3 28.5,1.7 56.9,-1.7 85.2,1.8 28.3,3.5 56.7,13.9 85.2,13.9 28.5,0 57.1,-10.4 85.6,-8.7 28.5,1.7 56.9,15.3 85.2,20.5 28.3,5.2 56.7,1.8 85.2,0.2 28.5,-1.7 57.1,-1.7 85.6,-1.7 28.5,0 56.9,0 85.2,-1.8 28.3,-1.9 56.7,-5.5 85.2,-12.4 28.5,-6.8 57.1,-16.8 85.6,-13.3 28.5,3.5 56.9,20.5 71,29 l 14.2,8.5 v -64 l -14.2,-11.8 c -14.1,-11.9 -42.5,-35.5 -71,-33.7 -28.5,1.8 -57.1,29.2 -85.6,39.3 -28.5,10.2 -56.9,3.2 -85.2,-3.6 -28.3,-6.9 -56.7,-13.5 -85.2,-10 -28.5,3.5 -57.1,17.1 -85.6,15.3 -28.5,-1.8 -56.9,-19.2 -85.2,-29.5 -28.3,-10.3 -56.7,-13.7 -85.2,-3.3 -28.5,10.3 -57.1,34.3 -85.6,32.6 -28.5,-1.6 -56.9,-29 -85.2,-37.5 -28.3,-8.5 -56.7,1.9 -85.2,0.2 -28.5,-1.7 -57.1,-15.3 -85.6,-10.3 -28.5,5 -56.9,28.6 -71,40.5 L 1034,910 Z"
         fill="#1f1b29"
         id="path8051" />
      <path
         d="m 1034,994 14.2,-1.7 c 14.1,-1.6 42.5,-5 71,-3.1 28.5,1.8 57.1,8.8 85.6,8.8 28.5,0 56.9,-7 85.2,-8.8 28.3,-1.9 56.7,1.5 85.2,-1.9 28.5,-3.3 57.1,-13.3 85.6,-11.5 28.5,1.9 56.9,15.5 85.2,22.4 28.3,6.8 56.7,6.8 85.2,6.8 28.5,0 57.1,0 85.6,0 28.5,0 56.9,0 85.2,-3.5 28.3,-3.5 56.7,-10.5 85.2,-12.3 28.5,-1.9 57.1,1.5 85.6,5 28.5,3.5 56.9,7.1 71,9 l 14.2,1.8 v -33 l -14.2,-8.5 c -14.1,-8.5 -42.5,-25.5 -71,-29 -28.5,-3.5 -57.1,6.5 -85.6,13.3 -28.5,6.9 -56.9,10.5 -85.2,12.4 -28.3,1.8 -56.7,1.8 -85.2,1.8 -28.5,0 -57.1,0 -85.6,1.7 -28.5,1.6 -56.9,5 -85.2,-0.2 -28.3,-5.2 -56.7,-18.8 -85.2,-20.5 -28.5,-1.7 -57.1,8.7 -85.6,8.7 -28.5,0 -56.9,-10.4 -85.2,-13.9 -28.3,-3.5 -56.7,-0.1 -85.2,-1.8 -28.5,-1.7 -57.1,-8.3 -85.6,-8.3 -28.5,0 -56.9,6.6 -71,10 L 1034,941 Z"
         fill="#1d1a27"
         id="path8053" />
      <path
         d="m 1034,1025 h 14.2 c 14.1,0 42.5,0 71,0 28.5,0 57.1,0 85.6,0 28.5,0 56.9,0 85.2,0 28.3,0 56.7,0 85.2,0 28.5,0 57.1,0 85.6,0 28.5,0 56.9,0 85.2,0 28.3,0 56.7,0 85.2,0 28.5,0 57.1,0 85.6,0 28.5,0 56.9,0 85.2,0 28.3,0 56.7,0 85.2,0 28.5,0 57.1,0 85.6,0 28.5,0 56.9,0 71,0 h 14.2 v -22 l -14.2,-1.8 c -14.1,-1.9 -42.5,-5.5 -71,-9 -28.5,-3.5 -57.1,-6.9 -85.6,-5 -28.5,1.8 -56.9,8.8 -85.2,12.3 -28.3,3.5 -56.7,3.5 -85.2,3.5 -28.5,0 -57.1,0 -85.6,0 -28.5,0 -56.9,0 -85.2,-6.8 -28.3,-6.9 -56.7,-20.5 -85.2,-22.4 -28.5,-1.8 -57.1,8.2 -85.6,11.5 -28.5,3.4 -56.9,0 -85.2,1.9 -28.3,1.8 -56.7,8.8 -85.2,8.8 -28.5,0 -57.1,-7 -85.6,-8.8 -28.5,-1.9 -56.9,1.5 -71,3.1 L 1034,992 Z"
         fill="#1c1925"
         id="path8055" />
    </g>
    <g
       id="g8073"
       inkscape:label="mountains 1">
      <path
         d="m 1034,718 14.2,-6.8 c 14.1,-6.9 42.5,-20.5 71,-17.2 28.5,3.3 57.1,23.7 85.6,20.2 28.5,-3.5 56.9,-30.9 85.2,-34.2 28.3,-3.3 56.7,17.3 85.2,20.8 28.5,3.5 57.1,-10.1 85.6,-18.6 28.5,-8.5 56.9,-11.9 85.2,12 28.3,23.8 56.7,74.8 85.2,90.1 28.5,15.4 57.1,-5 85.6,-22 28.5,-17 56.9,-30.6 85.2,-32.3 28.3,-1.7 56.7,8.7 85.2,-5 28.5,-13.7 57.1,-51.3 85.6,-66.8 28.5,-15.5 56.9,-8.9 71,-5.5 l 14.2,3.3 v -94 l -14.2,-5.2 c -14.1,-5.1 -42.5,-15.5 -71,-12 -28.5,3.5 -57.1,20.9 -85.6,39.7 -28.5,18.8 -56.9,39.2 -85.2,51 -28.3,11.8 -56.7,15.2 -85.2,30.5 -28.5,15.3 -57.1,42.7 -85.6,30.8 -28.5,-11.8 -56.9,-62.8 -85.2,-93.5 -28.3,-30.6 -56.7,-41 -85.2,-41 -28.5,0 -57.1,10.4 -85.6,13.7 -28.5,3.3 -56.9,-0.3 -85.2,-0.3 -28.3,0 -56.7,3.6 -85.2,-9.9 -28.5,-13.5 -57.1,-44.1 -85.6,-40.8 -28.5,3.3 -56.9,40.7 -71,59.3 L 1034,603 Z"
         fill="#272234"
         id="path8059" />
      <path
         d="m 1034,820 14.2,-13.7 c 14.1,-13.6 42.5,-41 71,-47.8 28.5,-6.8 57.1,6.8 85.6,1.8 28.5,-5 56.9,-28.6 85.2,-25.1 28.3,3.5 56.7,34.1 85.2,46 28.5,11.8 57.1,4.8 85.6,-3.7 28.5,-8.5 56.9,-18.5 85.2,-3.2 28.3,15.4 56.7,56 85.2,67.9 28.5,11.8 57.1,-5.2 85.6,-12 28.5,-6.9 56.9,-3.5 85.2,-3.5 28.3,0 56.7,-3.4 85.2,-20.4 28.5,-17 57.1,-47.6 85.6,-54.5 28.5,-6.8 56.9,10.2 71,18.7 L 2058,779 V 654 l -14.2,-3.3 c -14.1,-3.4 -42.5,-10 -71,5.5 -28.5,15.5 -57.1,53.1 -85.6,66.8 -28.5,13.7 -56.9,3.3 -85.2,5 -28.3,1.7 -56.7,15.3 -85.2,32.3 -28.5,17 -57.1,37.4 -85.6,22 -28.5,-15.3 -56.9,-66.3 -85.2,-90.1 -28.3,-23.9 -56.7,-20.5 -85.2,-12 -28.5,8.5 -57.1,22.1 -85.6,18.6 -28.5,-3.5 -56.9,-24.1 -85.2,-20.8 -28.3,3.3 -56.7,30.7 -85.2,34.2 -28.5,3.5 -57.1,-16.9 -85.6,-20.2 -28.5,-3.3 -56.9,10.3 -71,17.2 L 1034,716 Z"
         fill="#231e30"
         id="path8061" />
      <path
         d="m 1034,851 14.2,-13.7 c 14.1,-13.6 42.5,-41 71,-42.6 28.5,-1.7 57.1,22.3 85.6,22.3 28.5,0 56.9,-24 85.2,-24 28.3,0 56.7,24 85.2,29.2 28.5,5.1 57.1,-8.5 85.6,-17.2 28.5,-8.7 56.9,-12.3 85.2,3 28.3,15.3 56.7,49.7 85.2,60 28.5,10.3 57.1,-3.3 85.6,-6.8 28.5,-3.5 56.9,3.1 85.2,1.5 28.3,-1.7 56.7,-11.7 85.2,-25.4 28.5,-13.6 57.1,-31 85.6,-31 28.5,0 56.9,17.4 71,26 l 14.2,8.7 v -64 l -14.2,-8.5 c -14.1,-8.5 -42.5,-25.5 -71,-18.7 -28.5,6.9 -57.1,37.5 -85.6,54.5 -28.5,17 -56.9,20.4 -85.2,20.4 -28.3,0 -56.7,-3.4 -85.2,3.5 -28.5,6.8 -57.1,23.8 -85.6,12 -28.5,-11.9 -56.9,-52.5 -85.2,-67.9 -28.3,-15.3 -56.7,-5.3 -85.2,3.2 -28.5,8.5 -57.1,15.5 -85.6,3.7 -28.5,-11.9 -56.9,-42.5 -85.2,-46 -28.3,-3.5 -56.7,20.1 -85.2,25.1 -28.5,5 -57.1,-8.6 -85.6,-1.8 -28.5,6.8 -56.9,34.2 -71,47.8 L 1034,818 Z"
         fill="#221d2e"
         id="path8063" />
      <path
         d="m 1034,912 14.2,-11.8 c 14.1,-11.9 42.5,-35.5 71,-40.5 28.5,-5 57.1,8.6 85.6,10.3 28.5,1.7 56.9,-8.7 85.2,-0.2 28.3,8.5 56.7,35.9 85.2,37.5 28.5,1.7 57.1,-22.3 85.6,-32.6 28.5,-10.4 56.9,-7 85.2,3.3 28.3,10.3 56.7,27.7 85.2,29.5 28.5,1.8 57.1,-11.8 85.6,-15.3 28.5,-3.5 56.9,3.1 85.2,10 28.3,6.8 56.7,13.8 85.2,3.6 28.5,-10.1 57.1,-37.5 85.6,-39.3 28.5,-1.8 56.9,21.8 71,33.7 L 2058,912 v -73 l -14.2,-8.7 c -14.1,-8.6 -42.5,-26 -71,-26 -28.5,0 -57.1,17.4 -85.6,31 -28.5,13.7 -56.9,23.7 -85.2,25.4 -28.3,1.6 -56.7,-5 -85.2,-1.5 -28.5,3.5 -57.1,17.1 -85.6,6.8 -28.5,-10.3 -56.9,-44.7 -85.2,-60 -28.3,-15.3 -56.7,-11.7 -85.2,-3 -28.5,8.7 -57.1,22.3 -85.6,17.2 -28.5,-5.2 -56.9,-29.2 -85.2,-29.2 -28.3,0 -56.7,24 -85.2,24 -28.5,0 -57.1,-24 -85.6,-22.3 -28.5,1.6 -56.9,29 -71,42.6 L 1034,849 Z"
         fill="#201c2c"
         id="path8065" />
      <path
         d="m 1034,943 14.2,-3.3 c 14.1,-3.4 42.5,-10 71,-10 28.5,0 57.1,6.6 85.6,8.3 28.5,1.7 56.9,-1.7 85.2,1.8 28.3,3.5 56.7,13.9 85.2,13.9 28.5,0 57.1,-10.4 85.6,-8.7 28.5,1.7 56.9,15.3 85.2,20.5 28.3,5.2 56.7,1.8 85.2,0.2 28.5,-1.7 57.1,-1.7 85.6,-1.7 28.5,0 56.9,0 85.2,-1.8 28.3,-1.9 56.7,-5.5 85.2,-12.4 28.5,-6.8 57.1,-16.8 85.6,-13.3 28.5,3.5 56.9,20.5 71,29 l 14.2,8.5 v -64 l -14.2,-11.8 c -14.1,-11.9 -42.5,-35.5 -71,-33.7 -28.5,1.8 -57.1,29.2 -85.6,39.3 -28.5,10.2 -56.9,3.2 -85.2,-3.6 -28.3,-6.9 -56.7,-13.5 -85.2,-10 -28.5,3.5 -57.1,17.1 -85.6,15.3 -28.5,-1.8 -56.9,-19.2 -85.2,-29.5 -28.3,-10.3 -56.7,-13.7 -85.2,-3.3 -28.5,10.3 -57.1,34.3 -85.6,32.6 -28.5,-1.6 -56.9,-29 -85.2,-37.5 -28.3,-8.5 -56.7,1.9 -85.2,0.2 -28.5,-1.7 -57.1,-15.3 -85.6,-10.3 -28.5,5 -56.9,28.6 -71,40.5 L 1034,910 Z"
         fill="#1f1b29"
         id="path8067" />
      <path
         d="m 1034,994 14.2,-1.7 c 14.1,-1.6 42.5,-5 71,-3.1 28.5,1.8 57.1,8.8 85.6,8.8 28.5,0 56.9,-7 85.2,-8.8 28.3,-1.9 56.7,1.5 85.2,-1.9 28.5,-3.3 57.1,-13.3 85.6,-11.5 28.5,1.9 56.9,15.5 85.2,22.4 28.3,6.8 56.7,6.8 85.2,6.8 28.5,0 57.1,0 85.6,0 28.5,0 56.9,0 85.2,-3.5 28.3,-3.5 56.7,-10.5 85.2,-12.3 28.5,-1.9 57.1,1.5 85.6,5 28.5,3.5 56.9,7.1 71,9 l 14.2,1.8 v -33 l -14.2,-8.5 c -14.1,-8.5 -42.5,-25.5 -71,-29 -28.5,-3.5 -57.1,6.5 -85.6,13.3 -28.5,6.9 -56.9,10.5 -85.2,12.4 -28.3,1.8 -56.7,1.8 -85.2,1.8 -28.5,0 -57.1,0 -85.6,1.7 -28.5,1.6 -56.9,5 -85.2,-0.2 -28.3,-5.2 -56.7,-18.8 -85.2,-20.5 -28.5,-1.7 -57.1,8.7 -85.6,8.7 -28.5,0 -56.9,-10.4 -85.2,-13.9 -28.3,-3.5 -56.7,-0.1 -85.2,-1.8 -28.5,-1.7 -57.1,-8.3 -85.6,-8.3 -28.5,0 -56.9,6.6 -71,10 L 1034,941 Z"
         fill="#1d1a27"
         id="path8069" />
      <path
         d="m 1034,1025 h 14.2 c 14.1,0 42.5,0 71,0 28.5,0 57.1,0 85.6,0 28.5,0 56.9,0 85.2,0 28.3,0 56.7,0 85.2,0 28.5,0 57.1,0 85.6,0 28.5,0 56.9,0 85.2,0 28.3,0 56.7,0 85.2,0 28.5,0 57.1,0 85.6,0 28.5,0 56.9,0 85.2,0 28.3,0 56.7,0 85.2,0 28.5,0 57.1,0 85.6,0 28.5,0 56.9,0 71,0 h 14.2 v -22 l -14.2,-1.8 c -14.1,-1.9 -42.5,-5.5 -71,-9 -28.5,-3.5 -57.1,-6.9 -85.6,-5 -28.5,1.8 -56.9,8.8 -85.2,12.3 -28.3,3.5 -56.7,3.5 -85.2,3.5 -28.5,0 -57.1,0 -85.6,0 -28.5,0 -56.9,0 -85.2,-6.8 -28.3,-6.9 -56.7,-20.5 -85.2,-22.4 -28.5,-1.8 -57.1,8.2 -85.6,11.5 -28.5,3.4 -56.9,0 -85.2,1.9 -28.3,1.8 -56.7,8.8 -85.2,8.8 -28.5,0 -57.1,-7 -85.6,-8.8 -28.5,-1.9 -56.9,1.5 -71,3.1 L 1034,992 Z"
         fill="#1c1925"
         id="path8071" />
    </g>
    <g
       id="g8089"
       inkscape:label="mountains">
      <path
         d="m 1034,718 14.2,-6.8 c 14.1,-6.9 42.5,-20.5 71,-17.2 28.5,3.3 57.1,23.7 85.6,20.2 28.5,-3.5 56.9,-30.9 85.2,-34.2 28.3,-3.3 56.7,17.3 85.2,20.8 28.5,3.5 57.1,-10.1 85.6,-18.6 28.5,-8.5 56.9,-11.9 85.2,12 28.3,23.8 56.7,74.8 85.2,90.1 28.5,15.4 57.1,-5 85.6,-22 28.5,-17 56.9,-30.6 85.2,-32.3 28.3,-1.7 56.7,8.7 85.2,-5 28.5,-13.7 57.1,-51.3 85.6,-66.8 28.5,-15.5 56.9,-8.9 71,-5.5 l 14.2,3.3 v -94 l -14.2,-5.2 c -14.1,-5.1 -42.5,-15.5 -71,-12 -28.5,3.5 -57.1,20.9 -85.6,39.7 -28.5,18.8 -56.9,39.2 -85.2,51 -28.3,11.8 -56.7,15.2 -85.2,30.5 -28.5,15.3 -57.1,42.7 -85.6,30.8 -28.5,-11.8 -56.9,-62.8 -85.2,-93.5 -28.3,-30.6 -56.7,-41 -85.2,-41 -28.5,0 -57.1,10.4 -85.6,13.7 -28.5,3.3 -56.9,-0.3 -85.2,-0.3 -28.3,0 -56.7,3.6 -85.2,-9.9 -28.5,-13.5 -57.1,-44.1 -85.6,-40.8 -28.5,3.3 -56.9,40.7 -71,59.3 L 1034,603 Z"
         fill="#272234"
         id="path8075" />
      <path
         d="m 1034,820 14.2,-13.7 c 14.1,-13.6 42.5,-41 71,-47.8 28.5,-6.8 57.1,6.8 85.6,1.8 28.5,-5 56.9,-28.6 85.2,-25.1 28.3,3.5 56.7,34.1 85.2,46 28.5,11.8 57.1,4.8 85.6,-3.7 28.5,-8.5 56.9,-18.5 85.2,-3.2 28.3,15.4 56.7,56 85.2,67.9 28.5,11.8 57.1,-5.2 85.6,-12 28.5,-6.9 56.9,-3.5 85.2,-3.5 28.3,0 56.7,-3.4 85.2,-20.4 28.5,-17 57.1,-47.6 85.6,-54.5 28.5,-6.8 56.9,10.2 71,18.7 L 2058,779 V 654 l -14.2,-3.3 c -14.1,-3.4 -42.5,-10 -71,5.5 -28.5,15.5 -57.1,53.1 -85.6,66.8 -28.5,13.7 -56.9,3.3 -85.2,5 -28.3,1.7 -56.7,15.3 -85.2,32.3 -28.5,17 -57.1,37.4 -85.6,22 -28.5,-15.3 -56.9,-66.3 -85.2,-90.1 -28.3,-23.9 -56.7,-20.5 -85.2,-12 -28.5,8.5 -57.1,22.1 -85.6,18.6 -28.5,-3.5 -56.9,-24.1 -85.2,-20.8 -28.3,3.3 -56.7,30.7 -85.2,34.2 -28.5,3.5 -57.1,-16.9 -85.6,-20.2 -28.5,-3.3 -56.9,10.3 -71,17.2 L 1034,716 Z"
         fill="#231e30"
         id="path8077" />
      <path
         d="m 1034,851 14.2,-13.7 c 14.1,-13.6 42.5,-41 71,-42.6 28.5,-1.7 57.1,22.3 85.6,22.3 28.5,0 56.9,-24 85.2,-24 28.3,0 56.7,24 85.2,29.2 28.5,5.1 57.1,-8.5 85.6,-17.2 28.5,-8.7 56.9,-12.3 85.2,3 28.3,15.3 56.7,49.7 85.2,60 28.5,10.3 57.1,-3.3 85.6,-6.8 28.5,-3.5 56.9,3.1 85.2,1.5 28.3,-1.7 56.7,-11.7 85.2,-25.4 28.5,-13.6 57.1,-31 85.6,-31 28.5,0 56.9,17.4 71,26 l 14.2,8.7 v -64 l -14.2,-8.5 c -14.1,-8.5 -42.5,-25.5 -71,-18.7 -28.5,6.9 -57.1,37.5 -85.6,54.5 -28.5,17 -56.9,20.4 -85.2,20.4 -28.3,0 -56.7,-3.4 -85.2,3.5 -28.5,6.8 -57.1,23.8 -85.6,12 -28.5,-11.9 -56.9,-52.5 -85.2,-67.9 -28.3,-15.3 -56.7,-5.3 -85.2,3.2 -28.5,8.5 -57.1,15.5 -85.6,3.7 -28.5,-11.9 -56.9,-42.5 -85.2,-46 -28.3,-3.5 -56.7,20.1 -85.2,25.1 -28.5,5 -57.1,-8.6 -85.6,-1.8 -28.5,6.8 -56.9,34.2 -71,47.8 L 1034,818 Z"
         fill="#221d2e"
         id="path8079" />
      <path
         d="m 1034,912 14.2,-11.8 c 14.1,-11.9 42.5,-35.5 71,-40.5 28.5,-5 57.1,8.6 85.6,10.3 28.5,1.7 56.9,-8.7 85.2,-0.2 28.3,8.5 56.7,35.9 85.2,37.5 28.5,1.7 57.1,-22.3 85.6,-32.6 28.5,-10.4 56.9,-7 85.2,3.3 28.3,10.3 56.7,27.7 85.2,29.5 28.5,1.8 57.1,-11.8 85.6,-15.3 28.5,-3.5 56.9,3.1 85.2,10 28.3,6.8 56.7,13.8 85.2,3.6 28.5,-10.1 57.1,-37.5 85.6,-39.3 28.5,-1.8 56.9,21.8 71,33.7 L 2058,912 v -73 l -14.2,-8.7 c -14.1,-8.6 -42.5,-26 -71,-26 -28.5,0 -57.1,17.4 -85.6,31 -28.5,13.7 -56.9,23.7 -85.2,25.4 -28.3,1.6 -56.7,-5 -85.2,-1.5 -28.5,3.5 -57.1,17.1 -85.6,6.8 -28.5,-10.3 -56.9,-44.7 -85.2,-60 -28.3,-15.3 -56.7,-11.7 -85.2,-3 -28.5,8.7 -57.1,22.3 -85.6,17.2 -28.5,-5.2 -56.9,-29.2 -85.2,-29.2 -28.3,0 -56.7,24 -85.2,24 -28.5,0 -57.1,-24 -85.6,-22.3 -28.5,1.6 -56.9,29 -71,42.6 L 1034,849 Z"
         fill="#201c2c"
         id="path8081" />
      <path
         d="m 1034,943 14.2,-3.3 c 14.1,-3.4 42.5,-10 71,-10 28.5,0 57.1,6.6 85.6,8.3 28.5,1.7 56.9,-1.7 85.2,1.8 28.3,3.5 56.7,13.9 85.2,13.9 28.5,0 57.1,-10.4 85.6,-8.7 28.5,1.7 56.9,15.3 85.2,20.5 28.3,5.2 56.7,1.8 85.2,0.2 28.5,-1.7 57.1,-1.7 85.6,-1.7 28.5,0 56.9,0 85.2,-1.8 28.3,-1.9 56.7,-5.5 85.2,-12.4 28.5,-6.8 57.1,-16.8 85.6,-13.3 28.5,3.5 56.9,20.5 71,29 l 14.2,8.5 v -64 l -14.2,-11.8 c -14.1,-11.9 -42.5,-35.5 -71,-33.7 -28.5,1.8 -57.1,29.2 -85.6,39.3 -28.5,10.2 -56.9,3.2 -85.2,-3.6 -28.3,-6.9 -56.7,-13.5 -85.2,-10 -28.5,3.5 -57.1,17.1 -85.6,15.3 -28.5,-1.8 -56.9,-19.2 -85.2,-29.5 -28.3,-10.3 -56.7,-13.7 -85.2,-3.3 -28.5,10.3 -57.1,34.3 -85.6,32.6 -28.5,-1.6 -56.9,-29 -85.2,-37.5 -28.3,-8.5 -56.7,1.9 -85.2,0.2 -28.5,-1.7 -57.1,-15.3 -85.6,-10.3 -28.5,5 -56.9,28.6 -71,40.5 L 1034,910 Z"
         fill="#1f1b29"
         id="path8083" />
      <path
         d="m 1034,994 14.2,-1.7 c 14.1,-1.6 42.5,-5 71,-3.1 28.5,1.8 57.1,8.8 85.6,8.8 28.5,0 56.9,-7 85.2,-8.8 28.3,-1.9 56.7,1.5 85.2,-1.9 28.5,-3.3 57.1,-13.3 85.6,-11.5 28.5,1.9 56.9,15.5 85.2,22.4 28.3,6.8 56.7,6.8 85.2,6.8 28.5,0 57.1,0 85.6,0 28.5,0 56.9,0 85.2,-3.5 28.3,-3.5 56.7,-10.5 85.2,-12.3 28.5,-1.9 57.1,1.5 85.6,5 28.5,3.5 56.9,7.1 71,9 l 14.2,1.8 v -33 l -14.2,-8.5 c -14.1,-8.5 -42.5,-25.5 -71,-29 -28.5,-3.5 -57.1,6.5 -85.6,13.3 -28.5,6.9 -56.9,10.5 -85.2,12.4 -28.3,1.8 -56.7,1.8 -85.2,1.8 -28.5,0 -57.1,0 -85.6,1.7 -28.5,1.6 -56.9,5 -85.2,-0.2 -28.3,-5.2 -56.7,-18.8 -85.2,-20.5 -28.5,-1.7 -57.1,8.7 -85.6,8.7 -28.5,0 -56.9,-10.4 -85.2,-13.9 -28.3,-3.5 -56.7,-0.1 -85.2,-1.8 -28.5,-1.7 -57.1,-8.3 -85.6,-8.3 -28.5,0 -56.9,6.6 -71,10 L 1034,941 Z"
         fill="#1d1a27"
         id="path8085" />
      <path
         d="m 1034,1025 h 14.2 c 14.1,0 42.5,0 71,0 28.5,0 57.1,0 85.6,0 28.5,0 56.9,0 85.2,0 28.3,0 56.7,0 85.2,0 28.5,0 57.1,0 85.6,0 28.5,0 56.9,0 85.2,0 28.3,0 56.7,0 85.2,0 28.5,0 57.1,0 85.6,0 28.5,0 56.9,0 85.2,0 28.3,0 56.7,0 85.2,0 28.5,0 57.1,0 85.6,0 28.5,0 56.9,0 71,0 h 14.2 v -22 l -14.2,-1.8 c -14.1,-1.9 -42.5,-5.5 -71,-9 -28.5,-3.5 -57.1,-6.9 -85.6,-5 -28.5,1.8 -56.9,8.8 -85.2,12.3 -28.3,3.5 -56.7,3.5 -85.2,3.5 -28.5,0 -57.1,0 -85.6,0 -28.5,0 -56.9,0 -85.2,-6.8 -28.3,-6.9 -56.7,-20.5 -85.2,-22.4 -28.5,-1.8 -57.1,8.2 -85.6,11.5 -28.5,3.4 -56.9,0 -85.2,1.9 -28.3,1.8 -56.7,8.8 -85.2,8.8 -28.5,0 -57.1,-7 -85.6,-8.8 -28.5,-1.9 -56.9,1.5 -71,3.1 L 1034,992 Z"
         fill="#1c1925"
         id="path8087" />
    </g>
    <g
       id="g7988"
       inkscape:label="clouds">
      <path
         id="path7697"
         style="opacity:0.2;fill:#f6f5f4;stroke-width:2;paint-order:stroke markers fill"
         d="M 1238.0001,60 A 64,64 0 0 0 1180.6719,95.78906 48,48 0 0 0 1162.0001,92 a 48,48 0 0 0 -48,48 48,48 0 0 0 48,48 h 76 64 a 36,36 0 0 0 36,-36 36,36 0 0 0 -36,-36 36,36 0 0 0 -0.5176,0.0371 A 64,64 0 0 0 1238.0001,60 Z" />
      <path
         id="path7701"
         style="opacity:0.2;fill:#f6f5f4;stroke-width:2.41667;paint-order:stroke markers fill"
         d="m 1812.0001,300 a 58,58 0 0 0 -58,58 58,58 0 0 0 58,58 h 76 64 a 36,36 0 0 0 36,-36 36,36 0 0 0 -36,-36 36,36 0 0 0 -14.8027,3.19727 A 52,52 0 0 0 1888.0001,312 52,52 0 0 0 1857.4923,322.04688 58,58 0 0 0 1812.0001,300 Z" />
      <path
         id="path7699"
         style="opacity:0.2;fill:#f6f5f4;stroke-width:2.08334;paint-order:stroke markers fill"
         d="m 1480.0001,380 a 64,64 0 0 0 -55.4883,32.41797 50,50 0 0 0 -20.5117,-4.41797 50,50 0 0 0 -50,50 50,50 0 0 0 50,50 h 76 88 a 32,32 0 0 0 32,-32 32,32 0 0 0 -32,-32 32,32 0 0 0 -25.4375,12.71875 64,64 0 0 0 1.4375,-12.71875 64,64 0 0 0 -64,-64 z" />
    </g>
  </g>
  <g
     inkscape:groupmode="layer"
     id="layer1"
     inkscape:label="Day"
     inkscape:highlight-color="#ff7800">
    <rect
       style="opacity:1;fill:url(#linearGradient5775);fill-opacity:1;stroke-width:1.99902;paint-order:stroke markers fill"
       id="rect5190"
       width="1024"
       height="1024"
       x="0"
       y="0"
       inkscape:label="background" />
    <g
       id="g1220">
      <circle
         style="fill:url(#linearGradient650);fill-opacity:1;stroke-width:3.8534;paint-order:stroke markers fill;filter:url(#filter1209)"
         id="path5880-5"
         cx="512"
         cy="552"
         r="128" />
      <circle
         style="fill:url(#linearGradient1213);fill-opacity:1;stroke-width:1.9267;paint-order:stroke markers fill;filter:url(#filter6226)"
         id="circle6224"
         cx="512"
         cy="552"
         r="64"
         inkscape:label="glow" />
      <circle
         style="fill:url(#linearGradient5888);fill-opacity:1;stroke-width:1.9267;paint-order:stroke markers fill"
         id="path5880"
         cx="512"
         cy="552"
         r="64" />
    </g>
    <g
       id="g7974"
       inkscape:label="mountains 3">
      <path
         d="m 0,718 14.2,-6.8 C 28.3,704.3 56.7,690.7 85.199996,694 113.7,697.3 142.3,717.7 170.8,714.2 c 28.5,-3.5 56.9,-30.9 85.2,-34.2 28.3,-3.3 56.7,17.3 85.2,20.8 28.5,3.5 57.1,-10.1 85.6,-18.6 28.5,-8.5 56.9,-11.9 85.2,12 28.3,23.8 56.7,74.8 85.2,90.1 28.5,15.4 57.1,-5 85.6,-22 28.5,-17 56.9,-30.6 85.2,-32.3 28.3,-1.7 56.7,8.7 85.2,-5 28.5,-13.7 57.1,-51.3 85.6,-66.8 28.5,-15.5 56.9,-8.9 71,-5.5 l 14.2,3.3 v -94 l -14.2,-5.2 c -14.1,-5.1 -42.5,-15.5 -71,-12 -28.5,3.5 -57.1,20.9 -85.6,39.7 -28.5,18.8 -56.9,39.2 -85.2,51 -28.3,11.8 -56.7,15.2 -85.2,30.5 -28.5,15.3 -57.1,42.7 -85.6,30.8 C 568.7,685 540.3,634 512,603.3 c -28.3,-30.6 -56.7,-41 -85.2,-41 -28.5,0 -57.1,10.4 -85.6,13.7 -28.5,3.3 -56.9,-0.3 -85.2,-0.3 -28.3,0 -56.7,3.6 -85.2,-9.9 C 142.3,552.3 113.7,521.7 85.199996,525 56.7,528.3 28.3,565.7 14.2,584.3 L 0,603 Z"
         fill="#9446ae"
         id="path4909" />
      <path
         d="M 0,820 14.2,806.3 C 28.3,792.7 56.7,765.3 85.199996,758.5 113.7,751.7 142.3,765.3 170.8,760.3 c 28.5,-5 56.9,-28.6 85.2,-25.1 28.3,3.5 56.7,34.1 85.2,46 28.5,11.8 57.1,4.8 85.6,-3.7 28.5,-8.5 56.9,-18.5 85.2,-3.2 28.3,15.4 56.7,56 85.2,67.9 28.5,11.8 57.1,-5.2 85.6,-12 28.5,-6.9 56.9,-3.5 85.2,-3.5 28.3,0 56.7,-3.4 85.2,-20.4 28.5,-17 57.1,-47.6 85.6,-54.5 28.5,-6.8 56.9,10.2 71,18.7 L 1024,779 V 654 l -14.2,-3.3 c -14.1,-3.4 -42.5,-10 -71,5.5 -28.5,15.5 -57.1,53.1 -85.6,66.8 -28.5,13.7 -56.9,3.3 -85.2,5 -28.3,1.7 -56.7,15.3 -85.2,32.3 -28.5,17 -57.1,37.4 -85.6,22 C 568.7,767 540.3,716 512,692.2 c -28.3,-23.9 -56.7,-20.5 -85.2,-12 -28.5,8.5 -57.1,22.1 -85.6,18.6 -28.5,-3.5 -56.9,-24.1 -85.2,-20.8 -28.3,3.3 -56.7,30.7 -85.2,34.2 C 142.3,715.7 113.7,695.3 85.199996,692 56.7,688.7 28.3,702.3 14.2,709.2 L 0,716 Z"
         fill="#8d3fa8"
         id="path4911" />
      <path
         d="M 0,851 14.2,837.3 C 28.3,823.7 56.7,796.3 85.199996,794.7 113.7,793 142.3,817 170.8,817 c 28.5,0 56.9,-24 85.2,-24 28.3,0 56.7,24 85.2,29.2 28.5,5.1 57.1,-8.5 85.6,-17.2 28.5,-8.7 56.9,-12.3 85.2,3 28.3,15.3 56.7,49.7 85.2,60 28.5,10.3 57.1,-3.3 85.6,-6.8 28.5,-3.5 56.9,3.1 85.2,1.5 28.3,-1.7 56.7,-11.7 85.2,-25.4 28.5,-13.6 57.1,-31 85.6,-31 28.5,0 56.9,17.4 71,26 l 14.2,8.7 v -64 l -14.2,-8.5 c -14.1,-8.5 -42.5,-25.5 -71,-18.7 -28.5,6.9 -57.1,37.5 -85.6,54.5 -28.5,17 -56.9,20.4 -85.2,20.4 -28.3,0 -56.7,-3.4 -85.2,3.5 -28.5,6.8 -57.1,23.8 -85.6,12 -28.5,-11.9 -56.9,-52.5 -85.2,-67.9 -28.3,-15.3 -56.7,-5.3 -85.2,3.2 -28.5,8.5 -57.1,15.5 -85.6,3.7 -28.5,-11.9 -56.9,-42.5 -85.2,-46 -28.3,-3.5 -56.7,20.1 -85.2,25.1 -28.5,5 -57.1,-8.6 -85.600004,-1.8 C 56.7,763.3 28.3,790.7 14.2,804.3 L 0,818 Z"
         fill="#863c9f"
         id="path4913" />
      <path
         d="M 0,912 14.2,900.2 C 28.3,888.3 56.7,864.7 85.199996,859.7 113.7,854.7 142.3,868.3 170.8,870 c 28.5,1.7 56.9,-8.7 85.2,-0.2 28.3,8.5 56.7,35.9 85.2,37.5 28.5,1.7 57.1,-22.3 85.6,-32.6 28.5,-10.4 56.9,-7 85.2,3.3 28.3,10.3 56.7,27.7 85.2,29.5 28.5,1.8 57.1,-11.8 85.6,-15.3 28.5,-3.5 56.9,3.1 85.2,10 28.3,6.8 56.7,13.8 85.2,3.6 28.5,-10.1 57.1,-37.5 85.6,-39.3 28.5,-1.8 56.9,21.8 71,33.7 L 1024,912 v -73 l -14.2,-8.7 c -14.1,-8.6 -42.5,-26 -71,-26 -28.5,0 -57.1,17.4 -85.6,31 -28.5,13.7 -56.9,23.7 -85.2,25.4 -28.3,1.6 -56.7,-5 -85.2,-1.5 -28.5,3.5 -57.1,17.1 -85.6,6.8 -28.5,-10.3 -56.9,-44.7 -85.2,-60 -28.3,-15.3 -56.7,-11.7 -85.2,-3 -28.5,8.7 -57.1,22.3 -85.6,17.2 C 312.7,815 284.3,791 256,791 c -28.3,0 -56.7,24 -85.2,24 -28.5,0 -57.1,-24 -85.600004,-22.3 C 56.7,794.3 28.3,821.7 14.2,835.3 L 0,849 Z"
         fill="#7f3997"
         id="path4915" />
      <path
         d="m 0,943 14.2,-3.3 c 14.1,-3.4 42.5,-10 70.999996,-10 C 113.7,929.7 142.3,936.3 170.8,938 c 28.5,1.7 56.9,-1.7 85.2,1.8 28.3,3.5 56.7,13.9 85.2,13.9 28.5,0 57.1,-10.4 85.6,-8.7 28.5,1.7 56.9,15.3 85.2,20.5 28.3,5.2 56.7,1.8 85.2,0.2 28.5,-1.7 57.1,-1.7 85.6,-1.7 28.5,0 56.9,0 85.2,-1.8 28.3,-1.9 56.7,-5.5 85.2,-12.4 28.5,-6.8 57.1,-16.8 85.6,-13.3 28.5,3.5 56.9,20.5 71,29 l 14.2,8.5 v -64 l -14.2,-11.8 c -14.1,-11.9 -42.5,-35.5 -71,-33.7 -28.5,1.8 -57.1,29.2 -85.6,39.3 -28.5,10.2 -56.9,3.2 -85.2,-3.6 -28.3,-6.9 -56.7,-13.5 -85.2,-10 -28.5,3.5 -57.1,17.1 -85.6,15.3 -28.5,-1.8 -56.9,-19.2 -85.2,-29.5 -28.3,-10.3 -56.7,-13.7 -85.2,-3.3 -28.5,10.3 -57.1,34.3 -85.6,32.6 -28.5,-1.6 -56.9,-29 -85.2,-37.5 -28.3,-8.5 -56.7,1.9 -85.2,0.2 C 142.3,866.3 113.7,852.7 85.199996,857.7 56.7,862.7 28.3,886.3 14.2,898.2 L 0,910 Z"
         fill="#78368e"
         id="path4917" />
      <path
         d="m 0,994 14.2,-1.7 c 14.1,-1.6 42.5,-5 70.999996,-3.1 C 113.7,991 142.3,998 170.8,998 c 28.5,0 56.9,-7 85.2,-8.8 28.3,-1.9 56.7,1.5 85.2,-1.9 28.5,-3.3 57.1,-13.3 85.6,-11.5 28.5,1.9 56.9,15.5 85.2,22.4 28.3,6.8 56.7,6.8 85.2,6.8 28.5,0 57.1,0 85.6,0 28.5,0 56.9,0 85.2,-3.5 28.3,-3.5 56.7,-10.5 85.2,-12.3 28.5,-1.9 57.1,1.5 85.6,5 28.5,3.5 56.9,7.1 71,9 l 14.2,1.8 v -33 l -14.2,-8.5 c -14.1,-8.5 -42.5,-25.5 -71,-29 -28.5,-3.5 -57.1,6.5 -85.6,13.3 -28.5,6.9 -56.9,10.5 -85.2,12.4 -28.3,1.8 -56.7,1.8 -85.2,1.8 -28.5,0 -57.1,0 -85.6,1.7 -28.5,1.6 -56.9,5 -85.2,-0.2 -28.3,-5.2 -56.7,-18.8 -85.2,-20.5 -28.5,-1.7 -57.1,8.7 -85.6,8.7 -28.5,0 -56.9,-10.4 -85.2,-13.9 -28.3,-3.5 -56.7,-0.1 -85.2,-1.8 -28.5,-1.7 -57.1,-8.3 -85.600004,-8.3 C 56.7,927.7 28.3,934.3 14.2,937.7 L 0,941 Z"
         fill="#713386"
         id="path4919" />
      <path
         d="m 0,1025 h 14.2 c 14.1,0 42.5,0 70.999996,0 28.500004,0 57.100004,0 85.600004,0 28.5,0 56.9,0 85.2,0 28.3,0 56.7,0 85.2,0 28.5,0 57.1,0 85.6,0 28.5,0 56.9,0 85.2,0 28.3,0 56.7,0 85.2,0 28.5,0 57.1,0 85.6,0 28.5,0 56.9,0 85.2,0 28.3,0 56.7,0 85.2,0 28.5,0 57.1,0 85.6,0 28.5,0 56.9,0 71,0 h 14.2 v -22 l -14.2,-1.8 c -14.1,-1.9 -42.5,-5.5 -71,-9 -28.5,-3.5 -57.1,-6.9 -85.6,-5 -28.5,1.8 -56.9,8.8 -85.2,12.3 -28.3,3.5 -56.7,3.5 -85.2,3.5 -28.5,0 -57.1,0 -85.6,0 -28.5,0 -56.9,0 -85.2,-6.8 -28.3,-6.9 -56.7,-20.5 -85.2,-22.4 -28.5,-1.8 -57.1,8.2 -85.6,11.5 -28.5,3.4 -56.9,0 -85.2,1.9 -28.3,1.8 -56.7,8.8 -85.2,8.8 -28.5,0 -57.1,-7 -85.600004,-8.8 C 56.7,985.3 28.3,988.7 14.2,990.3 L 0,992 Z"
         fill="#6a307e"
         id="path4921" />
    </g>
    <g
       id="g8009"
       inkscape:label="mountains 2">
      <path
         d="m 0,718 14.2,-6.8 C 28.3,704.3 56.7,690.7 85.199996,694 113.7,697.3 142.3,717.7 170.8,714.2 c 28.5,-3.5 56.9,-30.9 85.2,-34.2 28.3,-3.3 56.7,17.3 85.2,20.8 28.5,3.5 57.1,-10.1 85.6,-18.6 28.5,-8.5 56.9,-11.9 85.2,12 28.3,23.8 56.7,74.8 85.2,90.1 28.5,15.4 57.1,-5 85.6,-22 28.5,-17 56.9,-30.6 85.2,-32.3 28.3,-1.7 56.7,8.7 85.2,-5 28.5,-13.7 57.1,-51.3 85.6,-66.8 28.5,-15.5 56.9,-8.9 71,-5.5 l 14.2,3.3 v -94 l -14.2,-5.2 c -14.1,-5.1 -42.5,-15.5 -71,-12 -28.5,3.5 -57.1,20.9 -85.6,39.7 -28.5,18.8 -56.9,39.2 -85.2,51 -28.3,11.8 -56.7,15.2 -85.2,30.5 -28.5,15.3 -57.1,42.7 -85.6,30.8 C 568.7,685 540.3,634 512,603.3 c -28.3,-30.6 -56.7,-41 -85.2,-41 -28.5,0 -57.1,10.4 -85.6,13.7 -28.5,3.3 -56.9,-0.3 -85.2,-0.3 -28.3,0 -56.7,3.6 -85.2,-9.9 C 142.3,552.3 113.7,521.7 85.199996,525 56.7,528.3 28.3,565.7 14.2,584.3 L 0,603 Z"
         fill="#9446ae"
         id="path7995" />
      <path
         d="M 0,820 14.2,806.3 C 28.3,792.7 56.7,765.3 85.199996,758.5 113.7,751.7 142.3,765.3 170.8,760.3 c 28.5,-5 56.9,-28.6 85.2,-25.1 28.3,3.5 56.7,34.1 85.2,46 28.5,11.8 57.1,4.8 85.6,-3.7 28.5,-8.5 56.9,-18.5 85.2,-3.2 28.3,15.4 56.7,56 85.2,67.9 28.5,11.8 57.1,-5.2 85.6,-12 28.5,-6.9 56.9,-3.5 85.2,-3.5 28.3,0 56.7,-3.4 85.2,-20.4 28.5,-17 57.1,-47.6 85.6,-54.5 28.5,-6.8 56.9,10.2 71,18.7 L 1024,779 V 654 l -14.2,-3.3 c -14.1,-3.4 -42.5,-10 -71,5.5 -28.5,15.5 -57.1,53.1 -85.6,66.8 -28.5,13.7 -56.9,3.3 -85.2,5 -28.3,1.7 -56.7,15.3 -85.2,32.3 -28.5,17 -57.1,37.4 -85.6,22 C 568.7,767 540.3,716 512,692.2 c -28.3,-23.9 -56.7,-20.5 -85.2,-12 -28.5,8.5 -57.1,22.1 -85.6,18.6 -28.5,-3.5 -56.9,-24.1 -85.2,-20.8 -28.3,3.3 -56.7,30.7 -85.2,34.2 C 142.3,715.7 113.7,695.3 85.199996,692 56.7,688.7 28.3,702.3 14.2,709.2 L 0,716 Z"
         fill="#8d3fa8"
         id="path7997" />
      <path
         d="M 0,851 14.2,837.3 C 28.3,823.7 56.7,796.3 85.199996,794.7 113.7,793 142.3,817 170.8,817 c 28.5,0 56.9,-24 85.2,-24 28.3,0 56.7,24 85.2,29.2 28.5,5.1 57.1,-8.5 85.6,-17.2 28.5,-8.7 56.9,-12.3 85.2,3 28.3,15.3 56.7,49.7 85.2,60 28.5,10.3 57.1,-3.3 85.6,-6.8 28.5,-3.5 56.9,3.1 85.2,1.5 28.3,-1.7 56.7,-11.7 85.2,-25.4 28.5,-13.6 57.1,-31 85.6,-31 28.5,0 56.9,17.4 71,26 l 14.2,8.7 v -64 l -14.2,-8.5 c -14.1,-8.5 -42.5,-25.5 -71,-18.7 -28.5,6.9 -57.1,37.5 -85.6,54.5 -28.5,17 -56.9,20.4 -85.2,20.4 -28.3,0 -56.7,-3.4 -85.2,3.5 -28.5,6.8 -57.1,23.8 -85.6,12 -28.5,-11.9 -56.9,-52.5 -85.2,-67.9 -28.3,-15.3 -56.7,-5.3 -85.2,3.2 -28.5,8.5 -57.1,15.5 -85.6,3.7 -28.5,-11.9 -56.9,-42.5 -85.2,-46 -28.3,-3.5 -56.7,20.1 -85.2,25.1 -28.5,5 -57.1,-8.6 -85.600004,-1.8 C 56.7,763.3 28.3,790.7 14.2,804.3 L 0,818 Z"
         fill="#863c9f"
         id="path7999" />
      <path
         d="M 0,912 14.2,900.2 C 28.3,888.3 56.7,864.7 85.199996,859.7 113.7,854.7 142.3,868.3 170.8,870 c 28.5,1.7 56.9,-8.7 85.2,-0.2 28.3,8.5 56.7,35.9 85.2,37.5 28.5,1.7 57.1,-22.3 85.6,-32.6 28.5,-10.4 56.9,-7 85.2,3.3 28.3,10.3 56.7,27.7 85.2,29.5 28.5,1.8 57.1,-11.8 85.6,-15.3 28.5,-3.5 56.9,3.1 85.2,10 28.3,6.8 56.7,13.8 85.2,3.6 28.5,-10.1 57.1,-37.5 85.6,-39.3 28.5,-1.8 56.9,21.8 71,33.7 L 1024,912 v -73 l -14.2,-8.7 c -14.1,-8.6 -42.5,-26 -71,-26 -28.5,0 -57.1,17.4 -85.6,31 -28.5,13.7 -56.9,23.7 -85.2,25.4 -28.3,1.6 -56.7,-5 -85.2,-1.5 -28.5,3.5 -57.1,17.1 -85.6,6.8 -28.5,-10.3 -56.9,-44.7 -85.2,-60 -28.3,-15.3 -56.7,-11.7 -85.2,-3 -28.5,8.7 -57.1,22.3 -85.6,17.2 C 312.7,815 284.3,791 256,791 c -28.3,0 -56.7,24 -85.2,24 -28.5,0 -57.1,-24 -85.600004,-22.3 C 56.7,794.3 28.3,821.7 14.2,835.3 L 0,849 Z"
         fill="#7f3997"
         id="path8001" />
      <path
         d="m 0,943 14.2,-3.3 c 14.1,-3.4 42.5,-10 70.999996,-10 C 113.7,929.7 142.3,936.3 170.8,938 c 28.5,1.7 56.9,-1.7 85.2,1.8 28.3,3.5 56.7,13.9 85.2,13.9 28.5,0 57.1,-10.4 85.6,-8.7 28.5,1.7 56.9,15.3 85.2,20.5 28.3,5.2 56.7,1.8 85.2,0.2 28.5,-1.7 57.1,-1.7 85.6,-1.7 28.5,0 56.9,0 85.2,-1.8 28.3,-1.9 56.7,-5.5 85.2,-12.4 28.5,-6.8 57.1,-16.8 85.6,-13.3 28.5,3.5 56.9,20.5 71,29 l 14.2,8.5 v -64 l -14.2,-11.8 c -14.1,-11.9 -42.5,-35.5 -71,-33.7 -28.5,1.8 -57.1,29.2 -85.6,39.3 -28.5,10.2 -56.9,3.2 -85.2,-3.6 -28.3,-6.9 -56.7,-13.5 -85.2,-10 -28.5,3.5 -57.1,17.1 -85.6,15.3 -28.5,-1.8 -56.9,-19.2 -85.2,-29.5 -28.3,-10.3 -56.7,-13.7 -85.2,-3.3 -28.5,10.3 -57.1,34.3 -85.6,32.6 -28.5,-1.6 -56.9,-29 -85.2,-37.5 -28.3,-8.5 -56.7,1.9 -85.2,0.2 C 142.3,866.3 113.7,852.7 85.199996,857.7 56.7,862.7 28.3,886.3 14.2,898.2 L 0,910 Z"
         fill="#78368e"
         id="path8003" />
      <path
         d="m 0,994 14.2,-1.7 c 14.1,-1.6 42.5,-5 70.999996,-3.1 C 113.7,991 142.3,998 170.8,998 c 28.5,0 56.9,-7 85.2,-8.8 28.3,-1.9 56.7,1.5 85.2,-1.9 28.5,-3.3 57.1,-13.3 85.6,-11.5 28.5,1.9 56.9,15.5 85.2,22.4 28.3,6.8 56.7,6.8 85.2,6.8 28.5,0 57.1,0 85.6,0 28.5,0 56.9,0 85.2,-3.5 28.3,-3.5 56.7,-10.5 85.2,-12.3 28.5,-1.9 57.1,1.5 85.6,5 28.5,3.5 56.9,7.1 71,9 l 14.2,1.8 v -33 l -14.2,-8.5 c -14.1,-8.5 -42.5,-25.5 -71,-29 -28.5,-3.5 -57.1,6.5 -85.6,13.3 -28.5,6.9 -56.9,10.5 -85.2,12.4 -28.3,1.8 -56.7,1.8 -85.2,1.8 -28.5,0 -57.1,0 -85.6,1.7 -28.5,1.6 -56.9,5 -85.2,-0.2 -28.3,-5.2 -56.7,-18.8 -85.2,-20.5 -28.5,-1.7 -57.1,8.7 -85.6,8.7 -28.5,0 -56.9,-10.4 -85.2,-13.9 -28.3,-3.5 -56.7,-0.1 -85.2,-1.8 -28.5,-1.7 -57.1,-8.3 -85.600004,-8.3 C 56.7,927.7 28.3,934.3 14.2,937.7 L 0,941 Z"
         fill="#713386"
         id="path8005" />
      <path
         d="m 0,1025 h 14.2 c 14.1,0 42.5,0 70.999996,0 28.500004,0 57.100004,0 85.600004,0 28.5,0 56.9,0 85.2,0 28.3,0 56.7,0 85.2,0 28.5,0 57.1,0 85.6,0 28.5,0 56.9,0 85.2,0 28.3,0 56.7,0 85.2,0 28.5,0 57.1,0 85.6,0 28.5,0 56.9,0 85.2,0 28.3,0 56.7,0 85.2,0 28.5,0 57.1,0 85.6,0 28.5,0 56.9,0 71,0 h 14.2 v -22 l -14.2,-1.8 c -14.1,-1.9 -42.5,-5.5 -71,-9 -28.5,-3.5 -57.1,-6.9 -85.6,-5 -28.5,1.8 -56.9,8.8 -85.2,12.3 -28.3,3.5 -56.7,3.5 -85.2,3.5 -28.5,0 -57.1,0 -85.6,0 -28.5,0 -56.9,0 -85.2,-6.8 -28.3,-6.9 -56.7,-20.5 -85.2,-22.4 -28.5,-1.8 -57.1,8.2 -85.6,11.5 -28.5,3.4 -56.9,0 -85.2,1.9 -28.3,1.8 -56.7,8.8 -85.2,8.8 -28.5,0 -57.1,-7 -85.600004,-8.8 C 56.7,985.3 28.3,988.7 14.2,990.3 L 0,992 Z"
         fill="#6a307e"
         id="path8007" />
    </g>
    <g
       id="g8025"
       inkscape:label="mountains 1">
      <path
         d="m 0,718 14.2,-6.8 C 28.3,704.3 56.7,690.7 85.199996,694 113.7,697.3 142.3,717.7 170.8,714.2 c 28.5,-3.5 56.9,-30.9 85.2,-34.2 28.3,-3.3 56.7,17.3 85.2,20.8 28.5,3.5 57.1,-10.1 85.6,-18.6 28.5,-8.5 56.9,-11.9 85.2,12 28.3,23.8 56.7,74.8 85.2,90.1 28.5,15.4 57.1,-5 85.6,-22 28.5,-17 56.9,-30.6 85.2,-32.3 28.3,-1.7 56.7,8.7 85.2,-5 28.5,-13.7 57.1,-51.3 85.6,-66.8 28.5,-15.5 56.9,-8.9 71,-5.5 l 14.2,3.3 v -94 l -14.2,-5.2 c -14.1,-5.1 -42.5,-15.5 -71,-12 -28.5,3.5 -57.1,20.9 -85.6,39.7 -28.5,18.8 -56.9,39.2 -85.2,51 -28.3,11.8 -56.7,15.2 -85.2,30.5 -28.5,15.3 -57.1,42.7 -85.6,30.8 C 568.7,685 540.3,634 512,603.3 c -28.3,-30.6 -56.7,-41 -85.2,-41 -28.5,0 -57.1,10.4 -85.6,13.7 -28.5,3.3 -56.9,-0.3 -85.2,-0.3 -28.3,0 -56.7,3.6 -85.2,-9.9 C 142.3,552.3 113.7,521.7 85.199996,525 56.7,528.3 28.3,565.7 14.2,584.3 L 0,603 Z"
         fill="#9446ae"
         id="path8011" />
      <path
         d="M 0,820 14.2,806.3 C 28.3,792.7 56.7,765.3 85.199996,758.5 113.7,751.7 142.3,765.3 170.8,760.3 c 28.5,-5 56.9,-28.6 85.2,-25.1 28.3,3.5 56.7,34.1 85.2,46 28.5,11.8 57.1,4.8 85.6,-3.7 28.5,-8.5 56.9,-18.5 85.2,-3.2 28.3,15.4 56.7,56 85.2,67.9 28.5,11.8 57.1,-5.2 85.6,-12 28.5,-6.9 56.9,-3.5 85.2,-3.5 28.3,0 56.7,-3.4 85.2,-20.4 28.5,-17 57.1,-47.6 85.6,-54.5 28.5,-6.8 56.9,10.2 71,18.7 L 1024,779 V 654 l -14.2,-3.3 c -14.1,-3.4 -42.5,-10 -71,5.5 -28.5,15.5 -57.1,53.1 -85.6,66.8 -28.5,13.7 -56.9,3.3 -85.2,5 -28.3,1.7 -56.7,15.3 -85.2,32.3 -28.5,17 -57.1,37.4 -85.6,22 C 568.7,767 540.3,716 512,692.2 c -28.3,-23.9 -56.7,-20.5 -85.2,-12 -28.5,8.5 -57.1,22.1 -85.6,18.6 -28.5,-3.5 -56.9,-24.1 -85.2,-20.8 -28.3,3.3 -56.7,30.7 -85.2,34.2 C 142.3,715.7 113.7,695.3 85.199996,692 56.7,688.7 28.3,702.3 14.2,709.2 L 0,716 Z"
         fill="#8d3fa8"
         id="path8013" />
      <path
         d="M 0,851 14.2,837.3 C 28.3,823.7 56.7,796.3 85.199996,794.7 113.7,793 142.3,817 170.8,817 c 28.5,0 56.9,-24 85.2,-24 28.3,0 56.7,24 85.2,29.2 28.5,5.1 57.1,-8.5 85.6,-17.2 28.5,-8.7 56.9,-12.3 85.2,3 28.3,15.3 56.7,49.7 85.2,60 28.5,10.3 57.1,-3.3 85.6,-6.8 28.5,-3.5 56.9,3.1 85.2,1.5 28.3,-1.7 56.7,-11.7 85.2,-25.4 28.5,-13.6 57.1,-31 85.6,-31 28.5,0 56.9,17.4 71,26 l 14.2,8.7 v -64 l -14.2,-8.5 c -14.1,-8.5 -42.5,-25.5 -71,-18.7 -28.5,6.9 -57.1,37.5 -85.6,54.5 -28.5,17 -56.9,20.4 -85.2,20.4 -28.3,0 -56.7,-3.4 -85.2,3.5 -28.5,6.8 -57.1,23.8 -85.6,12 -28.5,-11.9 -56.9,-52.5 -85.2,-67.9 -28.3,-15.3 -56.7,-5.3 -85.2,3.2 -28.5,8.5 -57.1,15.5 -85.6,3.7 -28.5,-11.9 -56.9,-42.5 -85.2,-46 -28.3,-3.5 -56.7,20.1 -85.2,25.1 -28.5,5 -57.1,-8.6 -85.600004,-1.8 C 56.7,763.3 28.3,790.7 14.2,804.3 L 0,818 Z"
         fill="#863c9f"
         id="path8015" />
      <path
         d="M 0,912 14.2,900.2 C 28.3,888.3 56.7,864.7 85.199996,859.7 113.7,854.7 142.3,868.3 170.8,870 c 28.5,1.7 56.9,-8.7 85.2,-0.2 28.3,8.5 56.7,35.9 85.2,37.5 28.5,1.7 57.1,-22.3 85.6,-32.6 28.5,-10.4 56.9,-7 85.2,3.3 28.3,10.3 56.7,27.7 85.2,29.5 28.5,1.8 57.1,-11.8 85.6,-15.3 28.5,-3.5 56.9,3.1 85.2,10 28.3,6.8 56.7,13.8 85.2,3.6 28.5,-10.1 57.1,-37.5 85.6,-39.3 28.5,-1.8 56.9,21.8 71,33.7 L 1024,912 v -73 l -14.2,-8.7 c -14.1,-8.6 -42.5,-26 -71,-26 -28.5,0 -57.1,17.4 -85.6,31 -28.5,13.7 -56.9,23.7 -85.2,25.4 -28.3,1.6 -56.7,-5 -85.2,-1.5 -28.5,3.5 -57.1,17.1 -85.6,6.8 -28.5,-10.3 -56.9,-44.7 -85.2,-60 -28.3,-15.3 -56.7,-11.7 -85.2,-3 -28.5,8.7 -57.1,22.3 -85.6,17.2 C 312.7,815 284.3,791 256,791 c -28.3,0 -56.7,24 -85.2,24 -28.5,0 -57.1,-24 -85.600004,-22.3 C 56.7,794.3 28.3,821.7 14.2,835.3 L 0,849 Z"
         fill="#7f3997"
         id="path8017" />
      <path
         d="m 0,943 14.2,-3.3 c 14.1,-3.4 42.5,-10 70.999996,-10 C 113.7,929.7 142.3,936.3 170.8,938 c 28.5,1.7 56.9,-1.7 85.2,1.8 28.3,3.5 56.7,13.9 85.2,13.9 28.5,0 57.1,-10.4 85.6,-8.7 28.5,1.7 56.9,15.3 85.2,20.5 28.3,5.2 56.7,1.8 85.2,0.2 28.5,-1.7 57.1,-1.7 85.6,-1.7 28.5,0 56.9,0 85.2,-1.8 28.3,-1.9 56.7,-5.5 85.2,-12.4 28.5,-6.8 57.1,-16.8 85.6,-13.3 28.5,3.5 56.9,20.5 71,29 l 14.2,8.5 v -64 l -14.2,-11.8 c -14.1,-11.9 -42.5,-35.5 -71,-33.7 -28.5,1.8 -57.1,29.2 -85.6,39.3 -28.5,10.2 -56.9,3.2 -85.2,-3.6 -28.3,-6.9 -56.7,-13.5 -85.2,-10 -28.5,3.5 -57.1,17.1 -85.6,15.3 -28.5,-1.8 -56.9,-19.2 -85.2,-29.5 -28.3,-10.3 -56.7,-13.7 -85.2,-3.3 -28.5,10.3 -57.1,34.3 -85.6,32.6 -28.5,-1.6 -56.9,-29 -85.2,-37.5 -28.3,-8.5 -56.7,1.9 -85.2,0.2 C 142.3,866.3 113.7,852.7 85.199996,857.7 56.7,862.7 28.3,886.3 14.2,898.2 L 0,910 Z"
         fill="#78368e"
         id="path8019" />
      <path
         d="m 0,994 14.2,-1.7 c 14.1,-1.6 42.5,-5 70.999996,-3.1 C 113.7,991 142.3,998 170.8,998 c 28.5,0 56.9,-7 85.2,-8.8 28.3,-1.9 56.7,1.5 85.2,-1.9 28.5,-3.3 57.1,-13.3 85.6,-11.5 28.5,1.9 56.9,15.5 85.2,22.4 28.3,6.8 56.7,6.8 85.2,6.8 28.5,0 57.1,0 85.6,0 28.5,0 56.9,0 85.2,-3.5 28.3,-3.5 56.7,-10.5 85.2,-12.3 28.5,-1.9 57.1,1.5 85.6,5 28.5,3.5 56.9,7.1 71,9 l 14.2,1.8 v -33 l -14.2,-8.5 c -14.1,-8.5 -42.5,-25.5 -71,-29 -28.5,-3.5 -57.1,6.5 -85.6,13.3 -28.5,6.9 -56.9,10.5 -85.2,12.4 -28.3,1.8 -56.7,1.8 -85.2,1.8 -28.5,0 -57.1,0 -85.6,1.7 -28.5,1.6 -56.9,5 -85.2,-0.2 -28.3,-5.2 -56.7,-18.8 -85.2,-20.5 -28.5,-1.7 -57.1,8.7 -85.6,8.7 -28.5,0 -56.9,-10.4 -85.2,-13.9 -28.3,-3.5 -56.7,-0.1 -85.2,-1.8 -28.5,-1.7 -57.1,-8.3 -85.600004,-8.3 C 56.7,927.7 28.3,934.3 14.2,937.7 L 0,941 Z"
         fill="#713386"
         id="path8021" />
      <path
         d="m 0,1025 h 14.2 c 14.1,0 42.5,0 70.999996,0 28.500004,0 57.100004,0 85.600004,0 28.5,0 56.9,0 85.2,0 28.3,0 56.7,0 85.2,0 28.5,0 57.1,0 85.6,0 28.5,0 56.9,0 85.2,0 28.3,0 56.7,0 85.2,0 28.5,0 57.1,0 85.6,0 28.5,0 56.9,0 85.2,0 28.3,0 56.7,0 85.2,0 28.5,0 57.1,0 85.6,0 28.5,0 56.9,0 71,0 h 14.2 v -22 l -14.2,-1.8 c -14.1,-1.9 -42.5,-5.5 -71,-9 -28.5,-3.5 -57.1,-6.9 -85.6,-5 -28.5,1.8 -56.9,8.8 -85.2,12.3 -28.3,3.5 -56.7,3.5 -85.2,3.5 -28.5,0 -57.1,0 -85.6,0 -28.5,0 -56.9,0 -85.2,-6.8 -28.3,-6.9 -56.7,-20.5 -85.2,-22.4 -28.5,-1.8 -57.1,8.2 -85.6,11.5 -28.5,3.4 -56.9,0 -85.2,1.9 -28.3,1.8 -56.7,8.8 -85.2,8.8 -28.5,0 -57.1,-7 -85.600004,-8.8 C 56.7,985.3 28.3,988.7 14.2,990.3 L 0,992 Z"
         fill="#6a307e"
         id="path8023" />
    </g>
    <g
       id="g8041"
       inkscape:label="mountains">
      <path
         d="m 0,718 14.2,-6.8 C 28.3,704.3 56.7,690.7 85.199996,694 113.7,697.3 142.3,717.7 170.8,714.2 c 28.5,-3.5 56.9,-30.9 85.2,-34.2 28.3,-3.3 56.7,17.3 85.2,20.8 28.5,3.5 57.1,-10.1 85.6,-18.6 28.5,-8.5 56.9,-11.9 85.2,12 28.3,23.8 56.7,74.8 85.2,90.1 28.5,15.4 57.1,-5 85.6,-22 28.5,-17 56.9,-30.6 85.2,-32.3 28.3,-1.7 56.7,8.7 85.2,-5 28.5,-13.7 57.1,-51.3 85.6,-66.8 28.5,-15.5 56.9,-8.9 71,-5.5 l 14.2,3.3 v -94 l -14.2,-5.2 c -14.1,-5.1 -42.5,-15.5 -71,-12 -28.5,3.5 -57.1,20.9 -85.6,39.7 -28.5,18.8 -56.9,39.2 -85.2,51 -28.3,11.8 -56.7,15.2 -85.2,30.5 -28.5,15.3 -57.1,42.7 -85.6,30.8 C 568.7,685 540.3,634 512,603.3 c -28.3,-30.6 -56.7,-41 -85.2,-41 -28.5,0 -57.1,10.4 -85.6,13.7 -28.5,3.3 -56.9,-0.3 -85.2,-0.3 -28.3,0 -56.7,3.6 -85.2,-9.9 C 142.3,552.3 113.7,521.7 85.199996,525 56.7,528.3 28.3,565.7 14.2,584.3 L 0,603 Z"
         fill="#9446ae"
         id="path8027" />
      <path
         d="M 0,820 14.2,806.3 C 28.3,792.7 56.7,765.3 85.199996,758.5 113.7,751.7 142.3,765.3 170.8,760.3 c 28.5,-5 56.9,-28.6 85.2,-25.1 28.3,3.5 56.7,34.1 85.2,46 28.5,11.8 57.1,4.8 85.6,-3.7 28.5,-8.5 56.9,-18.5 85.2,-3.2 28.3,15.4 56.7,56 85.2,67.9 28.5,11.8 57.1,-5.2 85.6,-12 28.5,-6.9 56.9,-3.5 85.2,-3.5 28.3,0 56.7,-3.4 85.2,-20.4 28.5,-17 57.1,-47.6 85.6,-54.5 28.5,-6.8 56.9,10.2 71,18.7 L 1024,779 V 654 l -14.2,-3.3 c -14.1,-3.4 -42.5,-10 -71,5.5 -28.5,15.5 -57.1,53.1 -85.6,66.8 -28.5,13.7 -56.9,3.3 -85.2,5 -28.3,1.7 -56.7,15.3 -85.2,32.3 -28.5,17 -57.1,37.4 -85.6,22 C 568.7,767 540.3,716 512,692.2 c -28.3,-23.9 -56.7,-20.5 -85.2,-12 -28.5,8.5 -57.1,22.1 -85.6,18.6 -28.5,-3.5 -56.9,-24.1 -85.2,-20.8 -28.3,3.3 -56.7,30.7 -85.2,34.2 C 142.3,715.7 113.7,695.3 85.199996,692 56.7,688.7 28.3,702.3 14.2,709.2 L 0,716 Z"
         fill="#8d3fa8"
         id="path8029" />
      <path
         d="M 0,851 14.2,837.3 C 28.3,823.7 56.7,796.3 85.199996,794.7 113.7,793 142.3,817 170.8,817 c 28.5,0 56.9,-24 85.2,-24 28.3,0 56.7,24 85.2,29.2 28.5,5.1 57.1,-8.5 85.6,-17.2 28.5,-8.7 56.9,-12.3 85.2,3 28.3,15.3 56.7,49.7 85.2,60 28.5,10.3 57.1,-3.3 85.6,-6.8 28.5,-3.5 56.9,3.1 85.2,1.5 28.3,-1.7 56.7,-11.7 85.2,-25.4 28.5,-13.6 57.1,-31 85.6,-31 28.5,0 56.9,17.4 71,26 l 14.2,8.7 v -64 l -14.2,-8.5 c -14.1,-8.5 -42.5,-25.5 -71,-18.7 -28.5,6.9 -57.1,37.5 -85.6,54.5 -28.5,17 -56.9,20.4 -85.2,20.4 -28.3,0 -56.7,-3.4 -85.2,3.5 -28.5,6.8 -57.1,23.8 -85.6,12 -28.5,-11.9 -56.9,-52.5 -85.2,-67.9 -28.3,-15.3 -56.7,-5.3 -85.2,3.2 -28.5,8.5 -57.1,15.5 -85.6,3.7 -28.5,-11.9 -56.9,-42.5 -85.2,-46 -28.3,-3.5 -56.7,20.1 -85.2,25.1 -28.5,5 -57.1,-8.6 -85.600004,-1.8 C 56.7,763.3 28.3,790.7 14.2,804.3 L 0,818 Z"
         fill="#863c9f"
         id="path8031" />
      <path
         d="M 0,912 14.2,900.2 C 28.3,888.3 56.7,864.7 85.199996,859.7 113.7,854.7 142.3,868.3 170.8,870 c 28.5,1.7 56.9,-8.7 85.2,-0.2 28.3,8.5 56.7,35.9 85.2,37.5 28.5,1.7 57.1,-22.3 85.6,-32.6 28.5,-10.4 56.9,-7 85.2,3.3 28.3,10.3 56.7,27.7 85.2,29.5 28.5,1.8 57.1,-11.8 85.6,-15.3 28.5,-3.5 56.9,3.1 85.2,10 28.3,6.8 56.7,13.8 85.2,3.6 28.5,-10.1 57.1,-37.5 85.6,-39.3 28.5,-1.8 56.9,21.8 71,33.7 L 1024,912 v -73 l -14.2,-8.7 c -14.1,-8.6 -42.5,-26 -71,-26 -28.5,0 -57.1,17.4 -85.6,31 -28.5,13.7 -56.9,23.7 -85.2,25.4 -28.3,1.6 -56.7,-5 -85.2,-1.5 -28.5,3.5 -57.1,17.1 -85.6,6.8 -28.5,-10.3 -56.9,-44.7 -85.2,-60 -28.3,-15.3 -56.7,-11.7 -85.2,-3 -28.5,8.7 -57.1,22.3 -85.6,17.2 C 312.7,815 284.3,791 256,791 c -28.3,0 -56.7,24 -85.2,24 -28.5,0 -57.1,-24 -85.600004,-22.3 C 56.7,794.3 28.3,821.7 14.2,835.3 L 0,849 Z"
         fill="#7f3997"
         id="path8033" />
      <path
         d="m 0,943 14.2,-3.3 c 14.1,-3.4 42.5,-10 70.999996,-10 C 113.7,929.7 142.3,936.3 170.8,938 c 28.5,1.7 56.9,-1.7 85.2,1.8 28.3,3.5 56.7,13.9 85.2,13.9 28.5,0 57.1,-10.4 85.6,-8.7 28.5,1.7 56.9,15.3 85.2,20.5 28.3,5.2 56.7,1.8 85.2,0.2 28.5,-1.7 57.1,-1.7 85.6,-1.7 28.5,0 56.9,0 85.2,-1.8 28.3,-1.9 56.7,-5.5 85.2,-12.4 28.5,-6.8 57.1,-16.8 85.6,-13.3 28.5,3.5 56.9,20.5 71,29 l 14.2,8.5 v -64 l -14.2,-11.8 c -14.1,-11.9 -42.5,-35.5 -71,-33.7 -28.5,1.8 -57.1,29.2 -85.6,39.3 -28.5,10.2 -56.9,3.2 -85.2,-3.6 -28.3,-6.9 -56.7,-13.5 -85.2,-10 -28.5,3.5 -57.1,17.1 -85.6,15.3 -28.5,-1.8 -56.9,-19.2 -85.2,-29.5 -28.3,-10.3 -56.7,-13.7 -85.2,-3.3 -28.5,10.3 -57.1,34.3 -85.6,32.6 -28.5,-1.6 -56.9,-29 -85.2,-37.5 -28.3,-8.5 -56.7,1.9 -85.2,0.2 C 142.3,866.3 113.7,852.7 85.199996,857.7 56.7,862.7 28.3,886.3 14.2,898.2 L 0,910 Z"
         fill="#78368e"
         id="path8035" />
      <path
         d="m 0,994 14.2,-1.7 c 14.1,-1.6 42.5,-5 70.999996,-3.1 C 113.7,991 142.3,998 170.8,998 c 28.5,0 56.9,-7 85.2,-8.8 28.3,-1.9 56.7,1.5 85.2,-1.9 28.5,-3.3 57.1,-13.3 85.6,-11.5 28.5,1.9 56.9,15.5 85.2,22.4 28.3,6.8 56.7,6.8 85.2,6.8 28.5,0 57.1,0 85.6,0 28.5,0 56.9,0 85.2,-3.5 28.3,-3.5 56.7,-10.5 85.2,-12.3 28.5,-1.9 57.1,1.5 85.6,5 28.5,3.5 56.9,7.1 71,9 l 14.2,1.8 v -33 l -14.2,-8.5 c -14.1,-8.5 -42.5,-25.5 -71,-29 -28.5,-3.5 -57.1,6.5 -85.6,13.3 -28.5,6.9 -56.9,10.5 -85.2,12.4 -28.3,1.8 -56.7,1.8 -85.2,1.8 -28.5,0 -57.1,0 -85.6,1.7 -28.5,1.6 -56.9,5 -85.2,-0.2 -28.3,-5.2 -56.7,-18.8 -85.2,-20.5 -28.5,-1.7 -57.1,8.7 -85.6,8.7 -28.5,0 -56.9,-10.4 -85.2,-13.9 -28.3,-3.5 -56.7,-0.1 -85.2,-1.8 -28.5,-1.7 -57.1,-8.3 -85.600004,-8.3 C 56.7,927.7 28.3,934.3 14.2,937.7 L 0,941 Z"
         fill="#713386"
         id="path8037" />
      <path
         d="m 0,1025 h 14.2 c 14.1,0 42.5,0 70.999996,0 28.500004,0 57.100004,0 85.600004,0 28.5,0 56.9,0 85.2,0 28.3,0 56.7,0 85.2,0 28.5,0 57.1,0 85.6,0 28.5,0 56.9,0 85.2,0 28.3,0 56.7,0 85.2,0 28.5,0 57.1,0 85.6,0 28.5,0 56.9,0 85.2,0 28.3,0 56.7,0 85.2,0 28.5,0 57.1,0 85.6,0 28.5,0 56.9,0 71,0 h 14.2 v -22 l -14.2,-1.8 c -14.1,-1.9 -42.5,-5.5 -71,-9 -28.5,-3.5 -57.1,-6.9 -85.6,-5 -28.5,1.8 -56.9,8.8 -85.2,12.3 -28.3,3.5 -56.7,3.5 -85.2,3.5 -28.5,0 -57.1,0 -85.6,0 -28.5,0 -56.9,0 -85.2,-6.8 -28.3,-6.9 -56.7,-20.5 -85.2,-22.4 -28.5,-1.8 -57.1,8.2 -85.6,11.5 -28.5,3.4 -56.9,0 -85.2,1.9 -28.3,1.8 -56.7,8.8 -85.2,8.8 -28.5,0 -57.1,-7 -85.600004,-8.8 C 56.7,985.3 28.3,988.7 14.2,990.3 L 0,992 Z"
         fill="#6a307e"
         id="path8039" />
    </g>
    <g
       id="g7993"
       inkscape:label="clouds">
      <path
         id="path7540"
         style="opacity:0.6;fill:#f6f5f4;stroke-width:2;paint-order:stroke markers fill"
         d="M 484,60 A 64,64 0 0 0 426.67188,95.78906 48,48 0 0 0 408,92 a 48,48 0 0 0 -48,48 48,48 0 0 0 48,48 h 76 64 a 36,36 0 0 0 36,-36 36,36 0 0 0 -36,-36 36,36 0 0 0 -0.51758,0.0371 A 64,64 0 0 0 484,60 Z" />
      <path
         id="circle7610"
         style="opacity:0.6;fill:#f6f5f4;stroke-width:2.08334;paint-order:stroke markers fill"
         d="M 86,380 A 64,64 0 0 0 30.5117,412.41797 50,50 0 0 0 10,408 a 50,50 0 0 0 -50,50 50,50 0 0 0 50,50 h 76 88 A 32,32 0 0 0 206,476 32,32 0 0 0 174,444 32,32 0 0 0 148.5625,456.71875 64,64 0 0 0 150,444 64,64 0 0 0 86,380 Z"
         clip-path="url(#clipPath7711)" />
      <path
         id="circle7625"
         style="opacity:0.6;fill:#f6f5f4;stroke-width:2.41667;paint-order:stroke markers fill"
         d="m 878,300 a 58,58 0 0 0 -58,58 58,58 0 0 0 58,58 h 76 64 a 36,36 0 0 0 36,-36 36,36 0 0 0 -36,-36 36,36 0 0 0 -14.8027,3.19727 A 52,52 0 0 0 954,312 52,52 0 0 0 923.4922,322.04688 58,58 0 0 0 878,300 Z"
         clip-path="url(#clipPath7707)" />
    </g>
  </g>
</svg>
