<svg xmlns="http://www.w3.org/2000/svg" xmlns:xlink="http://www.w3.org/1999/xlink" xml:space="preserve" id="svg5" width="120" height="67.694" version="1.1" viewBox="0 0 31.75 17.911"><defs id="defs2"><linearGradient xlink:href="#linearGradient860" id="linearGradient22" x1="85" x2="85" y1="107.162" y2="86" gradientTransform="matrix(-.40705 0 0 .40705 50.475 -26.051)" gradientUnits="userSpaceOnUse"/><linearGradient id="linearGradient860"><stop id="stop856" offset="0" stop-color="#eef4fc" style="stop-color:#c5dcf7;stop-opacity:1"/><stop id="stop858" offset="1" stop-color="#fff"/></linearGradient></defs><path id="path10" fill="url(#linearGradient22)" d="M11.397 0a8.143 8.143 0 0 1 7.392 4.75 6.107 6.107 0 0 1 2.785-.68 6.107 6.107 0 0 1 6.085 5.7h.02a4.07 4.07 0 1 1 0 8.141H4.886a4.885 4.885 0 0 1-4.885-4.885 4.885 4.885 0 0 1 3.271-4.604 8.56 8.56 0 0 1-.014-.28 8.141 8.141 0 0 1 8.14-8.141Z"/><style id="style10622" type="text/css">.st0{fill:#fff}</style></svg>