<svg xmlns="http://www.w3.org/2000/svg" xmlns:xlink="http://www.w3.org/1999/xlink" xml:space="preserve" id="svg5" width="60" height="44.596" version="1.1" viewBox="0 0 15.875 11.799"><defs id="defs2"><linearGradient id="linearGradient860"><stop id="stop856" offset="0" stop-color="#eef4fc" style="stop-color:#c5dcf7;stop-opacity:1"/><stop id="stop858" offset="1" stop-color="#fff"/></linearGradient><linearGradient xlink:href="#linearGradient860" id="linearGradient24" x1="85" x2="85" y1="110.304" y2="86.986" gradientTransform="matrix(-.276 0 0 .276 61.16 -18.645)" gradientUnits="userSpaceOnUse"/></defs><path id="path12" fill="url(#linearGradient24)" d="M7.88 0a4.841 4.841 0 0 0-4.82 4.581A3.623 3.623 0 0 0 0 8.168a3.623 3.623 0 0 0 3.632 3.631h9.435a2.803 2.803 0 0 0 2.808-2.808 2.803 2.803 0 0 0-2.808-2.81h-.52a4.841 4.841 0 0 0 .189-1.34A4.841 4.841 0 0 0 7.895.001a4.841 4.841 0 0 0-.015 0z"/><style id="style10622" type="text/css">.st0{fill:#fff}</style></svg>