<?xml version="1.0" encoding="UTF-8"?>
<!-- Created with Inkscape (http://www.inkscape.org/) -->
<svg width="48" height="48" version="1.1" viewBox="0 0 12.7 12.7" xml:space="preserve" xmlns="http://www.w3.org/2000/svg"><rect width="12.7" height="12.7" fill-opacity="0" stroke-width="1.0583" style="paint-order:stroke fill markers"/><g><g stroke-width="54.998"><path d="m1.3487 1.4716c-0.42428 0.11369-0.67504 0.54788-0.56127 0.97214l0.13696 0.51114c0.11378 0.42426 0.54786 0.67495 0.97214 0.56127l2.5556-0.68478c0.42428-0.11369 0.67504-0.54788 0.56127-0.97214l-0.13696-0.51114c-0.11378-0.42426-0.54786-0.67495-0.97214-0.56127zm0.13696 0.51114 2.5556-0.68478c0.14176-0.037984 0.28603 0.045335 0.32404 0.18709l0.13696 0.51114c0.038014 0.14175-0.045327 0.28606-0.18709 0.32404l-2.5556 0.68478c-0.14176 0.037984-0.28603-0.045335-0.32404-0.18709l-0.13696-0.51114c-0.038015-0.14175 0.045327-0.28606 0.18709-0.32404z" paint-order="markers stroke fill"/><path d="m3.5675 3.6206 0.34239 1.2778c0.037938 0.14159-0.045498 0.28612-0.18708 0.32405s-0.28611-0.045511-0.32405-0.1871l-0.34239-1.2778c-0.037938-0.14159 0.045498-0.28611 0.18708-0.32405 0.14159-0.037938 0.28611 0.04551 0.32405 0.1871z" paint-order="markers stroke fill"/><path d="m3.2426 3.4281 1.789-0.47936c0.14159-0.037938 0.28611 0.045511 0.32405 0.1871 0.037935 0.14158-0.045501 0.28611-0.18709 0.32404l-1.789 0.47936c-0.14159 0.037938-0.28611-0.045511-0.32404-0.18709-0.037938-0.14159 0.045498-0.28612 0.18708-0.32405z" paint-order="markers stroke fill"/></g><g stroke-width=".26458"><path d="m8.7062 1.0953c-0.28352 0.075969-0.45015 0.36457-0.37418 0.6481l0.2057 0.7677c0.043334 0.16172-0.054577 0.28747-0.18735 0.32305l-0.25556 0.068478c-0.28352 0.075968-0.45015 0.36457-0.37418 0.6481l0.068478 0.25556 3.0668-0.82175-0.068478-0.25556c-0.075971-0.28353-0.36558-0.44988-0.6481-0.37418l-0.24958 0.066874c-0.13577 0.03638-0.28617-0.021776-0.33003-0.18548l-0.20544-0.7667c-0.075971-0.28353-0.36557-0.44988-0.6481-0.37418zm0.096299 0.35939c0.082857-0.022202 0.16994 0.027244 0.19241 0.11109 0.022466 0.083842-0.028224 0.17019-0.11109 0.1924-0.083862 0.022471-0.16994-0.027244-0.1924-0.11108-0.022465-0.083842 0.027225-0.16994 0.11109-0.19241z"/><path d="m7.8601 4.0655 3.0668-0.82175 0.13802 1.3337c0.0053 0.22329-0.11048 0.30245-0.25025 0.3399l-0.49915 0.13375-0.20544-0.7667-0.08208 0.84374-0.4722 0.12653-0.21239-0.76484-0.05911 0.83759-0.24658 0.066071-0.10272-0.38335-0.15289 0.45184-0.7667 0.20544-0.017777-0.28199z"/><path d="m3.1513 7.447c-0.28352 0.075968-0.45015 0.36457-0.37418 0.6481l0.2057 0.7677c0.043334 0.16172-0.054577 0.28747-0.18735 0.32305l-0.25556 0.068478c-0.28352 0.075968-0.45015 0.36457-0.37418 0.6481l0.068478 0.25556 3.0668-0.82175-0.068478-0.25556c-0.075968-0.28352-0.36557-0.44988-0.6481-0.37418l-0.24958 0.066874c-0.13577 0.03638-0.28616-0.021757-0.33003-0.18548l-0.20544-0.7667c-0.075968-0.28352-0.36557-0.44988-0.6481-0.37418zm0.096299 0.35939c0.082857-0.022201 0.16994 0.027225 0.19241 0.11109 0.022471 0.083862-0.02822 0.1702-0.11109 0.19241-0.083862 0.022471-0.16994-0.027225-0.19241-0.11109s0.027225-0.16994 0.11109-0.19241z"/><path d="m2.3032 10.414 3.0668-0.82175 0.13803 1.3337c0.00526 0.22329-0.11048 0.30245-0.25025 0.3399l-0.49915 0.13375-0.20544-0.7667-0.08208 0.84374-0.4722 0.12653-0.21239-0.76484-0.05911 0.83759-0.24658 0.06607-0.10272-0.38336-0.15284 0.45184-0.7667 0.20544-0.017779-0.28199z"/></g><g stroke-width="54.998"><path d="m7.6992 7.8235c-0.42428 0.11369-0.67504 0.54788-0.56127 0.97214l0.13696 0.51114c0.11378 0.42426 0.54786 0.67495 0.97214 0.56127l2.5556-0.68478c0.42428-0.11369 0.67504-0.54788 0.56127-0.97214l-0.13696-0.51114c-0.11378-0.42426-0.54786-0.67495-0.97214-0.56127zm0.13696 0.51114 2.5556-0.68478c0.14176-0.037984 0.28603 0.045335 0.32404 0.18709l0.13696 0.51114c0.03801 0.14175-0.04533 0.28606-0.18709 0.32404l-2.5556 0.68478c-0.14176 0.037984-0.28603-0.045335-0.32404-0.18709l-0.13696-0.51114c-0.038015-0.14175 0.045327-0.28606 0.18709-0.32404z" paint-order="markers stroke fill"/><path d="m9.917 9.9686 0.34239 1.2778c0.03794 0.14158-0.0455 0.2861-0.18709 0.32404-0.14159 0.03794-0.28611-0.0455-0.32404-0.18709l-0.34239-1.2778c-0.037938-0.14159 0.045501-0.2861 0.18709-0.32404 0.14159-0.037938 0.28611 0.045501 0.32404 0.18709z" paint-order="markers stroke fill"/><path d="m9.5934 9.781 1.789-0.47936c0.14158-0.037938 0.2861 0.045501 0.32404 0.18709 0.03794 0.14159-0.0455 0.28611-0.18709 0.32404l-1.789 0.47936c-0.14159 0.037938-0.28611-0.045501-0.32404-0.18709-0.037938-0.14158 0.045501-0.2861 0.18709-0.32404z" paint-order="markers stroke fill"/></g></g></svg>
