<?xml version="1.0" encoding="UTF-8"?>
<!-- Created with Inkscape (http://www.inkscape.org/) -->
<svg width="128" height="128" version="1.1" viewBox="0 0 33.867 33.867" xml:space="preserve" xmlns="http://www.w3.org/2000/svg" xmlns:xlink="http://www.w3.org/1999/xlink"><defs><pattern id="pattern2872" patternTransform="matrix(.12778 -.03424 .03424 .12778 128.06 64.558)" xlink:href="#pattern6725"/><pattern id="pattern6725" patternTransform="matrix(.12778 -.03424 .03424 .12778 16.933 64.558)" xlink:href="#pattern6705"/><pattern id="pattern6705" width="48.000003" height="48.000003" patternTransform="translate(-112 352)" patternUnits="userSpaceOnUse"><g transform="matrix(3.7795 0 0 3.7795 112 -352)"><rect x="-29.633" y="93.133" width="12.7" height="12.7" fill-opacity="0" style="paint-order:stroke fill markers"/><g transform="matrix(.26458 0 0 .26458 -28.84 100.54)"><path d="m7.9961 0c-1.1094 0-2 0.89062-2 2v3.0039c0 0.63281-0.48047 0.99609-1 0.99609h-1c-1.1094 0-2 0.89062-2 2v1h12v-1c0-1.1094-0.89453-2-2-2h-0.97656c-0.53125 0-1.0234-0.35938-1.0234-1v-3c0-1.1094-0.89453-2-2-2zm0 1.4062c0.32422 0 0.59375 0.26562 0.59375 0.59375s-0.26953 0.59375-0.59375 0.59375c-0.32812 0-0.59375-0.26562-0.59375-0.59375s0.26562-0.59375 0.59375-0.59375z"/><path d="m2 10h12l-0.80078 5.0039c-0.19922 0.82031-0.69922 0.99609-1.2461 0.99609h-1.9531v-3l-1.125 3h-1.8477l-0.027344-3-1.0352 3h-0.96484v-1.5l-1 1.5h-3l0.21094-1.0469z"/></g><g transform="matrix(.26458 0 0 .26458 -22.225 100.54)" stroke-width="207.87"><path d="m3 0c-1.6601 0-3.0004 1.3398-3 3v2c3.5e-4 1.6602 1.3399 3 3 3h10c1.6602 0 3.0004-1.3398 3-3v-2c-3.5e-4 -1.6602-1.3398-3-3-3zm0 2h10c0.55469 0 0.99988 0.44531 1 1v2c1.2e-4 0.55469-0.44531 1-1 1h-10c-0.55469 0-0.99988-0.44531-1-1v-2c-1.2e-4 -0.55469 0.44531-1 1-1z" paint-order="markers stroke fill"/><path d="m9.0002 10v5c0 0.554-0.446 1-1 1s-1-0.446-1-1v-5c0-0.554 0.446-1 1-1s1 0.446 1 1z" paint-order="markers stroke fill"/><path d="m8.0002 9.0002h7c0.554 0 1 0.446 1 1s-0.446 1-1 1h-7c-0.554 0-1-0.446-1-1s0.446-1 1-1z" paint-order="markers stroke fill"/></g><g transform="matrix(.26458 0 0 .26458 -28.575 94.192)" stroke-width="207.87"><path d="m3 0c-1.6601 0-3.0004 1.3398-3 3v2c3.5e-4 1.6602 1.3399 3 3 3h10c1.6602 0 3.0004-1.3398 3-3v-2c-3.5e-4 -1.6602-1.3398-3-3-3zm0 2h10c0.55469 0 0.99988 0.44531 1 1v2c1.2e-4 0.55469-0.44531 1-1 1h-10c-0.55469 0-0.99988-0.44531-1-1v-2c-1.2e-4 -0.55469 0.44531-1 1-1z" paint-order="markers stroke fill"/><path d="m9.0002 10v5c0 0.554-0.446 1-1 1s-1-0.446-1-1v-5c0-0.554 0.446-1 1-1s1 0.446 1 1z" paint-order="markers stroke fill"/><path d="m8.0002 9.0002h7c0.554 0 1 0.446 1 1s-0.446 1-1 1h-7c-0.554 0-1-0.446-1-1s0.446-1 1-1z" paint-order="markers stroke fill"/></g><g transform="matrix(.26458 0 0 .26458 -21.696 94.192)"><path d="m7.9961 0c-1.1094 0-2 0.89062-2 2v3.0039c0 0.63281-0.48047 0.99609-1 0.99609h-1c-1.1094 0-2 0.89062-2 2v1h12v-1c0-1.1094-0.89453-2-2-2h-0.97656c-0.53125 0-1.0234-0.35938-1.0234-1v-3c0-1.1094-0.89453-2-2-2zm0 1.4062c0.32422 0 0.59375 0.26562 0.59375 0.59375s-0.26953 0.59375-0.59375 0.59375c-0.32812 0-0.59375-0.26562-0.59375-0.59375s0.26562-0.59375 0.59375-0.59375z"/><path d="m2 10h12l-0.80078 5.0039c-0.19922 0.82031-0.69922 0.99609-1.2461 0.99609h-1.9531v-3l-1.125 3h-1.8477l-0.027344-3-1.0352 3h-0.96484v-1.5l-1 1.5h-3l0.21094-1.0469z"/></g></g></pattern></defs><g transform="translate(-111.13 -47.625)"><rect x="111.13" y="47.625" width="33.867" height="33.867" rx="0" ry="0" fill="url(#pattern2872)" opacity=".06" stroke-width=".26458" style="paint-order:stroke fill markers"/></g></svg>
