<?xml version="1.0" encoding="UTF-8"?>
<!-- Created with Inkscape (http://www.inkscape.org/) -->
<svg width="48" height="48" version="1.1" viewBox="0 0 12.7 12.7" xml:space="preserve" xmlns="http://www.w3.org/2000/svg"><path d="m2.909 7.407c-0.29352 0-0.52917 0.23564-0.52917 0.52917v0.79478c0 0.16743-0.12712 0.26355-0.26458 0.26355h-0.26458c-0.29352 0-0.52917 0.23564-0.52917 0.52917v0.26458h3.175v-0.26458c0-0.29353-0.23668-0.52917-0.52917-0.52917h-0.25838c-0.14056 0-0.27078-0.0951-0.27078-0.26458v-0.79375c0-0.29353-0.23668-0.52917-0.52917-0.52917zm0 0.37207c0.08578 0 0.1571 0.0703 0.1571 0.1571s-0.07131 0.15709-0.1571 0.15709c-0.08682 0-0.1571-0.0703-0.1571-0.15709 0-0.0868 0.07028-0.1571 0.1571-0.1571z" stroke-width=".26458"/><path d="m1.323 10.057h3.175l-0.21187 1.324c-0.05271 0.21704-0.185 0.26355-0.3297 0.26355h-0.51676v-0.79375l-0.29766 0.79375h-0.48886l-0.0072-0.79375-0.27388 0.79375h-0.25528v-0.39687l-0.26462 0.39687h-0.79375l0.05581-0.27698z" stroke-width=".26458"/><g stroke-width="54.998"><path d="m8.202 7.407c-0.43925 0-0.79384 0.3545-0.79375 0.79375v0.52917c9.3e-5 0.43925 0.3545 0.79375 0.79375 0.79375h2.6458c0.43925 0 0.79384-0.3545 0.79375-0.79375v-0.52917c-9.2e-5 -0.43925-0.3545-0.79375-0.79375-0.79375zm0 0.52917h2.6458c0.14676 0 0.26455 0.11782 0.26458 0.26458v0.52917c3.1e-5 0.14676-0.11782 0.26458-0.26458 0.26458h-2.6458c-0.14676 0-0.26455-0.11782-0.26458-0.26458v-0.52917c-3.2e-5 -0.14676 0.11782-0.26458 0.26458-0.26458z" paint-order="markers stroke fill"/><path d="m9.789 10.057v1.3229c0 0.14658-0.118 0.26459-0.26458 0.26459s-0.26458-0.11801-0.26458-0.26459v-1.3229c0-0.14658 0.118-0.26459 0.26458-0.26459s0.26458 0.11801 0.26458 0.26459z" paint-order="markers stroke fill"/><path d="m9.525 9.787h1.8521c0.14658 0 0.26458 0.11801 0.26458 0.26459 0 0.14657-0.118 0.26458-0.26458 0.26458h-1.8521c-0.14658 0-0.26458-0.11801-0.26458-0.26458 0-0.14658 0.118-0.26459 0.26458-0.26459z" paint-order="markers stroke fill"/><path d="m1.852 1.059c-0.43925 0-0.79384 0.3545-0.79375 0.79375v0.52917c9.3e-5 0.43925 0.3545 0.79375 0.79375 0.79375h2.6458c0.43925 0 0.79384-0.3545 0.79375-0.79375v-0.52917c-9.2e-5 -0.43925-0.3545-0.79375-0.79375-0.79375zm0 0.52917h2.6458c0.14676 0 0.26455 0.11782 0.26458 0.26458v0.52917c3.1e-5 0.14676-0.11782 0.26458-0.26458 0.26458h-2.6458c-0.14676 0-0.26455-0.11782-0.26458-0.26458v-0.52917c-3.2e-5 -0.14676 0.11782-0.26458 0.26458-0.26458z" paint-order="markers stroke fill"/><path d="m3.439 3.705v1.3229c0 0.14658-0.118 0.26458-0.26458 0.26458s-0.26458-0.118-0.26458-0.26458v-1.3229c0-0.14658 0.118-0.26458 0.26458-0.26458s0.26458 0.118 0.26458 0.26458z" paint-order="markers stroke fill"/><path d="m3.175 3.44h1.8521c0.14658 0 0.26458 0.118 0.26458 0.26458s-0.118 0.26458-0.26458 0.26458h-1.8521c-0.14658 0-0.26458-0.118-0.26458-0.26458s0.118-0.26458 0.26458-0.26458z" paint-order="markers stroke fill"/></g><path d="m10.053 1.059c-0.29352 0-0.52917 0.23564-0.52917 0.52917v0.79478c0 0.16743-0.12712 0.26355-0.26458 0.26355h-0.26458c-0.29352 0-0.52917 0.23564-0.52917 0.52917v0.26458h3.175v-0.26458c0-0.29352-0.23668-0.52917-0.52917-0.52917h-0.25838c-0.14056 0-0.27078-0.09508-0.27078-0.26458v-0.79375c0-0.29352-0.23668-0.52917-0.52917-0.52917zm0 0.37207c0.08578 0 0.1571 0.07028 0.1571 0.1571s-0.07131 0.1571-0.1571 0.1571c-0.08682 0-0.1571-0.07028-0.1571-0.1571s0.07028-0.1571 0.1571-0.1571z" stroke-width=".26458"/><path d="m8.466 3.705h3.175l-0.21187 1.324c-0.05271 0.21704-0.185 0.26355-0.3297 0.26355h-0.51676v-0.79375l-0.29766 0.79375h-0.48886l-0.0072-0.79375-0.27388 0.79375h-0.25528v-0.39688l-0.26458 0.39688h-0.79375l0.05581-0.27698z" stroke-width=".26458"/></svg>
