<?xml version="1.0" encoding="UTF-8"?>
<!-- Created with Inkscape (http://www.inkscape.org/) -->
<svg width="56" height="16" version="1.1" viewBox="0 0 14.817 4.2334" xmlns="http://www.w3.org/2000/svg">
 <g transform="translate(5.2917 4.7e-5)">
  <g transform="translate(-41.275 -85.725)" fill="#241f31">
   <path d="m47.891 85.99s-0.79374 0-0.79374 0.79379v1.3229s0.01141 0.3752 7e-3 0.5291c0 0.26459-0.14159 0.37419-0.37104 0.56129-0.1664 0.1291-0.20464 0.3462-0.0816 0.4495 0.11369 0.093 0.308 0.08 0.43924-0.091l0.26975-0.3907c0.18501-0.26869 0.26045-0.49609 0.26459-0.79369l9.55e-4 -1.5875c0-0.2646 0.26355-0.2646 0.26355-0.2646v1.7394l0.79477-0.8134v-0.66138c0-0.2646 0.26355-0.2646 0.26355-0.2646l9.55e-4 0.66139 0.52814-0.5384c0.0899-0.083 0.13332-0.123 0.26458-0.123l9.55e-4 0.26461-1.0594 1.0583h1.0583s9.54e-4 0.26459-0.26458 0.26459h-1.0583l-0.52916 0.52909c0 0.11271 0 0.5313 0.52916 0.5313h1.0594s0.79374 0 0.79271-0.79169v-2.3833z" stroke-width=".26458"/>
   <g transform="matrix(.26458 0 0 .26458 35.983 85.725)" stroke-width="207.87">
    <path d="m3 0c-1.6601 0-3.0004 1.3398-3 3v2c3.5e-4 1.6602 1.3399 3 3 3h10c1.6602 0 3.0004-1.3398 3-3v-2c-3.5e-4 -1.6602-1.3398-3-3-3zm0 2h10c0.55469 0 0.99988 0.44531 1 1v2c1.2e-4 0.55469-0.44531 1-1 1h-10c-0.55469 0-0.99988-0.44531-1-1v-2c-1.2e-4 -0.55469 0.44531-1 1-1z" paint-order="markers stroke fill"/>
    <path d="m9.0002 10v5c0 0.554-0.446 1-1 1s-1-0.446-1-1v-5c0-0.554 0.446-1 1-1s1 0.446 1 1z" paint-order="markers stroke fill"/>
    <path d="m8.0002 9.0002h7c0.554 0 1 0.446 1 1s-0.446 1-1 1h-7c-0.554 0-1-0.446-1-1s0.446-1 1-1z" paint-order="markers stroke fill"/>
   </g>
   <path d="m44.155 86.513c-0.21976-0.0101-0.43423 0.073-0.59662 0.22239l-0.17034 0.1527-0.17123-0.1527c-0.22506-0.20299-0.54279-0.26919-0.83051-0.17389-0.28861 0.095-0.50396 0.33629-0.56486 0.6337-0.06091 0.29749 0.0415 0.60458 0.26831 0.80588l1.2983 1.1562 1.2974-1.1562c0.26478-0.22859 0.36186-0.59669 0.24448-0.92589-0.11739-0.32919-0.42542-0.55249-0.77492-0.56219z" stroke-width=".22594"/>
  </g>
 </g>
</svg>
