<?xml version="1.0" encoding="UTF-8"?>
<svg width="16px" height="16px" version="1.1" viewBox="0 0 16 16" xmlns="http://www.w3.org/2000/svg">
 <path d="m7.9062 0.10547c-0.52734-0.027344-1.0391 0.28125-1.4375 0.96875l-6.25 11.594c-0.53516 0.96484 0.046875 2.3438 1.0938 2.3438h13.156c0.98047 0 1.9023-1.1602 1.2188-2.3438l-6.3125-11.531c-0.39844-0.64844-0.94141-1.0039-1.4688-1.0312zm0.0625 3.9375c0.54297-0.019531 1.0469 0.48828 1.0312 1.0312v3.9375c0.007812 0.52734-0.47266 1-1 1s-1.0078-0.47266-1-1v-3.9375c-0.007812-0.46875 0.35547-0.91406 0.8125-1 0.050781-0.015625 0.10156-0.023438 0.15625-0.03125zm0.03125 6.9688c0.55078 0 1 0.44922 1 1s-0.44922 1-1 1-1-0.44922-1-1 0.44922-1 1-1z" fill="#241f31"/>
</svg>
