<svg xmlns="http://www.w3.org/2000/svg" xmlns:xlink="http://www.w3.org/1999/xlink" xml:space="preserve" width="128" height="128" viewBox="0 0 33.867 33.867"><defs><pattern xlink:href="#a" id="c" patternTransform="rotate(-15.004 309.232 -454.043) scale(.13229)"/><pattern xlink:href="#b" id="a" patternTransform="rotate(-15.004 253.644 -32.013) scale(.13229)"/><pattern id="b" width="48" height="48" patternTransform="translate(-112 352)" patternUnits="userSpaceOnUse"><path fill-opacity="0" d="M-29.633 93.133h12.7v12.7h-12.7z" style="paint-order:stroke fill markers" transform="translate(112 -352) scale(3.7795)"/><path d="M10.995 27.99c-1.11 0-2 .892-2 2v3.005c0 .633-.48.996-1 .996h-1c-1.11 0-2 .89-2 2v1h12v-1c0-1.11-.894-2-2-2h-.976c-.532 0-1.024-.36-1.024-1v-3c0-1.11-.894-2-2-2zm0 1.407c.324 0 .594.266.594.594s-.27.594-.594.594a.593.593 0 1 1 0-1.188zM5 37.99h11.999l-.8 5.005c-.2.82-.7.996-1.247.996H13v-3l-1.125 3h-1.848l-.027-3-1.035 3H8v-1.5l-1 1.5H4l.211-1.047z"/><g stroke-width="207.87" paint-order="markers stroke fill"><path d="M31 27.99c-1.66 0-3 1.34-3 3v2c.001 1.661 1.34 3 3 3h10c1.66 0 3-1.339 3-3v-2c0-1.66-1.34-3-3-3zm0 2h10c.555 0 1 .446 1 1v2c0 .556-.445 1-1 1H31c-.554 0-1-.444-1-1v-2c0-.554.446-1 1-1zm6 8v5c0 .555-.445 1-1 1s-1-.445-1-1v-5a1 1 0 1 1 2 0z"/><path d="M36 36.991h7c.555 0 1 .446 1 1s-.445 1-1 1h-7c-.553 0-1-.446-1-1s.447-1 1-1z"/></g><g stroke-width="207.87" paint-order="markers stroke fill"><path d="M7 3.999c-1.66 0-3 1.34-3 3v2c.001 1.66 1.34 3 3 3h10c1.66 0 3-1.34 3-3v-2c0-1.66-1.34-3-3-3zm0 2h10c.555 0 1 .445 1 1v2c0 .554-.445 1-1 1H7c-.554 0-1-.446-1-1v-2c0-.555.446-1 1-1zm6 7.999v5c0 .554-.445 1-1 1s-1-.446-1-1v-5c0-.554.447-1 1-1s1 .446 1 1z"/><path d="M12 12.999h7c.555 0 1 .446 1 1s-.445 1-1 1h-7c-.553 0-1-.446-1-1s.447-1 1-1z"/></g><path d="M37.996 3.999c-1.11 0-2 .89-2 2v3.003c0 .633-.48.997-1 .997h-1c-1.11 0-2 .89-2 2v1h12v-1c0-1.11-.895-2-2-2h-.977c-.531 0-1.023-.36-1.023-1v-3c0-1.11-.895-2-2-2zm0 1.406c.324 0 .594.265.594.594s-.27.593-.594.593a.593.593 0 1 1 0-1.187zM32 13.998h12l-.801 5.004c-.2.82-.7.996-1.246.996H40v-3l-1.125 3h-1.848l-.027-3-1.035 3H35v-1.5l-1 1.5h-3l.21-1.047z"/></pattern></defs><rect width="33.867" height="33.867" x="111.13" y="47.625" fill="url(#c)" opacity=".06" rx="0" ry="0" style="paint-order:stroke fill markers" transform="translate(-111.13 -47.625)"/></svg>