<svg xmlns="http://www.w3.org/2000/svg" xml:space="preserve" width="48" height="48" viewBox="0 0 12.7 12.7"><path d="M2.909 7.407a.528.528 0 0 0-.53.53v.794a.256.256 0 0 1-.264.264h-.264a.528.528 0 0 0-.53.529v.264h3.175v-.264a.528.528 0 0 0-.529-.53H3.71c-.14 0-.27-.095-.27-.264v-.794a.528.528 0 0 0-.53-.529zm0 .372a.157.157 0 0 1 0 .314.157.157 0 1 1 0-.314zm-1.586 2.278h3.175l-.212 1.324c-.053.217-.185.264-.33.264H3.44v-.794l-.298.794h-.489l-.007-.794-.274.794h-.255v-.397l-.265.397h-.794l.056-.277z"/><g stroke-width="54.998" paint-order="markers stroke fill"><path d="M8.202 7.407a.793.793 0 0 0-.794.794v.529c0 .44.355.794.794.794h2.646a.793.793 0 0 0 .794-.794V8.2a.793.793 0 0 0-.794-.793zm0 .53h2.646c.147 0 .264.117.264.264v.529a.264.264 0 0 1-.264.264H8.202a.264.264 0 0 1-.265-.264V8.2c0-.146.118-.264.265-.264zm1.587 2.12v1.323a.264.264 0 1 1-.53 0v-1.323a.264.264 0 1 1 .53 0z"/><path d="M9.525 9.787h1.852a.264.264 0 1 1 0 .53H9.525a.264.264 0 1 1 0-.53zM1.852 1.059a.793.793 0 0 0-.794.794v.529c0 .44.355.794.794.794h2.646a.793.793 0 0 0 .794-.794v-.53a.793.793 0 0 0-.794-.793zm0 .53h2.646c.147 0 .264.117.264.264v.529a.264.264 0 0 1-.264.264H1.852a.264.264 0 0 1-.265-.264v-.53c0-.146.118-.264.265-.264zm1.587 2.116v1.323a.264.264 0 1 1-.53 0V3.705a.264.264 0 1 1 .53 0z"/><path d="M3.175 3.44h1.852a.264.264 0 1 1 0 .53H3.175a.264.264 0 1 1 0-.53z"/></g><path d="M10.053 1.059a.528.528 0 0 0-.53.53v.794a.256.256 0 0 1-.264.264h-.264a.528.528 0 0 0-.53.529v.264h3.175v-.264a.528.528 0 0 0-.529-.53h-.258c-.14 0-.27-.095-.27-.264v-.794a.528.528 0 0 0-.53-.529zm0 .372a.157.157 0 0 1 0 .314.157.157 0 1 1 0-.314zM8.466 3.705h3.175l-.212 1.324c-.053.217-.185.264-.33.264h-.516v-.794l-.298.794h-.489l-.007-.794-.274.794H9.26v-.397l-.265.397h-.794l.056-.277z"/></svg>